<svg id="svg" version="1.1" xmlns="http://www.w3.org/2000/svg" xmlns:xlink="http://www.w3.org/1999/xlink" width="400" height="400" viewBox="0, 0, 400,400"><g id="svgg"><path id="path0" d="M77.417 12.524 C 74.858 14.081,74.800 14.395,74.800 26.795 C 74.800 37.733,74.781 38.000,74.000 38.000 C 73.560 38.000,73.200 38.180,73.200 38.400 C 73.200 38.620,72.840 38.800,72.400 38.800 C 71.960 38.800,71.600 38.950,71.600 39.132 C 71.600 39.315,71.106 39.720,70.502 40.032 C 69.897 40.345,69.042 40.919,68.602 41.309 C 66.034 43.578,65.344 44.309,64.832 45.300 C 64.520 45.905,64.115 46.400,63.932 46.400 C 63.750 46.400,63.600 46.749,63.600 47.176 C 63.600 47.603,63.420 48.064,63.200 48.200 C 62.980 48.336,62.800 48.887,62.800 49.424 C 62.800 49.961,62.620 50.400,62.400 50.400 C 62.152 50.400,62.000 52.600,62.000 56.200 C 62.000 59.800,62.152 62.000,62.400 62.000 C 62.620 62.000,62.800 62.439,62.800 62.976 C 62.800 63.513,62.980 64.064,63.200 64.200 C 63.420 64.336,63.600 64.797,63.600 65.224 C 63.600 65.651,63.750 66.000,63.932 66.000 C 64.115 66.000,64.520 66.492,64.832 67.094 C 66.087 69.511,70.106 72.910,73.300 74.255 L 74.800 74.887 74.800 93.043 C 74.800 104.881,74.661 111.200,74.400 111.200 C 74.180 111.200,74.000 111.920,74.000 112.800 C 74.000 113.680,73.820 114.400,73.600 114.400 C 73.380 114.400,73.200 115.120,73.200 116.000 C 73.200 116.880,73.020 117.600,72.800 117.600 C 72.580 117.600,72.400 118.320,72.400 119.200 C 72.400 120.080,72.220 120.800,72.000 120.800 C 71.780 120.800,71.600 121.520,71.600 122.400 C 71.600 123.280,71.420 124.000,71.200 124.000 C 70.980 124.000,70.800 124.630,70.800 125.400 C 70.800 126.170,70.620 126.800,70.400 126.800 C 70.180 126.800,70.000 127.419,70.000 128.176 C 70.000 128.933,69.820 129.664,69.600 129.800 C 69.380 129.936,69.200 130.566,69.200 131.200 C 69.200 131.834,69.020 132.464,68.800 132.600 C 68.580 132.736,68.400 133.467,68.400 134.224 C 68.400 134.981,68.220 135.600,68.000 135.600 C 67.780 135.600,67.600 136.129,67.600 136.776 C 67.600 137.423,67.420 138.064,67.200 138.200 C 66.980 138.336,66.800 139.067,66.800 139.824 C 66.800 140.581,66.620 141.200,66.400 141.200 C 66.180 141.200,66.000 141.729,66.000 142.376 C 66.000 143.023,65.820 143.664,65.600 143.800 C 65.380 143.936,65.200 144.577,65.200 145.224 C 65.200 145.871,65.020 146.400,64.800 146.400 C 64.580 146.400,64.400 146.940,64.400 147.600 C 64.400 148.260,64.220 148.800,64.000 148.800 C 63.780 148.800,63.600 149.252,63.600 149.805 C 63.600 150.358,63.442 151.123,63.249 151.505 C 62.660 152.672,62.000 155.008,62.000 155.928 C 62.000 156.408,61.820 156.800,61.600 156.800 C 61.380 156.800,61.200 157.340,61.200 158.000 C 61.200 158.660,61.020 159.200,60.800 159.200 C 60.580 159.200,60.400 159.562,60.400 160.005 C 60.400 160.448,60.237 161.123,60.037 161.505 C 59.440 162.647,58.400 166.422,58.400 167.446 C 58.400 167.971,58.220 168.400,58.000 168.400 C 57.780 168.400,57.600 168.940,57.600 169.600 C 57.600 170.260,57.420 170.800,57.200 170.800 C 56.980 170.800,56.800 171.160,56.800 171.600 C 56.800 172.040,56.620 172.400,56.400 172.400 C 56.180 172.400,56.000 172.940,56.000 173.600 C 56.000 174.260,55.820 174.800,55.600 174.800 C 55.380 174.800,55.200 175.250,55.200 175.800 C 55.200 176.350,55.020 176.800,54.800 176.800 C 54.580 176.800,54.400 177.239,54.400 177.776 C 54.400 178.313,54.220 178.864,54.000 179.000 C 53.780 179.136,53.600 179.597,53.600 180.024 C 53.600 180.451,53.420 180.800,53.200 180.800 C 52.980 180.800,52.800 181.340,52.800 182.000 C 52.800 182.660,52.620 183.200,52.400 183.200 C 52.180 183.200,52.000 183.560,52.000 184.000 C 52.000 184.440,51.820 184.800,51.600 184.800 C 51.380 184.800,51.200 185.340,51.200 186.000 C 51.200 186.660,51.020 187.200,50.800 187.200 C 50.580 187.200,50.400 187.560,50.400 188.000 C 50.400 188.440,50.220 188.800,50.000 188.800 C 49.780 188.800,49.600 189.088,49.600 189.439 C 49.600 189.969,47.345 195.095,45.968 197.695 C 45.766 198.077,45.600 198.662,45.600 198.995 C 45.600 199.328,45.420 199.600,45.200 199.600 C 44.980 199.600,44.800 199.960,44.800 200.400 C 44.800 200.840,44.620 201.200,44.400 201.200 C 44.180 201.200,44.000 201.560,44.000 202.000 C 44.000 202.440,43.820 202.800,43.600 202.800 C 43.380 202.800,43.200 203.160,43.200 203.600 C 43.200 204.040,43.020 204.400,42.800 204.400 C 42.580 204.400,42.400 204.697,42.400 205.060 C 42.400 205.837,40.372 210.139,39.915 210.333 C 39.742 210.407,39.600 210.812,39.600 211.233 C 39.600 211.655,39.420 212.000,39.200 212.000 C 38.980 212.000,38.800 212.360,38.800 212.800 C 38.800 213.240,38.620 213.600,38.400 213.600 C 38.180 213.600,38.000 213.960,38.000 214.400 C 38.000 214.840,37.820 215.200,37.600 215.200 C 37.380 215.200,37.200 215.560,37.200 216.000 C 37.200 216.440,37.020 216.800,36.800 216.800 C 36.580 216.800,36.400 217.160,36.400 217.600 C 36.400 218.040,36.220 218.400,36.000 218.400 C 35.780 218.400,35.600 218.760,35.600 219.200 C 35.600 219.640,35.420 220.000,35.200 220.000 C 34.980 220.000,34.800 220.360,34.800 220.800 C 34.800 221.240,34.620 221.600,34.400 221.600 C 34.180 221.600,34.000 221.960,34.000 222.400 C 34.000 222.840,33.820 223.200,33.600 223.200 C 33.380 223.200,33.200 223.545,33.200 223.967 C 33.200 224.388,33.063 224.793,32.896 224.867 C 32.729 224.940,31.811 226.620,30.855 228.600 C 29.900 230.580,28.957 232.513,28.759 232.895 C 28.562 233.277,28.400 233.862,28.400 234.195 C 28.400 234.528,28.220 234.800,28.000 234.800 C 27.780 234.800,27.600 235.160,27.600 235.600 C 27.600 236.040,27.420 236.400,27.200 236.400 C 26.980 236.400,26.800 236.636,26.800 236.925 C 26.800 237.214,26.435 238.205,25.990 239.127 C 25.544 240.050,25.071 241.344,24.940 242.002 C 24.808 242.661,24.543 243.200,24.350 243.200 C 24.157 243.200,24.000 243.560,24.000 244.000 C 24.000 244.440,23.820 244.800,23.600 244.800 C 23.380 244.800,23.200 245.340,23.200 246.000 C 23.200 246.660,23.020 247.200,22.800 247.200 C 22.580 247.200,22.400 247.650,22.400 248.200 C 22.400 248.750,22.220 249.200,22.000 249.200 C 21.780 249.200,21.600 249.650,21.600 250.200 C 21.600 250.750,21.420 251.200,21.200 251.200 C 20.980 251.200,20.800 251.740,20.800 252.400 C 20.800 253.060,20.620 253.600,20.400 253.600 C 20.180 253.600,20.000 254.320,20.000 255.200 C 20.000 256.080,19.820 256.800,19.600 256.800 C 19.380 256.800,19.200 257.520,19.200 258.400 C 19.200 259.280,19.020 260.000,18.800 260.000 C 18.246 260.000,18.246 374.258,18.800 374.600 C 19.020 374.736,19.200 375.287,19.200 375.824 C 19.200 376.361,19.380 376.800,19.600 376.800 C 19.820 376.800,20.000 377.160,20.000 377.600 C 20.000 378.040,20.180 378.400,20.400 378.400 C 20.620 378.400,20.800 378.682,20.800 379.027 C 20.800 380.666,28.807 387.200,30.814 387.200 C 31.220 387.200,31.664 387.380,31.800 387.600 C 32.143 388.155,367.857 388.155,368.200 387.600 C 368.336 387.380,368.780 387.200,369.186 387.200 C 371.249 387.200,379.200 380.689,379.200 379.000 C 379.200 378.670,379.380 378.400,379.600 378.400 C 379.820 378.400,380.000 378.040,380.000 377.600 C 380.000 377.160,380.180 376.800,380.400 376.800 C 380.620 376.800,380.800 376.361,380.800 375.824 C 380.800 375.287,380.980 374.736,381.200 374.600 C 381.464 374.437,381.600 353.337,381.600 312.600 C 381.600 271.863,381.464 250.763,381.200 250.600 C 380.980 250.464,380.800 248.833,380.800 246.976 C 380.800 244.992,380.635 243.600,380.400 243.600 C 380.178 243.600,380.000 242.541,380.000 241.224 C 380.000 239.917,379.820 238.736,379.600 238.600 C 379.380 238.464,379.200 237.373,379.200 236.176 C 379.200 234.979,379.020 234.000,378.800 234.000 C 378.580 234.000,378.400 233.100,378.400 232.000 C 378.400 230.900,378.220 230.000,378.000 230.000 C 377.780 230.000,377.600 229.291,377.600 228.424 C 377.600 227.557,377.420 226.736,377.200 226.600 C 376.980 226.464,376.800 225.643,376.800 224.776 C 376.800 223.909,376.620 223.200,376.400 223.200 C 376.180 223.200,376.000 222.660,376.000 222.000 C 376.000 221.340,375.820 220.800,375.600 220.800 C 375.380 220.800,375.200 220.174,375.200 219.408 C 375.200 217.704,373.365 211.880,371.953 209.105 C 371.759 208.723,371.600 208.048,371.600 207.605 C 371.600 207.162,371.420 206.800,371.200 206.800 C 370.980 206.800,370.800 206.440,370.800 206.000 C 370.800 205.560,370.620 205.200,370.400 205.200 C 370.180 205.200,370.000 204.761,370.000 204.224 C 370.000 203.687,369.820 203.136,369.600 203.000 C 369.380 202.864,369.200 202.403,369.200 201.976 C 369.200 201.549,369.020 201.200,368.800 201.200 C 368.580 201.200,368.400 200.840,368.400 200.400 C 368.400 199.960,368.220 199.600,368.000 199.600 C 367.780 199.600,367.600 199.240,367.600 198.800 C 367.600 198.360,367.420 198.000,367.200 198.000 C 366.980 198.000,366.800 197.640,366.800 197.200 C 366.800 196.760,366.620 196.400,366.400 196.400 C 366.180 196.400,366.000 196.164,366.000 195.875 C 366.000 195.587,365.685 195.002,365.300 194.575 C 364.915 194.149,364.331 193.260,364.003 192.600 C 363.674 191.940,363.089 191.109,362.703 190.753 C 362.316 190.397,362.000 189.812,362.000 189.453 C 362.000 189.094,361.820 188.800,361.600 188.800 C 361.380 188.800,361.200 188.440,361.200 188.000 C 361.200 187.560,361.020 187.200,360.800 187.200 C 360.580 187.200,360.400 186.840,360.400 186.400 C 360.400 185.960,360.220 185.600,360.000 185.600 C 359.780 185.600,359.600 185.240,359.600 184.800 C 359.600 184.360,359.465 184.000,359.300 183.999 C 359.135 183.999,358.474 182.919,357.830 181.599 C 357.187 180.280,356.556 179.200,356.428 179.200 C 356.300 179.200,355.936 178.615,355.620 177.900 C 355.303 177.185,354.720 176.251,354.322 175.825 C 353.925 175.398,353.600 174.813,353.600 174.525 C 353.600 174.236,353.420 174.000,353.200 174.000 C 352.980 174.000,352.800 173.680,352.800 173.288 C 352.800 172.897,352.440 172.317,352.000 172.000 C 351.560 171.683,351.200 171.103,351.200 170.712 C 351.200 170.320,351.020 170.000,350.800 170.000 C 350.580 170.000,350.400 169.764,350.400 169.475 C 350.400 169.187,350.040 168.564,349.600 168.092 C 349.160 167.620,348.800 167.038,348.800 166.800 C 348.800 166.562,348.440 165.980,348.000 165.508 C 347.560 165.036,347.200 164.413,347.200 164.125 C 347.200 163.836,347.020 163.600,346.800 163.600 C 346.580 163.600,346.400 163.240,346.400 162.800 C 346.400 162.360,346.220 162.000,346.000 162.000 C 345.780 162.000,345.600 161.730,345.600 161.400 C 345.600 161.070,345.420 160.800,345.200 160.800 C 344.980 160.800,344.800 160.530,344.800 160.200 C 344.800 159.870,344.620 159.600,344.400 159.600 C 344.180 159.600,344.000 159.330,344.000 159.000 C 344.000 158.670,343.820 158.400,343.600 158.400 C 343.380 158.400,343.200 158.040,343.200 157.600 C 343.200 157.160,343.020 156.800,342.800 156.800 C 342.580 156.800,342.400 156.517,342.400 156.171 C 342.400 155.826,342.130 155.273,341.800 154.943 C 341.470 154.613,341.200 153.996,341.200 153.571 C 341.200 153.147,341.020 152.800,340.800 152.800 C 340.580 152.800,340.400 152.440,340.400 152.000 C 340.400 151.560,340.220 151.200,340.000 151.200 C 339.780 151.200,339.600 150.840,339.600 150.400 C 339.600 149.960,339.420 149.600,339.200 149.600 C 338.980 149.600,338.800 149.240,338.800 148.800 C 338.800 148.360,338.620 148.000,338.400 148.000 C 338.180 148.000,338.000 147.640,338.000 147.200 C 338.000 146.760,337.820 146.400,337.600 146.400 C 337.380 146.400,337.200 146.051,337.200 145.624 C 337.200 145.197,337.020 144.736,336.800 144.600 C 336.580 144.464,336.400 144.003,336.400 143.576 C 336.400 143.149,336.220 142.800,336.000 142.800 C 335.780 142.800,335.600 142.440,335.600 142.000 C 335.600 141.560,335.420 141.200,335.200 141.200 C 334.980 141.200,334.800 140.761,334.800 140.224 C 334.800 139.687,334.620 139.136,334.400 139.000 C 334.180 138.864,334.000 138.403,334.000 137.976 C 334.000 137.549,333.820 137.200,333.600 137.200 C 333.380 137.200,333.200 136.660,333.200 136.000 C 333.200 135.340,333.020 134.800,332.800 134.800 C 332.580 134.800,332.400 134.260,332.400 133.600 C 332.400 132.940,332.220 132.400,332.000 132.400 C 331.780 132.400,331.600 131.860,331.600 131.200 C 331.600 130.540,331.420 130.000,331.200 130.000 C 330.980 130.000,330.800 129.460,330.800 128.800 C 330.800 128.140,330.620 127.600,330.400 127.600 C 330.180 127.600,330.000 126.970,330.000 126.200 C 330.000 125.430,329.820 124.800,329.600 124.800 C 329.380 124.800,329.200 124.080,329.200 123.200 C 329.200 122.320,329.020 121.600,328.800 121.600 C 328.580 121.600,328.400 120.801,328.400 119.824 C 328.400 118.847,328.220 117.936,328.000 117.800 C 327.780 117.664,327.600 116.663,327.600 115.576 C 327.600 114.489,327.420 113.600,327.200 113.600 C 326.969 113.600,326.800 112.333,326.800 110.600 C 326.800 108.867,326.631 107.600,326.400 107.600 C 326.149 107.600,326.000 105.011,326.000 100.633 C 326.000 95.434,325.873 93.615,325.500 93.465 C 325.225 93.354,325.405 93.249,325.900 93.232 C 326.395 93.214,326.800 93.020,326.800 92.800 C 326.800 92.580,327.160 92.400,327.600 92.400 C 328.040 92.400,328.400 92.240,328.400 92.043 C 328.400 91.847,328.822 91.581,329.338 91.451 C 330.461 91.169,334.368 87.449,335.168 85.900 C 335.480 85.295,335.885 84.800,336.068 84.800 C 336.250 84.800,336.400 84.451,336.400 84.024 C 336.400 83.597,336.580 83.136,336.800 83.000 C 337.020 82.864,337.200 82.313,337.200 81.776 C 337.200 81.239,337.380 80.800,337.600 80.800 C 337.848 80.800,338.000 78.600,338.000 75.000 C 338.000 71.400,337.848 69.200,337.600 69.200 C 337.380 69.200,337.200 68.761,337.200 68.224 C 337.200 67.687,337.020 67.136,336.800 67.000 C 336.580 66.864,336.400 66.403,336.400 65.976 C 336.400 65.549,336.250 65.200,336.068 65.200 C 335.885 65.200,335.480 64.705,335.168 64.100 C 334.368 62.551,330.461 58.831,329.338 58.549 C 328.822 58.419,328.400 58.153,328.400 57.957 C 328.400 57.760,328.040 57.600,327.600 57.600 C 327.160 57.600,326.800 57.420,326.800 57.200 C 326.800 56.980,326.440 56.800,326.000 56.800 C 325.219 56.800,325.200 56.533,325.200 45.574 C 325.200 37.834,325.056 34.079,324.737 33.482 C 324.135 32.358,323.367 31.600,322.829 31.600 C 322.593 31.600,322.400 31.420,322.400 31.200 C 322.400 30.938,314.667 30.800,300.000 30.800 C 285.333 30.800,277.600 30.938,277.600 31.200 C 277.600 31.420,277.407 31.600,277.171 31.600 C 276.633 31.600,275.865 32.358,275.263 33.482 C 274.944 34.079,274.800 37.834,274.800 45.574 C 274.800 56.533,274.781 56.800,274.000 56.800 C 273.560 56.800,273.200 56.980,273.200 57.200 C 273.200 57.420,272.840 57.600,272.400 57.600 C 271.960 57.600,271.600 57.760,271.600 57.957 C 271.600 58.153,271.178 58.419,270.662 58.549 C 269.539 58.831,265.632 62.551,264.832 64.100 C 264.520 64.705,264.115 65.200,263.932 65.200 C 263.750 65.200,263.600 65.549,263.600 65.976 C 263.600 66.403,263.420 66.864,263.200 67.000 C 262.980 67.136,262.800 67.687,262.800 68.224 C 262.800 68.761,262.620 69.200,262.400 69.200 C 262.152 69.200,262.000 71.400,262.000 75.000 C 262.000 78.600,262.152 80.800,262.400 80.800 C 262.620 80.800,262.800 81.239,262.800 81.776 C 262.800 82.313,262.980 82.864,263.200 83.000 C 263.420 83.136,263.600 83.597,263.600 84.024 C 263.600 84.451,263.750 84.800,263.932 84.800 C 264.115 84.800,264.520 85.295,264.832 85.900 C 265.647 87.479,269.152 90.825,270.475 91.286 C 271.094 91.502,271.600 91.841,271.600 92.039 C 271.600 92.238,271.960 92.400,272.400 92.400 C 272.840 92.400,273.200 92.580,273.200 92.800 C 273.200 93.020,273.605 93.214,274.100 93.232 C 274.595 93.249,274.775 93.354,274.500 93.465 C 274.127 93.615,274.000 95.434,274.000 100.633 C 274.000 105.011,273.851 107.600,273.600 107.600 C 273.369 107.600,273.200 108.867,273.200 110.600 C 273.200 112.333,273.031 113.600,272.800 113.600 C 272.580 113.600,272.400 114.500,272.400 115.600 C 272.400 116.700,272.220 117.600,272.000 117.600 C 271.780 117.600,271.600 118.500,271.600 119.600 C 271.600 120.700,271.420 121.600,271.200 121.600 C 270.980 121.600,270.800 122.320,270.800 123.200 C 270.800 124.080,270.620 124.800,270.400 124.800 C 270.180 124.800,270.000 125.430,270.000 126.200 C 270.000 126.970,269.820 127.600,269.600 127.600 C 269.380 127.600,269.200 128.140,269.200 128.800 C 269.200 129.460,269.020 130.000,268.800 130.000 C 268.580 130.000,268.400 130.540,268.400 131.200 C 268.400 131.860,268.220 132.400,268.000 132.400 C 267.780 132.400,267.600 132.940,267.600 133.600 C 267.600 134.260,267.420 134.800,267.200 134.800 C 266.980 134.800,266.800 135.340,266.800 136.000 C 266.800 136.660,266.620 137.200,266.400 137.200 C 266.180 137.200,266.000 137.560,266.000 138.000 C 266.000 138.440,265.820 138.800,265.600 138.800 C 265.380 138.800,265.200 139.340,265.200 140.000 C 265.200 140.660,265.020 141.200,264.800 141.200 C 264.580 141.200,264.400 141.560,264.400 142.000 C 264.400 142.440,264.220 142.800,264.000 142.800 C 263.780 142.800,263.600 143.149,263.600 143.576 C 263.600 144.003,263.420 144.464,263.200 144.600 C 262.980 144.736,262.800 145.197,262.800 145.624 C 262.800 146.051,262.620 146.400,262.400 146.400 C 262.180 146.400,262.000 146.760,262.000 147.200 C 262.000 147.640,261.820 148.000,261.600 148.000 C 261.380 148.000,261.200 148.360,261.200 148.800 C 261.200 149.240,261.020 149.600,260.800 149.600 C 260.580 149.600,260.400 149.960,260.400 150.400 C 260.400 150.840,260.220 151.200,260.000 151.200 C 259.780 151.200,259.600 151.483,259.600 151.829 C 259.600 152.174,259.330 152.727,259.000 153.057 C 258.670 153.387,258.400 154.004,258.400 154.429 C 258.400 154.853,258.220 155.200,258.000 155.200 C 257.780 155.200,257.600 155.560,257.600 156.000 C 257.600 156.440,257.420 156.800,257.200 156.800 C 256.980 156.800,256.800 157.160,256.800 157.600 C 256.800 158.040,256.620 158.400,256.400 158.400 C 256.180 158.400,256.000 158.670,256.000 159.000 C 256.000 159.330,255.820 159.600,255.600 159.600 C 255.380 159.600,255.200 159.870,255.200 160.200 C 255.200 160.530,255.020 160.800,254.800 160.800 C 254.580 160.800,254.400 161.070,254.400 161.400 C 254.400 161.730,254.220 162.000,254.000 162.000 C 253.780 162.000,253.600 161.810,253.600 161.578 C 253.600 161.346,253.061 160.581,252.402 159.878 C 251.743 159.175,251.203 158.463,251.202 158.296 C 251.200 157.960,241.331 148.000,241.000 148.000 C 240.886 148.000,240.228 147.460,239.537 146.800 C 238.846 146.140,238.053 145.600,237.774 145.600 C 237.495 145.600,237.207 145.455,237.133 145.277 C 236.933 144.790,233.528 142.550,232.500 142.228 C 232.005 142.073,231.600 141.778,231.600 141.573 C 231.600 141.368,231.240 141.200,230.800 141.200 C 230.360 141.200,230.000 141.020,230.000 140.800 C 230.000 140.580,229.640 140.400,229.200 140.400 C 228.760 140.400,228.400 140.220,228.400 140.000 C 228.400 139.780,228.040 139.600,227.600 139.600 C 227.160 139.600,226.800 139.420,226.800 139.200 C 226.800 138.980,226.440 138.800,226.000 138.800 C 225.208 138.800,225.200 138.533,225.200 113.400 L 225.200 88.000 226.400 88.000 C 227.060 88.000,227.600 87.820,227.600 87.600 C 227.600 87.380,227.891 87.200,228.246 87.200 C 228.601 87.200,229.501 86.535,230.246 85.722 L 231.600 84.244 231.600 62.108 L 231.600 39.973 230.213 38.587 C 229.451 37.824,228.551 37.200,228.213 37.200 C 227.876 37.200,227.600 37.020,227.600 36.800 C 227.600 36.537,218.133 36.400,200.000 36.400 C 181.867 36.400,172.400 36.537,172.400 36.800 C 172.400 37.020,172.124 37.200,171.787 37.200 C 171.449 37.200,170.549 37.824,169.787 38.587 L 168.400 39.973 168.400 62.108 L 168.400 84.244 169.754 85.722 C 170.499 86.535,171.399 87.200,171.754 87.200 C 172.109 87.200,172.400 87.380,172.400 87.600 C 172.400 87.820,172.940 88.000,173.600 88.000 L 174.800 88.000 174.800 113.400 C 174.800 138.533,174.792 138.800,174.000 138.800 C 173.560 138.800,173.200 138.980,173.200 139.200 C 173.200 139.420,172.840 139.600,172.400 139.600 C 171.960 139.600,171.600 139.780,171.600 140.000 C 171.600 140.220,171.240 140.400,170.800 140.400 C 170.360 140.400,170.000 140.580,170.000 140.800 C 170.000 141.020,169.640 141.200,169.200 141.200 C 168.760 141.200,168.400 141.362,168.400 141.561 C 168.400 141.759,167.905 142.111,167.300 142.342 C 166.193 142.764,163.972 144.011,163.600 144.419 C 163.490 144.540,162.770 145.077,162.000 145.614 C 159.698 147.217,159.292 147.586,153.839 153.031 C 148.667 158.195,146.421 160.699,146.407 161.317 C 146.403 161.491,146.040 162.020,145.600 162.492 C 145.160 162.964,144.800 163.587,144.800 163.875 C 144.800 164.164,144.620 164.400,144.400 164.400 C 144.180 164.400,144.000 164.760,144.000 165.200 C 144.000 165.640,143.842 166.000,143.649 166.000 C 143.455 166.000,143.073 166.540,142.800 167.200 C 142.080 168.939,141.728 168.687,141.418 166.206 C 141.267 165.000,140.977 163.909,140.772 163.783 C 140.567 163.656,140.400 163.124,140.400 162.600 C 140.400 162.076,140.220 161.536,140.000 161.400 C 139.780 161.264,139.600 160.713,139.600 160.176 C 139.600 159.639,139.420 159.200,139.200 159.200 C 138.980 159.200,138.800 158.660,138.800 158.000 C 138.800 157.340,138.620 156.800,138.400 156.800 C 138.180 156.800,138.000 156.271,138.000 155.624 C 138.000 154.977,137.820 154.336,137.600 154.200 C 137.380 154.064,137.200 153.434,137.200 152.800 C 137.200 152.166,137.020 151.536,136.800 151.400 C 136.580 151.264,136.400 150.623,136.400 149.976 C 136.400 149.329,136.220 148.800,136.000 148.800 C 135.780 148.800,135.600 148.260,135.600 147.600 C 135.600 146.940,135.420 146.400,135.200 146.400 C 134.980 146.400,134.800 145.770,134.800 145.000 C 134.800 144.230,134.620 143.600,134.400 143.600 C 134.180 143.600,134.000 143.060,134.000 142.400 C 134.000 141.740,133.820 141.200,133.600 141.200 C 133.380 141.200,133.200 140.581,133.200 139.824 C 133.200 139.067,133.020 138.336,132.800 138.200 C 132.580 138.064,132.400 137.423,132.400 136.776 C 132.400 136.129,132.220 135.600,132.000 135.600 C 131.780 135.600,131.600 134.880,131.600 134.000 C 131.600 133.120,131.420 132.400,131.200 132.400 C 130.980 132.400,130.800 131.871,130.800 131.224 C 130.800 130.577,130.620 129.936,130.400 129.800 C 130.180 129.664,130.000 128.933,130.000 128.176 C 130.000 127.419,129.820 126.800,129.600 126.800 C 129.380 126.800,129.200 126.170,129.200 125.400 C 129.200 124.630,129.020 124.000,128.800 124.000 C 128.580 124.000,128.400 123.280,128.400 122.400 C 128.400 121.520,128.220 120.800,128.000 120.800 C 127.780 120.800,127.600 120.080,127.600 119.200 C 127.600 118.320,127.420 117.600,127.200 117.600 C 126.980 117.600,126.800 116.880,126.800 116.000 C 126.800 115.120,126.620 114.400,126.400 114.400 C 126.180 114.400,126.000 113.680,126.000 112.800 C 126.000 111.920,125.820 111.200,125.600 111.200 C 125.339 111.200,125.200 104.890,125.200 93.071 L 125.200 74.943 127.200 74.039 C 128.300 73.542,129.200 72.969,129.200 72.767 C 129.200 72.565,129.474 72.400,129.809 72.400 C 130.551 72.400,134.383 68.606,135.168 67.094 C 135.480 66.492,135.885 66.000,136.068 66.000 C 136.250 66.000,136.400 65.651,136.400 65.224 C 136.400 64.797,136.580 64.336,136.800 64.200 C 137.020 64.064,137.200 63.513,137.200 62.976 C 137.200 62.439,137.380 62.000,137.600 62.000 C 137.848 62.000,138.000 59.800,138.000 56.200 C 138.000 52.600,137.848 50.400,137.600 50.400 C 137.380 50.400,137.200 50.045,137.200 49.612 C 137.200 49.179,136.857 48.214,136.438 47.467 C 134.425 43.884,134.818 44.354,131.022 40.996 C 130.154 40.228,129.209 39.600,128.922 39.600 C 128.635 39.600,128.400 39.420,128.400 39.200 C 128.400 38.980,128.040 38.800,127.600 38.800 C 127.160 38.800,126.800 38.620,126.800 38.400 C 126.800 38.180,126.440 38.000,126.000 38.000 C 125.219 38.000,125.200 37.733,125.200 26.819 C 125.200 14.674,125.142 14.311,122.986 12.900 L 121.611 12.000 99.906 12.024 C 83.854 12.041,77.996 12.171,77.417 12.524 M112.400 33.780 C 112.400 46.965,113.641 50.000,119.032 50.000 C 127.029 50.000,127.041 60.921,119.046 62.560 C 112.602 63.882,112.627 63.801,112.479 83.700 L 112.359 100.000 99.979 100.000 L 87.600 100.000 87.600 84.260 C 87.600 64.091,87.476 63.705,80.613 62.436 C 73.003 61.029,73.262 50.000,80.905 50.000 C 86.377 50.000,87.371 47.762,87.525 35.100 L 87.649 24.800 100.025 24.800 L 112.400 24.800 112.400 33.780 M312.400 52.580 C 312.400 65.870,313.642 68.800,319.275 68.800 C 325.996 68.800,327.065 79.734,320.469 81.006 C 312.518 82.540,311.982 83.796,312.778 99.000 C 313.507 112.913,314.591 119.824,317.984 132.200 C 320.266 140.522,326.282 154.558,331.357 163.400 C 333.578 167.268,333.566 166.897,331.500 167.899 C 318.108 174.397,301.193 176.523,286.600 173.543 C 276.713 171.524,267.200 168.138,267.200 166.639 C 267.200 166.384,268.457 163.841,269.994 160.988 C 273.288 154.873,276.789 147.238,278.793 141.800 C 279.280 140.480,279.829 139.040,280.013 138.600 C 280.197 138.160,280.538 137.170,280.770 136.400 C 281.003 135.630,281.446 134.190,281.754 133.200 C 282.252 131.601,283.787 125.444,284.795 121.000 C 286.885 111.786,288.347 89.986,287.144 85.971 C 286.297 83.143,284.486 81.962,279.531 81.006 C 272.822 79.712,274.016 68.847,280.874 68.789 C 286.330 68.742,287.370 66.382,287.519 53.700 L 287.638 43.600 300.019 43.600 L 312.400 43.600 312.400 52.580 M218.800 62.150 L 218.800 74.700 217.566 74.947 C 213.152 75.830,212.626 77.354,212.470 89.700 L 212.340 100.000 199.970 100.000 L 187.600 100.000 187.600 90.346 C 187.600 77.975,186.886 75.778,182.609 74.975 L 181.200 74.711 181.200 62.422 C 181.200 55.663,181.320 50.013,181.467 49.867 C 181.613 49.720,190.073 49.600,200.267 49.600 L 218.800 49.600 218.800 62.150 M113.578 116.300 C 114.073 118.445,114.722 121.177,115.020 122.370 C 115.770 125.381,116.730 125.200,100.000 125.200 C 84.188 125.200,84.186 125.200,84.772 123.346 C 84.971 122.716,85.535 120.400,86.025 118.200 C 86.516 116.000,87.066 113.795,87.249 113.300 L 87.580 112.400 100.128 112.400 L 112.676 112.400 113.578 116.300 M212.600 118.800 L 212.600 125.000 200.000 125.000 L 187.400 125.000 187.289 119.218 C 187.227 116.039,187.268 113.201,187.378 112.913 C 187.539 112.493,190.068 112.410,200.090 112.494 L 212.600 112.600 212.600 118.800 M119.569 140.300 C 120.030 141.785,120.606 143.720,120.850 144.600 C 121.093 145.480,121.431 146.650,121.600 147.200 C 121.769 147.750,122.108 148.920,122.353 149.800 C 124.327 156.893,132.140 180.268,133.985 184.600 C 134.172 185.040,134.627 186.210,134.996 187.200 C 135.625 188.891,136.403 190.755,137.248 192.600 C 137.464 193.071,137.571 207.629,137.507 228.000 L 137.400 262.600 84.888 262.701 C 26.154 262.815,31.418 263.099,32.399 259.870 C 33.627 255.831,34.465 253.350,34.819 252.705 C 35.029 252.323,35.200 251.834,35.200 251.617 C 35.200 251.401,35.627 250.273,36.149 249.112 C 36.671 247.950,37.778 245.470,38.608 243.600 C 40.291 239.811,45.114 229.846,52.258 215.400 C 57.072 205.666,59.433 200.696,60.620 197.800 C 61.387 195.931,62.057 194.361,62.940 192.365 C 63.290 191.576,64.400 188.786,65.408 186.165 C 66.415 183.544,67.567 180.579,67.966 179.576 C 68.366 178.572,70.619 171.822,72.974 164.576 C 77.088 151.910,78.090 148.722,79.189 144.800 C 79.466 143.810,79.831 142.550,80.000 142.000 C 80.169 141.450,80.537 140.235,80.818 139.300 L 81.328 137.600 100.029 137.600 L 118.731 137.600 119.569 140.300 M212.800 141.220 C 212.800 146.578,213.746 147.878,219.326 150.185 C 232.580 155.665,244.230 167.740,248.011 179.915 C 250.111 186.677,250.000 181.139,250.000 279.501 L 250.000 370.950 249.107 372.254 C 246.923 375.441,250.936 375.200,200.000 375.200 C 148.981 375.200,153.034 375.449,150.900 372.187 L 150.000 370.811 150.000 279.305 C 150.000 182.268,149.914 187.101,151.753 180.345 C 154.935 168.649,166.869 156.182,180.591 150.216 C 186.313 147.729,187.132 146.654,187.487 141.165 L 187.718 137.600 200.259 137.600 L 212.800 137.600 212.800 141.220 M183.356 163.252 C 169.337 170.699,163.255 179.968,162.918 194.400 C 162.704 203.527,163.612 205.473,168.270 205.880 C 173.060 206.299,174.784 203.679,174.793 195.966 C 174.806 185.686,178.448 179.830,188.200 174.412 C 193.312 171.571,194.682 168.880,192.881 165.214 C 191.224 161.842,187.467 161.068,183.356 163.252 M262.000 178.278 C 266.956 180.461,269.557 181.478,273.000 182.579 C 274.540 183.072,276.745 183.718,277.900 184.013 C 279.969 184.543,280.548 185.282,279.627 186.220 C 278.917 186.943,276.800 191.284,276.800 192.017 C 276.800 192.422,276.644 192.849,276.453 192.967 C 275.196 193.744,275.178 205.410,276.431 207.013 C 276.609 207.241,276.612 207.656,276.439 207.937 C 275.902 208.806,273.618 208.018,266.400 204.468 L 262.600 202.600 262.347 195.800 C 262.053 187.915,261.147 180.732,260.265 179.305 C 259.963 178.816,260.346 177.542,260.742 177.721 C 260.884 177.785,261.450 178.036,262.000 178.278 M340.800 179.014 C 340.800 179.336,340.980 179.600,341.200 179.600 C 341.420 179.600,341.600 179.793,341.600 180.028 C 341.600 180.263,342.140 181.241,342.800 182.200 C 343.460 183.159,344.000 184.028,344.000 184.131 C 344.000 184.234,344.737 185.531,345.637 187.012 C 349.556 193.464,349.531 192.849,346.013 196.106 C 341.549 200.239,334.965 204.272,328.400 206.894 C 327.850 207.114,327.124 207.429,326.787 207.596 C 326.450 207.762,325.595 208.025,324.887 208.181 C 323.374 208.513,323.376 208.523,324.207 204.600 C 324.950 201.090,324.955 198.903,324.226 195.600 C 323.311 191.456,322.896 190.312,321.404 187.835 C 319.583 184.811,319.613 184.646,322.100 184.036 C 324.621 183.417,330.888 181.369,332.700 180.572 C 333.415 180.257,334.675 179.709,335.500 179.354 C 336.325 178.999,337.532 178.472,338.181 178.183 C 339.494 177.600,340.800 178.015,340.800 179.014 M305.600 188.735 C 316.390 194.339,314.060 210.438,302.185 212.341 C 287.863 214.637,281.581 195.083,294.600 188.732 C 297.729 187.205,302.657 187.206,305.600 188.735 M356.977 207.729 C 361.199 216.642,364.813 229.019,366.749 241.200 C 368.276 250.807,368.800 257.293,368.800 266.578 L 368.800 275.203 315.700 275.101 L 262.600 275.000 262.497 245.700 C 262.431 226.826,262.534 216.400,262.786 216.400 C 263.000 216.400,264.192 216.865,265.433 217.432 C 292.999 230.041,330.141 225.380,352.606 206.493 C 355.423 204.125,355.246 204.075,356.977 207.729 M70.600 211.681 C 68.296 212.485,67.251 214.117,61.016 226.650 C 52.392 243.985,52.632 243.343,53.767 246.059 C 55.780 250.876,62.497 251.052,64.886 246.350 C 70.694 234.920,78.065 219.473,78.250 218.341 C 78.744 215.325,76.847 212.468,73.800 211.639 C 71.962 211.140,72.162 211.137,70.600 211.681 M166.736 219.338 C 166.151 219.598,165.278 220.168,164.795 220.604 C 162.697 222.503,162.800 219.703,162.800 275.026 L 162.800 326.491 163.666 328.033 C 165.536 331.359,163.719 331.200,199.947 331.200 C 234.793 331.200,233.584 331.277,235.765 328.924 C 237.585 326.962,237.600 326.520,237.600 275.000 C 237.600 218.274,237.830 221.277,233.333 219.398 C 231.442 218.608,168.507 218.551,166.736 219.338 M341.800 225.944 C 338.842 227.771,338.034 229.976,338.947 233.723 C 340.893 241.705,341.718 246.156,342.838 254.734 C 343.532 260.043,345.407 262.327,349.120 262.381 C 354.901 262.465,356.214 256.993,353.576 243.800 C 352.479 238.312,352.225 237.119,351.399 233.574 C 349.658 226.098,346.113 223.280,341.800 225.944 M225.200 275.000 L 225.200 318.800 200.000 318.800 L 174.800 318.800 174.800 275.000 L 174.800 231.200 200.000 231.200 L 225.200 231.200 225.200 275.000 M137.502 312.500 L 137.400 350.200 84.400 350.200 L 31.400 350.200 31.298 312.500 L 31.196 274.800 84.400 274.800 L 137.604 274.800 137.502 312.500 M368.600 318.800 L 368.600 350.200 315.600 350.200 L 262.600 350.200 262.497 319.200 C 262.440 302.150,262.479 287.974,262.585 287.699 C 262.737 287.299,273.569 287.218,315.688 287.299 L 368.600 287.400 368.600 318.800 M137.748 367.300 C 137.865 369.995,138.015 372.830,138.081 373.600 L 138.200 375.000 87.400 375.104 C 33.987 375.214,35.305 375.254,33.262 373.435 C 31.562 371.922,31.200 370.689,31.200 366.420 L 31.200 362.400 84.367 362.400 L 137.535 362.400 137.748 367.300 M368.800 366.420 C 368.800 370.689,368.438 371.922,366.738 373.435 C 364.695 375.254,366.013 375.214,312.600 375.104 L 261.800 375.000 261.919 373.600 C 261.985 372.830,262.135 369.995,262.252 367.300 L 262.465 362.400 315.633 362.400 L 368.800 362.400 368.800 366.420 " stroke="none" fill="#040404" fill-rule="evenodd"></path><path id="path1" d="M94.125 112.699 C 97.604 112.766,103.184 112.766,106.525 112.699 C 109.866 112.632,107.020 112.578,100.200 112.578 C 93.380 112.578,90.646 112.633,94.125 112.699 M194.125 112.699 C 197.604 112.766,203.184 112.766,206.525 112.699 C 209.866 112.632,207.020 112.578,200.200 112.578 C 193.380 112.578,190.646 112.633,194.125 112.699 M87.000 115.600 C 86.848 116.291,86.814 116.947,86.924 117.057 C 87.034 117.167,87.248 116.691,87.400 116.000 C 87.552 115.309,87.586 114.653,87.476 114.543 C 87.366 114.433,87.152 114.909,87.000 115.600 M112.434 114.800 C 112.446 115.130,112.611 115.760,112.800 116.200 L 113.144 117.000 113.166 116.200 C 113.178 115.760,113.013 115.130,112.800 114.800 C 112.455 114.267,112.415 114.267,112.434 114.800 M86.390 117.833 C 86.384 118.035,86.039 119.706,85.623 121.547 C 85.206 123.388,84.999 124.738,85.163 124.547 C 85.611 124.023,86.916 117.983,86.640 117.707 C 86.508 117.575,86.395 117.632,86.390 117.833 M113.234 118.200 C 113.222 118.640,113.387 119.270,113.600 119.600 C 114.114 120.395,114.114 119.396,113.600 118.200 L 113.256 117.400 113.234 118.200 M114.068 121.400 C 114.074 121.840,114.224 122.650,114.400 123.200 L 114.720 124.200 114.732 123.200 C 114.738 122.650,114.589 121.840,114.400 121.400 L 114.056 120.600 114.068 121.400 M81.595 138.614 C 81.381 139.176,81.100 140.122,80.971 140.718 C 80.841 141.313,80.590 142.250,80.414 142.800 C 80.237 143.350,79.871 144.610,79.601 145.600 C 79.330 146.590,78.974 147.760,78.810 148.200 C 78.498 149.033,78.051 150.548,77.215 153.600 C 76.944 154.590,76.560 155.713,76.361 156.095 C 76.162 156.477,76.000 157.141,76.000 157.571 C 76.000 158.001,75.820 158.464,75.600 158.600 C 75.380 158.736,75.200 159.199,75.200 159.629 C 75.200 160.059,75.039 160.723,74.843 161.105 C 74.647 161.487,73.557 164.680,72.420 168.200 C 71.284 171.720,69.893 175.860,69.329 177.400 C 68.764 178.940,67.947 181.190,67.512 182.400 C 66.428 185.417,65.826 186.972,64.800 189.400 C 64.521 190.060,64.155 190.960,63.987 191.400 C 63.819 191.840,63.372 192.920,62.993 193.800 C 62.615 194.680,62.037 196.030,61.710 196.800 C 60.116 200.549,55.831 209.494,48.287 224.824 C 41.884 237.833,39.643 242.504,38.223 245.800 C 37.843 246.680,37.258 248.030,36.922 248.800 C 35.897 251.150,33.974 256.485,33.389 258.600 C 33.085 259.700,32.717 261.005,32.572 261.500 L 32.307 262.400 84.753 262.400 L 137.200 262.400 137.197 228.300 L 137.194 194.200 134.197 186.624 C 132.549 182.457,131.200 178.810,131.200 178.519 C 131.200 178.227,131.036 177.677,130.836 177.295 C 130.098 175.886,128.800 172.273,128.800 171.627 C 128.800 171.260,128.651 170.789,128.470 170.580 C 128.288 170.371,127.910 169.390,127.631 168.400 C 127.351 167.410,126.960 166.287,126.761 165.905 C 126.562 165.523,126.400 164.859,126.400 164.429 C 126.400 163.999,126.220 163.536,126.000 163.400 C 125.780 163.264,125.600 162.801,125.600 162.371 C 125.600 161.941,125.438 161.277,125.241 160.895 C 125.044 160.513,124.479 158.850,123.986 157.200 C 123.492 155.550,122.778 153.210,122.398 152.000 C 122.018 150.790,121.482 148.990,121.207 148.000 C 120.932 147.010,120.569 145.750,120.400 145.200 C 120.231 144.650,119.873 143.390,119.605 142.400 C 119.337 141.410,118.904 139.970,118.642 139.200 L 118.167 137.800 100.075 137.696 L 81.983 137.592 81.595 138.614 M187.600 141.541 C 187.600 147.190,187.446 147.372,179.189 151.471 C 175.565 153.270,172.240 155.078,171.800 155.488 C 171.360 155.898,170.100 156.850,169.000 157.604 C 167.129 158.887,160.976 164.771,159.553 166.638 C 155.528 171.917,152.703 177.834,151.264 184.000 C 150.054 189.178,149.961 197.010,150.080 283.000 C 150.216 381.119,149.875 371.755,153.387 373.814 L 155.070 374.800 200.035 374.793 L 245.000 374.787 246.565 373.893 C 247.489 373.366,248.471 372.345,248.965 371.400 L 249.800 369.800 249.927 282.000 C 250.067 185.234,250.128 187.795,247.497 179.800 C 244.839 171.724,237.738 162.171,231.000 157.607 C 229.900 156.862,228.910 156.147,228.800 156.017 C 228.249 155.368,225.675 153.922,220.222 151.200 C 212.622 147.406,212.400 147.132,212.400 141.541 L 212.400 137.600 200.000 137.600 L 187.600 137.600 187.600 141.541 M190.490 162.100 C 195.440 164.916,195.059 171.502,189.800 174.008 C 179.776 178.787,175.200 185.802,175.200 196.392 C 175.200 203.837,173.561 206.400,168.800 206.400 C 163.776 206.400,162.400 204.038,162.400 195.411 C 162.400 180.138,169.001 170.035,184.000 162.349 C 185.639 161.509,189.210 161.372,190.490 162.100 M338.000 178.600 C 337.365 178.963,337.227 179.177,337.620 179.186 C 337.961 179.194,338.469 178.975,338.750 178.700 C 339.159 178.298,339.459 178.436,340.274 179.400 C 340.831 180.060,341.151 180.330,340.983 180.000 C 340.004 178.072,339.410 177.794,338.000 178.600 M260.743 179.500 C 260.944 180.451,260.994 180.484,261.110 179.743 C 261.212 179.094,261.457 178.933,262.122 179.078 C 262.831 179.233,262.885 179.187,262.400 178.841 C 261.235 178.009,260.491 178.305,260.743 179.500 M263.200 179.383 C 263.200 179.624,265.663 180.800,266.161 180.798 C 266.403 180.796,266.150 180.562,265.600 180.276 C 264.272 179.587,263.200 179.188,263.200 179.383 M333.200 180.769 C 332.210 181.154,331.130 181.575,330.800 181.706 C 329.216 182.330,324.956 183.634,321.300 184.613 C 320.201 184.907,320.174 185.489,321.200 186.800 C 321.630 187.350,321.980 187.620,321.978 187.400 C 321.976 187.180,321.716 186.658,321.400 186.241 C 320.730 185.355,320.949 184.800,321.971 184.800 C 322.661 184.800,329.317 182.756,331.000 182.027 C 331.440 181.837,332.430 181.454,333.200 181.176 C 333.970 180.899,334.771 180.521,334.980 180.336 C 335.469 179.904,335.356 179.931,333.200 180.769 M261.450 182.400 C 261.775 184.641,262.002 184.960,261.994 183.167 C 261.991 182.415,261.808 181.530,261.588 181.200 C 261.309 180.781,261.267 181.142,261.450 182.400 M267.016 181.226 C 267.143 181.432,267.509 181.600,267.829 181.600 C 268.149 181.600,268.723 181.771,269.105 181.981 C 269.962 182.451,273.914 183.735,276.600 184.416 C 279.293 185.099,279.334 185.136,278.622 186.223 C 277.738 187.572,277.867 187.992,278.800 186.800 C 279.998 185.268,279.788 184.908,277.300 184.231 C 276.035 183.887,273.650 183.141,272.000 182.573 C 267.356 180.975,266.761 180.814,267.016 181.226 M342.018 182.200 C 342.018 182.420,342.370 183.050,342.800 183.600 C 343.230 184.150,343.582 184.420,343.582 184.200 C 343.582 183.980,343.230 183.350,342.800 182.800 C 342.370 182.250,342.018 181.980,342.018 182.200 M262.318 193.312 C 262.383 197.761,262.500 201.593,262.579 201.830 C 262.790 202.468,270.400 206.368,270.400 205.838 C 270.400 205.760,268.690 204.848,266.600 203.810 L 262.800 201.924 262.772 194.262 C 262.756 190.048,262.621 186.291,262.472 185.912 C 262.322 185.534,262.253 188.864,262.318 193.312 M344.418 186.200 C 344.418 186.420,344.770 187.050,345.200 187.600 C 345.630 188.150,345.982 188.420,345.982 188.200 C 345.982 187.980,345.630 187.350,345.200 186.800 C 344.770 186.250,344.418 185.980,344.418 186.200 M298.000 188.170 C 293.776 189.105,290.867 191.165,289.398 194.261 C 284.195 205.224,294.761 215.968,305.547 210.682 C 315.461 205.824,313.395 190.108,302.600 188.261 C 301.940 188.148,301.130 187.972,300.800 187.870 C 300.470 187.767,299.210 187.903,298.000 188.170 M346.009 189.100 C 346.014 189.265,346.385 189.850,346.833 190.400 L 347.648 191.400 347.014 190.100 C 346.411 188.865,345.989 188.445,346.009 189.100 M275.867 191.867 C 275.720 192.013,275.611 192.508,275.625 192.967 C 275.649 193.733,275.682 193.723,276.034 192.842 C 276.426 191.863,276.344 191.389,275.867 191.867 M347.890 192.536 C 348.063 193.443,347.008 194.634,343.839 197.106 C 343.200 197.604,342.759 198.093,342.859 198.192 C 342.959 198.292,344.246 197.285,345.720 195.955 C 348.177 193.738,348.945 192.384,348.058 191.836 C 347.870 191.719,347.794 192.035,347.890 192.536 M275.067 194.667 C 274.920 194.813,274.820 195.668,274.844 196.567 L 274.888 198.200 275.236 196.425 C 275.589 194.624,275.547 194.186,275.067 194.667 M324.693 196.100 C 324.981 198.352,325.200 198.521,325.200 196.490 C 325.200 195.587,325.037 194.747,324.838 194.624 C 324.632 194.496,324.569 195.130,324.693 196.100 M339.600 200.231 C 338.170 201.213,335.329 202.847,333.288 203.862 C 331.246 204.878,329.661 205.795,329.767 205.900 C 330.215 206.348,341.530 199.884,342.203 198.795 C 342.562 198.214,342.441 198.281,339.600 200.231 M274.800 203.510 C 274.800 204.413,274.984 205.267,275.209 205.406 C 275.479 205.573,275.528 205.069,275.354 203.929 C 275.003 201.644,274.800 201.490,274.800 203.510 M324.862 203.000 C 324.822 203.660,324.689 204.650,324.567 205.200 C 324.376 206.060,324.408 206.101,324.796 205.493 C 325.044 205.104,325.177 204.114,325.091 203.293 C 324.956 202.004,324.925 201.964,324.862 203.000 M353.961 206.045 C 353.433 206.510,352.370 207.365,351.600 207.945 C 350.830 208.525,349.968 209.219,349.685 209.486 C 349.402 209.753,348.637 210.287,347.985 210.672 C 347.333 211.057,346.800 211.514,346.800 211.686 C 346.800 211.859,346.603 212.000,346.362 212.000 C 346.121 212.000,345.386 212.383,344.728 212.851 C 341.216 215.352,331.724 219.533,325.700 221.233 C 324.985 221.435,323.725 221.794,322.900 222.030 C 320.156 222.817,314.995 223.863,310.800 224.482 C 306.881 225.061,292.980 225.059,289.400 224.479 C 284.514 223.688,282.248 223.268,280.500 222.828 C 279.565 222.593,278.125 222.232,277.300 222.027 C 272.628 220.864,266.709 218.801,263.951 217.375 L 262.800 216.779 262.800 245.790 L 262.800 274.800 315.600 274.800 L 368.400 274.800 368.392 268.900 C 368.373 255.278,366.158 237.474,363.180 227.000 C 362.930 226.120,362.632 224.813,362.519 224.096 C 362.405 223.379,362.151 222.694,361.956 222.573 C 361.760 222.452,361.600 221.924,361.600 221.400 C 361.600 220.876,361.420 220.336,361.200 220.200 C 360.980 220.064,360.800 219.524,360.800 219.000 C 360.800 218.476,360.620 217.936,360.400 217.800 C 360.180 217.664,360.000 217.201,360.000 216.771 C 360.000 216.341,359.841 215.677,359.647 215.295 C 359.452 214.913,359.116 214.150,358.900 213.600 C 358.684 213.050,358.325 212.150,358.102 211.600 C 357.580 210.309,355.105 205.200,355.001 205.200 C 354.958 205.200,354.490 205.580,353.961 206.045 M74.897 211.300 C 76.314 212.099,78.400 214.265,78.400 214.936 C 78.400 215.275,78.580 215.664,78.800 215.800 C 79.895 216.477,78.936 219.029,73.259 230.547 C 69.992 237.176,66.987 243.320,66.582 244.200 C 65.178 247.253,63.992 248.788,62.416 249.592 C 57.907 251.892,52.800 248.789,52.800 243.747 C 52.800 241.622,65.900 214.585,67.790 212.810 C 69.869 210.857,72.951 210.202,74.897 211.300 M234.704 219.598 C 237.855 221.519,237.597 216.592,237.599 274.920 C 237.600 330.944,237.715 327.884,235.538 329.845 C 233.603 331.587,233.338 331.600,200.000 331.600 C 166.662 331.600,166.397 331.587,164.462 329.845 C 162.284 327.883,162.398 330.955,162.429 274.920 C 162.462 217.024,162.228 221.705,165.189 219.700 L 166.518 218.800 199.959 218.801 C 232.622 218.803,233.430 218.821,234.704 219.598 M348.517 226.036 C 350.795 227.914,350.907 228.221,353.242 239.000 C 355.299 248.499,355.964 257.138,354.809 259.383 C 352.678 263.525,347.547 264.046,344.147 260.465 C 342.835 259.084,342.693 258.591,341.996 253.000 C 341.194 246.563,340.172 241.030,338.783 235.600 C 338.006 232.561,337.875 229.988,338.439 228.852 C 339.161 227.400,340.841 225.600,341.475 225.600 C 341.764 225.600,342.000 225.420,342.000 225.200 C 342.000 224.134,346.986 224.774,348.517 226.036 M187.500 231.500 C 194.375 231.561,205.625 231.561,212.500 231.500 C 219.375 231.438,213.750 231.388,200.000 231.388 C 186.250 231.388,180.625 231.438,187.500 231.500 M31.397 312.600 L 31.400 349.800 84.400 349.800 L 137.400 349.800 137.403 312.400 L 137.406 275.000 137.301 312.300 L 137.196 349.600 84.400 349.600 L 31.604 349.600 31.499 312.500 L 31.394 275.400 31.397 312.600 M368.400 318.600 L 368.400 349.600 315.602 349.600 L 262.805 349.600 262.699 318.700 L 262.592 287.800 262.596 318.800 L 262.600 349.800 315.700 349.901 L 368.800 350.003 368.800 318.801 C 368.800 301.641,368.710 287.600,368.600 287.600 C 368.490 287.600,368.400 301.550,368.400 318.600 M187.500 318.700 C 194.375 318.761,205.625 318.761,212.500 318.700 C 219.375 318.638,213.750 318.588,200.000 318.588 C 186.250 318.588,180.625 318.638,187.500 318.700 M31.600 366.181 C 31.600 370.579,33.198 374.000,35.251 374.000 C 35.637 374.000,36.064 374.180,36.200 374.400 C 36.363 374.663,53.820 374.800,87.270 374.800 L 138.093 374.800 137.785 373.900 C 137.615 373.405,137.400 370.705,137.306 367.900 L 137.136 362.800 84.368 362.800 L 31.600 362.800 31.600 366.181 M262.696 367.900 C 262.614 370.705,262.403 373.405,262.227 373.900 L 261.907 374.800 312.504 374.800 C 367.097 374.800,364.657 374.893,366.673 372.735 C 368.018 371.296,368.400 369.843,368.400 366.174 L 368.400 362.800 315.622 362.800 L 262.844 362.800 262.696 367.900 " stroke="none" fill="#474f52" fill-rule="evenodd"></path><path id="path2" d="M87.600 35.246 C 87.600 47.529,86.611 50.000,81.694 50.000 C 78.250 50.000,75.200 52.921,75.200 56.219 C 75.200 59.350,78.207 62.400,81.293 62.400 C 83.624 62.400,85.702 63.794,87.100 66.295 C 87.477 66.970,87.600 71.214,87.600 83.595 L 87.600 100.000 100.000 100.000 L 112.400 100.000 112.400 83.595 C 112.400 71.214,112.523 66.970,112.900 66.295 C 114.302 63.787,116.376 62.400,118.726 62.400 C 120.654 62.400,123.349 60.736,124.148 59.053 C 126.168 54.796,123.023 50.000,118.210 50.000 C 116.631 50.000,114.529 48.641,113.310 46.831 C 112.423 45.516,112.400 45.226,112.400 35.341 L 112.400 25.200 100.000 25.200 L 87.600 25.200 87.600 35.246 M287.600 54.141 C 287.600 64.026,287.577 64.316,286.690 65.631 C 285.457 67.461,283.364 68.800,281.736 68.800 C 278.295 68.800,275.200 71.735,275.200 75.000 C 275.200 78.241,278.205 81.200,281.495 81.200 C 287.901 81.200,289.247 89.940,286.363 112.800 C 285.040 123.287,282.113 134.252,277.714 145.200 C 275.866 149.797,270.531 160.786,268.353 164.479 C 266.839 167.048,266.777 166.904,270.025 168.356 C 287.873 176.336,310.564 176.529,328.800 168.854 C 333.275 166.970,333.132 167.136,332.030 165.123 C 326.166 154.404,322.292 145.913,319.655 138.000 C 317.576 131.762,317.470 131.399,316.421 127.000 C 315.948 125.020,315.403 122.770,315.209 122.000 C 314.885 120.715,314.565 118.788,313.582 112.200 C 312.344 103.899,311.915 86.857,312.900 85.095 C 314.298 82.594,316.376 81.200,318.707 81.200 C 323.224 81.200,326.223 76.040,324.002 72.088 C 322.963 70.241,320.571 68.800,318.542 68.800 C 316.290 68.800,314.315 67.437,312.900 64.905 C 312.537 64.256,312.400 61.266,312.400 54.005 L 312.400 44.000 300.000 44.000 L 287.600 44.000 287.600 54.141 M181.467 50.267 C 181.320 50.413,181.200 55.791,181.200 62.218 C 181.200 74.752,181.148 74.438,183.316 74.956 C 184.640 75.273,186.435 76.956,187.114 78.519 C 187.453 79.300,187.600 82.708,187.600 89.819 L 187.600 100.000 200.000 100.000 L 212.400 100.000 212.400 89.735 L 212.400 79.470 213.416 77.737 C 214.441 75.988,216.108 74.800,217.537 74.800 C 218.748 74.800,218.800 74.268,218.800 61.767 L 218.800 50.000 200.267 50.000 C 190.073 50.000,181.613 50.120,181.467 50.267 " stroke="none" fill="#931333" fill-rule="evenodd"></path><path id="path3" d="M87.477 114.700 C 87.353 115.745,86.821 118.400,86.293 120.600 L 85.334 124.600 99.929 124.705 C 107.956 124.763,114.567 124.763,114.619 124.705 C 114.708 124.607,114.060 121.540,113.159 117.800 C 112.947 116.920,112.666 115.435,112.535 114.500 L 112.296 112.800 99.999 112.800 L 87.702 112.800 87.477 114.700 M187.600 118.800 L 187.600 124.800 200.000 124.800 L 212.400 124.800 212.400 118.800 L 212.400 112.800 200.000 112.800 L 187.600 112.800 187.600 118.800 M338.400 178.792 C 337.082 179.550,332.424 181.600,332.020 181.600 C 331.783 181.600,331.277 181.778,330.895 181.995 C 329.889 182.566,322.816 184.800,322.014 184.800 C 320.617 184.800,320.687 185.039,324.049 191.695 C 324.242 192.077,324.400 192.831,324.400 193.371 C 324.400 193.911,324.580 194.464,324.800 194.600 C 325.370 194.952,325.306 204.249,324.723 205.862 C 324.145 207.461,324.472 207.888,325.801 207.267 C 326.350 207.010,327.205 206.641,327.700 206.448 C 332.565 204.543,340.667 199.908,343.649 197.325 C 348.429 193.185,348.560 192.979,347.448 191.389 C 347.145 190.955,346.515 189.925,346.048 189.100 C 345.582 188.275,344.819 186.925,344.353 186.100 C 343.887 185.275,343.167 184.122,342.753 183.538 C 342.339 182.954,342.000 182.279,342.000 182.038 C 342.000 181.797,341.820 181.600,341.600 181.600 C 341.380 181.600,341.200 181.403,341.200 181.162 C 341.200 180.610,339.639 178.392,339.273 178.424 C 339.123 178.436,338.730 178.602,338.400 178.792 M261.372 180.095 C 261.517 180.813,261.827 182.390,262.061 183.600 C 262.294 184.810,262.566 189.430,262.665 193.867 L 262.845 201.933 267.123 204.017 C 269.475 205.163,271.850 206.279,272.400 206.497 C 272.950 206.715,273.713 207.052,274.095 207.247 C 274.477 207.441,274.972 207.600,275.195 207.600 C 275.719 207.600,275.724 205.724,275.200 205.400 C 274.967 205.256,274.800 203.004,274.800 200.000 C 274.800 196.996,274.967 194.744,275.200 194.600 C 275.420 194.464,275.600 193.911,275.600 193.371 C 275.600 192.831,275.758 192.077,275.951 191.695 C 278.326 186.993,279.119 185.201,278.883 185.075 C 278.727 184.991,277.700 184.695,276.600 184.416 C 274.410 183.861,270.321 182.564,268.900 181.974 C 268.405 181.768,267.595 181.443,267.100 181.251 C 266.605 181.059,265.390 180.535,264.400 180.088 C 261.145 178.617,261.073 178.617,261.372 180.095 M175.200 275.000 L 175.200 318.400 200.000 318.400 L 224.800 318.400 224.800 275.000 L 224.800 231.600 200.000 231.600 L 175.200 231.600 175.200 275.000 M31.600 312.400 L 31.600 349.600 84.400 349.600 L 137.200 349.600 137.200 312.400 L 137.200 275.200 84.400 275.200 L 31.600 275.200 31.600 312.400 M262.800 318.600 L 262.800 349.600 315.600 349.600 L 368.400 349.600 368.400 318.600 L 368.400 287.600 315.600 287.600 L 262.800 287.600 262.800 318.600 " stroke="none" fill="#6c7374" fill-rule="evenodd"></path><path id="path4" d="M93.700 25.099 C 97.165 25.166,102.835 25.166,106.300 25.099 C 109.765 25.033,106.930 24.978,100.000 24.978 C 93.070 24.978,90.235 25.033,93.700 25.099 M112.406 44.433 C 112.409 44.965,112.589 45.670,112.806 46.000 C 113.082 46.422,113.123 46.185,112.942 45.200 C 112.625 43.475,112.398 43.149,112.406 44.433 M293.700 43.899 C 297.165 43.966,302.835 43.966,306.300 43.899 C 309.765 43.833,306.930 43.778,300.000 43.778 C 293.070 43.778,290.235 43.833,293.700 43.899 M181.462 49.900 C 181.293 50.173,195.538 50.167,212.400 49.888 C 216.030 49.828,210.596 49.739,200.324 49.690 C 190.052 49.640,181.564 49.735,181.462 49.900 M123.029 52.038 C 123.673 52.829,124.281 53.408,124.379 53.325 C 124.478 53.242,123.951 52.595,123.209 51.887 L 121.858 50.600 123.029 52.038 M74.901 56.200 C 74.905 57.080,74.987 57.393,75.083 56.895 C 75.179 56.398,75.175 55.678,75.075 55.295 C 74.975 54.913,74.896 55.320,74.901 56.200 M124.901 56.200 C 124.905 57.080,124.987 57.393,125.083 56.895 C 125.179 56.398,125.175 55.678,125.075 55.295 C 124.975 54.913,124.896 55.320,124.901 56.200 M116.645 62.728 C 116.533 62.908,116.973 62.977,117.621 62.882 C 118.270 62.787,118.800 62.640,118.800 62.555 C 118.800 62.250,116.843 62.407,116.645 62.728 M312.400 63.376 C 312.400 63.913,312.547 64.444,312.728 64.555 C 312.908 64.667,312.977 64.227,312.882 63.579 C 312.672 62.149,312.400 62.035,312.400 63.376 M84.035 63.300 C 84.128 63.355,84.833 63.940,85.602 64.600 L 87.000 65.800 85.825 64.500 C 85.179 63.785,84.474 63.200,84.258 63.200 C 84.043 63.200,83.943 63.245,84.035 63.300 M114.204 64.396 C 113.574 65.054,113.135 65.642,113.229 65.703 C 113.323 65.764,113.970 65.226,114.666 64.507 C 115.362 63.788,115.801 63.200,115.641 63.200 C 115.481 63.200,114.834 63.738,114.204 64.396 M112.554 66.977 C 112.432 67.294,112.403 67.879,112.489 68.277 C 112.587 68.728,112.724 68.512,112.854 67.700 C 113.071 66.338,112.930 65.996,112.554 66.977 M274.901 75.000 C 274.905 75.880,274.987 76.193,275.083 75.695 C 275.179 75.198,275.175 74.478,275.075 74.095 C 274.975 73.713,274.896 74.120,274.901 75.000 M324.901 75.000 C 324.905 75.880,324.987 76.193,325.083 75.695 C 325.179 75.198,325.175 74.478,325.075 74.095 C 324.975 73.713,324.896 74.120,324.901 75.000 M284.400 82.125 C 284.400 82.194,284.985 82.779,285.700 83.425 L 287.000 84.600 285.825 83.300 C 284.730 82.088,284.400 81.816,284.400 82.125 M314.204 83.196 C 313.574 83.854,313.135 84.456,313.229 84.534 C 313.323 84.612,313.913 84.074,314.539 83.338 C 315.954 81.677,315.745 81.588,314.204 83.196 M312.554 85.777 C 312.432 86.094,312.403 86.679,312.489 87.077 C 312.587 87.528,312.724 87.312,312.854 86.500 C 313.071 85.138,312.930 84.796,312.554 85.777 M312.546 99.000 C 312.547 101.200,312.614 102.049,312.695 100.887 C 312.776 99.724,312.776 97.924,312.693 96.887 C 312.611 95.849,312.545 96.800,312.546 99.000 M287.331 100.600 C 287.333 102.140,287.405 102.721,287.492 101.891 C 287.579 101.061,287.577 99.801,287.489 99.091 C 287.400 98.381,287.329 99.060,287.331 100.600 M312.901 105.000 C 312.905 105.880,312.987 106.193,313.083 105.695 C 313.179 105.198,313.175 104.478,313.075 104.095 C 312.975 103.713,312.896 104.120,312.901 105.000 M286.901 105.400 C 286.905 106.280,286.987 106.593,287.083 106.095 C 287.179 105.598,287.175 104.878,287.075 104.495 C 286.975 104.113,286.896 104.520,286.901 105.400 M313.301 110.200 C 313.305 111.080,313.387 111.393,313.483 110.895 C 313.579 110.398,313.575 109.678,313.475 109.295 C 313.375 108.913,313.296 109.320,313.301 110.200 M87.441 112.734 C 87.094 113.295,85.152 121.655,85.280 122.034 C 85.346 122.229,85.955 120.141,86.633 117.394 C 87.801 112.661,87.923 111.953,87.441 112.734 M112.434 113.081 C 112.415 113.566,112.564 114.376,112.764 114.881 C 112.965 115.387,113.437 117.202,113.815 118.916 C 114.192 120.630,114.574 121.959,114.663 121.870 C 114.831 121.703,113.504 115.533,112.841 113.400 C 112.540 112.428,112.462 112.368,112.434 113.081 M187.376 112.918 C 187.267 113.204,187.227 116.039,187.289 119.218 L 187.400 125.000 200.000 125.000 L 212.600 125.000 212.616 118.900 L 212.632 112.799 212.506 118.800 L 212.379 124.800 199.970 124.800 L 187.561 124.800 187.680 118.599 C 187.798 112.480,187.767 111.899,187.376 112.918 M314.806 120.633 C 314.809 121.055,314.995 121.670,315.218 122.000 C 315.515 122.438,315.552 122.276,315.356 121.400 C 315.027 119.929,314.798 119.610,314.806 120.633 M284.629 121.429 C 284.481 122.015,284.438 122.572,284.532 122.666 C 284.627 122.760,284.824 122.358,284.971 121.771 C 285.119 121.185,285.162 120.628,285.068 120.534 C 284.973 120.440,284.776 120.842,284.629 121.429 M114.935 123.500 L 115.061 124.800 99.986 124.800 L 84.911 124.800 85.064 123.700 C 85.212 122.634,85.204 122.629,84.808 123.537 C 84.096 125.165,84.415 125.200,100.000 125.200 C 115.905 125.200,115.788 125.214,115.187 123.366 L 114.808 122.200 114.935 123.500 M283.829 125.029 C 283.681 125.615,283.638 126.172,283.732 126.266 C 283.827 126.360,284.024 125.958,284.171 125.371 C 284.319 124.785,284.362 124.228,284.268 124.134 C 284.173 124.040,283.976 124.442,283.829 125.029 M283.029 128.229 C 282.881 128.815,282.838 129.372,282.932 129.466 C 283.027 129.560,283.224 129.158,283.371 128.571 C 283.519 127.985,283.562 127.428,283.468 127.334 C 283.373 127.240,283.176 127.642,283.029 128.229 M80.818 139.300 C 80.537 140.235,80.169 141.450,80.000 142.000 C 79.831 142.550,79.466 143.810,79.189 144.800 C 78.090 148.722,77.088 151.910,72.974 164.576 C 70.619 171.822,68.366 178.572,67.966 179.576 C 67.567 180.579,66.415 183.544,65.408 186.165 C 64.400 188.786,63.290 191.576,62.940 192.365 C 62.057 194.361,61.387 195.931,60.620 197.800 C 59.433 200.696,57.072 205.666,52.258 215.400 C 45.114 229.846,40.291 239.811,38.608 243.600 C 37.778 245.470,36.671 247.950,36.149 249.112 C 35.627 250.273,35.200 251.401,35.200 251.617 C 35.200 251.834,35.029 252.323,34.819 252.705 C 34.465 253.350,33.627 255.831,32.399 259.870 C 31.418 263.099,26.154 262.815,84.888 262.701 L 137.400 262.600 137.507 228.000 C 137.571 207.629,137.464 193.071,137.248 192.600 C 136.403 190.755,135.625 188.891,134.996 187.200 C 134.627 186.210,134.172 185.040,133.985 184.600 C 132.140 180.268,124.327 156.893,122.353 149.800 C 122.108 148.920,121.769 147.750,121.600 147.200 C 121.431 146.650,121.093 145.480,120.850 144.600 C 119.706 140.470,118.701 137.600,118.397 137.600 C 118.214 137.600,118.302 138.275,118.593 139.100 C 118.884 139.925,119.340 141.410,119.607 142.400 C 119.874 143.390,120.231 144.650,120.400 145.200 C 120.569 145.750,120.932 147.010,121.207 148.000 C 121.482 148.990,122.018 150.790,122.398 152.000 C 122.778 153.210,123.492 155.550,123.986 157.200 C 124.479 158.850,125.044 160.513,125.241 160.895 C 125.438 161.277,125.600 161.941,125.600 162.371 C 125.600 162.801,125.780 163.264,126.000 163.400 C 126.220 163.536,126.400 163.999,126.400 164.429 C 126.400 164.859,126.562 165.523,126.761 165.905 C 126.960 166.287,127.351 167.410,127.631 168.400 C 127.910 169.390,128.288 170.371,128.470 170.580 C 128.651 170.789,128.800 171.260,128.800 171.627 C 128.800 172.273,130.098 175.886,130.836 177.295 C 131.036 177.677,131.200 178.227,131.200 178.519 C 131.200 178.810,132.549 182.457,134.197 186.624 L 137.194 194.200 137.197 228.300 L 137.200 262.400 84.753 262.400 L 32.307 262.400 32.572 261.500 C 32.717 261.005,33.085 259.700,33.389 258.600 C 33.974 256.485,35.897 251.150,36.922 248.800 C 37.258 248.030,37.843 246.680,38.223 245.800 C 39.643 242.504,41.884 237.833,48.287 224.824 C 55.831 209.494,60.116 200.549,61.710 196.800 C 62.037 196.030,62.615 194.680,62.993 193.800 C 63.372 192.920,63.819 191.840,63.987 191.400 C 64.453 190.180,65.039 188.728,65.600 187.400 C 66.255 185.850,66.551 185.075,67.512 182.400 C 67.947 181.190,68.764 178.940,69.329 177.400 C 69.893 175.860,71.284 171.720,72.420 168.200 C 73.557 164.680,74.647 161.487,74.843 161.105 C 75.039 160.723,75.200 160.059,75.200 159.629 C 75.200 159.199,75.380 158.736,75.600 158.600 C 75.820 158.464,76.000 158.001,76.000 157.571 C 76.000 157.141,76.158 156.477,76.351 156.095 C 76.687 155.429,76.873 154.828,77.992 150.800 C 78.266 149.810,78.626 148.640,78.790 148.200 C 79.090 147.397,79.462 146.145,80.393 142.800 C 80.668 141.810,81.132 140.235,81.423 139.300 C 81.713 138.365,81.811 137.600,81.640 137.600 C 81.468 137.600,81.098 138.365,80.818 139.300 M212.472 141.441 C 212.371 147.122,212.586 147.398,220.006 151.059 C 223.193 152.631,225.859 153.862,225.931 153.794 C 226.163 153.576,222.443 151.535,219.413 150.218 C 213.594 147.689,213.089 147.020,212.772 141.421 L 212.545 137.400 212.472 141.441 M187.253 143.800 C 187.126 146.519,185.479 148.091,180.485 150.262 C 167.065 156.097,153.832 169.940,151.756 180.318 C 151.358 182.311,151.836 181.828,152.567 179.500 C 153.756 175.712,156.534 170.599,159.553 166.638 C 160.976 164.771,167.129 158.887,169.000 157.604 C 170.100 156.850,171.360 155.896,171.800 155.484 C 172.240 155.072,175.524 153.295,179.097 151.535 C 186.641 147.818,188.046 146.480,187.488 143.541 C 187.338 142.750,187.300 142.792,187.253 143.800 M227.200 154.760 C 228.701 156.020,228.840 156.124,231.000 157.598 C 237.653 162.136,244.927 171.848,247.416 179.516 C 247.793 180.679,248.188 181.546,248.292 181.441 C 248.764 180.969,246.359 175.066,244.200 171.400 C 240.574 165.242,233.659 158.304,227.600 154.744 L 226.200 153.921 227.200 154.760 M184.000 162.349 C 169.001 170.035,162.400 180.138,162.400 195.411 C 162.400 204.038,163.776 206.400,168.800 206.400 C 173.561 206.400,175.200 203.837,175.200 196.392 C 175.200 185.802,179.776 178.787,189.800 174.008 C 195.059 171.502,195.440 164.916,190.490 162.100 C 189.210 161.372,185.639 161.509,184.000 162.349 M190.841 162.914 C 195.494 166.044,194.358 170.991,188.200 174.412 C 178.448 179.830,174.806 185.686,174.793 195.966 C 174.784 203.679,173.060 206.299,168.270 205.880 C 163.612 205.473,162.704 203.527,162.918 194.400 C 163.218 181.551,167.389 173.882,178.085 166.512 C 184.809 161.879,187.975 160.986,190.841 162.914 M290.100 174.276 C 290.485 174.376,291.115 174.376,291.500 174.276 C 291.885 174.175,291.570 174.093,290.800 174.093 C 290.030 174.093,289.715 174.175,290.100 174.276 M308.500 174.276 C 308.885 174.376,309.515 174.376,309.900 174.276 C 310.285 174.175,309.970 174.093,309.200 174.093 C 308.430 174.093,308.115 174.175,308.500 174.276 M298.300 175.093 C 299.235 175.177,300.765 175.177,301.700 175.093 C 302.635 175.009,301.870 174.940,300.000 174.940 C 298.130 174.940,297.365 175.009,298.300 175.093 M260.225 178.279 C 260.101 178.603,260.191 179.168,260.427 179.534 C 260.785 180.090,260.822 180.045,260.654 179.258 C 260.480 178.442,260.581 178.341,261.414 178.501 C 262.538 178.715,262.381 178.193,261.232 177.892 C 260.764 177.770,260.361 177.924,260.225 178.279 M339.762 178.342 C 340.609 179.295,340.800 179.382,340.800 178.814 C 340.800 178.602,340.395 178.216,339.900 177.956 C 339.005 177.486,339.004 177.488,339.762 178.342 M335.600 179.228 C 335.270 179.437,334.306 179.887,333.457 180.228 C 332.608 180.568,332.003 180.936,332.112 181.045 C 332.221 181.154,333.455 180.709,334.855 180.056 C 336.255 179.403,337.130 178.864,336.800 178.858 C 336.470 178.852,335.930 179.018,335.600 179.228 M264.800 179.795 C 264.800 180.061,267.590 181.207,268.149 181.170 C 268.397 181.154,267.880 180.807,267.000 180.400 C 265.309 179.617,264.800 179.477,264.800 179.795 M341.044 180.100 C 341.205 180.375,341.806 181.320,342.380 182.200 C 342.955 183.080,343.652 184.250,343.930 184.800 C 344.208 185.350,344.809 186.250,345.265 186.800 L 346.095 187.800 345.455 186.726 C 345.103 186.135,344.431 184.965,343.961 184.126 C 343.491 183.286,342.767 182.122,342.353 181.538 C 341.939 180.954,341.600 180.279,341.600 180.038 C 341.600 179.797,341.409 179.600,341.176 179.600 C 340.943 179.600,340.884 179.825,341.044 180.100 M260.868 181.200 C 260.862 181.750,261.011 182.560,261.200 183.000 L 261.544 183.800 261.532 183.000 C 261.526 182.560,261.376 181.750,261.200 181.200 L 260.880 180.200 260.868 181.200 M150.996 183.053 C 150.863 183.684,150.584 184.955,150.377 185.877 C 150.170 186.800,150.024 188.870,150.054 190.477 L 150.108 193.400 150.446 189.800 C 150.632 187.820,150.988 185.335,151.237 184.278 C 151.486 183.222,151.589 182.255,151.465 182.131 C 151.340 182.007,151.130 182.422,150.996 183.053 M248.553 183.200 C 248.694 183.970,249.032 186.220,249.305 188.200 C 249.712 191.160,249.822 191.493,249.924 190.076 C 250.045 188.393,249.030 182.479,248.543 182.027 C 248.408 181.902,248.413 182.430,248.553 183.200 M271.200 182.400 C 271.530 182.613,272.070 182.788,272.400 182.788 C 272.933 182.788,272.933 182.745,272.400 182.400 C 272.070 182.187,271.530 182.012,271.200 182.012 C 270.667 182.012,270.667 182.055,271.200 182.400 M327.600 182.400 C 327.067 182.745,327.067 182.788,327.600 182.788 C 327.930 182.788,328.470 182.613,328.800 182.400 C 329.333 182.055,329.333 182.012,328.800 182.012 C 328.470 182.012,327.930 182.187,327.600 182.400 M273.600 183.200 C 273.930 183.413,274.560 183.578,275.000 183.566 L 275.800 183.544 275.000 183.200 C 273.804 182.686,272.805 182.686,273.600 183.200 M325.200 183.200 C 324.667 183.545,324.667 183.588,325.200 183.588 C 325.530 183.588,326.070 183.413,326.400 183.200 C 326.933 182.855,326.933 182.812,326.400 182.812 C 326.070 182.812,325.530 182.987,325.200 183.200 M276.600 184.000 C 277.040 184.189,277.670 184.344,278.000 184.344 C 278.378 184.344,278.304 184.217,277.800 184.000 C 277.360 183.811,276.730 183.656,276.400 183.656 C 276.022 183.656,276.096 183.783,276.600 184.000 M322.200 184.000 L 321.400 184.344 322.200 184.366 C 322.640 184.378,323.270 184.213,323.600 184.000 C 324.395 183.486,323.396 183.486,322.200 184.000 M261.686 186.000 C 261.683 186.990,261.824 188.250,262.000 188.800 C 262.465 190.251,262.482 188.018,262.023 185.800 L 261.692 184.200 261.686 186.000 M279.100 184.665 C 279.804 184.949,279.724 185.502,278.789 186.815 C 277.925 188.028,276.664 190.800,276.976 190.800 C 277.078 190.800,277.473 190.125,277.852 189.300 C 278.232 188.475,278.870 187.322,279.271 186.738 C 280.193 185.395,280.206 184.391,279.300 184.432 C 278.882 184.450,278.801 184.544,279.100 184.665 M320.000 184.952 C 320.000 185.255,320.618 186.529,321.372 187.782 C 322.641 189.889,323.300 191.650,324.371 195.800 L 324.784 197.400 324.575 195.623 C 324.270 193.034,323.293 190.308,321.754 187.752 C 320.256 185.264,320.172 184.959,320.900 184.665 C 321.199 184.544,321.118 184.450,320.700 184.432 C 320.315 184.414,320.000 184.648,320.000 184.952 M294.600 188.752 C 290.691 190.626,287.550 194.986,287.648 198.400 C 287.686 199.715,287.718 199.679,288.180 197.796 C 289.548 192.218,292.414 189.408,298.000 188.170 C 300.172 187.688,300.180 187.681,298.600 187.641 C 297.591 187.616,296.113 188.026,294.600 188.752 M301.400 187.966 C 301.840 188.174,302.588 188.356,303.062 188.372 C 306.206 188.474,311.584 193.867,311.606 196.938 C 311.609 197.412,311.804 198.070,312.038 198.400 C 312.353 198.843,312.398 198.529,312.212 197.200 C 311.581 192.711,306.856 188.207,302.306 187.756 C 301.026 187.630,300.800 187.682,301.400 187.966 M346.000 188.093 C 346.000 188.243,346.540 189.281,347.200 190.400 C 348.803 193.118,348.779 193.217,345.900 195.747 C 344.525 196.955,342.860 198.422,342.200 199.008 L 341.000 200.073 342.361 199.166 C 344.430 197.787,348.800 193.579,348.800 192.966 C 348.800 192.668,348.418 191.744,347.952 190.912 C 346.894 189.028,346.000 187.736,346.000 188.093 M276.446 191.467 C 276.421 191.724,276.284 192.264,276.141 192.667 C 275.940 193.236,275.994 193.297,276.379 192.942 C 276.652 192.691,276.789 192.151,276.684 191.742 C 276.579 191.334,276.472 191.210,276.446 191.467 M275.454 195.154 C 275.300 196.118,275.258 196.991,275.361 197.094 C 275.630 197.363,276.115 194.545,275.907 193.922 C 275.812 193.636,275.608 194.190,275.454 195.154 M274.920 200.000 C 274.920 201.210,274.995 201.705,275.087 201.100 C 275.178 200.495,275.178 199.505,275.087 198.900 C 274.995 198.295,274.920 198.790,274.920 200.000 M324.920 200.000 C 324.920 201.210,324.995 201.705,325.087 201.100 C 325.178 200.495,325.178 199.505,325.087 198.900 C 324.995 198.295,324.920 198.790,324.920 200.000 M287.648 201.429 C 287.521 204.684,290.515 209.250,293.990 211.102 C 295.762 212.046,299.541 212.849,298.400 212.038 C 298.070 211.804,297.412 211.609,296.938 211.606 C 293.515 211.582,289.129 206.823,288.086 202.000 C 287.752 200.457,287.689 200.375,287.648 201.429 M311.843 201.833 C 311.709 202.181,311.600 202.794,311.600 203.195 C 311.600 206.136,306.069 211.585,303.062 211.606 C 302.588 211.609,301.930 211.804,301.600 212.038 C 301.157 212.353,301.471 212.398,302.800 212.212 C 307.118 211.605,311.540 207.215,312.240 202.842 C 312.504 201.190,312.294 200.657,311.843 201.833 M334.600 203.619 C 330.483 205.872,330.292 206.275,334.310 204.233 C 336.719 203.008,338.930 201.605,338.400 201.638 C 338.290 201.644,336.580 202.536,334.600 203.619 M275.275 203.400 C 275.286 203.840,275.432 204.740,275.600 205.400 L 275.905 206.600 275.925 205.400 C 275.935 204.740,275.789 203.840,275.600 203.400 L 275.256 202.600 275.275 203.400 M324.076 205.233 C 323.481 208.525,323.474 208.400,324.249 208.400 C 324.732 208.400,324.789 208.269,324.472 207.887 C 324.179 207.534,324.169 206.826,324.440 205.621 C 324.656 204.658,324.770 203.584,324.693 203.235 C 324.616 202.886,324.338 203.785,324.076 205.233 M264.400 203.398 C 264.400 203.667,268.449 205.684,268.629 205.505 C 268.711 205.423,267.793 204.873,266.589 204.282 C 265.385 203.692,264.400 203.294,264.400 203.398 M352.606 206.493 C 330.141 225.380,292.999 230.041,265.433 217.432 C 264.192 216.865,263.000 216.400,262.786 216.400 C 262.534 216.400,262.431 226.826,262.497 245.700 L 262.600 275.000 315.700 275.101 L 368.800 275.203 368.800 266.578 C 368.800 255.377,367.893 246.471,365.544 234.600 C 363.449 224.014,357.237 205.849,355.308 204.669 C 355.139 204.565,353.923 205.386,352.606 206.493 M356.389 207.900 C 357.627 210.453,357.964 211.218,358.900 213.600 C 359.116 214.150,359.452 214.913,359.647 215.295 C 359.841 215.677,360.000 216.341,360.000 216.771 C 360.000 217.201,360.180 217.664,360.400 217.800 C 360.620 217.936,360.800 218.476,360.800 219.000 C 360.800 219.524,360.980 220.064,361.200 220.200 C 361.420 220.336,361.600 220.876,361.600 221.400 C 361.600 221.924,361.760 222.452,361.956 222.573 C 362.151 222.694,362.405 223.379,362.519 224.096 C 362.632 224.813,362.930 226.120,363.180 227.000 C 366.158 237.474,368.373 255.278,368.392 268.900 L 368.400 274.800 315.600 274.800 L 262.800 274.800 262.800 245.790 L 262.800 216.779 263.951 217.375 C 266.709 218.801,272.628 220.864,277.300 222.027 C 278.125 222.232,279.565 222.593,280.500 222.828 C 282.248 223.268,284.514 223.688,289.400 224.479 C 292.980 225.059,306.881 225.061,310.800 224.482 C 314.995 223.863,320.156 222.817,322.900 222.030 C 323.725 221.794,324.985 221.435,325.700 221.233 C 331.724 219.533,341.216 215.352,344.728 212.851 C 345.386 212.383,346.121 212.000,346.362 212.000 C 346.603 212.000,346.800 211.859,346.800 211.686 C 346.800 211.514,347.333 211.057,347.985 210.672 C 348.637 210.287,349.402 209.753,349.685 209.486 C 349.968 209.219,350.830 208.525,351.600 207.945 C 352.370 207.365,353.433 206.510,353.961 206.045 C 354.490 205.580,354.958 205.200,355.001 205.200 C 355.045 205.200,355.669 206.415,356.389 207.900 M271.200 206.619 C 271.200 206.925,274.132 208.023,274.564 207.879 C 274.796 207.801,274.133 207.448,273.093 207.093 C 272.052 206.739,271.200 206.525,271.200 206.619 M275.677 207.626 C 275.285 208.253,275.300 208.400,275.754 208.400 C 276.379 208.400,276.935 207.331,276.463 207.039 C 276.296 206.936,275.943 207.200,275.677 207.626 M69.685 211.384 C 67.593 212.538,66.491 214.371,59.805 227.807 C 52.392 242.705,51.925 244.046,53.300 246.505 C 56.761 252.698,63.187 251.583,66.582 244.200 C 66.987 243.320,69.992 237.176,73.259 230.547 C 78.936 219.029,79.895 216.477,78.800 215.800 C 78.580 215.664,78.400 215.275,78.400 214.936 C 78.400 214.265,76.314 212.099,74.897 211.300 C 73.783 210.671,70.891 210.718,69.685 211.384 M73.800 211.639 C 76.847 212.468,78.744 215.325,78.250 218.341 C 78.065 219.473,70.694 234.920,64.886 246.350 C 62.497 251.052,55.780 250.876,53.767 246.059 C 52.632 243.343,52.392 243.985,61.016 226.650 C 67.251 214.117,68.296 212.485,70.600 211.681 C 72.162 211.137,71.962 211.140,73.800 211.639 M165.189 219.700 C 162.228 221.705,162.462 217.024,162.429 274.920 C 162.398 330.955,162.284 327.883,164.462 329.845 C 164.978 330.309,166.012 330.894,166.760 331.145 C 168.686 331.790,231.314 331.790,233.240 331.145 C 235.737 330.308,237.641 327.915,237.557 325.720 C 237.522 324.790,237.453 324.873,237.151 326.210 C 236.952 327.096,236.333 328.312,235.776 328.913 C 233.582 331.279,234.813 331.200,199.947 331.200 C 163.719 331.200,165.536 331.359,163.666 328.033 L 162.800 326.491 162.800 275.026 C 162.800 219.703,162.697 222.503,164.795 220.604 C 165.278 220.168,166.151 219.598,166.736 219.338 C 167.374 219.054,167.544 218.852,167.159 218.832 C 166.807 218.815,165.920 219.205,165.189 219.700 M233.758 219.609 C 235.604 220.530,236.433 221.575,237.068 223.777 C 237.503 225.288,237.538 225.317,237.566 224.200 C 237.622 222.004,234.759 218.770,232.800 218.817 C 232.470 218.825,232.901 219.182,233.758 219.609 M342.000 225.200 C 342.000 225.420,341.764 225.600,341.475 225.600 C 340.841 225.600,339.161 227.400,338.439 228.852 C 337.875 229.988,338.006 232.561,338.783 235.600 C 340.172 241.030,341.194 246.563,341.996 253.000 C 342.693 258.591,342.835 259.084,344.147 260.465 C 349.189 265.775,356.020 262.195,355.457 254.537 C 355.122 249.976,354.555 245.622,354.258 245.325 C 353.872 244.939,353.937 245.980,354.630 251.308 C 355.493 257.941,354.860 260.114,351.572 261.814 C 347.326 264.010,343.662 261.040,342.838 254.734 C 341.718 246.156,340.893 241.705,338.947 233.723 C 337.455 227.602,342.480 223.170,347.631 226.066 C 349.853 227.314,350.724 229.626,352.733 239.600 C 353.698 244.388,353.913 245.126,353.959 243.800 C 353.999 242.627,353.804 241.594,351.997 233.400 C 350.525 226.726,348.848 224.800,344.509 224.800 C 343.103 224.800,342.000 224.976,342.000 225.200 M174.993 275.000 C 174.993 299.200,175.041 309.041,175.100 296.869 C 175.159 284.697,175.159 264.897,175.100 252.869 C 175.041 240.841,174.993 250.800,174.993 275.000 M224.993 275.000 C 224.993 299.200,225.041 309.041,225.100 296.869 C 225.159 284.697,225.159 264.897,225.100 252.869 C 225.041 240.841,224.993 250.800,224.993 275.000 M57.700 275.100 C 72.385 275.158,96.415 275.158,111.100 275.100 C 125.785 275.042,113.770 274.994,84.400 274.994 C 55.030 274.994,43.015 275.042,57.700 275.100 M262.662 287.500 C 262.494 287.771,299.396 287.770,349.600 287.496 C 360.050 287.439,344.806 287.349,315.724 287.296 C 286.642 287.243,262.764 287.335,262.662 287.500 M31.462 350.100 C 31.564 350.265,55.386 350.400,84.400 350.400 C 113.414 350.400,137.236 350.265,137.338 350.100 C 137.440 349.935,113.618 349.800,84.400 349.800 C 55.182 349.800,31.360 349.935,31.462 350.100 M262.741 350.101 C 262.907 350.267,286.793 350.357,315.821 350.301 L 368.600 350.200 315.520 350.000 C 286.326 349.890,262.576 349.936,262.741 350.101 M31.200 366.420 C 31.200 370.689,31.562 371.922,33.262 373.435 C 35.305 375.254,33.987 375.214,87.400 375.104 L 138.200 375.000 138.081 373.600 C 138.015 372.830,137.865 369.995,137.748 367.300 L 137.535 362.400 84.367 362.400 L 31.200 362.400 31.200 366.420 M262.252 367.300 C 262.135 369.995,261.985 372.830,261.919 373.600 L 261.800 375.000 312.600 375.104 C 366.013 375.214,364.695 375.254,366.738 373.435 C 368.438 371.922,368.800 370.689,368.800 366.420 L 368.800 362.400 315.633 362.400 L 262.465 362.400 262.252 367.300 M137.306 367.900 C 137.400 370.705,137.615 373.405,137.785 373.900 L 138.093 374.800 87.270 374.800 C 53.820 374.800,36.363 374.663,36.200 374.400 C 36.064 374.180,35.637 374.000,35.251 374.000 C 33.198 374.000,31.600 370.579,31.600 366.181 L 31.600 362.800 84.368 362.800 L 137.136 362.800 137.306 367.900 M368.400 366.174 C 368.400 369.843,368.018 371.296,366.673 372.735 C 364.657 374.893,367.097 374.800,312.504 374.800 L 261.907 374.800 262.227 373.900 C 262.403 373.405,262.614 370.705,262.696 367.900 L 262.844 362.800 315.622 362.800 L 368.400 362.800 368.400 366.174 M150.041 369.506 C 149.988 371.194,151.401 373.338,153.254 374.381 C 155.549 375.673,244.454 375.670,246.752 374.379 C 248.498 373.398,250.012 371.326,249.970 369.975 C 249.941 369.056,249.912 369.069,249.470 370.200 C 247.500 375.233,252.164 374.800,199.951 374.800 L 155.070 374.800 153.420 373.833 C 151.669 372.807,150.918 371.742,150.401 369.552 L 150.082 368.200 150.041 369.506 " stroke="none" fill="#2d3033" fill-rule="evenodd"></path></g></svg>