<svg xmlns="http://www.w3.org/2000/svg" xmlns:xlink="http://www.w3.org/1999/xlink" id="svg" width="400" height="400" version="1.1" viewBox="0 0 400 400"><g id="svgg"><path id="path0" fill="#050504" fill-rule="evenodd" stroke="none" d="M125.900 0.271 C 124.855 0.366,124.000 0.614,124.000 0.822 C 124.000 1.030,123.460 1.200,122.800 1.200 C 122.140 1.200,121.600 1.380,121.600 1.600 C 121.600 1.820,121.060 2.000,120.400 2.000 C 119.740 2.000,119.200 2.180,119.200 2.400 C 119.200 2.620,118.840 2.800,118.400 2.800 C 117.960 2.800,117.600 2.980,117.600 3.200 C 117.600 3.420,117.276 3.600,116.880 3.600 C 115.986 3.600,114.007 4.494,114.003 4.900 C 114.001 5.065,113.730 5.200,113.400 5.200 C 113.070 5.200,112.800 5.380,112.800 5.600 C 112.800 5.820,112.517 6.000,112.171 6.000 C 111.826 6.000,111.315 6.225,111.037 6.500 C 110.759 6.775,110.034 7.360,109.426 7.800 C 105.799 10.422,104.421 11.551,102.900 13.145 C 101.965 14.125,101.200 15.080,101.200 15.267 C 101.200 15.454,100.660 16.172,100.000 16.863 C 99.340 17.554,98.800 18.322,98.800 18.571 C 98.800 18.820,98.440 19.283,98.000 19.600 C 97.560 19.917,97.200 20.497,97.200 20.888 C 97.200 21.280,97.020 21.600,96.800 21.600 C 96.580 21.600,96.400 21.960,96.400 22.400 C 96.400 22.840,96.260 23.200,96.088 23.200 C 95.702 23.200,93.200 28.443,93.200 29.252 C 93.200 29.575,93.049 30.011,92.865 30.220 C 92.680 30.429,92.201 32.085,91.799 33.900 C 91.094 37.086,91.030 37.200,89.935 37.200 C 89.311 37.200,88.800 37.020,88.800 36.800 C 88.800 36.580,88.271 36.400,87.624 36.400 C 86.977 36.400,86.336 36.220,86.200 36.000 C 85.868 35.462,74.800 35.462,74.800 36.000 C 74.800 36.220,74.260 36.400,73.600 36.400 C 72.940 36.400,72.400 36.580,72.400 36.800 C 72.400 37.020,71.860 37.200,71.200 37.200 C 70.540 37.200,70.000 37.380,70.000 37.600 C 70.000 37.820,69.680 38.000,69.288 38.000 C 68.897 38.000,68.317 38.360,68.000 38.800 C 67.683 39.240,67.200 39.600,66.927 39.600 C 66.216 39.600,61.797 43.690,58.334 47.553 L 56.469 49.634 53.352 46.617 C 51.638 44.958,50.105 43.600,49.946 43.600 C 49.787 43.600,49.419 43.366,49.129 43.080 C 48.442 42.405,44.397 40.400,43.721 40.400 C 43.435 40.400,43.200 40.220,43.200 40.000 C 43.200 39.780,42.851 39.600,42.424 39.600 C 41.997 39.600,41.536 39.420,41.400 39.200 C 41.264 38.980,40.544 38.800,39.800 38.800 C 39.056 38.800,38.336 38.620,38.200 38.400 C 38.057 38.168,35.863 38.000,32.976 38.000 C 29.925 38.000,28.000 38.155,28.000 38.400 C 28.000 38.620,27.280 38.800,26.400 38.800 C 25.520 38.800,24.800 38.980,24.800 39.200 C 24.800 39.420,24.260 39.600,23.600 39.600 C 22.940 39.600,22.400 39.780,22.400 40.000 C 22.400 40.220,22.040 40.400,21.600 40.400 C 21.160 40.400,20.800 40.580,20.800 40.800 C 20.800 41.020,20.440 41.200,20.000 41.200 C 19.560 41.200,19.200 41.362,19.200 41.561 C 19.200 41.759,18.672 42.106,18.027 42.331 C 16.676 42.802,10.400 48.970,10.400 49.827 C 10.400 50.142,10.262 50.400,10.094 50.400 C 9.677 50.400,8.400 53.417,8.400 54.403 C 8.400 54.841,8.220 55.200,8.000 55.200 C 7.780 55.200,7.600 55.740,7.600 56.400 C 7.600 57.060,7.420 57.600,7.200 57.600 C 6.934 57.600,6.800 91.601,6.800 158.804 L 6.800 260.007 7.996 261.259 C 10.059 263.418,11.646 264.011,12.657 263.000 C 12.987 262.670,13.632 262.400,14.091 262.400 C 14.549 262.400,15.529 261.939,16.267 261.376 C 19.009 259.285,18.799 267.666,18.806 159.651 C 18.811 83.042,18.919 61.496,19.306 60.399 C 22.162 52.300,31.694 48.044,38.999 51.607 C 41.262 52.710,43.802 55.046,63.187 73.851 C 66.164 76.739,69.590 80.047,70.800 81.202 C 72.010 82.357,74.984 85.214,77.409 87.551 C 79.833 89.888,86.583 96.389,92.409 101.997 C 98.234 107.606,105.610 114.713,108.800 117.791 C 111.990 120.869,116.937 125.640,119.793 128.393 C 124.310 132.749,132.670 140.822,137.197 145.200 C 137.993 145.970,140.435 148.310,142.624 150.400 C 144.813 152.490,149.933 157.423,154.002 161.363 C 158.071 165.303,163.200 170.247,165.400 172.349 C 167.600 174.452,172.190 178.879,175.600 182.187 C 179.010 185.495,184.145 190.451,187.011 193.201 C 189.878 195.950,195.015 200.900,198.427 204.200 C 206.091 211.612,222.867 227.762,229.589 234.199 C 232.345 236.838,237.570 241.879,241.200 245.400 C 248.359 252.346,267.256 270.566,273.973 277.000 C 276.270 279.200,280.951 283.725,284.375 287.056 C 287.799 290.388,291.230 293.692,292.000 294.399 C 292.770 295.107,297.805 299.942,303.190 305.143 C 308.574 310.344,315.411 316.940,318.382 319.800 C 321.353 322.660,326.218 327.354,329.192 330.230 C 332.166 333.107,337.023 337.787,339.984 340.630 C 342.946 343.474,347.986 348.335,351.184 351.434 C 354.383 354.533,358.941 358.930,361.314 361.206 C 366.919 366.583,368.162 368.912,368.142 374.000 C 368.116 380.691,364.226 385.865,357.640 387.966 C 354.896 388.842,30.998 388.550,28.594 387.670 C 24.207 386.063,21.836 383.884,19.935 379.709 L 18.800 377.218 18.800 329.858 C 18.800 275.109,19.170 279.202,14.075 277.574 C 13.264 277.315,12.461 276.977,12.291 276.822 C 11.618 276.212,9.518 276.962,8.194 278.286 L 6.800 279.680 6.800 330.240 C 6.800 363.680,6.935 380.800,7.200 380.800 C 7.420 380.800,7.600 381.340,7.600 382.000 C 7.600 382.660,7.780 383.200,8.000 383.200 C 8.220 383.200,8.400 383.706,8.400 384.324 C 8.400 385.426,10.895 390.071,11.627 390.333 C 11.832 390.407,12.000 390.636,12.000 390.844 C 12.000 391.295,15.445 394.800,15.889 394.801 C 16.060 394.801,16.830 395.341,17.600 396.000 C 18.370 396.659,19.225 397.199,19.500 397.199 C 19.775 397.200,20.000 397.380,20.000 397.600 C 20.000 397.820,20.360 398.000,20.800 398.000 C 21.240 398.000,21.600 398.180,21.600 398.400 C 21.600 398.620,22.125 398.800,22.767 398.800 C 23.408 398.800,24.008 399.025,24.100 399.300 C 24.345 400.036,363.255 400.036,363.500 399.300 C 363.592 399.025,364.012 398.800,364.433 398.800 C 364.855 398.800,365.200 398.620,365.200 398.400 C 365.200 398.180,365.560 398.000,366.000 398.000 C 366.440 398.000,366.800 397.820,366.800 397.600 C 366.800 397.380,367.160 397.200,367.600 397.200 C 368.040 397.200,368.400 397.020,368.400 396.800 C 368.400 396.580,368.646 396.400,368.946 396.400 C 369.612 396.400,375.200 391.085,375.200 390.452 C 375.200 390.203,375.380 390.000,375.600 390.000 C 375.820 390.000,376.000 389.730,376.000 389.400 C 376.000 389.070,376.146 388.800,376.325 388.800 C 376.504 388.800,376.898 388.170,377.200 387.400 C 377.502 386.630,377.896 386.000,378.075 386.000 C 378.254 386.000,378.400 385.550,378.400 385.000 C 378.400 384.450,378.580 384.000,378.800 384.000 C 379.020 384.000,379.200 383.460,379.200 382.800 C 379.200 382.140,379.380 381.600,379.600 381.600 C 379.820 381.600,380.000 380.891,380.000 380.024 C 380.000 379.157,380.180 378.336,380.400 378.200 C 380.625 378.061,380.800 376.137,380.800 373.800 C 380.800 371.463,380.625 369.539,380.400 369.400 C 380.180 369.264,380.000 368.443,380.000 367.576 C 380.000 366.709,379.820 366.000,379.600 366.000 C 379.380 366.000,379.200 365.460,379.200 364.800 C 379.200 364.140,379.020 363.600,378.800 363.600 C 378.580 363.600,378.400 363.240,378.400 362.800 C 378.400 362.360,378.220 362.000,378.000 362.000 C 377.780 362.000,377.600 361.640,377.600 361.200 C 377.600 360.760,377.420 360.400,377.200 360.400 C 376.980 360.400,376.800 360.212,376.800 359.982 C 376.800 359.752,376.350 359.114,375.800 358.564 C 375.250 358.014,374.800 357.361,374.800 357.113 C 374.800 356.593,368.484 350.400,367.953 350.400 C 366.882 350.400,368.179 348.738,373.400 343.421 C 376.590 340.172,379.200 337.303,379.200 337.045 C 379.200 336.787,379.560 336.317,380.000 336.000 C 380.440 335.683,380.800 335.103,380.800 334.712 C 380.800 334.320,380.980 334.000,381.200 334.000 C 381.420 334.000,381.600 333.640,381.600 333.200 C 381.600 332.760,381.780 332.400,382.000 332.400 C 382.220 332.400,382.400 332.051,382.400 331.624 C 382.400 331.197,382.580 330.736,382.800 330.600 C 383.020 330.464,383.200 329.733,383.200 328.976 C 383.200 328.219,383.380 327.600,383.600 327.600 C 383.847 327.600,384.000 325.533,384.000 322.200 C 384.000 318.867,383.847 316.800,383.600 316.800 C 383.380 316.800,383.200 316.271,383.200 315.624 C 383.200 314.977,383.020 314.336,382.800 314.200 C 382.580 314.064,382.400 313.513,382.400 312.976 C 382.400 312.439,382.220 312.000,382.000 312.000 C 381.780 312.000,381.600 311.190,381.600 310.200 C 381.600 309.210,381.420 308.400,381.200 308.400 C 380.948 308.400,380.800 305.667,380.800 301.000 C 380.800 296.333,380.652 293.600,380.400 293.600 C 379.685 293.600,379.978 292.592,380.867 291.988 C 382.175 291.101,387.200 285.994,387.200 285.553 C 387.200 285.340,387.560 284.780,388.000 284.308 C 388.440 283.836,388.800 283.213,388.800 282.925 C 388.800 282.636,388.980 282.400,389.200 282.400 C 389.420 282.400,389.600 282.040,389.600 281.600 C 389.600 281.160,389.780 280.800,390.000 280.800 C 390.220 280.800,390.400 280.440,390.400 280.000 C 390.400 279.560,390.574 279.200,390.786 279.200 C 390.999 279.200,391.292 278.300,391.438 277.200 C 391.584 276.100,391.860 275.200,392.052 275.200 C 392.243 275.200,392.400 274.390,392.400 273.400 C 392.400 272.410,392.580 271.600,392.800 271.600 C 393.043 271.600,393.200 269.800,393.200 267.000 C 393.200 264.200,393.043 262.400,392.800 262.400 C 392.580 262.400,392.400 261.691,392.400 260.824 C 392.400 259.957,392.237 259.146,392.037 259.023 C 391.838 258.900,391.551 257.900,391.400 256.800 C 391.249 255.700,390.962 254.700,390.763 254.577 C 390.563 254.454,390.400 254.003,390.400 253.576 C 390.400 253.149,390.220 252.800,390.000 252.800 C 389.780 252.800,389.600 252.440,389.600 252.000 C 389.600 251.560,389.441 251.200,389.247 251.200 C 389.052 251.200,388.793 250.885,388.671 250.500 C 388.383 249.591,387.188 247.647,386.300 246.642 C 385.915 246.206,385.600 245.653,385.600 245.413 C 385.600 245.173,385.240 244.717,384.800 244.400 C 384.360 244.083,384.000 243.665,384.000 243.472 C 384.000 243.279,383.460 242.617,382.800 242.000 C 382.140 241.383,381.600 240.663,381.600 240.400 C 381.600 240.137,381.060 239.417,380.400 238.800 C 379.740 238.183,379.200 237.503,379.200 237.288 C 379.200 237.073,378.480 236.155,377.600 235.248 C 376.720 234.341,376.000 233.329,376.000 233.000 C 376.000 232.670,375.853 232.400,375.674 232.400 C 375.495 232.400,375.039 231.815,374.661 231.100 C 374.283 230.385,373.456 228.900,372.823 227.800 C 372.190 226.700,371.656 225.395,371.636 224.900 C 371.616 224.405,371.420 224.000,371.200 224.000 C 370.699 224.000,370.661 217.460,371.156 216.495 C 372.380 214.109,374.934 205.060,375.109 202.491 C 375.217 200.891,375.462 199.485,375.653 199.367 C 376.102 199.090,376.108 193.600,375.659 193.600 C 375.472 193.600,375.212 191.954,375.081 189.942 C 374.951 187.930,374.654 186.094,374.422 185.862 C 374.190 185.630,374.000 185.037,374.000 184.544 C 374.000 184.051,373.820 183.536,373.600 183.400 C 373.380 183.264,373.200 182.803,373.200 182.376 C 373.200 181.949,373.020 181.600,372.800 181.600 C 372.580 181.600,372.400 181.355,372.400 181.056 C 372.400 180.289,369.936 175.600,369.533 175.600 C 369.350 175.600,369.200 175.240,369.200 174.800 C 369.200 174.360,369.020 174.000,368.800 174.000 C 368.580 174.000,368.400 173.680,368.400 173.288 C 368.400 172.897,368.040 172.317,367.600 172.000 C 367.160 171.683,366.800 171.143,366.800 170.800 C 366.800 170.457,366.440 169.917,366.000 169.600 C 365.560 169.283,365.200 168.743,365.200 168.400 C 365.200 168.057,364.840 167.517,364.400 167.200 C 363.960 166.883,363.600 166.343,363.600 166.000 C 363.600 165.657,363.240 165.117,362.800 164.800 C 362.360 164.483,362.000 163.943,362.000 163.600 C 362.000 163.257,361.640 162.717,361.200 162.400 C 360.760 162.083,360.400 161.627,360.400 161.387 C 360.400 161.147,360.062 160.588,359.649 160.145 C 359.236 159.701,358.774 158.947,358.622 158.469 C 358.470 157.991,358.214 157.600,358.052 157.600 C 357.890 157.600,357.317 156.703,356.779 155.606 C 356.240 154.510,355.665 153.610,355.500 153.606 C 355.335 153.603,355.200 153.240,355.200 152.800 C 355.200 152.360,355.020 152.000,354.800 152.000 C 354.580 152.000,354.400 151.640,354.400 151.200 C 354.400 150.760,354.220 150.400,354.000 150.400 C 353.780 150.400,353.600 150.040,353.600 149.600 C 353.600 149.160,353.420 148.800,353.200 148.800 C 352.980 148.800,352.800 148.440,352.800 148.000 C 352.800 147.560,352.620 147.200,352.400 147.200 C 352.180 147.200,352.000 146.660,352.000 146.000 C 352.000 145.340,351.820 144.800,351.600 144.800 C 351.380 144.800,351.200 144.170,351.200 143.400 C 351.200 142.630,351.020 142.000,350.800 142.000 C 350.580 142.000,350.400 141.368,350.400 140.595 C 350.400 137.195,345.683 133.247,343.834 135.100 C 343.669 135.265,342.894 135.580,342.111 135.801 C 334.547 137.929,337.842 150.011,351.681 170.894 C 364.554 190.320,365.439 193.723,361.055 206.940 C 355.942 222.351,357.411 229.602,368.563 244.000 C 379.058 257.551,380.584 260.475,380.567 267.000 C 380.551 273.093,375.707 282.664,374.096 279.786 C 370.807 273.909,360.806 268.405,352.217 267.745 C 347.648 267.393,347.964 267.922,347.553 259.949 C 346.142 232.613,345.737 225.111,345.189 216.200 C 344.247 200.888,343.977 196.250,343.603 189.000 C 342.750 172.440,337.550 162.988,326.123 157.223 C 321.934 155.110,321.396 154.913,316.800 153.802 C 315.309 153.442,303.945 152.699,283.200 151.605 C 279.130 151.391,272.609 151.045,268.709 150.837 C 264.809 150.628,261.451 150.355,261.248 150.230 C 261.045 150.104,260.870 146.716,260.859 142.701 C 260.717 88.250,209.649 48.221,156.465 60.873 C 149.761 62.468,145.214 64.079,139.025 67.051 C 136.171 68.422,136.177 68.427,135.586 64.300 C 135.294 62.265,134.620 59.430,134.088 58.000 C 133.556 56.570,133.027 55.085,132.913 54.700 C 132.800 54.315,132.548 54.000,132.353 54.000 C 132.159 54.000,132.000 53.807,132.000 53.572 C 132.000 50.359,121.237 41.377,115.400 39.718 C 111.369 38.573,110.302 38.400,107.254 38.400 L 104.000 38.400 104.000 37.250 C 104.000 29.863,114.310 17.689,123.600 14.106 C 135.997 9.324,145.840 10.819,159.093 19.495 C 174.799 29.776,180.716 29.792,201.400 19.609 C 206.680 17.010,211.720 14.662,212.600 14.391 C 213.480 14.119,214.613 13.741,215.119 13.549 C 219.323 11.953,223.483 13.729,229.800 19.818 C 241.665 31.255,248.457 32.326,266.400 25.586 C 279.017 20.846,285.274 20.112,293.711 22.380 C 306.442 25.803,312.957 33.940,314.384 48.200 C 315.843 62.766,317.564 66.111,331.061 80.604 C 341.132 91.418,343.503 98.775,341.039 111.570 C 340.098 116.459,341.609 120.400,344.426 120.400 C 344.865 120.400,345.329 120.670,345.455 121.000 C 345.716 121.680,348.800 121.865,348.800 121.200 C 348.800 120.980,349.078 120.800,349.418 120.800 C 350.218 120.800,352.000 119.018,352.000 118.218 C 352.000 117.878,352.160 117.600,352.356 117.600 C 352.802 117.600,353.203 115.459,353.463 111.700 C 353.573 110.105,353.829 108.800,354.032 108.800 C 354.541 108.800,354.510 97.315,354.000 97.000 C 353.780 96.864,353.600 95.863,353.600 94.776 C 353.600 93.689,353.420 92.800,353.200 92.800 C 352.980 92.800,352.800 92.260,352.800 91.600 C 352.800 90.940,352.620 90.400,352.400 90.400 C 352.180 90.400,352.000 89.860,352.000 89.200 C 352.000 88.540,351.820 88.000,351.600 88.000 C 351.380 88.000,351.200 87.640,351.200 87.200 C 351.200 86.760,351.020 86.400,350.800 86.400 C 350.580 86.400,350.400 86.040,350.400 85.600 C 350.400 85.160,350.220 84.800,350.000 84.800 C 349.780 84.800,349.600 84.440,349.600 84.000 C 349.600 83.560,349.420 83.200,349.200 83.200 C 348.980 83.200,348.800 82.880,348.800 82.488 C 348.800 82.097,348.440 81.517,348.000 81.200 C 347.560 80.883,347.200 80.428,347.200 80.190 C 347.200 79.951,346.566 79.046,345.791 78.178 C 345.016 77.310,343.711 75.826,342.891 74.880 C 342.071 73.933,340.196 71.911,338.724 70.384 C 337.252 68.858,335.543 66.932,334.925 66.105 C 334.308 65.277,333.352 64.150,332.801 63.600 C 332.251 63.050,331.545 62.105,331.232 61.500 C 330.920 60.895,330.515 60.400,330.332 60.400 C 330.150 60.400,330.000 60.130,330.000 59.800 C 330.000 59.470,329.820 59.200,329.600 59.200 C 329.380 59.200,329.200 58.840,329.200 58.400 C 329.200 57.960,329.020 57.600,328.800 57.600 C 328.580 57.600,328.400 57.240,328.400 56.800 C 328.400 56.360,328.220 56.000,328.000 56.000 C 327.780 56.000,327.600 55.100,327.600 54.000 C 327.600 52.900,327.420 52.000,327.200 52.000 C 326.963 52.000,326.800 50.541,326.800 48.424 C 326.800 46.457,326.620 44.736,326.400 44.600 C 326.180 44.464,326.000 43.283,326.000 41.976 C 326.000 40.669,325.846 39.600,325.657 39.600 C 325.468 39.600,325.197 38.483,325.054 37.118 C 324.912 35.752,324.616 34.456,324.398 34.238 C 324.179 34.019,324.000 33.604,324.000 33.316 C 324.000 30.459,313.375 16.800,311.152 16.800 C 310.900 16.800,310.403 16.484,310.047 16.097 C 309.691 15.711,308.860 15.126,308.200 14.798 C 307.540 14.470,306.910 14.111,306.800 14.001 C 306.324 13.523,304.761 12.800,304.205 12.800 C 303.872 12.800,303.600 12.620,303.600 12.400 C 303.600 12.180,303.251 12.000,302.824 12.000 C 302.397 12.000,301.936 11.820,301.800 11.600 C 301.664 11.380,301.124 11.200,300.600 11.200 C 300.076 11.200,299.549 11.041,299.429 10.846 C 299.308 10.651,298.623 10.376,297.905 10.233 C 297.187 10.091,295.610 9.763,294.400 9.506 C 291.519 8.893,277.681 8.928,274.800 9.555 C 273.590 9.818,272.015 10.136,271.300 10.260 C 270.585 10.385,270.000 10.648,270.000 10.844 C 270.000 11.040,269.460 11.200,268.800 11.200 C 268.140 11.200,267.600 11.347,267.600 11.528 C 267.600 11.708,266.700 12.100,265.600 12.400 C 264.500 12.700,263.600 13.092,263.600 13.272 C 263.600 13.453,263.245 13.600,262.812 13.600 C 262.379 13.600,261.383 13.960,260.600 14.400 C 259.817 14.840,258.821 15.200,258.388 15.200 C 257.955 15.200,257.600 15.380,257.600 15.600 C 257.600 15.820,257.060 16.000,256.400 16.000 C 255.740 16.000,255.200 16.180,255.200 16.400 C 255.200 16.620,254.401 16.800,253.424 16.800 C 252.447 16.800,251.536 16.980,251.400 17.200 C 251.264 17.420,250.454 17.600,249.600 17.600 C 248.746 17.600,247.936 17.420,247.800 17.200 C 247.664 16.980,247.113 16.800,246.576 16.800 C 246.039 16.800,245.600 16.620,245.600 16.400 C 245.600 16.180,245.240 16.000,244.800 16.000 C 244.360 16.000,244.000 15.850,244.000 15.668 C 244.000 15.485,243.570 15.105,243.045 14.824 C 242.520 14.543,240.194 12.442,237.878 10.156 C 235.561 7.870,233.420 6.000,233.121 6.000 C 232.822 6.000,232.317 5.640,232.000 5.200 C 231.683 4.760,231.186 4.400,230.895 4.400 C 230.604 4.400,229.980 4.040,229.508 3.600 C 229.036 3.160,228.233 2.800,227.725 2.800 C 227.216 2.800,226.800 2.620,226.800 2.400 C 226.800 2.180,226.361 2.000,225.824 2.000 C 225.287 2.000,224.736 1.820,224.600 1.600 C 224.266 1.060,212.000 1.060,212.000 1.600 C 212.000 1.820,211.370 2.000,210.600 2.000 C 209.830 2.000,209.200 2.180,209.200 2.400 C 209.200 2.620,208.660 2.800,208.000 2.800 C 207.340 2.800,206.800 2.980,206.800 3.200 C 206.800 3.420,206.440 3.600,206.000 3.600 C 205.560 3.600,205.200 3.780,205.200 4.000 C 205.200 4.220,204.660 4.400,204.000 4.400 C 203.340 4.400,202.800 4.580,202.800 4.800 C 202.800 5.020,202.440 5.200,202.000 5.200 C 201.560 5.200,201.200 5.380,201.200 5.600 C 201.200 5.820,200.840 6.000,200.400 6.000 C 199.960 6.000,199.600 6.180,199.600 6.400 C 199.600 6.620,199.255 6.800,198.833 6.800 C 198.412 6.800,198.007 6.935,197.933 7.100 C 197.860 7.265,196.360 8.108,194.600 8.973 C 192.840 9.838,191.340 10.693,191.267 10.873 C 191.193 11.053,190.876 11.200,190.561 11.200 C 190.005 11.200,189.572 11.373,187.705 12.338 C 187.213 12.592,186.538 12.800,186.205 12.800 C 185.872 12.800,185.600 12.980,185.600 13.200 C 185.600 13.420,185.060 13.600,184.400 13.600 C 183.740 13.600,183.200 13.780,183.200 14.000 C 183.200 14.512,175.841 14.535,174.895 14.026 C 174.513 13.821,173.615 13.417,172.900 13.129 C 172.185 12.840,171.600 12.469,171.600 12.302 C 171.600 12.136,171.322 12.000,170.983 12.000 C 170.644 12.000,169.980 11.640,169.508 11.200 C 169.036 10.760,168.413 10.400,168.125 10.400 C 167.836 10.400,167.600 10.247,167.600 10.061 C 167.600 9.874,166.880 9.397,166.000 9.000 C 165.120 8.603,164.400 8.126,164.400 7.939 C 164.400 7.753,164.080 7.600,163.688 7.600 C 163.297 7.600,162.717 7.240,162.400 6.800 C 162.083 6.360,161.503 6.000,161.112 6.000 C 160.720 6.000,160.400 5.820,160.400 5.600 C 160.400 5.380,160.040 5.200,159.600 5.200 C 159.160 5.200,158.800 5.020,158.800 4.800 C 158.800 4.580,158.530 4.400,158.200 4.400 C 157.870 4.400,157.600 4.220,157.600 4.000 C 157.600 3.780,157.240 3.600,156.800 3.600 C 156.360 3.600,156.000 3.420,156.000 3.200 C 156.000 2.980,155.640 2.800,155.200 2.800 C 154.760 2.800,154.400 2.620,154.400 2.400 C 154.400 2.180,153.860 2.000,153.200 2.000 C 152.540 2.000,152.000 1.820,152.000 1.600 C 152.000 1.380,151.496 1.200,150.880 1.200 C 150.264 1.200,149.540 0.980,149.270 0.710 C 148.779 0.219,130.298 -0.128,125.900 0.271 M84.600 48.380 C 88.208 49.469,91.068 49.715,100.600 49.756 L 110.600 49.800 113.600 51.248 C 121.731 55.172,124.075 59.844,124.797 73.573 C 125.612 89.050,129.136 96.307,138.859 102.527 C 144.668 106.243,148.160 106.975,159.600 106.874 C 168.116 106.800,172.368 107.166,173.380 108.063 C 173.589 108.248,174.004 108.400,174.302 108.400 C 175.354 108.400,179.631 111.663,181.229 113.685 C 184.674 118.042,185.129 119.691,185.625 129.600 C 186.513 147.323,191.274 156.084,203.000 161.566 C 208.445 164.112,208.982 164.198,219.600 164.224 C 233.612 164.257,236.154 164.917,240.953 169.762 C 245.459 174.311,246.187 176.622,246.764 188.218 C 247.423 201.469,249.263 206.544,255.762 213.035 C 262.691 219.956,267.771 221.597,282.283 221.605 C 302.665 221.615,308.000 227.517,308.000 250.052 C 308.000 258.060,311.870 266.402,317.966 271.531 C 319.188 272.559,320.539 273.715,320.969 274.100 C 321.399 274.485,321.972 274.800,322.242 274.800 C 322.512 274.800,322.793 274.935,322.867 275.100 C 323.003 275.406,325.957 276.905,327.400 277.400 C 331.450 278.789,332.733 278.918,342.000 278.864 C 350.862 278.812,355.180 279.177,356.180 280.063 C 356.389 280.248,356.807 280.400,357.108 280.400 C 357.845 280.400,361.046 282.579,362.921 284.357 C 367.269 288.481,368.800 293.741,368.800 304.564 C 368.801 309.738,369.388 313.359,371.009 318.190 C 372.362 322.221,372.071 325.466,370.087 328.473 C 369.101 329.968,359.786 339.813,358.473 340.748 L 357.396 341.515 353.198 337.504 C 350.889 335.298,345.220 329.849,340.600 325.395 C 329.798 314.980,327.956 313.207,322.400 307.875 C 312.951 298.806,298.852 285.204,292.827 279.344 C 289.402 276.012,285.970 272.708,285.200 272.001 C 283.639 270.567,277.630 264.784,268.598 256.022 C 262.914 250.509,244.848 233.080,240.795 229.200 C 239.761 228.210,234.998 223.620,230.211 219.000 C 225.424 214.380,220.763 209.901,219.853 209.047 C 218.308 207.596,216.409 205.765,202.400 192.219 C 188.310 178.594,183.934 174.374,175.427 166.200 C 170.389 161.360,165.068 156.230,163.601 154.800 C 162.134 153.370,157.174 148.600,152.578 144.200 C 147.983 139.800,141.159 133.230,137.414 129.600 C 126.226 118.755,119.695 112.448,114.202 107.182 C 109.307 102.491,100.935 94.416,96.802 90.400 C 95.783 89.410,93.070 86.800,90.773 84.600 C 72.134 66.752,64.763 59.506,64.891 59.160 C 65.193 58.340,73.025 50.325,74.306 49.524 C 77.354 47.619,80.808 47.235,84.600 48.380 M183.670 70.397 C 213.798 73.329,239.574 95.534,247.200 125.125 C 249.006 132.133,250.077 143.536,249.311 147.600 L 248.971 149.400 245.386 149.292 C 243.414 149.233,239.100 149.014,235.800 148.805 C 232.500 148.597,225.570 148.226,220.400 147.981 C 200.303 147.028,201.526 147.318,199.444 143.000 C 197.794 139.579,197.601 138.481,197.194 130.226 C 196.512 116.381,194.970 111.661,189.065 105.339 C 181.703 97.455,177.619 96.000,161.800 95.623 C 151.889 95.387,149.938 95.240,148.400 94.612 C 143.546 92.632,139.286 88.420,137.713 84.047 L 136.842 81.625 137.899 80.794 C 146.981 73.650,168.008 68.873,183.670 70.397 M52.600 98.059 C 51.489 98.663,30.583 119.444,29.159 121.360 C 25.344 126.494,31.339 132.907,36.708 129.435 C 38.230 128.451,58.376 108.342,59.939 106.246 C 63.216 101.854,57.451 95.423,52.600 98.059 M106.212 141.615 C 104.687 142.081,40.172 206.424,39.360 208.287 C 37.250 213.134,42.215 218.221,46.720 215.826 C 48.785 214.728,113.066 149.917,113.551 148.443 C 114.877 144.417,110.466 140.313,106.212 141.615 M263.200 161.832 C 264.190 161.945,268.510 162.218,272.800 162.438 C 277.090 162.658,283.480 163.000,287.000 163.198 C 290.520 163.397,296.820 163.737,301.000 163.955 C 316.239 164.747,318.572 165.288,323.800 169.235 C 329.874 173.821,331.664 178.565,332.388 192.000 C 332.631 196.510,333.002 203.260,333.211 207.000 C 333.420 210.740,333.780 217.220,334.010 221.400 C 334.239 225.580,334.597 231.790,334.804 235.200 C 335.010 238.610,335.369 245.090,335.600 249.600 C 335.832 254.110,336.173 259.870,336.359 262.400 C 336.762 267.897,336.820 267.759,334.249 267.418 C 323.963 266.057,318.833 257.613,318.807 242.000 C 318.790 231.959,316.039 225.040,309.548 218.716 C 302.620 211.966,297.590 210.400,282.834 210.400 C 272.927 210.400,272.296 210.316,268.400 208.488 C 265.836 207.284,261.696 203.340,260.466 200.929 C 258.687 197.443,258.416 195.942,257.984 187.200 C 257.376 174.884,255.905 169.864,251.221 164.122 C 250.109 162.760,249.200 161.541,249.200 161.413 C 249.200 161.163,260.240 161.494,263.200 161.832 M151.800 192.337 C 148.926 194.094,49.361 294.285,48.874 295.910 C 47.645 300.012,51.929 304.216,55.926 302.831 C 57.511 302.282,158.267 202.099,159.426 199.920 C 161.902 195.262,156.234 189.626,151.800 192.337 M200.400 240.674 C 199.404 240.877,94.631 345.225,93.115 347.524 C 90.071 352.140,96.214 358.384,100.811 355.347 C 102.830 354.013,206.475 250.159,207.227 248.716 C 209.577 244.205,205.669 239.601,200.400 240.674 M252.000 285.869 C 250.024 286.241,178.521 358.289,178.215 360.218 C 177.549 364.407,181.385 367.896,185.350 366.708 C 186.788 366.277,254.864 299.025,258.300 294.641 C 260.312 292.073,258.521 286.003,255.750 286.000 C 255.503 286.000,254.782 285.928,254.150 285.841 C 253.518 285.753,252.550 285.766,252.000 285.869 M301.400 332.620 C 299.721 333.868,274.240 359.459,273.539 360.600 C 271.277 364.288,274.033 368.800,278.548 368.800 L 280.952 368.800 295.024 354.765 C 310.373 339.456,310.678 339.066,309.623 336.076 C 308.389 332.580,303.959 330.718,301.400 332.620"/><path id="path1" fill="#f28838" fill-rule="evenodd" stroke="none" d="M29.200 51.583 C 28.870 51.767,27.811 52.245,26.847 52.644 C 23.389 54.075,20.580 57.853,19.645 62.331 C 19.326 63.859,19.197 91.656,19.190 160.731 C 19.185 217.362,19.030 257.659,18.816 258.600 C 18.356 260.613,16.344 262.435,13.842 263.104 L 12.000 263.597 12.000 269.984 C 12.000 276.903,12.098 277.200,14.388 277.200 C 15.518 277.200,17.028 278.236,18.110 279.753 L 19.000 281.000 19.200 329.400 L 19.400 377.800 20.499 379.885 C 22.711 384.081,26.035 386.664,30.400 387.580 C 32.920 388.109,354.100 387.949,357.103 387.417 C 358.039 387.251,358.905 386.955,359.026 386.758 C 359.148 386.561,359.505 386.400,359.819 386.400 C 361.121 386.400,365.198 382.336,366.245 379.994 C 370.063 371.453,368.407 368.519,349.985 351.200 C 347.060 348.450,342.839 344.400,340.604 342.200 C 338.369 340.000,333.323 335.140,329.391 331.400 C 325.458 327.660,318.634 321.090,314.226 316.800 C 309.817 312.510,304.154 307.020,301.642 304.600 C 299.129 302.180,295.067 298.220,292.615 295.800 C 290.163 293.380,287.357 290.707,286.379 289.860 C 285.400 289.014,279.836 283.704,274.014 278.060 C 268.192 272.417,261.635 266.090,259.442 264.000 C 257.249 261.910,254.266 259.030,252.812 257.600 C 251.358 256.170,245.594 250.590,240.002 245.200 C 234.411 239.810,228.371 233.960,226.581 232.200 C 224.791 230.440,220.913 226.727,217.964 223.949 C 215.014 221.171,210.240 216.581,207.355 213.749 C 204.471 210.917,199.476 206.107,196.256 203.059 C 193.036 200.011,188.628 195.781,186.460 193.659 C 184.293 191.537,178.667 186.088,173.960 181.551 C 169.252 177.013,163.670 171.613,161.555 169.551 C 159.440 167.488,154.501 162.740,150.580 159.000 C 146.660 155.260,141.704 150.490,139.568 148.400 C 137.433 146.310,132.486 141.540,128.575 137.800 C 124.665 134.060,120.085 129.650,118.397 128.000 C 116.709 126.350,113.364 123.128,110.964 120.840 C 108.564 118.552,103.339 113.512,99.353 109.640 C 95.367 105.768,88.542 99.180,84.187 95.000 C 79.832 90.820,74.884 86.050,73.192 84.400 C 71.500 82.750,66.732 78.160,62.597 74.200 C 58.462 70.240,53.693 65.650,51.999 64.000 C 41.739 54.007,40.276 52.791,37.200 51.706 C 35.628 51.151,30.122 51.067,29.200 51.583 M57.999 97.400 C 60.224 98.550,61.200 100.362,61.200 103.341 L 61.200 106.006 49.700 117.511 C 36.396 130.822,36.422 130.800,33.612 130.800 C 28.701 130.800,25.819 126.262,28.062 122.060 C 29.074 120.164,51.348 97.829,52.808 97.247 C 54.295 96.653,56.693 96.724,57.999 97.400 M109.600 140.800 C 109.600 141.020,109.887 141.200,110.238 141.200 C 113.100 141.200,115.565 146.881,113.900 149.639 C 113.168 150.852,48.213 215.655,47.123 216.259 C 42.399 218.881,36.428 213.431,38.534 208.421 C 39.223 206.783,104.710 141.200,105.657 141.200 C 106.040 141.200,106.464 141.020,106.600 140.800 C 106.736 140.580,107.467 140.400,108.224 140.400 C 108.981 140.400,109.600 140.580,109.600 140.800 M250.276 161.857 C 250.151 161.983,250.415 162.471,250.864 162.943 C 253.182 165.379,255.776 170.073,256.755 173.600 C 257.030 174.590,257.414 175.940,257.609 176.600 C 257.803 177.260,258.160 181.670,258.400 186.400 C 259.001 198.218,259.556 199.965,264.191 204.621 C 268.934 209.386,269.959 209.665,284.000 210.007 C 290.050 210.155,295.630 210.462,296.400 210.690 C 312.380 215.426,319.581 226.740,319.597 247.135 C 319.600 251.921,320.558 256.488,321.943 258.324 C 322.576 259.164,322.594 259.066,322.304 256.303 C 322.023 253.631,321.817 250.269,320.791 231.600 C 320.591 227.970,320.248 221.850,320.028 218.000 C 319.808 214.150,319.444 207.760,319.220 203.800 C 318.996 199.840,318.630 193.360,318.406 189.400 C 317.617 175.463,317.252 172.984,315.372 168.803 C 314.729 167.375,314.251 165.999,314.310 165.746 C 314.427 165.234,312.027 165.012,299.600 164.385 C 291.510 163.978,283.060 163.505,271.400 162.809 C 267.660 162.586,262.170 162.307,259.200 162.188 C 256.230 162.070,253.058 161.896,252.152 161.801 C 251.245 161.707,250.401 161.732,250.276 161.857 M158.571 192.952 C 160.395 194.699,160.400 194.712,160.400 197.446 L 160.400 200.187 108.900 251.669 C 62.943 297.609,57.239 303.179,55.900 303.420 C 51.223 304.260,47.441 300.610,48.240 296.027 C 48.490 294.595,149.762 192.238,151.100 192.065 C 151.375 192.029,151.600 191.820,151.600 191.600 C 151.600 190.215,156.759 191.216,158.571 192.952 M204.000 240.000 C 204.000 240.220,204.331 240.400,204.736 240.400 C 205.583 240.400,208.000 242.892,208.000 243.766 C 208.000 244.089,208.180 244.464,208.400 244.600 C 209.015 244.980,208.875 246.926,208.126 248.427 C 207.514 249.656,104.136 353.418,101.446 355.505 C 99.058 357.358,92.800 356.109,92.800 353.780 C 92.800 353.461,92.620 353.200,92.400 353.200 C 91.432 353.200,91.963 348.324,93.093 346.838 C 94.923 344.429,198.269 241.259,199.682 240.430 C 201.074 239.613,204.000 239.322,204.000 240.000 M255.400 285.200 C 255.536 285.420,255.927 285.600,256.270 285.600 C 258.282 285.600,260.120 289.528,259.687 292.901 C 259.421 294.970,188.166 366.479,185.605 367.246 C 180.368 368.815,175.425 362.376,178.507 358.000 C 179.995 355.888,249.873 286.255,251.200 285.562 C 252.731 284.763,255.009 284.567,255.400 285.200 M307.777 332.269 C 308.332 332.671,309.013 333.495,309.291 334.100 C 309.568 334.705,309.931 335.200,310.098 335.200 C 310.264 335.200,310.400 336.280,310.400 337.600 C 310.400 338.933,310.222 340.000,310.000 340.000 C 309.780 340.000,309.600 340.241,309.600 340.535 C 309.600 341.417,282.570 368.117,280.895 368.890 C 276.612 370.865,272.400 367.922,272.400 362.954 L 272.400 360.698 286.288 346.649 C 293.927 338.922,300.722 332.273,301.388 331.873 C 302.892 330.971,306.274 331.181,307.777 332.269"/><path id="path2" fill="#b1db4b" fill-rule="evenodd" stroke="none"/><path id="path3" fill="#ed2b2b" fill-rule="evenodd" stroke="none" d="M166.400 70.851 C 157.441 72.303,151.274 74.214,143.714 77.881 C 138.744 80.292,137.229 81.406,137.469 82.472 C 138.302 86.168,142.352 91.252,145.963 93.134 C 149.688 95.076,150.480 95.188,160.469 95.194 C 173.462 95.202,177.098 95.997,183.600 100.253 C 192.638 106.168,196.503 113.812,197.228 127.200 C 197.884 139.331,198.584 142.460,201.352 145.639 C 202.351 146.787,201.584 146.696,218.000 147.603 C 237.165 148.661,242.864 148.941,245.800 148.969 L 249.000 149.000 249.131 143.800 C 249.284 137.697,248.431 130.768,246.766 124.600 C 246.528 123.720,246.238 122.503,246.121 121.895 C 246.004 121.287,245.749 120.692,245.554 120.571 C 245.359 120.451,245.200 120.001,245.200 119.571 C 245.200 119.141,245.041 118.477,244.847 118.095 C 244.652 117.713,244.314 116.950,244.095 116.400 C 236.749 97.978,220.656 82.009,202.600 75.224 C 201.280 74.728,199.840 74.175,199.400 73.994 C 198.960 73.814,198.150 73.554,197.600 73.415 C 197.050 73.277,195.700 72.928,194.600 72.641 C 192.423 72.073,189.527 71.471,185.833 70.818 C 183.019 70.321,169.532 70.344,166.400 70.851"/><path id="path4" fill="#6eac08" fill-rule="evenodd" stroke="none" d="M131.400 12.423 C 124.987 13.795,122.131 14.925,117.771 17.816 C 112.991 20.984,108.512 26.234,106.350 31.200 C 105.946 32.126,104.000 37.314,104.000 37.462 C 104.000 37.499,105.575 37.641,107.500 37.778 C 110.895 38.021,112.225 38.289,116.000 39.487 C 126.263 42.744,134.928 53.492,135.955 64.235 C 136.311 67.969,136.144 67.886,139.848 66.169 C 141.582 65.366,143.360 64.574,143.800 64.408 C 144.240 64.243,145.050 63.912,145.600 63.674 C 146.150 63.436,147.860 62.848,149.400 62.368 C 150.940 61.888,152.560 61.352,153.000 61.178 C 153.440 61.003,154.340 60.747,155.000 60.609 C 155.660 60.470,157.010 60.177,158.000 59.957 C 161.865 59.099,164.429 58.764,170.318 58.346 C 178.402 57.773,186.532 58.324,194.400 59.978 C 195.390 60.187,196.740 60.470,197.400 60.609 C 198.060 60.747,198.960 61.003,199.400 61.178 C 199.840 61.352,201.460 61.888,203.000 62.368 C 204.540 62.848,206.160 63.398,206.600 63.589 C 207.040 63.781,208.210 64.266,209.200 64.667 C 221.943 69.832,233.508 78.732,243.719 91.231 C 247.200 95.492,251.978 103.642,254.605 109.800 C 254.980 110.680,255.538 111.923,255.844 112.561 C 256.150 113.200,256.400 114.019,256.400 114.381 C 256.400 114.744,256.549 115.211,256.730 115.420 C 257.250 116.018,259.111 122.688,259.961 127.000 C 261.108 132.819,261.332 135.254,261.364 142.244 L 261.400 149.889 266.000 150.161 C 275.127 150.702,284.347 151.211,292.000 151.597 C 312.409 152.628,317.179 153.115,322.000 154.664 C 324.144 155.353,327.346 156.878,327.533 157.300 C 327.607 157.465,327.877 157.600,328.133 157.600 C 328.390 157.601,329.087 158.006,329.682 158.500 C 330.277 158.995,331.636 160.115,332.701 160.989 C 335.629 163.392,338.010 166.455,339.950 170.317 C 340.912 172.233,341.857 174.113,342.050 174.495 C 342.242 174.877,342.400 175.642,342.400 176.195 C 342.400 176.748,342.562 177.200,342.760 177.200 C 342.958 177.200,343.233 178.055,343.372 179.100 C 343.613 180.911,343.782 183.405,344.813 200.400 C 345.060 204.470,345.428 210.410,345.631 213.600 C 346.260 223.519,346.751 232.653,347.145 241.800 C 347.694 254.555,348.385 266.451,348.595 266.792 C 348.696 266.955,350.358 267.180,352.289 267.292 C 356.912 267.561,366.800 270.812,366.800 272.063 C 366.800 272.248,367.025 272.401,367.300 272.402 C 367.847 272.404,371.966 276.257,373.669 278.360 L 374.739 279.680 375.469 278.796 C 375.871 278.309,376.407 277.691,376.661 277.423 C 378.622 275.348,380.658 268.434,380.194 265.421 C 379.566 261.337,375.881 253.584,373.625 251.600 C 373.500 251.490,372.589 250.320,371.600 249.000 C 370.611 247.680,369.703 246.510,369.582 246.400 C 369.461 246.290,368.929 245.570,368.400 244.800 C 367.871 244.030,367.323 243.310,367.181 243.200 C 366.771 242.882,363.341 237.875,362.468 236.322 C 360.453 232.734,359.200 229.998,359.200 229.186 C 359.200 228.780,359.020 228.336,358.800 228.200 C 358.580 228.064,358.400 227.344,358.400 226.600 C 358.400 225.856,358.220 225.136,358.000 225.000 C 357.472 224.674,357.472 215.726,358.000 215.400 C 358.220 215.264,358.400 214.454,358.400 213.600 C 358.400 212.746,358.580 211.936,358.800 211.800 C 359.020 211.664,359.200 211.124,359.200 210.600 C 359.200 210.076,359.380 209.536,359.600 209.400 C 359.820 209.264,360.000 208.801,360.000 208.371 C 360.000 207.941,360.171 207.277,360.381 206.895 C 362.478 203.073,363.411 193.902,362.060 190.400 C 361.762 189.630,361.379 188.640,361.209 188.200 C 360.495 186.362,358.181 181.790,357.902 181.667 C 357.736 181.593,357.600 181.360,357.600 181.149 C 357.600 180.937,355.108 177.037,352.062 172.482 C 346.118 163.593,343.522 159.375,342.039 156.200 C 341.526 155.100,340.767 153.508,340.353 152.662 C 339.939 151.816,339.600 150.792,339.600 150.386 C 339.600 149.980,339.420 149.536,339.200 149.400 C 338.980 149.264,338.800 148.634,338.800 148.000 C 338.800 147.366,338.620 146.736,338.400 146.600 C 338.180 146.464,338.000 145.745,338.000 145.002 C 338.000 144.260,337.807 143.145,337.570 142.526 C 336.497 139.713,340.065 134.800,343.180 134.800 C 343.821 134.800,344.000 134.543,344.000 133.624 C 344.000 132.977,344.180 132.336,344.400 132.200 C 344.620 132.064,344.800 130.613,344.800 128.976 C 344.800 127.259,344.969 126.000,345.200 126.000 C 345.420 126.000,345.600 125.011,345.600 123.802 L 345.600 121.604 343.794 120.755 C 341.968 119.897,340.400 118.190,340.400 117.062 C 340.400 116.724,340.203 116.325,339.962 116.176 C 339.698 116.014,339.627 115.404,339.782 114.653 C 340.670 110.358,340.900 108.010,340.903 103.200 C 340.907 97.735,340.604 94.973,339.956 94.573 C 339.760 94.452,339.600 93.928,339.600 93.410 C 339.600 92.891,339.465 92.407,339.300 92.333 C 339.135 92.260,338.563 91.390,338.030 90.400 C 337.496 89.410,336.955 88.510,336.828 88.400 C 336.700 88.290,336.060 87.480,335.406 86.600 C 334.044 84.768,328.495 78.480,326.404 76.400 C 325.630 75.630,324.188 74.010,323.199 72.800 C 322.209 71.590,321.265 70.540,321.100 70.467 C 320.935 70.393,320.800 70.100,320.800 69.816 C 320.800 69.531,320.534 69.077,320.208 68.807 C 319.883 68.537,319.372 67.840,319.074 67.258 C 318.775 66.676,318.175 65.570,317.739 64.800 C 315.770 61.316,314.609 57.281,314.228 52.600 C 313.896 48.507,313.287 43.948,312.733 41.400 C 312.253 39.197,309.285 32.800,308.742 32.800 C 308.554 32.800,308.400 32.615,308.400 32.389 C 308.400 31.855,305.392 28.862,303.600 27.614 C 302.830 27.077,302.110 26.537,302.000 26.414 C 301.606 25.971,297.552 24.148,295.000 23.266 C 290.475 21.701,275.136 21.685,274.173 23.244 C 274.052 23.440,273.601 23.600,273.171 23.600 C 272.741 23.600,272.077 23.759,271.695 23.953 C 271.313 24.148,270.550 24.484,270.000 24.700 C 269.450 24.916,268.550 25.280,268.000 25.509 C 258.118 29.623,248.747 31.194,243.721 29.578 C 238.268 27.825,236.103 26.400,230.081 20.600 C 220.835 11.694,218.568 11.585,203.000 19.297 C 198.160 21.694,193.795 23.823,193.300 24.028 C 192.330 24.429,190.937 24.988,189.500 25.554 C 188.567 25.922,186.766 26.403,183.494 27.159 C 179.950 27.979,174.523 27.578,170.600 26.207 C 166.938 24.927,163.805 23.233,158.469 19.648 C 148.744 13.113,139.590 10.670,131.400 12.423"/><path id="path5" fill="#5a9204" fill-rule="evenodd" stroke="none" d="M130.400 12.067 C 120.785 14.051,113.701 18.819,108.301 26.943 C 107.256 28.514,106.401 29.971,106.401 30.180 C 106.400 30.761,107.005 30.012,108.062 28.125 C 114.492 16.644,129.397 9.927,142.600 12.559 C 148.660 13.768,151.816 15.178,158.469 19.648 C 163.805 23.233,166.938 24.927,170.600 26.207 C 174.523 27.578,179.950 27.979,183.494 27.159 C 186.702 26.418,188.563 25.924,189.400 25.591 C 189.840 25.416,190.541 25.162,190.957 25.027 C 191.374 24.892,191.631 24.698,191.529 24.596 C 191.427 24.494,190.349 24.760,189.134 25.187 C 178.498 28.925,171.461 27.591,159.093 19.495 C 148.293 12.425,139.590 10.172,130.400 12.067 M214.600 13.697 C 213.940 13.923,212.482 14.454,211.361 14.876 C 208.788 15.844,191.699 24.400,192.337 24.400 C 192.598 24.400,193.123 24.229,193.505 24.020 C 216.297 11.555,220.302 11.181,230.081 20.600 C 241.860 31.945,248.980 32.892,267.800 25.616 C 269.234 25.062,270.985 24.314,271.695 23.953 C 272.077 23.759,272.741 23.600,273.171 23.600 C 273.601 23.600,274.068 23.413,274.210 23.184 C 274.515 22.691,272.894 23.040,270.800 23.918 C 250.152 32.581,242.217 31.788,229.800 19.818 C 223.303 13.555,219.489 12.019,214.600 13.697 M279.200 21.575 C 278.249 21.792,279.597 21.912,283.400 21.948 C 288.374 21.995,293.043 22.556,295.400 23.390 C 297.604 24.169,301.654 26.025,302.000 26.414 C 302.110 26.537,302.830 27.077,303.600 27.614 C 305.392 28.862,308.400 31.855,308.400 32.389 C 308.400 32.615,308.554 32.800,308.742 32.800 C 310.637 32.800,313.442 42.924,314.228 52.600 C 314.609 57.281,315.770 61.316,317.739 64.800 C 318.175 65.570,318.775 66.676,319.074 67.258 C 319.372 67.840,319.883 68.537,320.208 68.807 C 320.534 69.077,320.800 69.531,320.800 69.816 C 320.800 70.100,320.935 70.393,321.100 70.467 C 321.265 70.540,322.209 71.590,323.199 72.800 C 324.188 74.010,325.630 75.630,326.404 76.400 C 328.495 78.480,334.044 84.768,335.406 86.600 C 336.060 87.480,336.700 88.290,336.828 88.400 C 336.955 88.510,337.496 89.410,338.030 90.400 C 338.563 91.390,339.135 92.260,339.300 92.333 C 339.465 92.407,339.600 92.891,339.600 93.410 C 339.600 93.928,339.760 94.452,339.956 94.573 C 341.347 95.432,341.225 109.846,339.790 114.326 C 339.616 114.869,339.703 115.697,340.000 116.326 C 340.279 116.917,340.701 117.820,340.939 118.334 C 341.591 119.742,345.921 122.373,345.505 121.108 C 345.413 120.829,344.939 120.541,344.452 120.470 C 341.442 120.028,340.090 116.502,341.039 111.570 C 343.503 98.775,341.132 91.418,331.061 80.604 C 317.564 66.111,315.843 62.766,314.384 48.200 C 312.957 33.942,306.478 25.846,293.711 22.370 C 290.344 21.453,281.787 20.984,279.200 21.575 M275.400 22.400 C 274.667 22.715,274.684 22.746,275.600 22.766 C 276.150 22.778,276.870 22.613,277.200 22.400 C 277.987 21.891,276.584 21.891,275.400 22.400 M105.487 32.057 C 104.509 34.399,103.913 36.446,104.141 36.674 C 104.262 36.795,104.488 36.378,104.644 35.747 C 104.799 35.116,105.262 33.810,105.673 32.843 C 106.084 31.877,106.336 31.003,106.233 30.900 C 106.131 30.798,105.795 31.318,105.487 32.057 M104.000 37.964 C 104.000 38.243,105.173 38.400,107.254 38.400 C 110.302 38.400,111.369 38.573,115.400 39.718 C 121.237 41.377,132.000 50.359,132.000 53.572 C 132.000 53.807,132.136 54.000,132.302 54.000 C 132.468 54.000,133.021 55.125,133.530 56.500 C 134.807 59.945,135.141 60.680,135.173 60.109 C 135.317 57.497,130.950 50.221,126.936 46.387 C 122.155 41.820,119.606 40.413,112.600 38.472 C 110.173 37.800,104.000 37.435,104.000 37.964 M78.600 47.801 C 79.516 48.117,83.595 48.243,83.117 47.940 C 82.833 47.760,81.610 47.624,80.400 47.638 C 79.190 47.652,78.380 47.725,78.600 47.801 M88.600 49.600 C 89.260 49.768,90.250 49.905,90.800 49.905 C 91.692 49.905,91.670 49.872,90.600 49.600 C 89.940 49.432,88.950 49.295,88.400 49.295 C 87.508 49.295,87.530 49.328,88.600 49.600 M101.100 49.896 C 102.475 49.974,104.725 49.974,106.100 49.896 C 107.475 49.818,106.350 49.754,103.600 49.754 C 100.850 49.754,99.725 49.818,101.100 49.896 M70.987 52.500 L 68.600 55.000 71.100 52.613 C 73.422 50.395,73.783 50.000,73.487 50.000 C 73.426 50.000,72.301 51.125,70.987 52.500 M114.410 51.726 C 115.009 52.374,117.695 53.997,117.218 53.422 C 116.910 53.051,116.105 52.466,115.429 52.123 C 114.753 51.779,114.295 51.601,114.410 51.726 M65.835 57.964 C 64.901 58.938,64.796 59.247,65.190 59.864 C 65.640 60.567,65.650 60.566,65.418 59.835 C 65.255 59.320,65.531 58.698,66.262 57.935 C 66.860 57.311,67.260 56.800,67.150 56.800 C 67.040 56.800,66.448 57.324,65.835 57.964 M168.000 58.448 C 164.262 58.759,161.557 59.167,158.000 59.957 C 157.010 60.177,155.660 60.470,155.000 60.609 C 154.340 60.747,153.440 61.003,153.000 61.178 C 152.560 61.352,150.940 61.888,149.400 62.368 C 147.860 62.848,146.240 63.396,145.800 63.584 C 145.360 63.773,144.659 64.038,144.243 64.173 C 143.826 64.308,143.567 64.501,143.667 64.600 C 143.767 64.700,145.556 64.172,147.642 63.426 C 165.429 57.069,185.152 56.918,203.400 62.998 C 206.260 63.951,208.671 64.661,208.757 64.575 C 208.844 64.489,208.574 64.308,208.157 64.173 C 207.741 64.038,207.040 63.773,206.600 63.584 C 206.160 63.396,204.540 62.848,203.000 62.368 C 201.460 61.888,199.840 61.352,199.400 61.178 C 198.960 61.003,198.060 60.747,197.400 60.609 C 196.740 60.470,195.390 60.187,194.400 59.978 C 185.775 58.165,177.305 57.674,168.000 58.448 M69.993 64.500 C 73.887 68.494,74.400 68.982,74.400 68.693 C 74.400 68.634,72.465 66.699,70.100 64.393 L 65.800 60.200 69.993 64.500 M135.263 61.600 C 135.254 62.150,135.395 63.320,135.577 64.200 L 135.908 65.800 135.914 64.200 C 135.917 63.320,135.776 62.150,135.600 61.600 L 135.280 60.600 135.263 61.600 M139.437 66.261 C 137.287 67.338,136.601 67.529,136.343 67.122 C 136.095 66.731,136.011 66.776,136.006 67.300 C 135.998 68.278,136.685 68.181,139.535 66.800 C 140.898 66.140,142.179 65.600,142.383 65.600 C 142.586 65.600,142.864 65.420,143.000 65.200 C 143.436 64.495,142.272 64.842,139.437 66.261 M209.233 64.966 C 209.325 65.058,211.470 66.167,214.000 67.430 C 230.095 75.470,243.800 89.042,251.828 104.893 C 252.913 107.034,253.851 108.634,253.914 108.450 C 254.250 107.463,247.092 95.378,243.715 91.231 C 234.708 80.170,225.802 72.838,214.413 67.108 C 210.448 65.112,208.625 64.359,209.233 64.966 M76.886 71.100 C 77.157 71.485,79.543 73.867,82.189 76.394 L 87.000 80.987 81.806 75.694 C 76.595 70.383,75.972 69.802,76.886 71.100 M124.542 73.800 C 124.541 75.780,124.608 76.640,124.692 75.712 C 124.776 74.784,124.777 73.164,124.695 72.112 C 124.612 71.060,124.543 71.820,124.542 73.800 M124.914 79.800 C 124.917 80.900,124.995 81.303,125.087 80.695 C 125.179 80.086,125.177 79.186,125.082 78.695 C 124.987 78.203,124.911 78.700,124.914 79.800 M90.800 84.600 C 92.881 86.690,94.674 88.400,94.784 88.400 C 94.894 88.400,93.281 86.690,91.200 84.600 C 89.119 82.510,87.326 80.800,87.216 80.800 C 87.106 80.800,88.719 82.510,90.800 84.600 M129.564 93.933 C 129.780 94.336,130.271 94.921,130.655 95.233 C 131.087 95.584,130.990 95.304,130.401 94.500 C 129.351 93.065,128.957 92.798,129.564 93.933 M104.393 97.700 C 108.287 101.694,108.800 102.182,108.800 101.893 C 108.800 101.834,106.865 99.899,104.500 97.593 L 100.200 93.400 104.393 97.700 M133.400 98.400 C 134.706 99.720,135.865 100.800,135.975 100.800 C 136.085 100.800,135.106 99.720,133.800 98.400 C 132.494 97.080,131.335 96.000,131.225 96.000 C 131.115 96.000,132.094 97.080,133.400 98.400 M136.767 101.345 C 137.300 102.001,138.800 102.993,138.800 102.689 C 138.800 102.613,138.215 102.122,137.500 101.599 C 136.696 101.010,136.416 100.913,136.767 101.345 M112.400 105.400 C 114.260 107.270,115.872 108.800,115.982 108.800 C 116.092 108.800,114.660 107.270,112.800 105.400 C 110.940 103.530,109.328 102.000,109.218 102.000 C 109.108 102.000,110.540 103.530,112.400 105.400 M142.800 105.000 C 143.350 105.314,144.070 105.571,144.400 105.570 C 144.730 105.569,144.394 105.306,143.654 104.984 C 141.951 104.245,141.494 104.253,142.800 105.000 M150.900 107.087 C 151.505 107.178,152.495 107.178,153.100 107.087 C 153.705 106.995,153.210 106.920,152.000 106.920 C 150.790 106.920,150.295 106.995,150.900 107.087 M161.282 107.096 C 162.758 107.173,165.278 107.173,166.882 107.097 C 168.487 107.021,167.280 106.958,164.200 106.958 C 161.120 106.957,159.807 107.019,161.282 107.096 M174.800 108.820 C 176.187 109.761,176.978 110.035,176.000 109.236 C 175.450 108.786,174.820 108.417,174.600 108.415 C 174.380 108.413,174.470 108.596,174.800 108.820 M254.171 109.834 C 254.340 110.255,254.856 111.573,255.318 112.762 C 255.780 113.951,256.230 114.710,256.317 114.449 C 256.404 114.187,256.099 113.171,255.638 112.191 C 255.177 111.211,254.800 110.237,254.800 110.028 C 254.800 109.819,254.589 109.517,254.332 109.358 C 254.003 109.155,253.955 109.296,254.171 109.834 M177.400 110.279 C 178.688 111.594,181.281 113.643,180.400 112.650 C 179.850 112.029,178.860 111.150,178.200 110.696 C 177.540 110.242,177.180 110.054,177.400 110.279 M256.400 115.268 C 256.400 115.393,256.748 116.586,257.174 117.918 C 259.762 126.019,260.821 133.104,260.925 143.000 L 261.000 150.200 262.800 150.470 C 263.790 150.619,266.490 150.724,268.800 150.703 L 273.000 150.665 267.200 150.281 L 261.400 149.896 261.364 142.248 C 261.323 133.415,260.765 129.358,258.346 120.300 C 257.372 116.655,256.400 114.140,256.400 115.268 M126.600 119.200 C 128.571 121.180,130.273 122.800,130.383 122.800 C 130.493 122.800,128.971 121.180,127.000 119.200 C 125.029 117.220,123.327 115.600,123.217 115.600 C 123.107 115.600,124.629 117.220,126.600 119.200 M136.400 128.600 C 139.143 131.350,141.478 133.600,141.588 133.600 C 141.698 133.600,139.543 131.350,136.800 128.600 C 134.057 125.850,131.722 123.600,131.612 123.600 C 131.502 123.600,133.657 125.850,136.400 128.600 M185.331 126.600 C 185.333 128.140,185.405 128.721,185.492 127.891 C 185.579 127.061,185.577 125.801,185.489 125.091 C 185.400 124.381,185.329 125.060,185.331 126.600 M185.737 133.800 C 185.739 135.560,185.809 136.230,185.893 135.289 C 185.978 134.349,185.977 132.909,185.891 132.089 C 185.805 131.270,185.736 132.040,185.737 133.800 M341.000 135.548 C 338.375 137.177,336.773 140.436,337.570 142.526 C 337.807 143.145,338.000 144.260,338.000 145.002 C 338.000 145.745,338.180 146.464,338.400 146.600 C 338.620 146.736,338.800 147.366,338.800 148.000 C 338.800 148.634,338.980 149.264,339.200 149.400 C 339.420 149.536,339.600 149.980,339.600 150.386 C 339.600 150.792,339.939 151.816,340.353 152.662 C 340.767 153.508,341.526 155.100,342.039 156.200 C 343.522 159.375,346.118 163.593,352.062 172.482 C 355.108 177.037,357.600 180.937,357.600 181.149 C 357.600 181.360,357.736 181.593,357.902 181.667 C 358.181 181.790,360.495 186.362,361.209 188.200 C 361.379 188.640,361.762 189.630,362.060 190.400 C 363.411 193.902,362.478 203.073,360.381 206.895 C 360.171 207.277,360.000 207.941,360.000 208.371 C 360.000 208.801,359.820 209.264,359.600 209.400 C 359.380 209.536,359.200 210.076,359.200 210.600 C 359.200 211.124,359.020 211.664,358.800 211.800 C 358.580 211.936,358.400 212.746,358.400 213.600 C 358.400 214.454,358.220 215.264,358.000 215.400 C 357.771 215.541,357.600 217.596,357.600 220.200 C 357.600 222.804,357.771 224.859,358.000 225.000 C 358.220 225.136,358.400 225.856,358.400 226.600 C 358.400 227.344,358.580 228.064,358.800 228.200 C 359.020 228.336,359.200 228.780,359.200 229.186 C 359.200 229.998,360.453 232.734,362.468 236.322 C 363.341 237.875,366.771 242.882,367.181 243.200 C 367.323 243.310,367.871 244.030,368.400 244.800 C 368.929 245.570,369.461 246.290,369.582 246.400 C 369.703 246.510,370.611 247.680,371.600 249.000 C 372.589 250.320,373.500 251.490,373.625 251.600 C 374.931 252.749,378.482 259.107,379.322 261.800 C 381.232 267.931,379.711 274.388,375.252 279.064 C 374.780 279.560,374.560 279.460,373.652 278.339 C 371.964 276.254,367.845 272.404,367.300 272.402 C 367.025 272.401,366.800 272.248,366.800 272.063 C 366.800 271.691,364.342 270.428,361.692 269.438 C 359.056 268.453,359.136 268.715,361.857 269.974 C 366.326 272.043,372.559 277.040,374.096 279.786 C 375.707 282.664,380.551 273.093,380.567 267.000 C 380.584 260.475,379.058 257.551,368.563 244.000 C 357.400 229.588,355.939 222.358,361.067 206.904 C 365.438 193.728,364.546 190.307,351.681 170.894 C 337.842 150.011,334.547 137.929,342.111 135.801 C 343.905 135.296,344.430 134.800,343.167 134.801 C 342.635 134.802,341.660 135.138,341.000 135.548 M143.646 135.700 C 143.745 135.755,145.800 137.690,148.213 140.000 L 152.600 144.200 148.407 139.900 C 146.101 137.535,144.046 135.600,143.840 135.600 C 143.635 135.600,143.547 135.645,143.646 135.700 M186.056 139.600 C 186.056 139.930,186.211 140.560,186.400 141.000 C 186.617 141.504,186.744 141.578,186.744 141.200 C 186.744 140.870,186.589 140.240,186.400 139.800 C 186.183 139.296,186.056 139.222,186.056 139.600 M157.600 149.000 C 159.460 150.870,161.072 152.400,161.182 152.400 C 161.292 152.400,159.860 150.870,158.000 149.000 C 156.140 147.130,154.528 145.600,154.418 145.600 C 154.308 145.600,155.740 147.130,157.600 149.000 M275.800 151.213 C 277.340 151.371,280.580 151.494,283.000 151.487 L 287.400 151.473 283.800 151.179 C 281.820 151.017,278.580 150.894,276.600 150.905 L 273.000 150.926 275.800 151.213 M288.000 151.713 C 288.111 151.835,292.071 152.139,296.800 152.389 C 308.539 153.010,315.606 153.508,316.800 153.800 C 321.471 154.940,321.930 155.108,326.123 157.223 C 331.990 160.183,337.263 165.637,340.159 171.742 C 342.607 176.899,343.109 179.420,343.603 189.000 C 343.977 196.250,344.247 200.888,345.189 216.200 C 345.737 225.111,346.142 232.613,347.553 259.949 C 347.966 267.951,347.621 267.396,352.411 267.758 C 354.359 267.905,356.500 268.216,357.168 268.449 C 357.836 268.682,358.612 268.793,358.891 268.697 C 359.789 268.387,353.726 267.200,351.245 267.200 C 349.926 267.200,348.749 267.042,348.630 266.848 C 348.389 266.458,347.724 255.251,347.145 241.800 C 346.751 232.653,346.260 223.519,345.631 213.600 C 345.428 210.410,345.060 204.470,344.813 200.400 C 343.782 183.405,343.613 180.911,343.372 179.100 C 343.233 178.055,342.958 177.200,342.760 177.200 C 342.562 177.200,342.400 176.748,342.400 176.195 C 342.400 175.642,342.242 174.877,342.050 174.495 C 341.857 174.113,340.912 172.233,339.950 170.317 C 338.010 166.455,335.629 163.392,332.701 160.989 C 331.636 160.115,330.277 158.995,329.682 158.500 C 329.087 158.006,328.390 157.601,328.133 157.600 C 327.877 157.600,327.607 157.465,327.533 157.300 C 327.201 156.552,322.581 154.696,318.800 153.791 C 314.907 152.859,287.355 151.001,288.000 151.713 M191.877 153.000 C 192.892 154.417,196.733 158.230,196.891 157.976 C 196.951 157.879,195.654 156.450,194.009 154.800 C 192.364 153.150,191.405 152.340,191.877 153.000 M165.655 156.619 C 165.722 157.078,174.341 165.421,174.493 165.173 C 174.552 165.078,172.575 163.029,170.100 160.619 C 167.625 158.210,165.625 156.410,165.655 156.619 M197.869 158.832 C 198.366 159.433,200.800 160.964,200.800 160.676 C 200.800 160.583,200.035 160.002,199.100 159.385 C 198.165 158.768,197.611 158.520,197.869 158.832 M261.700 161.876 C 262.085 161.976,262.715 161.976,263.100 161.876 C 263.485 161.775,263.170 161.693,262.400 161.693 C 261.630 161.693,261.315 161.775,261.700 161.876 M211.800 164.453 C 213.343 164.743,223.814 164.880,223.000 164.599 C 222.780 164.523,219.810 164.391,216.400 164.306 C 212.976 164.221,210.916 164.286,211.800 164.453 M224.900 164.291 C 225.725 164.378,227.075 164.378,227.900 164.291 C 228.725 164.205,228.050 164.134,226.400 164.134 C 224.750 164.134,224.075 164.205,224.900 164.291 M175.646 166.500 C 175.745 166.555,177.890 168.580,180.413 171.000 L 185.000 175.400 180.607 170.900 C 178.191 168.425,176.046 166.400,175.840 166.400 C 175.635 166.400,175.548 166.445,175.646 166.500 M238.000 167.290 C 238.000 167.377,239.035 168.328,240.300 169.403 C 241.565 170.479,242.240 170.944,241.800 170.436 C 240.964 169.471,238.000 167.017,238.000 167.290 M327.855 173.800 C 328.467 174.680,329.020 175.475,329.084 175.567 C 329.148 175.658,329.200 175.562,329.200 175.352 C 329.200 175.142,328.647 174.347,327.971 173.585 L 326.742 172.200 327.855 173.800 M192.793 182.900 C 195.099 185.265,197.137 187.200,197.321 187.200 C 197.506 187.200,197.405 186.975,197.097 186.700 C 196.789 186.425,194.751 184.490,192.568 182.400 L 188.600 178.600 192.793 182.900 M246.101 181.000 C 246.105 181.880,246.187 182.193,246.283 181.695 C 246.379 181.198,246.375 180.478,246.275 180.095 C 246.175 179.713,246.096 180.120,246.101 181.000 M257.693 182.000 C 257.693 182.770,257.775 183.085,257.876 182.700 C 257.976 182.315,257.976 181.685,257.876 181.300 C 257.775 180.915,257.693 181.230,257.693 182.000 M331.287 181.800 C 331.291 182.240,331.432 183.140,331.600 183.800 C 331.874 184.878,331.906 184.898,331.913 184.000 C 331.917 183.450,331.776 182.550,331.600 182.000 C 331.349 181.216,331.281 181.173,331.287 181.800 M246.544 188.000 C 246.544 190.090,246.612 190.945,246.694 189.900 C 246.776 188.855,246.776 187.145,246.694 186.100 C 246.612 185.055,246.544 185.910,246.544 188.000 M203.200 193.000 C 205.723 195.530,207.877 197.600,207.987 197.600 C 208.097 197.600,206.123 195.530,203.600 193.000 C 201.077 190.470,198.923 188.400,198.813 188.400 C 198.703 188.400,200.677 190.470,203.200 193.000 M332.128 192.000 C 332.128 193.430,332.201 194.015,332.289 193.300 C 332.378 192.585,332.378 191.415,332.289 190.700 C 332.201 189.985,332.128 190.570,332.128 192.000 M246.909 195.200 C 246.909 196.190,246.987 196.595,247.082 196.100 C 247.178 195.605,247.178 194.795,247.082 194.300 C 246.987 193.805,246.909 194.210,246.909 195.200 M332.514 197.000 C 332.517 198.100,332.595 198.503,332.687 197.895 C 332.779 197.286,332.777 196.386,332.682 195.895 C 332.587 195.403,332.511 195.900,332.514 197.000 M214.580 203.887 C 216.768 206.135,218.643 207.890,218.746 207.787 C 218.849 207.684,218.853 207.555,218.754 207.500 C 218.656 207.445,216.781 205.690,214.587 203.600 L 210.600 199.800 214.580 203.887 M332.924 205.800 C 332.926 207.120,333.001 207.612,333.090 206.893 C 333.179 206.174,333.177 205.094,333.086 204.493 C 332.995 203.892,332.922 204.480,332.924 205.800 M220.444 209.400 C 221.011 210.260,228.400 217.476,228.400 217.170 C 228.400 217.068,226.491 215.099,224.158 212.793 C 221.825 210.487,220.154 208.960,220.444 209.400 M333.320 211.600 C 333.320 212.810,333.395 213.305,333.487 212.700 C 333.578 212.095,333.578 211.105,333.487 210.500 C 333.395 209.895,333.320 210.390,333.320 211.600 M255.400 213.200 C 256.259 214.080,257.052 214.800,257.162 214.800 C 257.272 214.800,256.659 214.080,255.800 213.200 C 254.941 212.320,254.148 211.600,254.038 211.600 C 253.928 211.600,254.541 212.320,255.400 213.200 M333.720 220.800 C 333.720 222.010,333.795 222.505,333.887 221.900 C 333.978 221.295,333.978 220.305,333.887 219.700 C 333.795 219.095,333.720 219.590,333.720 220.800 M268.000 220.782 C 268.330 221.005,268.945 221.191,269.367 221.194 C 270.390 221.202,270.071 220.973,268.600 220.644 C 267.724 220.448,267.562 220.485,268.000 220.782 M232.045 220.900 C 232.144 220.955,233.839 222.530,235.812 224.400 L 239.400 227.800 236.009 224.300 C 234.144 222.375,232.449 220.800,232.242 220.800 C 232.036 220.800,231.947 220.845,232.045 220.900 M277.500 221.899 C 280.195 221.968,284.605 221.968,287.300 221.899 C 289.995 221.830,287.790 221.773,282.400 221.773 C 277.010 221.773,274.805 221.830,277.500 221.899 M334.120 225.600 C 334.120 226.810,334.195 227.305,334.287 226.700 C 334.378 226.095,334.378 225.105,334.287 224.500 C 334.195 223.895,334.120 224.390,334.120 225.600 M301.983 227.300 C 302.964 228.345,303.819 229.200,303.883 229.200 C 304.184 229.200,303.866 228.841,302.100 227.183 L 300.200 225.400 301.983 227.300 M304.360 230.200 C 305.034 231.505,305.588 232.228,305.585 231.800 C 305.583 231.580,305.214 230.950,304.764 230.400 C 304.221 229.736,304.085 229.669,304.360 230.200 M246.200 234.400 C 247.950 236.160,249.471 237.600,249.581 237.600 C 249.691 237.600,248.350 236.160,246.600 234.400 C 244.850 232.640,243.329 231.200,243.219 231.200 C 243.109 231.200,244.450 232.640,246.200 234.400 M334.520 234.800 C 334.520 236.010,334.595 236.505,334.687 235.900 C 334.778 235.295,334.778 234.305,334.687 233.700 C 334.595 233.095,334.520 233.590,334.520 234.800 M306.644 235.800 C 306.973 237.271,307.202 237.590,307.194 236.567 C 307.191 236.145,307.005 235.530,306.782 235.200 C 306.485 234.762,306.448 234.924,306.644 235.800 M334.920 239.600 C 334.920 240.810,334.995 241.305,335.087 240.700 C 335.178 240.095,335.178 239.105,335.087 238.500 C 334.995 237.895,334.920 238.390,334.920 239.600 M307.331 241.800 C 307.333 243.340,307.405 243.921,307.492 243.091 C 307.579 242.261,307.577 241.001,307.489 240.291 C 307.400 239.581,307.329 240.260,307.331 241.800 M258.885 246.592 C 261.021 248.777,262.822 250.482,262.887 250.382 C 262.951 250.282,261.203 248.494,259.002 246.410 L 255.000 242.620 258.885 246.592 M307.744 248.400 C 307.744 250.490,307.812 251.345,307.894 250.300 C 307.976 249.255,307.976 247.545,307.894 246.500 C 307.812 245.455,307.744 246.310,307.744 248.400 M318.901 246.200 C 318.905 247.080,318.987 247.393,319.083 246.895 C 319.179 246.398,319.175 245.678,319.075 245.295 C 318.975 244.913,318.896 245.320,318.901 246.200 M335.320 248.800 C 335.320 250.010,335.395 250.505,335.487 249.900 C 335.578 249.295,335.578 248.305,335.487 247.700 C 335.395 247.095,335.320 247.590,335.320 248.800 M335.724 254.200 C 335.726 255.520,335.801 256.012,335.890 255.293 C 335.979 254.574,335.977 253.494,335.886 252.893 C 335.795 252.292,335.722 252.880,335.724 254.200 M270.000 257.400 C 272.743 260.150,275.078 262.400,275.188 262.400 C 275.298 262.400,273.143 260.150,270.400 257.400 C 267.657 254.650,265.322 252.400,265.212 252.400 C 265.102 252.400,267.257 254.650,270.000 257.400 M324.400 262.200 C 325.146 262.970,325.847 263.600,325.957 263.600 C 326.067 263.600,325.546 262.970,324.800 262.200 C 324.054 261.430,323.353 260.800,323.243 260.800 C 323.133 260.800,323.654 261.430,324.400 262.200 M336.114 263.400 C 336.117 264.500,336.195 264.903,336.287 264.295 C 336.379 263.686,336.377 262.786,336.282 262.295 C 336.187 261.803,336.111 262.300,336.114 263.400 M280.200 267.200 C 282.392 269.400,284.275 271.200,284.385 271.200 C 284.495 271.200,282.792 269.400,280.600 267.200 C 278.408 265.000,276.525 263.200,276.415 263.200 C 276.305 263.200,278.008 265.000,280.200 267.200 M336.400 266.508 C 336.400 266.932,335.959 267.204,335.100 267.311 L 333.800 267.472 335.113 267.536 C 336.360 267.597,337.280 266.747,336.649 266.116 C 336.512 265.979,336.400 266.155,336.400 266.508 M314.370 268.293 C 315.667 270.001,319.620 273.600,320.198 273.600 C 320.370 273.600,319.810 273.059,318.955 272.398 C 318.100 271.738,316.429 270.163,315.242 268.898 C 313.583 267.132,313.381 266.992,314.370 268.293 M291.600 278.200 C 293.681 280.290,295.474 282.000,295.584 282.000 C 295.694 282.000,294.081 280.290,292.000 278.200 C 289.919 276.110,288.126 274.400,288.016 274.400 C 287.906 274.400,289.519 276.110,291.600 278.200 M334.105 279.087 C 334.714 279.179,335.614 279.177,336.105 279.082 C 336.597 278.987,336.100 278.911,335.000 278.914 C 333.900 278.917,333.497 278.995,334.105 279.087 M342.600 279.036 C 344.304 279.308,354.143 279.420,353.199 279.158 C 352.650 279.005,349.860 278.886,347.000 278.894 C 344.140 278.902,342.160 278.966,342.600 279.036 M337.700 279.476 C 338.085 279.576,338.715 279.576,339.100 279.476 C 339.485 279.375,339.170 279.293,338.400 279.293 C 337.630 279.293,337.315 279.375,337.700 279.476 M361.368 283.274 C 362.230 284.039,363.555 285.370,364.312 286.232 C 365.251 287.301,365.432 287.418,364.879 286.600 C 364.040 285.356,361.991 283.355,360.600 282.421 C 360.160 282.125,360.505 282.509,361.368 283.274 M298.452 284.700 C 298.481 284.865,300.146 286.526,302.152 288.392 L 305.800 291.784 302.208 288.092 C 298.575 284.357,298.358 284.161,298.452 284.700 M366.278 289.395 C 366.644 290.162,367.014 290.719,367.101 290.632 C 367.284 290.449,366.070 288.000,365.796 288.000 C 365.695 288.000,365.912 288.628,366.278 289.395 M313.269 299.100 C 315.907 301.685,318.186 303.884,318.333 303.987 C 318.480 304.089,316.443 301.974,313.806 299.287 C 311.170 296.599,308.891 294.400,308.742 294.400 C 308.593 294.400,310.630 296.515,313.269 299.100 M368.292 301.000 C 368.410 304.300,368.572 307.075,368.653 307.167 C 368.935 307.487,368.727 298.983,368.404 297.000 C 368.203 295.769,368.160 297.306,368.292 301.000 M324.200 309.600 C 325.950 311.360,327.471 312.800,327.581 312.800 C 327.691 312.800,326.350 311.360,324.600 309.600 C 322.850 307.840,321.329 306.400,321.219 306.400 C 321.109 306.400,322.450 307.840,324.200 309.600 M368.868 311.200 C 368.862 311.750,369.011 312.560,369.200 313.000 L 369.544 313.800 369.532 313.000 C 369.526 312.560,369.376 311.750,369.200 311.200 L 368.880 310.200 368.868 311.200 M331.246 316.500 C 331.345 316.555,333.490 318.580,336.013 321.000 L 340.600 325.400 336.207 320.900 C 333.791 318.425,331.646 316.400,331.440 316.400 C 331.235 316.400,331.148 316.445,331.246 316.500 M371.400 322.423 C 371.400 323.934,371.522 324.862,371.672 324.485 C 372.042 323.553,372.056 320.707,371.694 320.138 C 371.532 319.884,371.400 320.912,371.400 322.423 M370.499 326.872 C 370.234 327.602,369.170 329.190,368.134 330.400 C 366.489 332.323,366.442 332.424,367.760 331.200 C 369.418 329.661,371.353 326.658,371.126 325.977 C 371.046 325.738,370.764 326.141,370.499 326.872 M345.991 330.502 C 347.856 332.426,349.525 334.000,349.698 334.000 C 349.872 334.000,349.336 333.353,348.507 332.562 C 343.790 328.060,342.984 327.400,345.991 330.502 M364.439 334.340 C 364.131 334.703,362.602 336.350,361.043 338.000 C 358.350 340.849,358.387 340.825,361.786 337.515 C 363.754 335.599,365.282 333.952,365.182 333.856 C 365.082 333.759,364.748 333.978,364.439 334.340 M350.220 334.717 C 350.429 334.891,352.156 336.524,354.058 338.346 C 356.154 340.355,357.623 341.487,357.788 341.220 C 357.937 340.978,357.883 340.830,357.668 340.890 C 357.453 340.951,355.753 339.515,353.891 337.700 C 352.029 335.885,350.356 334.400,350.173 334.400 C 349.990 334.400,350.011 334.542,350.220 334.717"/><path id="path6" fill="#ebbb04" fill-rule="evenodd" stroke="none" d="M314.316 165.817 C 314.181 165.952,314.624 167.243,315.300 168.687 C 317.236 172.825,317.608 175.309,318.406 189.400 C 318.630 193.360,318.997 199.840,319.223 203.800 C 320.850 232.398,321.174 238.203,321.569 245.800 C 321.774 249.760,322.112 254.523,322.319 256.384 L 322.696 259.768 325.263 262.200 C 328.594 265.355,334.526 268.034,335.664 266.896 C 335.966 266.594,335.582 257.532,334.416 237.400 C 333.427 220.332,333.144 215.286,332.766 208.000 C 331.292 179.589,331.511 181.467,329.081 176.415 C 326.545 171.142,316.326 163.807,314.316 165.817"/><path id="path7" fill="#a0b878" fill-rule="evenodd" stroke="none" d="M76.699 48.571 C 74.444 49.376,65.936 57.253,65.292 59.133 C 65.185 59.444,70.006 64.253,81.800 75.603 C 85.100 78.778,90.595 84.082,94.012 87.388 C 97.428 90.695,102.288 95.385,104.812 97.811 C 122.662 114.972,131.346 123.338,136.393 128.232 C 139.587 131.329,144.534 136.099,147.387 138.832 C 150.240 141.564,155.459 146.590,158.985 150.000 C 162.511 153.410,167.461 158.180,169.985 160.600 C 172.510 163.020,177.281 167.626,180.587 170.835 C 183.894 174.045,188.750 178.725,191.378 181.235 C 194.007 183.746,198.957 188.513,202.378 191.829 C 205.800 195.145,210.751 199.915,213.380 202.429 C 216.009 204.943,221.229 209.974,224.980 213.609 C 228.731 217.244,234.050 222.373,236.800 225.007 C 239.550 227.641,244.320 232.243,247.400 235.233 C 250.480 238.223,255.150 242.724,257.778 245.235 C 260.407 247.746,265.357 252.508,268.778 255.817 C 272.200 259.127,277.149 263.897,279.776 266.417 C 285.277 271.696,295.137 281.223,302.389 288.269 C 305.145 290.947,307.850 293.525,308.400 293.998 C 308.950 294.471,312.102 297.500,315.405 300.729 C 318.708 303.958,323.838 308.926,326.805 311.770 C 329.772 314.613,334.634 319.293,337.608 322.170 C 350.342 334.484,357.348 340.993,357.759 340.891 C 358.346 340.747,366.929 331.918,368.868 329.466 C 371.611 325.997,372.148 322.256,370.563 317.659 C 369.169 313.614,368.852 311.475,368.417 303.200 C 367.788 291.234,367.080 288.955,362.630 284.587 C 357.929 279.974,354.872 279.150,342.776 279.236 C 328.823 279.335,323.476 277.516,316.200 270.192 C 309.876 263.826,307.963 258.286,307.431 244.800 C 307.032 234.677,305.862 231.098,301.635 227.066 C 296.960 222.607,294.763 222.010,283.000 222.004 C 274.150 221.999,270.792 221.680,266.949 220.476 C 258.723 217.899,250.210 209.117,248.069 201.000 C 246.963 196.804,246.769 195.247,246.401 187.600 C 245.735 173.736,242.883 168.884,233.200 165.141 C 232.140 164.731,229.627 164.626,222.855 164.706 C 212.635 164.826,209.016 164.379,204.292 162.412 C 196.666 159.238,190.182 152.679,187.780 145.709 C 186.315 141.460,186.006 139.454,185.605 131.600 C 185.029 120.342,184.376 117.842,180.937 113.742 C 176.376 108.306,172.863 107.205,160.009 107.186 C 145.271 107.164,140.737 105.638,133.400 98.229 C 126.709 91.472,124.442 84.715,124.400 71.400 C 124.365 60.178,120.614 54.279,111.081 50.449 C 110.362 50.161,106.430 49.995,100.081 49.986 C 90.397 49.972,89.314 49.869,83.800 48.435 C 81.613 47.867,78.506 47.926,76.699 48.571"/><path id="path8" fill="#b45c24" fill-rule="evenodd" stroke="none" d="M30.000 50.652 C 25.394 51.542,21.025 55.525,19.306 60.399 C 18.918 61.499,18.832 82.868,18.904 159.800 L 18.995 257.800 19.217 160.200 C 19.340 106.520,19.580 62.060,19.751 61.400 C 20.716 57.679,23.761 53.921,26.847 52.644 C 27.811 52.244,28.913 51.756,29.295 51.559 C 30.310 51.034,35.573 51.132,37.200 51.706 C 40.276 52.791,41.739 54.007,51.999 64.000 C 53.693 65.650,58.462 70.240,62.597 74.200 C 66.732 78.160,71.500 82.750,73.192 84.400 C 74.884 86.050,79.832 90.820,84.187 95.000 C 88.542 99.180,95.367 105.768,99.353 109.640 C 103.339 113.512,108.564 118.552,110.964 120.840 C 113.364 123.128,116.709 126.350,118.397 128.000 C 120.085 129.650,124.665 134.060,128.575 137.800 C 132.486 141.540,137.433 146.310,139.568 148.400 C 141.704 150.490,146.660 155.260,150.580 159.000 C 154.501 162.740,159.440 167.488,161.555 169.551 C 163.670 171.613,169.252 177.013,173.960 181.551 C 178.667 186.088,184.293 191.537,186.460 193.659 C 188.628 195.781,193.036 200.011,196.256 203.059 C 199.476 206.107,204.471 210.917,207.355 213.749 C 210.240 216.581,215.014 221.171,217.964 223.949 C 220.913 226.727,224.791 230.440,226.581 232.200 C 228.371 233.960,234.411 239.810,240.002 245.200 C 245.594 250.590,251.358 256.170,252.812 257.600 C 254.266 259.030,257.249 261.910,259.442 264.000 C 261.635 266.090,268.192 272.417,274.014 278.060 C 279.836 283.704,285.400 289.014,286.379 289.860 C 287.357 290.707,290.163 293.380,292.615 295.800 C 295.067 298.220,299.129 302.180,301.642 304.600 C 304.154 307.020,309.817 312.510,314.226 316.800 C 318.634 321.090,325.458 327.660,329.391 331.400 C 333.323 335.140,338.369 340.000,340.604 342.200 C 342.839 344.400,347.060 348.450,349.985 351.200 C 368.407 368.519,370.063 371.453,366.245 379.994 C 365.198 382.336,361.121 386.400,359.819 386.400 C 359.505 386.400,359.148 386.561,359.026 386.758 C 358.905 386.955,358.039 387.251,357.103 387.417 C 354.100 387.949,32.920 388.109,30.400 387.580 C 26.035 386.664,22.711 384.081,20.499 379.885 L 19.400 377.800 19.194 330.000 L 18.989 282.200 18.894 329.709 L 18.800 377.218 19.935 379.709 C 21.836 383.884,24.207 386.063,28.594 387.670 C 30.998 388.550,354.896 388.842,357.640 387.966 C 364.226 385.865,368.116 380.691,368.142 374.000 C 368.162 368.912,366.919 366.583,361.314 361.206 C 358.941 358.930,354.383 354.533,351.184 351.434 C 347.986 348.335,342.946 343.474,339.984 340.630 C 337.023 337.787,332.166 333.107,329.192 330.230 C 326.218 327.354,321.353 322.660,318.382 319.800 C 315.411 316.940,308.574 310.344,303.190 305.143 C 297.805 299.942,292.770 295.107,292.000 294.399 C 291.230 293.692,287.799 290.388,284.375 287.056 C 280.951 283.725,276.270 279.200,273.973 277.000 C 267.256 270.566,248.359 252.346,241.200 245.400 C 237.570 241.879,232.345 236.838,229.589 234.199 C 222.867 227.762,206.091 211.612,198.427 204.200 C 195.015 200.900,189.878 195.950,187.011 193.201 C 184.145 190.451,179.010 185.495,175.600 182.187 C 172.190 178.879,167.600 174.452,165.400 172.349 C 163.200 170.247,158.071 165.303,154.002 161.363 C 149.933 157.423,144.813 152.490,142.624 150.400 C 140.435 148.310,137.993 145.970,137.197 145.200 C 132.670 140.822,124.310 132.749,119.793 128.393 C 116.937 125.640,111.990 120.869,108.800 117.791 C 105.610 114.713,98.234 107.606,92.409 101.997 C 86.583 96.389,79.833 89.888,77.409 87.551 C 74.984 85.214,72.010 82.357,70.800 81.202 C 69.590 80.047,66.164 76.739,63.187 73.851 C 43.707 54.953,41.256 52.702,39.010 51.647 C 37.031 50.716,32.344 50.199,30.000 50.652 M173.717 70.297 C 175.211 70.374,177.551 70.374,178.917 70.296 C 180.282 70.218,179.060 70.155,176.200 70.155 C 173.340 70.156,172.222 70.220,173.717 70.297 M160.800 71.600 C 159.996 71.857,159.957 71.923,160.600 71.932 C 161.040 71.938,161.760 71.789,162.200 71.600 C 163.219 71.162,162.168 71.162,160.800 71.600 M190.200 71.600 C 190.640 71.789,191.360 71.938,191.800 71.932 C 192.443 71.923,192.404 71.857,191.600 71.600 C 190.232 71.162,189.181 71.162,190.200 71.600 M193.800 72.400 C 194.240 72.589,194.870 72.744,195.200 72.744 C 195.578 72.744,195.504 72.617,195.000 72.400 C 194.560 72.211,193.930 72.056,193.600 72.056 C 193.222 72.056,193.296 72.183,193.800 72.400 M206.800 77.000 C 207.350 77.314,207.980 77.572,208.200 77.572 C 208.420 77.572,208.150 77.314,207.600 77.000 C 207.050 76.686,206.420 76.428,206.200 76.428 C 205.980 76.428,206.250 76.686,206.800 77.000 M137.855 80.900 C 137.076 81.608,136.945 81.970,137.241 82.600 C 137.591 83.346,137.605 83.340,137.447 82.505 C 137.329 81.880,137.597 81.372,138.339 80.818 C 138.922 80.382,139.275 80.020,139.122 80.013 C 138.970 80.006,138.399 80.405,137.855 80.900 M214.600 81.072 C 215.313 81.766,220.400 85.247,220.400 85.040 C 220.400 84.930,219.275 84.049,217.900 83.082 C 215.246 81.215,213.914 80.404,214.600 81.072 M220.924 85.477 C 221.260 86.021,224.400 88.555,224.400 88.282 C 224.400 88.180,223.553 87.403,222.519 86.555 C 221.484 85.707,220.766 85.222,220.924 85.477 M140.381 88.681 C 141.072 89.606,142.394 90.928,143.319 91.619 L 145.000 92.876 143.446 91.492 C 142.591 90.731,141.269 89.409,140.508 88.554 L 139.124 87.000 140.381 88.681 M227.421 91.400 C 228.440 92.390,229.384 93.200,229.520 93.200 C 229.656 93.200,228.972 92.390,228.000 91.400 C 227.028 90.410,226.084 89.600,225.901 89.600 C 225.719 89.600,226.403 90.410,227.421 91.400 M153.000 95.461 C 156.386 95.719,172.411 95.787,171.529 95.540 C 171.018 95.397,166.280 95.293,161.000 95.310 C 155.720 95.326,152.120 95.394,153.000 95.461 M52.808 97.247 C 51.348 97.829,29.074 120.164,28.062 122.060 C 25.819 126.262,28.701 130.800,33.612 130.800 C 36.422 130.800,36.396 130.822,49.700 117.511 L 61.200 106.006 61.200 103.341 C 61.200 98.401,57.198 95.495,52.808 97.247 M234.887 100.000 C 236.118 101.650,237.781 104.125,238.582 105.500 C 239.383 106.875,240.127 108.000,240.236 108.000 C 240.832 108.000,234.544 98.536,233.252 97.489 C 232.920 97.220,233.656 98.350,234.887 100.000 M58.281 98.384 C 60.810 99.926,61.658 103.942,59.939 106.246 C 58.376 108.342,38.230 128.451,36.708 129.435 C 31.339 132.907,25.344 126.494,29.159 121.360 C 30.583 119.444,51.489 98.663,52.600 98.059 C 53.903 97.351,56.865 97.521,58.281 98.384 M188.000 104.200 C 189.417 105.630,190.667 106.800,190.777 106.800 C 190.887 106.800,189.817 105.630,188.400 104.200 C 186.983 102.770,185.733 101.600,185.623 101.600 C 185.513 101.600,186.583 102.770,188.000 104.200 M240.400 108.450 C 240.400 108.798,241.637 111.200,241.817 111.200 C 241.904 111.200,241.861 110.885,241.721 110.500 C 241.433 109.706,240.400 108.103,240.400 108.450 M196.928 124.400 C 196.928 125.830,197.001 126.415,197.089 125.700 C 197.178 124.985,197.178 123.815,197.089 123.100 C 197.001 122.385,196.928 122.970,196.928 124.400 M246.856 124.800 C 246.856 125.130,247.011 125.760,247.200 126.200 C 247.417 126.704,247.544 126.778,247.544 126.400 C 247.544 126.070,247.389 125.440,247.200 125.000 C 246.983 124.496,246.856 124.422,246.856 124.800 M247.680 128.200 C 247.680 128.640,247.824 129.450,248.000 130.000 C 248.254 130.792,248.320 130.833,248.320 130.200 C 248.320 129.760,248.176 128.950,248.000 128.400 C 247.746 127.608,247.680 127.567,247.680 128.200 M197.342 131.800 C 197.341 133.780,197.408 134.640,197.492 133.712 C 197.576 132.784,197.577 131.164,197.495 130.112 C 197.412 129.060,197.343 129.820,197.342 131.800 M248.495 133.000 C 248.495 133.660,248.632 134.740,248.800 135.400 L 249.105 136.600 249.105 135.400 C 249.105 134.740,248.968 133.660,248.800 133.000 L 248.495 131.800 248.495 133.000 M249.344 143.200 C 249.344 145.290,249.412 146.145,249.494 145.100 C 249.576 144.055,249.576 142.345,249.494 141.300 C 249.412 140.255,249.344 141.110,249.344 143.200 M106.600 140.800 C 106.464 141.020,106.040 141.200,105.657 141.200 C 104.710 141.200,39.223 206.783,38.534 208.421 C 36.428 213.431,42.399 218.881,47.123 216.259 C 48.213 215.655,113.168 150.852,113.900 149.639 C 115.565 146.881,113.100 141.200,110.238 141.200 C 109.887 141.200,109.600 141.020,109.600 140.800 C 109.600 140.580,108.981 140.400,108.224 140.400 C 107.467 140.400,106.736 140.580,106.600 140.800 M111.844 142.865 C 113.475 144.417,114.151 146.623,113.551 148.443 C 113.066 149.917,48.785 214.728,46.720 215.826 C 42.215 218.221,37.250 213.134,39.360 208.287 C 40.172 206.424,104.687 142.081,106.212 141.615 C 108.133 141.027,110.455 141.542,111.844 142.865 M200.000 144.212 C 200.000 144.362,200.450 145.019,201.000 145.673 C 201.550 146.327,202.000 146.739,202.000 146.588 C 202.000 146.438,201.550 145.781,201.000 145.127 C 200.450 144.473,200.000 144.061,200.000 144.212 M203.233 146.949 C 203.325 147.030,205.560 147.192,208.200 147.307 C 211.422 147.448,212.211 147.414,210.600 147.202 C 208.078 146.871,202.948 146.694,203.233 146.949 M218.500 147.891 C 219.325 147.978,220.675 147.978,221.500 147.891 C 222.325 147.805,221.650 147.734,220.000 147.734 C 218.350 147.734,217.675 147.805,218.500 147.891 M224.307 148.290 C 225.026 148.379,226.106 148.377,226.707 148.286 C 227.308 148.195,226.720 148.122,225.400 148.124 C 224.080 148.126,223.588 148.201,224.307 148.290 M236.200 148.813 C 237.740 148.971,239.900 149.097,241.000 149.092 L 243.000 149.082 240.600 148.785 C 239.280 148.621,237.120 148.496,235.800 148.506 L 233.400 148.526 236.200 148.813 M247.800 149.200 L 246.600 149.505 247.676 149.553 C 248.268 149.579,248.864 149.420,249.000 149.200 C 249.136 148.980,249.192 148.821,249.124 148.847 C 249.056 148.873,248.460 149.032,247.800 149.200 M249.600 161.596 C 249.600 161.825,250.407 163.002,251.394 164.214 C 252.381 165.425,253.474 166.969,253.823 167.645 C 254.173 168.321,254.552 168.781,254.665 168.668 C 254.897 168.436,252.129 164.272,250.844 162.921 C 249.678 161.695,249.732 161.689,257.993 162.066 C 262.060 162.252,265.570 162.339,265.793 162.258 C 266.017 162.178,263.860 161.995,261.000 161.853 C 258.140 161.711,254.405 161.502,252.700 161.388 C 250.692 161.254,249.600 161.328,249.600 161.596 M271.800 162.816 C 285.801 163.660,294.082 164.051,294.256 163.877 C 294.363 163.770,292.325 163.575,289.726 163.444 C 287.127 163.313,282.390 163.023,279.200 162.799 C 276.010 162.575,271.960 162.422,270.200 162.459 C 267.270 162.521,267.405 162.551,271.800 162.816 M294.833 164.146 C 294.925 164.227,298.240 164.383,302.200 164.494 C 306.384 164.611,308.143 164.571,306.400 164.400 C 303.231 164.088,294.550 163.898,294.833 164.146 M311.000 164.998 C 312.018 165.343,315.262 165.485,314.754 165.163 C 314.449 164.970,313.390 164.824,312.400 164.838 C 311.410 164.852,310.780 164.924,311.000 164.998 M315.633 165.744 C 315.725 165.823,316.340 166.008,317.000 166.156 C 317.876 166.352,318.038 166.315,317.600 166.018 C 317.060 165.653,315.232 165.398,315.633 165.744 M318.433 166.549 C 318.845 166.917,321.200 168.000,321.200 167.821 C 321.200 167.590,318.982 166.400,318.553 166.400 C 318.396 166.400,318.342 166.467,318.433 166.549 M254.800 169.356 C 254.800 169.765,256.384 172.942,256.391 172.549 C 256.403 171.965,255.249 169.200,254.995 169.200 C 254.888 169.200,254.800 169.270,254.800 169.356 M325.225 171.031 C 325.981 171.928,326.681 172.597,326.780 172.517 C 326.879 172.438,326.260 171.704,325.405 170.887 L 323.850 169.400 325.225 171.031 M256.644 174.200 C 256.973 175.671,257.202 175.990,257.194 174.967 C 257.191 174.545,257.005 173.930,256.782 173.600 C 256.485 173.162,256.448 173.324,256.644 174.200 M257.466 178.400 C 257.601 179.610,257.777 180.675,257.856 180.767 C 258.194 181.158,257.952 177.344,257.604 176.800 C 257.348 176.399,257.302 176.930,257.466 178.400 M258.119 185.800 C 258.111 188.000,258.232 191.150,258.388 192.800 L 258.671 195.800 258.686 193.000 C 258.695 191.460,258.574 188.310,258.418 186.000 L 258.134 181.800 258.119 185.800 M331.482 185.600 C 331.604 187.250,331.771 188.675,331.852 188.767 C 332.128 189.077,331.907 185.008,331.583 183.800 C 331.386 183.068,331.347 183.769,331.482 185.600 M151.600 191.600 C 151.600 191.820,151.375 192.029,151.100 192.065 C 149.762 192.238,48.490 294.595,48.240 296.027 C 47.441 300.610,51.223 304.260,55.900 303.420 C 57.239 303.179,62.943 297.609,108.900 251.669 L 160.400 200.187 160.400 197.446 C 160.400 193.459,158.147 191.200,154.171 191.200 C 152.724 191.200,151.600 191.375,151.600 191.600 M156.792 192.301 C 159.581 193.702,160.822 197.293,159.426 199.920 C 158.267 202.099,57.511 302.282,55.926 302.831 C 51.929 304.216,47.645 300.012,48.874 295.910 C 49.361 294.285,148.926 194.094,151.800 192.337 C 153.309 191.414,155.003 191.402,156.792 192.301 M332.104 196.200 C 332.095 197.300,332.221 199.280,332.385 200.600 C 332.654 202.769,332.684 202.827,332.694 201.200 C 332.701 200.210,332.575 198.230,332.414 196.800 C 332.137 194.334,332.121 194.303,332.104 196.200 M258.834 196.400 C 258.846 196.730,259.011 197.360,259.200 197.800 L 259.544 198.600 259.566 197.800 C 259.578 197.360,259.413 196.730,259.200 196.400 C 258.855 195.867,258.815 195.867,258.834 196.400 M259.883 199.500 C 260.815 202.026,264.702 206.361,267.252 207.717 C 268.423 208.341,268.469 208.344,267.600 207.743 C 265.672 206.410,261.364 201.785,260.667 200.300 C 259.950 198.774,259.413 198.226,259.883 199.500 M332.928 210.400 C 332.928 211.830,333.001 212.415,333.089 211.700 C 333.178 210.985,333.178 209.815,333.089 209.100 C 333.001 208.385,332.928 208.970,332.928 210.400 M269.600 208.927 C 270.679 209.551,273.574 210.276,273.132 209.812 C 272.984 209.657,272.264 209.387,271.532 209.211 C 270.799 209.036,269.840 208.770,269.400 208.621 C 268.899 208.451,268.974 208.565,269.600 208.927 M275.200 210.264 C 279.061 210.521,295.607 210.585,294.729 210.340 C 294.218 210.197,289.210 210.094,283.600 210.112 C 277.990 210.130,274.210 210.198,275.200 210.264 M296.033 210.944 C 296.125 211.023,296.740 211.208,297.400 211.356 C 298.276 211.552,298.438 211.515,298.000 211.218 C 297.460 210.853,295.632 210.598,296.033 210.944 M300.360 212.416 C 301.327 212.855,302.202 213.132,302.303 213.031 C 302.516 212.817,299.722 211.596,299.051 211.609 C 298.803 211.614,299.392 211.977,300.360 212.416 M303.020 213.514 C 303.229 213.686,304.413 214.503,305.651 215.328 C 307.853 216.797,311.551 220.410,313.709 223.200 C 314.304 223.970,314.793 224.472,314.796 224.316 C 314.813 223.177,308.516 216.762,305.160 214.500 C 303.447 213.346,302.018 212.687,303.020 213.514 M333.334 216.400 C 333.334 218.050,333.405 218.725,333.491 217.900 C 333.578 217.075,333.578 215.725,333.491 214.900 C 333.405 214.075,333.334 214.750,333.334 216.400 M333.724 225.000 C 333.726 226.320,333.801 226.812,333.890 226.093 C 333.979 225.374,333.977 224.294,333.886 223.693 C 333.795 223.092,333.722 223.680,333.724 225.000 M316.086 227.700 C 318.026 232.314,318.046 232.353,317.787 231.000 C 317.542 229.726,315.371 224.800,315.054 224.800 C 314.951 224.800,315.415 226.105,316.086 227.700 M334.134 230.400 C 334.134 232.050,334.205 232.725,334.291 231.900 C 334.378 231.075,334.378 229.725,334.291 228.900 C 334.205 228.075,334.134 228.750,334.134 230.400 M318.080 233.200 C 318.080 233.750,318.224 234.650,318.400 235.200 L 318.720 236.200 318.720 235.200 C 318.720 234.650,318.576 233.750,318.400 233.200 L 318.080 232.200 318.080 233.200 M334.524 239.000 C 334.526 240.320,334.601 240.812,334.690 240.093 C 334.779 239.374,334.777 238.294,334.686 237.693 C 334.595 237.092,334.522 237.680,334.524 239.000 M318.899 240.600 C 318.891 242.360,319.017 245.420,319.179 247.400 L 319.473 251.000 319.497 246.400 C 319.510 243.870,319.384 240.810,319.217 239.600 C 318.918 237.437,318.912 237.454,318.899 240.600 M199.682 240.430 C 198.269 241.259,94.923 344.429,93.093 346.838 C 91.963 348.324,91.432 353.200,92.400 353.200 C 92.620 353.200,92.800 353.461,92.800 353.780 C 92.800 356.109,99.058 357.358,101.446 355.505 C 104.136 353.418,207.514 249.656,208.126 248.427 C 208.875 246.926,209.015 244.980,208.400 244.600 C 208.180 244.464,208.000 244.089,208.000 243.766 C 208.000 242.892,205.583 240.400,204.736 240.400 C 204.331 240.400,204.000 240.220,204.000 240.000 C 204.000 239.322,201.074 239.613,199.682 240.430 M205.627 241.619 C 207.929 243.258,208.576 246.127,207.227 248.716 C 206.475 250.159,102.830 354.013,100.811 355.347 C 96.214 358.384,90.071 352.140,93.115 347.524 C 94.631 345.225,199.404 240.877,200.400 240.674 C 202.186 240.311,204.335 240.699,205.627 241.619 M334.934 244.400 C 334.934 246.050,335.005 246.725,335.091 245.900 C 335.178 245.075,335.178 243.725,335.091 242.900 C 335.005 242.075,334.934 242.750,334.934 244.400 M335.324 253.000 C 335.326 254.320,335.401 254.812,335.490 254.093 C 335.579 253.374,335.577 252.294,335.486 251.693 C 335.395 251.092,335.322 251.680,335.324 253.000 M319.634 253.000 C 319.622 253.440,319.787 254.070,320.000 254.400 C 320.514 255.195,320.514 254.196,320.000 253.000 L 319.656 252.200 319.634 253.000 M335.742 259.800 C 335.741 261.780,335.808 262.640,335.892 261.712 C 335.976 260.784,335.977 259.164,335.895 258.112 C 335.812 257.060,335.743 257.820,335.742 259.800 M18.077 259.151 C 17.642 260.398,15.312 262.400,14.295 262.400 C 13.423 262.400,12.400 262.825,12.400 263.187 C 12.400 263.353,13.158 263.289,14.085 263.044 C 16.071 262.521,18.800 260.100,18.800 258.862 C 18.800 257.683,18.555 257.781,18.077 259.151 M324.600 262.000 C 325.683 263.100,326.660 264.000,326.770 264.000 C 326.880 264.000,326.083 263.100,325.000 262.000 C 323.917 260.900,322.940 260.000,322.830 260.000 C 322.720 260.000,323.517 260.900,324.600 262.000 M335.902 266.200 C 335.797 266.750,335.866 267.200,336.055 267.200 C 336.245 267.200,336.400 266.750,336.400 266.200 C 336.400 265.650,336.331 265.200,336.247 265.200 C 336.162 265.200,336.007 265.650,335.902 266.200 M15.000 277.945 C 16.727 278.731,17.535 279.525,18.268 281.158 C 18.715 282.155,18.736 282.161,18.768 281.300 C 18.815 279.990,15.902 277.198,14.500 277.209 C 13.479 277.217,13.514 277.270,15.000 277.945 M251.200 285.562 C 249.873 286.255,179.995 355.888,178.507 358.000 C 175.425 362.376,180.368 368.815,185.605 367.246 C 188.166 366.479,259.421 294.970,259.687 292.901 C 260.120 289.528,258.282 285.600,256.270 285.600 C 255.927 285.600,255.536 285.420,255.400 285.200 C 255.009 284.567,252.731 284.763,251.200 285.562 M255.750 286.000 C 258.521 286.003,260.312 292.073,258.300 294.641 C 254.864 299.025,186.788 366.277,185.350 366.708 C 181.385 367.896,177.549 364.407,178.215 360.218 C 178.521 358.289,250.024 286.241,252.000 285.869 C 252.550 285.766,253.518 285.753,254.150 285.841 C 254.782 285.928,255.503 286.000,255.750 286.000 M301.388 331.873 C 300.722 332.273,293.927 338.922,286.288 346.649 L 272.400 360.698 272.400 362.954 C 272.400 367.922,276.612 370.865,280.895 368.890 C 282.570 368.117,309.600 341.417,309.600 340.535 C 309.600 340.241,309.780 340.000,310.000 340.000 C 310.222 340.000,310.400 338.933,310.400 337.600 C 310.400 336.280,310.264 335.200,310.098 335.200 C 309.931 335.200,309.568 334.705,309.291 334.100 C 308.147 331.605,303.852 330.395,301.388 331.873 M306.721 332.559 C 308.176 333.312,308.999 334.309,309.623 336.076 C 310.678 339.066,310.373 339.456,295.024 354.765 L 280.952 368.800 278.548 368.800 C 274.033 368.800,271.277 364.288,273.539 360.600 C 274.240 359.459,299.721 333.868,301.400 332.620 C 302.417 331.864,305.313 331.831,306.721 332.559"/></g></svg>