<svg xmlns="http://www.w3.org/2000/svg" xmlns:xlink="http://www.w3.org/1999/xlink" id="svg" width="400" height="399.219" version="1.1" viewBox="0 0 400 399.219"><g id="svgg"><path id="path0" fill="#33b2ca" fill-rule="evenodd" stroke="none" d="M212.987 201.099 C 212.987 201.264,212.615 201.399,212.161 201.399 C 211.188 201.399,211.277 201.837,213.042 205.704 C 213.671 207.083,214.186 208.466,214.186 208.778 C 214.186 209.089,214.341 209.440,214.532 209.557 C 214.722 209.675,214.985 210.360,215.117 211.079 C 215.249 211.799,215.633 213.646,215.970 215.185 C 216.697 218.502,216.804 228.405,216.143 231.263 C 214.849 236.861,213.721 240.242,212.152 243.225 C 211.512 244.441,210.989 245.597,210.989 245.795 C 210.989 246.006,247.297 246.149,299.201 246.141 C 397.500 246.127,389.089 246.396,388.665 243.280 C 388.536 242.333,388.324 240.300,388.193 238.761 C 388.063 237.223,387.802 235.604,387.614 235.165 C 387.296 234.419,387.098 233.625,386.544 230.869 C 386.422 230.265,386.163 229.770,385.969 229.770 C 385.774 229.770,385.614 229.331,385.614 228.795 C 385.614 228.258,385.435 227.708,385.215 227.572 C 384.995 227.437,384.815 226.976,384.815 226.550 C 384.815 226.123,384.635 225.774,384.416 225.774 C 384.196 225.774,384.016 225.415,384.016 224.975 C 384.016 224.535,383.836 224.176,383.616 224.176 C 383.397 224.176,383.217 223.816,383.217 223.377 C 383.217 222.937,383.037 222.577,382.817 222.577 C 382.597 222.577,382.418 222.342,382.418 222.053 C 382.418 221.765,382.058 221.143,381.618 220.671 C 381.179 220.200,380.819 219.618,380.819 219.379 C 380.819 219.140,380.370 218.495,379.820 217.946 C 379.271 217.396,378.821 216.802,378.821 216.626 C 378.821 216.182,373.258 210.568,371.849 209.590 C 371.216 209.151,370.470 208.566,370.192 208.292 C 369.915 208.017,369.484 207.792,369.236 207.792 C 368.987 207.792,368.895 207.612,369.031 207.393 C 369.167 207.173,368.908 206.993,368.455 206.993 C 368.003 206.993,367.632 206.813,367.632 206.593 C 367.632 206.374,367.397 206.194,367.108 206.194 C 366.820 206.194,366.198 205.834,365.726 205.395 C 365.255 204.955,364.591 204.595,364.252 204.595 C 363.914 204.595,363.636 204.405,363.636 204.172 C 363.636 203.939,363.489 203.840,363.308 203.952 C 363.127 204.064,362.477 203.894,361.864 203.576 C 361.250 203.258,360.499 202.997,360.194 202.997 C 359.890 202.997,359.640 202.817,359.640 202.597 C 359.640 202.378,359.101 202.198,358.442 202.198 C 357.782 202.198,357.243 202.018,357.243 201.798 C 357.243 201.578,356.703 201.399,356.044 201.399 C 355.385 201.399,354.845 201.264,354.845 201.099 C 354.845 200.934,322.927 200.799,283.916 200.799 C 244.905 200.799,212.987 200.934,212.987 201.099 M194.605 264.922 C 195.595 265.252,198.489 265.469,198.168 265.189 C 198.077 265.109,197.013 264.941,195.804 264.816 C 194.385 264.669,193.960 264.706,194.605 264.922 M174.625 286.873 C 174.625 287.115,174.266 287.313,173.826 287.313 C 173.387 287.313,173.027 287.493,173.027 287.712 C 173.027 287.932,172.751 288.112,172.414 288.112 C 171.718 288.112,169.299 290.458,169.099 291.327 C 169.026 291.642,168.826 291.992,168.655 292.104 C 167.207 293.048,167.546 301.199,169.089 302.544 C 169.497 302.900,169.830 303.407,169.830 303.672 C 169.830 304.318,170.842 305.295,171.512 305.295 C 171.808 305.295,172.311 305.654,172.627 306.094 C 172.966 306.563,173.662 306.893,174.314 306.893 C 174.925 306.893,175.425 307.073,175.425 307.293 C 175.425 307.512,176.324 307.692,177.423 307.692 L 179.421 307.692 179.421 311.209 C 179.421 313.143,179.582 314.896,179.779 315.105 C 179.977 315.314,180.239 316.204,180.363 317.083 C 180.853 320.558,181.121 321.678,181.462 321.678 C 181.658 321.678,181.818 322.218,181.818 322.877 C 181.818 323.536,181.953 324.076,182.118 324.076 C 182.283 324.076,182.762 325.155,183.184 326.474 C 183.605 327.792,184.055 328.874,184.183 328.877 C 184.311 328.881,184.850 329.768,185.380 330.849 C 185.911 331.931,186.855 333.411,187.477 334.140 C 188.100 334.868,188.610 335.610,188.610 335.789 C 188.612 336.257,195.400 342.857,195.880 342.857 C 196.102 342.857,196.787 343.397,197.403 344.056 C 198.019 344.715,198.810 345.255,199.161 345.255 C 199.513 345.255,199.800 345.435,199.800 345.654 C 199.800 345.874,200.042 346.054,200.338 346.054 C 200.633 346.054,201.201 346.414,201.598 346.853 C 201.996 347.293,202.564 347.652,202.859 347.652 C 203.155 347.652,203.397 347.832,203.397 348.052 C 203.397 348.272,203.756 348.452,204.196 348.452 C 204.635 348.452,204.995 348.631,204.995 348.851 C 204.995 349.071,205.409 349.251,205.914 349.251 C 206.420 349.251,207.004 349.399,207.213 349.581 C 207.422 349.762,208.402 350.143,209.391 350.426 C 210.380 350.709,211.548 351.087,211.988 351.267 C 215.929 352.879,220.880 352.996,283.716 352.965 C 342.357 352.936,351.800 352.806,352.627 352.012 C 352.836 351.812,353.600 351.648,354.326 351.648 C 355.051 351.648,355.644 351.469,355.644 351.249 C 355.644 351.029,356.184 350.849,356.843 350.849 C 357.502 350.849,358.042 350.669,358.042 350.450 C 358.042 350.230,358.581 350.050,359.241 350.050 C 359.900 350.050,360.440 349.870,360.440 349.650 C 360.440 349.431,360.799 349.251,361.239 349.251 C 361.678 349.251,362.038 349.071,362.038 348.851 C 362.038 348.631,362.310 348.452,362.643 348.452 C 363.197 348.452,364.757 347.730,365.235 347.253 C 365.345 347.143,366.244 346.616,367.233 346.082 C 368.222 345.548,369.322 344.784,369.677 344.384 C 370.033 343.984,370.527 343.656,370.776 343.656 C 371.025 343.656,371.229 343.477,371.229 343.257 C 371.229 343.037,371.411 342.857,371.635 342.857 C 371.858 342.857,372.532 342.297,373.133 341.613 C 373.734 340.929,375.350 339.245,376.723 337.871 C 378.097 336.496,379.221 335.248,379.221 335.097 C 379.221 334.946,379.759 334.247,380.418 333.545 C 381.076 332.842,381.620 332.088,381.625 331.868 C 381.631 331.648,381.988 331.019,382.418 330.470 C 382.847 329.920,383.203 329.156,383.208 328.771 C 383.213 328.387,383.397 328.072,383.616 328.072 C 383.836 328.072,384.016 327.712,384.016 327.273 C 384.016 326.833,384.196 326.474,384.416 326.474 C 384.635 326.474,384.815 326.114,384.815 325.674 C 384.815 325.235,384.995 324.875,385.215 324.875 C 385.435 324.875,385.614 324.436,385.614 323.900 C 385.614 323.363,385.794 322.813,386.014 322.677 C 386.234 322.541,386.414 321.902,386.414 321.255 C 386.414 320.609,386.593 320.080,386.813 320.080 C 387.033 320.080,387.213 319.461,387.213 318.705 C 387.213 317.949,387.393 317.219,387.612 317.083 C 387.832 316.947,388.012 315.688,388.012 314.286 C 388.012 312.883,388.158 311.645,388.336 311.535 C 388.915 311.178,388.880 307.847,388.292 307.359 C 387.884 307.020,362.849 306.876,291.228 306.798 L 194.715 306.693 192.728 305.337 C 186.935 301.384,186.602 293.163,192.072 289.151 L 194.006 287.732 291.309 287.625 L 388.611 287.517 283.516 287.267 C 225.714 287.130,177.567 286.886,176.523 286.726 C 175.232 286.526,174.625 286.573,174.625 286.873"/><path id="path1" fill="#84cbeb" fill-rule="evenodd" stroke="none" d="M387.840 245.709 C 387.640 246.034,363.643 246.154,299.110 246.154 L 210.655 246.154 209.746 247.624 C 208.238 250.063,205.272 253.432,199.769 258.957 C 196.894 261.844,194.661 264.324,194.806 264.470 C 195.524 265.188,393.789 265.154,394.452 264.436 C 394.808 264.051,395.361 263.736,395.682 263.736 C 396.310 263.736,397.996 262.126,398.011 261.513 C 398.016 261.307,398.371 260.689,398.801 260.140 C 400.146 258.421,399.733 250.168,398.302 250.153 C 398.137 250.151,398.002 249.949,398.002 249.704 C 398.002 249.119,395.167 246.529,394.785 246.766 C 394.622 246.866,394.390 246.690,394.269 246.375 C 394.148 246.059,393.725 245.794,393.328 245.787 C 392.932 245.779,391.597 245.659,390.361 245.519 C 388.884 245.351,388.021 245.416,387.840 245.709 M389.211 287.113 C 388.771 287.643,377.401 287.713,291.360 287.722 L 194.006 287.732 192.072 289.151 C 186.602 293.163,186.935 301.384,192.728 305.337 L 194.715 306.693 291.248 306.798 C 354.143 306.866,387.919 307.040,388.177 307.298 C 388.692 307.813,391.889 307.809,392.208 307.293 C 392.344 307.073,392.804 306.893,393.230 306.893 C 393.657 306.893,394.006 306.713,394.006 306.494 C 394.006 306.274,394.282 306.094,394.619 306.094 C 395.303 306.094,398.002 303.554,398.002 302.910 C 398.002 302.683,398.137 302.496,398.302 302.494 C 398.467 302.493,398.826 302.007,399.101 301.416 C 399.704 300.118,399.788 292.907,399.201 292.907 C 398.981 292.907,398.801 292.587,398.801 292.196 C 398.801 291.805,398.442 291.226,398.002 290.909 C 397.562 290.592,397.203 290.115,397.203 289.849 C 397.203 289.582,396.843 289.250,396.404 289.111 C 395.964 288.971,395.604 288.709,395.604 288.529 C 395.604 287.260,390.100 286.041,389.211 287.113"/><path id="path2" fill="#bc2538" fill-rule="evenodd" stroke="none" d="M178.322 114.550 C 177.940 114.704,177.822 117.157,177.822 124.908 L 177.822 135.065 187.013 135.065 L 196.204 135.065 196.204 124.675 L 196.204 114.286 187.512 114.317 C 182.732 114.335,178.596 114.440,178.322 114.550 M119.880 134.665 C 119.880 134.885,119.510 135.065,119.057 135.065 C 118.605 135.065,118.346 135.245,118.482 135.465 C 118.622 135.692,118.278 135.864,117.682 135.864 C 117.087 135.864,116.742 135.692,116.883 135.465 C 117.212 134.932,116.976 134.960,115.736 135.604 C 115.165 135.900,114.815 136.260,114.958 136.403 C 115.101 136.546,114.784 136.661,114.252 136.657 C 113.457 136.652,113.392 136.575,113.886 136.220 C 114.385 135.861,114.362 135.829,113.754 136.026 C 113.351 136.157,112.834 136.264,112.606 136.264 C 112.356 136.264,112.390 136.505,112.692 136.868 C 113.128 137.394,112.963 137.464,111.432 137.406 C 108.979 137.314,103.497 140.012,103.497 141.312 C 103.497 141.612,103.182 141.855,102.797 141.852 C 102.200 141.847,102.185 141.790,102.697 141.459 C 103.027 141.245,103.099 141.068,102.856 141.065 C 102.614 141.062,101.852 141.598,101.162 142.258 C 100.472 142.917,99.797 143.457,99.662 143.457 C 99.527 143.457,98.882 143.906,98.229 144.456 C 97.576 145.005,97.199 145.455,97.392 145.455 C 97.585 145.455,97.969 145.230,98.245 144.955 C 98.649 144.555,98.696 144.594,98.482 145.155 C 98.336 145.539,97.898 145.854,97.509 145.854 C 97.120 145.854,96.554 146.158,96.253 146.530 C 95.880 146.990,95.864 147.110,96.204 146.906 C 97.020 146.416,96.774 147.019,95.734 148.059 C 95.081 148.711,94.700 148.869,94.567 148.540 C 94.458 148.272,94.355 148.457,94.337 148.951 C 94.318 149.511,94.055 149.850,93.640 149.850 C 93.273 149.850,93.082 149.958,93.214 150.091 C 93.526 150.402,91.803 152.196,91.409 151.972 C 91.244 151.878,91.109 152.004,91.109 152.253 C 91.109 153.024,90.008 153.923,89.774 153.343 C 89.664 153.070,89.545 153.297,89.510 153.846 C 89.476 154.396,89.357 154.622,89.247 154.349 C 89.001 153.740,87.916 154.684,87.906 155.516 C 87.901 155.906,87.799 155.887,87.512 155.445 C 87.204 154.967,87.117 155.048,87.087 155.844 C 87.067 156.394,86.958 156.616,86.847 156.339 C 86.712 156.003,86.254 156.251,85.481 157.079 C 84.842 157.763,84.436 158.512,84.579 158.744 C 84.724 158.979,84.649 159.047,84.410 158.899 C 83.914 158.593,82.611 159.745,82.909 160.227 C 83.019 160.404,82.795 160.794,82.413 161.094 C 81.771 161.597,81.763 161.578,82.311 160.839 L 82.903 160.040 81.924 160.839 C 80.000 162.409,79.885 162.556,80.423 162.774 C 80.696 162.884,80.470 163.001,79.920 163.034 C 78.999 163.089,78.983 163.120,79.720 163.437 C 80.508 163.775,80.508 163.780,79.692 163.808 C 78.851 163.837,76.913 165.681,77.485 165.909 C 77.658 165.978,77.377 166.445,76.862 166.947 C 76.346 167.449,75.924 167.667,75.924 167.431 C 75.924 167.166,75.712 167.199,75.369 167.517 C 75.064 167.800,74.954 168.122,75.125 168.232 C 75.296 168.342,75.186 168.663,74.881 168.947 C 74.536 169.267,74.326 169.299,74.326 169.031 C 74.326 168.763,74.116 168.795,73.770 169.115 C 73.368 169.488,73.341 169.711,73.671 169.924 C 73.933 170.093,73.702 170.223,73.127 170.230 C 72.551 170.237,72.321 170.366,72.583 170.536 C 72.913 170.748,72.885 170.971,72.483 171.344 C 72.119 171.682,71.928 171.707,71.928 171.416 C 71.928 171.159,71.675 171.225,71.329 171.571 C 70.999 171.901,70.729 172.376,70.729 172.627 C 70.729 173.403,69.630 174.305,69.394 173.723 C 69.284 173.450,69.167 173.676,69.134 174.226 C 69.079 175.147,69.048 175.163,68.731 174.426 C 68.435 173.737,68.383 173.792,68.354 174.825 C 68.327 175.751,68.231 175.888,67.932 175.425 C 67.584 174.885,67.361 175.135,67.485 175.924 C 67.511 176.089,67.308 176.179,67.033 176.124 C 66.758 176.069,66.583 176.262,66.643 176.553 C 66.704 176.844,66.583 176.977,66.376 176.849 C 65.854 176.527,64.666 177.787,64.993 178.316 C 65.139 178.552,65.074 178.631,64.849 178.492 C 64.623 178.352,64.028 178.594,63.527 179.029 C 62.684 179.760,62.673 179.824,63.375 179.867 C 63.834 179.896,63.661 180.036,62.937 180.220 C 62.065 180.442,61.956 180.549,62.537 180.612 C 63.219 180.686,63.190 180.742,62.338 180.994 C 61.788 181.157,61.387 181.508,61.446 181.775 C 61.594 182.446,60.549 183.415,59.669 183.423 C 59.053 183.428,59.033 183.488,59.540 183.816 C 60.048 184.144,60.028 184.204,59.412 184.210 C 58.478 184.218,57.544 185.151,57.536 186.085 C 57.533 186.528,57.415 186.641,57.237 186.375 C 57.042 186.084,56.644 186.243,56.058 186.846 C 55.455 187.466,55.328 187.818,55.658 187.952 C 55.925 188.060,55.694 188.166,55.145 188.186 C 54.349 188.216,54.268 188.303,54.745 188.611 C 55.253 188.939,55.233 189.000,54.617 189.005 C 53.781 189.012,52.747 189.920,52.747 190.647 C 52.747 190.920,52.629 191.024,52.484 190.879 C 52.058 190.453,51.151 191.435,51.121 192.357 C 51.093 193.186,51.084 193.187,50.749 192.408 C 50.443 191.694,50.403 191.686,50.378 192.331 C 50.362 192.729,50.170 192.943,49.950 192.807 C 49.584 192.581,49.372 193.127,49.513 193.936 C 49.545 194.117,49.390 194.154,49.169 194.017 C 48.948 193.881,47.589 194.977,46.149 196.453 C 44.709 197.930,43.696 199.242,43.899 199.369 C 44.102 199.497,44.019 199.831,43.712 200.116 C 43.363 200.439,43.157 200.470,43.157 200.197 C 43.157 199.959,42.707 200.213,42.158 200.763 C 41.608 201.312,41.156 202.085,41.153 202.479 C 41.149 202.933,41.039 203.029,40.853 202.742 C 40.640 202.412,40.417 202.439,40.044 202.841 C 39.726 203.184,39.693 203.397,39.958 203.397 C 40.195 203.397,39.977 203.819,39.475 204.334 C 38.871 204.954,38.462 205.124,38.268 204.834 C 38.103 204.588,37.969 204.835,37.962 205.395 C 37.952 206.187,37.870 206.270,37.562 205.794 C 37.233 205.285,37.174 205.303,37.169 205.912 C 37.162 206.784,35.568 208.448,34.524 208.674 C 34.107 208.765,33.814 209.062,33.873 209.336 C 34.061 210.206,32.864 211.133,32.643 210.289 C 32.535 209.878,32.430 210.083,32.386 210.789 C 32.336 211.595,32.222 211.784,32.040 211.366 C 31.829 210.883,31.212 211.305,29.264 213.264 C 27.887 214.650,26.932 215.784,27.142 215.784 C 27.353 215.784,27.636 215.604,27.772 215.385 C 27.908 215.165,28.193 214.985,28.405 214.985 C 28.616 214.985,28.021 215.763,27.082 216.714 C 26.014 217.795,25.265 218.281,25.081 218.012 C 24.919 217.775,24.782 218.029,24.775 218.581 C 24.766 219.374,24.683 219.457,24.376 218.981 C 24.047 218.472,23.987 218.490,23.982 219.099 C 23.974 220.047,22.109 221.934,21.839 221.267 C 21.731 220.999,21.627 221.184,21.610 221.678 C 21.587 222.333,21.334 222.579,20.679 222.584 C 19.952 222.588,19.895 222.664,20.380 222.977 C 20.888 223.305,20.869 223.365,20.256 223.371 C 19.859 223.374,19.615 223.511,19.715 223.676 C 19.814 223.841,19.659 224.196,19.368 224.464 C 19.078 224.732,18.782 224.795,18.711 224.603 C 18.640 224.411,18.350 224.507,18.066 224.815 C 17.745 225.163,17.714 225.375,17.982 225.375 C 18.250 225.375,18.218 225.585,17.898 225.930 C 17.525 226.332,17.302 226.360,17.089 226.030 C 16.904 225.742,16.793 225.838,16.789 226.292 C 16.786 226.686,16.334 227.459,15.784 228.008 C 15.235 228.558,14.785 228.825,14.785 228.602 C 14.785 228.379,14.505 228.304,14.163 228.436 C 13.821 228.567,13.633 228.915,13.746 229.210 C 13.859 229.504,13.751 229.868,13.507 230.019 C 13.238 230.185,13.176 230.111,13.348 229.832 C 13.896 228.946,13.149 229.381,11.790 230.741 C 10.922 231.609,10.597 232.183,10.904 232.308 C 11.171 232.416,11.029 232.521,10.589 232.542 C 9.924 232.573,9.891 232.645,10.390 232.967 C 10.897 233.295,10.877 233.355,10.261 233.361 C 9.404 233.368,8.392 234.281,8.392 235.048 C 8.392 235.345,8.036 235.844,7.601 236.157 C 7.020 236.576,6.941 236.810,7.302 237.039 C 7.621 237.241,7.478 237.353,6.893 237.357 C 6.162 237.361,5.994 237.586,5.994 238.561 C 5.994 239.494,5.816 239.760,5.195 239.760 C 4.573 239.760,4.396 240.027,4.396 240.959 C 4.396 241.618,4.216 242.158,3.996 242.158 C 3.776 242.158,3.594 242.562,3.590 243.057 C 3.585 243.784,3.510 243.841,3.197 243.357 C 2.881 242.868,2.808 242.918,2.803 243.623 C 2.800 244.099,2.614 244.550,2.389 244.625 C 2.165 244.700,1.940 245.329,1.890 246.022 C 1.839 246.716,1.726 247.212,1.638 247.124 C 0.201 245.698,-0.812 274.225,0.599 276.378 C 0.929 276.882,1.196 277.436,1.193 277.608 C 1.189 277.781,1.012 277.652,0.799 277.323 C 0.524 276.897,0.410 276.873,0.406 277.239 C 0.402 277.523,0.759 278.142,1.199 278.614 C 1.638 279.085,1.995 279.662,1.992 279.896 C 1.989 280.129,1.811 280.050,1.598 279.720 C 1.344 279.326,1.209 279.291,1.205 279.617 C 1.202 279.890,1.558 280.338,1.998 280.612 C 2.438 280.887,2.797 281.428,2.797 281.814 C 2.797 282.201,3.022 282.520,3.297 282.524 C 3.668 282.528,3.659 282.617,3.260 282.870 C 2.700 283.224,3.388 284.915,4.092 284.915 C 4.259 284.915,4.398 285.320,4.402 285.814 C 4.407 286.541,4.482 286.599,4.795 286.114 C 5.092 285.654,5.184 285.796,5.189 286.725 C 5.192 287.472,5.501 288.156,5.994 288.511 C 6.434 288.828,6.793 289.407,6.793 289.799 C 6.793 290.268,7.099 290.512,7.692 290.516 C 8.419 290.521,8.477 290.596,7.992 290.909 C 7.484 291.238,7.503 291.297,8.115 291.303 C 8.513 291.306,8.735 291.476,8.608 291.681 C 8.482 291.886,8.740 292.306,9.182 292.616 C 9.623 292.925,9.870 293.293,9.730 293.433 C 9.591 293.573,9.771 293.801,10.133 293.939 C 10.494 294.078,10.789 294.420,10.789 294.699 C 10.789 294.978,11.059 295.431,11.389 295.704 C 11.803 296.048,11.988 296.063,11.988 295.753 C 11.988 295.507,12.216 295.305,12.494 295.305 C 12.773 295.305,14.964 293.335,17.364 290.927 L 21.728 286.550 20.075 283.235 C 17.512 278.097,16.378 274.129,15.415 266.933 C 14.806 262.379,16.611 250.455,18.394 247.258 C 18.607 246.877,18.781 246.349,18.781 246.085 C 18.781 244.777,23.500 237.520,26.920 233.566 C 31.034 228.811,111.892 147.933,115.442 145.024 C 120.598 140.797,126.938 137.439,131.968 136.270 C 134.331 135.721,135.038 135.065,133.267 135.065 C 132.717 135.065,132.268 134.885,132.268 134.665 C 132.268 134.423,130.528 134.266,127.849 134.266 C 125.004 134.266,123.517 134.408,123.676 134.665 C 123.823 134.903,123.347 135.065,122.501 135.065 C 121.719 135.065,121.079 134.885,121.079 134.665 C 121.079 134.446,120.809 134.266,120.480 134.266 C 120.150 134.266,119.880 134.446,119.880 134.665 M100.103 235.762 C 59.226 276.641,25.780 310.388,25.778 310.757 C 25.773 311.662,39.776 325.674,40.686 325.674 C 41.092 325.674,46.025 321.040,52.064 314.985 C 57.928 309.106,91.229 275.737,126.068 240.832 C 160.906 205.926,189.411 177.242,189.411 177.088 C 189.411 176.934,187.628 175.032,185.449 172.862 C 183.180 170.601,181.174 168.214,180.754 167.275 C 179.881 165.323,176.139 161.439,175.132 161.439 C 174.722 161.439,143.095 192.768,100.103 235.762 M133.035 262.075 C 53.601 341.701,55.788 339.484,56.133 340.042 C 56.275 340.272,56.753 340.460,57.195 340.460 C 58.194 340.460,59.139 341.364,59.147 342.329 C 59.152 342.945,59.213 342.965,59.540 342.458 C 59.854 341.973,59.929 342.030,59.934 342.757 C 59.939 343.567,60.508 343.882,61.638 343.704 C 61.803 343.678,61.938 343.836,61.938 344.056 C 61.938 344.276,62.208 344.456,62.537 344.456 C 62.867 344.456,63.137 344.782,63.137 345.180 C 63.137 345.637,63.653 346.107,64.535 346.454 C 65.305 346.755,65.934 347.149,65.934 347.327 C 65.934 347.506,66.294 347.652,66.733 347.652 C 67.173 347.652,67.534 347.787,67.536 347.952 C 67.539 348.311,69.474 349.251,70.210 349.251 C 70.495 349.251,70.729 349.391,70.729 349.563 C 70.729 349.735,71.583 350.121,72.627 350.420 C 73.671 350.720,74.705 351.098,74.925 351.259 C 75.145 351.421,75.954 351.658,76.723 351.786 C 77.493 351.913,79.291 352.236,80.719 352.503 C 85.368 353.373,96.302 353.015,95.683 352.014 C 95.409 351.571,93.394 350.696,91.109 350.027 C 85.154 348.285,75.169 341.930,73.507 338.824 C 72.757 337.423,74.046 336.092,142.432 267.733 C 208.744 201.446,211.151 199.001,210.086 199.001 C 209.470 199.001,208.215 197.786,205.594 194.652 C 204.496 193.338,203.402 192.250,203.165 192.235 C 202.928 192.220,171.369 223.648,133.035 262.075 M180.885 277.284 C 179.420 278.801,178.222 280.180,178.222 280.347 C 178.222 280.515,178.274 280.578,178.337 280.486 C 178.400 280.395,179.689 279.016,181.200 277.423 C 182.711 275.829,183.857 274.525,183.748 274.525 C 183.638 274.525,182.349 275.767,180.885 277.284 M161.214 298.601 L 160.040 299.900 161.339 298.726 C 162.549 297.632,162.821 297.303,162.512 297.303 C 162.444 297.303,161.859 297.887,161.214 298.601 M144.844 314.985 L 142.058 317.882 144.955 315.096 C 147.646 312.508,148.035 312.088,147.742 312.088 C 147.681 312.088,146.377 313.392,144.844 314.985 M126.865 332.967 L 123.277 336.663 126.973 333.075 C 130.406 329.743,130.851 329.271,130.561 329.271 C 130.502 329.271,128.838 330.934,126.865 332.967 M90.110 352.448 C 90.259 352.689,89.707 352.847,88.711 352.847 C 87.716 352.847,87.163 352.689,87.313 352.448 C 87.449 352.228,88.078 352.048,88.711 352.048 C 89.345 352.048,89.974 352.228,90.110 352.448 M93.107 352.472 C 93.107 352.679,92.747 352.847,92.308 352.847 C 91.868 352.847,91.508 352.706,91.508 352.533 C 91.508 352.360,91.868 352.191,92.308 352.158 C 92.747 352.125,93.107 352.266,93.107 352.472"/><path id="path3" fill="#3b4b5b" fill-rule="evenodd" stroke="none" d="M186.368 272.203 C 177.624 281.043,177.822 280.767,177.822 284.155 C 177.822 286.813,177.822 286.813,179.071 287.063 C 181.216 287.492,387.451 287.354,388.585 286.923 L 389.610 286.533 389.610 275.934 L 389.610 265.335 293.007 265.330 C 239.875 265.328,195.774 265.227,195.005 265.105 C 193.636 264.889,193.455 265.038,186.368 272.203 M374.885 339.502 C 374.588 339.838,374.424 340.192,374.521 340.288 C 374.618 340.385,375.023 340.104,375.422 339.663 C 375.821 339.222,375.985 338.868,375.786 338.876 C 375.587 338.885,375.182 339.166,374.885 339.502"/><path id="path4" fill="#fbbb44" fill-rule="evenodd" stroke="none" d="M218.765 48.325 C 218.554 48.534,217.428 48.748,216.263 48.801 C 215.097 48.853,214.053 49.043,213.941 49.223 C 213.830 49.403,213.045 49.550,212.198 49.550 C 211.350 49.550,210.596 49.729,210.523 49.947 C 210.450 50.164,209.908 50.382,209.320 50.431 C 208.731 50.479,208.337 50.661,208.444 50.834 C 208.551 51.007,208.178 51.149,207.616 51.149 C 207.054 51.149,206.593 51.329,206.593 51.548 C 206.593 51.768,206.244 51.948,205.817 51.948 C 205.139 51.948,202.356 53.320,201.798 53.929 C 201.688 54.049,201.062 54.417,200.406 54.746 C 199.751 55.075,198.690 55.839,198.050 56.444 C 197.409 57.048,196.733 57.542,196.548 57.542 C 195.952 57.542,187.812 65.850,187.812 66.459 C 187.812 66.783,187.540 67.152,187.207 67.280 C 186.874 67.407,186.422 67.921,186.202 68.421 C 185.982 68.921,185.446 69.870,185.010 70.529 C 184.098 71.909,183.202 73.987,183.330 74.426 C 183.377 74.590,183.237 74.725,183.017 74.725 C 182.797 74.725,182.617 75.265,182.617 75.924 C 182.617 76.583,182.438 77.123,182.218 77.123 C 181.998 77.123,181.818 77.483,181.818 77.922 C 181.818 78.362,181.675 78.721,181.500 78.721 C 181.325 78.721,181.137 79.395,181.081 80.219 C 181.026 81.043,180.809 81.888,180.600 82.097 C 180.391 82.306,180.220 83.261,180.220 84.219 C 180.220 85.279,180.063 85.865,179.820 85.714 C 179.564 85.556,179.421 86.909,179.421 89.487 L 179.421 93.506 178.222 93.506 C 177.562 93.506,177.023 93.686,177.023 93.906 C 177.023 94.126,176.248 94.306,175.300 94.306 C 174.130 94.306,173.302 94.562,172.719 95.105 C 172.248 95.544,171.574 95.904,171.222 95.904 C 170.870 95.904,170.693 96.084,170.829 96.304 C 170.965 96.523,170.796 96.703,170.453 96.703 C 170.111 96.703,169.830 96.981,169.830 97.319 C 169.830 97.658,169.471 98.322,169.031 98.793 C 168.591 99.265,168.232 100.157,168.232 100.775 C 168.232 101.393,168.052 101.898,167.832 101.898 C 167.612 101.898,167.433 102.877,167.433 104.072 C 167.433 105.268,167.612 106.358,167.832 106.494 C 168.052 106.629,168.232 107.146,168.232 107.641 C 168.232 108.136,168.546 108.899,168.931 109.337 C 169.316 109.775,169.822 110.471,170.057 110.884 C 170.291 111.297,170.821 111.827,171.234 112.061 C 171.647 112.296,172.343 112.802,172.781 113.187 C 173.219 113.571,174.085 113.886,174.706 113.886 C 175.327 113.886,176.182 114.103,176.606 114.368 C 177.236 114.761,177.516 114.724,178.131 114.168 C 179.280 113.128,388.132 113.109,389.281 114.149 C 389.882 114.693,390.195 114.729,391.029 114.349 C 391.588 114.094,392.487 113.886,393.026 113.886 C 393.565 113.886,394.006 113.706,394.006 113.487 C 394.006 113.267,394.294 113.087,394.645 113.087 C 395.401 113.087,398.801 109.602,398.801 108.828 C 398.801 108.533,398.981 108.292,399.201 108.292 C 399.442 108.292,399.600 106.627,399.600 104.096 C 399.600 101.565,399.442 99.900,399.201 99.900 C 398.981 99.900,398.801 99.530,398.801 99.077 C 398.801 98.625,398.621 98.366,398.402 98.501 C 398.182 98.637,398.002 98.552,398.002 98.312 C 398.002 97.650,395.317 95.105,394.619 95.105 C 394.282 95.105,394.006 94.925,394.006 94.705 C 394.006 94.486,393.297 94.306,392.431 94.306 C 391.565 94.306,390.745 94.126,390.609 93.906 C 390.474 93.686,390.039 93.506,389.643 93.506 C 389.067 93.506,388.864 93.046,388.627 91.209 C 387.912 85.662,387.650 84.007,387.221 82.318 C 386.970 81.329,386.664 80.023,386.543 79.416 C 386.421 78.809,386.162 78.214,385.968 78.093 C 385.773 77.973,385.614 77.436,385.614 76.899 C 385.614 76.363,385.435 75.924,385.215 75.924 C 384.995 75.924,384.815 75.660,384.815 75.337 C 384.815 75.014,384.456 74.109,384.016 73.327 C 383.576 72.544,383.217 71.610,383.217 71.250 C 383.217 70.890,383.100 70.713,382.956 70.856 C 382.813 71.000,382.454 70.670,382.157 70.124 C 381.861 69.578,381.376 68.684,381.080 68.138 C 380.783 67.592,380.424 67.262,380.280 67.405 C 380.137 67.549,380.020 67.265,380.020 66.776 C 380.020 66.285,379.841 65.997,379.620 66.134 C 379.401 66.270,379.221 66.100,379.221 65.758 C 379.221 65.415,379.041 65.135,378.821 65.135 C 378.601 65.135,378.422 64.855,378.422 64.512 C 378.422 64.169,378.242 64.000,378.022 64.136 C 377.802 64.272,377.622 64.213,377.622 64.006 C 377.622 63.589,372.636 58.342,372.240 58.342 C 372.103 58.342,371.556 57.906,371.024 57.374 C 370.491 56.841,369.690 56.290,369.244 56.148 C 368.797 56.006,368.432 55.758,368.432 55.596 C 368.432 55.434,367.535 54.862,366.440 54.324 C 365.344 53.787,364.445 53.212,364.442 53.047 C 364.438 52.882,364.076 52.747,363.636 52.747 C 363.197 52.747,362.837 52.567,362.837 52.348 C 362.837 52.128,362.488 51.948,362.062 51.948 C 361.635 51.948,361.175 51.768,361.039 51.548 C 360.903 51.329,360.353 51.149,359.817 51.149 C 359.280 51.149,358.841 50.969,358.841 50.749 C 358.841 50.529,358.402 50.350,357.866 50.350 C 357.329 50.350,356.779 50.170,356.643 49.950 C 356.508 49.730,355.878 49.550,355.245 49.550 C 354.611 49.550,353.982 49.371,353.846 49.151 C 353.710 48.931,352.621 48.751,351.425 48.751 C 350.229 48.751,349.251 48.575,349.251 48.359 C 349.251 47.830,219.298 47.796,218.765 48.325 M174.625 135.459 C 174.296 135.650,173.756 135.911,173.427 136.040 C 172.008 136.591,170.397 137.788,169.994 138.589 C 169.755 139.065,169.285 139.771,168.950 140.157 C 167.448 141.889,167.967 144.655,169.794 144.655 C 173.370 144.655,177.338 149.216,177.531 153.548 C 177.612 155.363,177.741 155.661,178.496 155.769 C 179.304 155.884,179.379 156.159,179.540 159.565 C 179.841 165.979,179.901 166.102,185.419 171.633 L 190.307 176.533 191.712 175.580 C 200.910 169.338,211.828 181.044,204.777 189.588 L 203.476 191.164 205.534 193.570 C 206.666 194.894,207.907 196.332,208.292 196.765 C 208.676 197.199,208.991 197.702,208.991 197.883 C 208.991 198.469,211.554 199.797,212.687 199.799 C 213.292 199.800,213.786 199.935,213.786 200.100 C 213.786 200.265,245.255 200.400,283.716 200.400 C 322.178 200.400,353.646 200.265,353.646 200.100 C 353.646 199.935,354.276 199.800,355.045 199.800 C 355.814 199.800,356.444 199.620,356.444 199.401 C 356.444 199.181,356.983 199.001,357.642 199.001 C 358.302 199.001,358.841 198.821,358.841 198.601 C 358.841 198.382,359.381 198.202,360.040 198.202 C 360.699 198.202,361.239 198.022,361.239 197.802 C 361.239 197.582,361.598 197.403,362.038 197.403 C 362.478 197.403,362.837 197.223,362.837 197.003 C 362.837 196.783,363.197 196.603,363.636 196.603 C 364.076 196.603,364.436 196.424,364.436 196.204 C 364.436 195.984,364.795 195.804,365.235 195.804 C 365.674 195.804,366.034 195.624,366.034 195.405 C 366.034 195.185,366.314 195.005,366.657 195.005 C 367.000 195.005,367.169 194.825,367.033 194.605 C 366.897 194.386,367.117 194.206,367.521 194.206 C 367.925 194.206,368.514 193.846,368.831 193.407 C 369.148 192.967,369.550 192.607,369.725 192.607 C 370.403 192.607,375.977 187.939,376.875 186.620 C 377.396 185.855,378.317 184.704,378.921 184.063 C 379.525 183.423,380.020 182.695,380.020 182.447 C 380.020 182.198,380.380 181.735,380.819 181.419 C 381.259 181.102,381.618 180.562,381.618 180.220 C 381.618 179.877,381.978 179.338,382.418 179.021 C 382.857 178.704,383.217 178.212,383.217 177.928 C 383.217 177.411,384.010 175.800,384.450 175.425 C 384.579 175.315,384.933 174.371,385.237 173.327 C 385.540 172.283,385.929 171.429,386.101 171.429 C 386.273 171.429,386.414 170.889,386.414 170.230 C 386.414 169.570,386.557 169.031,386.732 169.031 C 386.906 169.031,387.094 168.362,387.150 167.545 C 387.205 166.727,387.404 165.963,387.592 165.846 C 387.781 165.730,388.019 164.466,388.121 163.037 C 388.224 161.608,388.407 160.080,388.529 159.640 C 388.650 159.201,388.764 158.167,388.781 157.343 L 388.811 155.844 390.609 155.844 C 391.598 155.844,392.408 155.664,392.408 155.445 C 392.408 155.225,392.947 155.045,393.606 155.045 C 394.266 155.045,394.805 154.896,394.805 154.713 C 394.805 154.530,395.300 154.126,395.904 153.814 C 397.271 153.108,398.002 152.434,398.002 151.877 C 398.002 151.641,398.182 151.449,398.402 151.449 C 398.621 151.449,398.801 151.100,398.801 150.673 C 398.801 150.246,398.981 149.786,399.201 149.650 C 399.708 149.337,399.734 141.059,399.228 141.059 C 399.023 141.059,398.738 140.690,398.595 140.240 C 398.210 139.027,395.697 136.663,394.792 136.663 C 394.360 136.663,394.006 136.484,394.006 136.264 C 394.006 136.044,393.646 135.864,393.207 135.864 C 392.767 135.864,392.408 135.719,392.408 135.543 C 392.408 135.366,391.688 135.179,390.809 135.127 C 389.908 135.074,389.211 135.214,389.211 135.448 C 389.211 136.017,178.773 136.033,178.422 135.465 C 178.122 134.980,175.459 134.976,174.625 135.459"/><path id="path5" fill="#f98c96" fill-rule="evenodd" stroke="none" d="M166.234 143.943 C 166.234 144.115,165.694 144.256,165.035 144.256 C 164.376 144.256,163.836 144.436,163.836 144.655 C 163.836 144.875,163.611 145.055,163.337 145.056 C 162.592 145.057,160.240 147.188,160.240 147.861 C 160.240 148.183,129.231 179.466,91.331 217.380 C 43.296 265.431,22.340 286.651,22.152 287.429 C 20.953 292.398,26.775 299.337,32.660 299.952 L 35.082 300.205 104.557 230.622 C 142.768 192.351,174.318 161.039,174.667 161.039 C 175.540 161.039,177.023 159.689,177.023 158.894 C 177.023 158.535,177.214 158.242,177.447 158.242 C 178.260 158.242,177.499 151.573,176.451 149.512 C 175.184 147.019,171.894 144.655,169.693 144.655 C 169.156 144.655,168.614 144.387,168.488 144.059 C 168.256 143.454,166.234 143.350,166.234 143.943 M194.603 174.176 C 192.758 174.781,191.063 175.812,190.432 176.712 C 190.088 177.203,158.699 208.738,120.678 246.791 C 53.239 314.285,51.548 316.013,51.548 317.482 C 51.548 323.657,57.285 329.507,63.026 329.188 L 65.132 329.071 135.626 258.588 C 213.535 180.690,207.379 187.274,206.875 182.392 C 206.284 176.664,199.948 172.422,194.603 174.176 M199.195 259.041 L 194.006 264.336 199.301 259.147 C 202.213 256.293,204.595 253.910,204.595 253.852 C 204.595 253.565,204.015 254.123,199.195 259.041"/><path id="path6" fill="#eb5573" fill-rule="evenodd" stroke="none" d="M121.079 134.665 C 121.079 134.885,121.719 135.065,122.501 135.065 C 123.347 135.065,123.823 134.903,123.676 134.665 C 123.540 134.446,122.901 134.266,122.254 134.266 C 121.608 134.266,121.079 134.446,121.079 134.665 M132.268 134.665 C 132.268 134.885,132.717 135.065,133.267 135.065 C 135.038 135.065,134.331 135.721,131.968 136.270 C 126.938 137.439,120.598 140.797,115.442 145.024 C 111.892 147.933,31.034 228.811,26.920 233.566 C 23.500 237.520,18.781 244.777,18.781 246.085 C 18.781 246.349,18.607 246.877,18.394 247.258 C 16.611 250.455,14.806 262.379,15.415 266.933 C 16.378 274.129,17.512 278.097,20.075 283.235 L 21.728 286.550 17.364 290.927 C 14.964 293.335,12.860 295.305,12.687 295.305 C 12.265 295.305,9.645 298.023,9.860 298.238 C 9.953 298.331,9.661 299.063,9.210 299.865 C 8.310 301.468,8.038 306.227,8.818 306.710 C 9.053 306.855,9.154 307.212,9.042 307.504 C 8.930 307.795,9.098 308.248,9.414 308.511 C 9.731 308.774,9.996 309.192,10.003 309.440 C 10.022 310.083,11.431 311.688,11.976 311.688 C 12.228 311.688,12.324 311.868,12.188 312.088 C 12.052 312.308,12.311 312.488,12.764 312.488 C 13.216 312.488,13.586 312.667,13.586 312.887 C 13.586 313.107,13.935 313.287,14.362 313.287 C 14.789 313.287,15.249 313.467,15.385 313.686 C 15.520 313.906,16.959 314.086,18.581 314.086 C 20.204 314.086,21.642 313.906,21.778 313.686 C 21.914 313.467,22.329 313.279,22.701 313.270 C 23.570 313.250,26.133 311.069,25.842 310.599 C 25.720 310.402,35.500 300.362,47.576 288.289 C 59.651 276.215,69.530 266.189,69.530 266.010 C 69.530 265.830,61.780 273.450,52.307 282.944 L 35.083 300.205 32.660 299.952 C 26.775 299.337,20.953 292.398,22.152 287.429 C 22.340 286.651,43.296 265.431,91.331 217.380 C 129.231 179.466,160.240 148.235,160.240 147.977 C 160.240 147.718,159.358 146.673,158.281 145.652 C 156.476 143.943,155.365 143.120,150.806 140.114 C 149.025 138.939,144.064 136.751,142.715 136.545 C 142.255 136.475,141.754 136.293,141.602 136.141 C 141.450 135.989,140.916 135.864,140.417 135.864 C 139.917 135.864,139.397 135.684,139.261 135.465 C 139.125 135.245,138.136 135.065,137.063 135.065 C 135.990 135.065,135.001 134.885,134.865 134.665 C 134.729 134.446,134.089 134.266,133.443 134.266 C 132.797 134.266,132.268 134.446,132.268 134.665 M116.883 135.465 C 116.742 135.692,117.087 135.864,117.682 135.864 C 118.278 135.864,118.622 135.692,118.482 135.465 C 118.346 135.245,117.986 135.065,117.682 135.065 C 117.379 135.065,117.019 135.245,116.883 135.465 M111.089 137.063 C 110.635 137.356,110.811 137.452,111.812 137.456 C 112.593 137.460,113.033 137.299,112.887 137.063 C 112.577 136.561,111.866 136.561,111.089 137.063 M95.708 147.448 C 95.079 148.105,94.641 148.709,94.734 148.789 C 94.828 148.869,95.495 148.332,96.215 147.594 C 96.936 146.857,97.374 146.254,97.189 146.254 C 97.004 146.254,96.338 146.791,95.708 147.448 M92.014 150.882 C 91.522 151.391,91.253 151.883,91.414 151.975 C 91.576 152.067,92.110 151.726,92.602 151.216 C 93.093 150.707,93.363 150.215,93.201 150.123 C 93.039 150.031,92.505 150.372,92.014 150.882 M168.426 166.732 C 165.352 169.863,164.432 170.897,166.382 169.029 C 172.280 163.380,174.601 161.039,174.301 161.039 C 174.144 161.039,171.500 163.601,168.426 166.732 M76.521 166.636 C 75.483 167.783,75.944 167.912,77.037 166.780 C 77.539 166.260,77.792 165.834,77.599 165.834 C 77.405 165.834,76.920 166.195,76.521 166.636 M70.030 172.915 C 69.755 173.013,69.530 173.361,69.530 173.688 C 69.530 174.193,69.628 174.185,70.177 173.636 C 70.881 172.933,70.819 172.633,70.030 172.915 M161.440 173.625 C 160.925 174.173,160.579 174.689,160.671 174.771 C 160.764 174.853,161.257 174.404,161.769 173.774 C 162.913 172.363,162.711 172.272,161.440 173.625 M154.839 180.307 C 151.985 183.212,150.168 185.145,150.802 184.603 C 153.052 182.675,160.562 175.025,160.204 175.025 C 160.107 175.025,157.693 177.402,154.839 180.307 M124.276 242.757 C 88.122 278.911,58.653 308.492,58.788 308.492 C 58.956 308.492,187.606 179.936,190.176 177.200 C 190.268 177.103,190.268 177.023,190.176 177.023 C 190.084 177.023,160.429 206.603,124.276 242.757 M60.759 182.289 C 59.588 183.545,60.096 183.697,61.333 182.460 C 61.905 181.887,62.193 181.419,61.972 181.419 C 61.751 181.419,61.205 181.810,60.759 182.289 M148.222 186.913 L 147.253 188.012 148.452 187.013 C 149.111 186.464,149.725 185.969,149.817 185.914 C 149.908 185.859,149.805 185.814,149.587 185.814 C 149.369 185.814,148.754 186.309,148.222 186.913 M145.856 189.209 C 145.340 189.758,144.994 190.258,145.087 190.321 C 145.179 190.383,145.738 189.934,146.328 189.323 C 146.919 188.712,147.265 188.212,147.097 188.212 C 146.930 188.212,146.371 188.661,145.856 189.209 M133.866 260.340 L 64.936 329.271 62.886 329.271 C 57.080 329.271,51.548 323.555,51.548 317.557 C 51.548 316.309,51.995 315.647,55.020 312.408 C 56.930 310.364,54.648 312.512,49.949 317.183 C 43.774 323.320,41.150 325.674,40.483 325.674 C 39.976 325.674,39.560 325.910,39.560 326.198 C 39.560 326.487,39.201 327.108,38.761 327.580 C 38.235 328.145,37.962 328.990,37.962 330.053 C 37.962 330.942,37.782 331.668,37.562 331.668 C 37.343 331.668,37.163 332.208,37.163 332.867 C 37.163 333.526,37.343 334.066,37.562 334.066 C 37.782 334.066,37.962 334.785,37.962 335.664 C 37.962 336.543,38.142 337.263,38.362 337.263 C 38.581 337.263,38.761 337.537,38.761 337.873 C 38.761 338.666,42.154 342.058,42.947 342.058 C 43.282 342.058,43.556 342.238,43.556 342.458 C 43.556 342.677,44.096 342.857,44.755 342.857 C 45.415 342.857,45.954 343.037,45.954 343.257 C 45.954 343.477,46.753 343.656,47.729 343.656 C 48.705 343.656,49.614 343.477,49.750 343.257 C 49.886 343.037,50.616 342.857,51.372 342.857 C 52.128 342.857,52.747 342.677,52.747 342.458 C 52.747 342.238,53.062 342.053,53.447 342.046 C 53.831 342.039,54.595 341.471,55.145 340.784 C 57.399 337.963,66.366 328.905,133.357 261.774 C 171.868 223.183,203.382 191.563,203.387 191.508 C 203.450 190.855,193.297 200.908,133.866 260.340 M137.256 197.877 C 134.623 200.555,132.821 202.488,133.252 202.172 C 134.117 201.540,140.934 194.782,141.807 193.692 C 143.126 192.045,141.720 193.338,137.256 197.877 M142.199 268.032 C 104.694 305.559,73.804 336.668,73.554 337.163 C 72.216 339.806,82.879 347.620,91.109 350.027 C 93.356 350.684,95.408 351.569,95.670 351.993 C 95.879 352.330,99.516 351.793,100.899 351.220 C 101.339 351.038,102.569 350.607,103.633 350.262 C 104.698 349.917,106.367 349.189,107.344 348.644 C 108.320 348.098,109.383 347.652,109.704 347.652 C 110.026 347.652,110.290 347.503,110.290 347.320 C 110.290 347.138,110.784 346.736,111.389 346.427 C 112.864 345.673,114.748 344.393,115.484 343.645 C 115.814 343.309,116.803 342.474,117.682 341.790 C 120.981 339.221,177.549 282.178,178.102 280.864 C 178.429 280.086,184.096 274.079,191.800 266.342 C 204.697 253.392,207.302 250.557,209.619 246.953 C 216.994 235.484,218.306 219.551,212.933 206.717 C 212.030 204.561,211.268 202.183,211.240 201.432 C 211.212 200.682,211.009 200.007,210.789 199.934 C 210.569 199.860,179.703 230.504,142.199 268.032 M38.990 204.025 C 38.644 204.370,38.362 204.832,38.362 205.052 C 38.362 205.272,38.675 205.124,39.057 204.724 C 39.440 204.324,39.934 203.864,40.156 203.702 C 40.413 203.515,40.389 203.407,40.088 203.403 C 39.829 203.399,39.335 203.679,38.990 204.025 M35.760 207.397 C 35.131 208.054,34.747 208.591,34.908 208.591 C 35.320 208.591,37.285 206.582,37.076 206.374 C 36.982 206.279,36.390 206.740,35.760 207.397 M33.395 209.619 C 33.050 209.964,32.767 210.427,32.767 210.646 C 32.767 210.866,33.080 210.719,33.463 210.318 C 33.846 209.918,34.340 209.458,34.562 209.297 C 34.819 209.110,34.794 209.001,34.494 208.997 C 34.235 208.994,33.741 209.274,33.395 209.619 M119.281 215.784 C 116.650 218.422,114.632 220.579,114.796 220.579 C 115.086 220.579,122.731 213.039,123.825 211.674 C 125.107 210.074,123.772 211.281,119.281 215.784 M26.635 216.403 C 25.832 217.183,25.175 218.019,25.175 218.262 C 25.175 218.505,25.490 218.356,25.874 217.932 C 26.259 217.507,27.076 216.671,27.690 216.073 C 28.305 215.474,28.647 214.985,28.451 214.985 C 28.255 214.985,27.438 215.623,26.635 216.403 M22.845 220.307 C 21.613 221.619,21.766 222.027,23.019 220.773 C 23.592 220.200,23.982 219.653,23.887 219.558 C 23.791 219.462,23.322 219.799,22.845 220.307 M15.684 227.371 C 15.190 227.772,14.785 228.304,14.785 228.554 C 14.785 228.803,15.254 228.539,15.827 227.966 C 17.061 226.731,16.966 226.332,15.684 227.371 M103.297 231.808 C 101.319 233.762,99.834 235.362,99.998 235.363 C 100.401 235.365,107.262 228.605,107.056 228.409 C 106.966 228.324,105.275 229.853,103.297 231.808 M97.957 237.163 C 97.257 237.932,96.824 238.561,96.996 238.561 C 97.168 238.561,97.886 237.932,98.592 237.163 C 99.298 236.394,99.730 235.764,99.552 235.764 C 99.375 235.764,98.657 236.394,97.957 237.163 M85.714 249.405 C 83.956 251.133,82.697 252.545,82.917 252.544 C 83.376 252.541,89.316 246.614,89.072 246.403 C 88.983 246.326,87.473 247.677,85.714 249.405 M81.127 253.970 C 79.822 255.255,80.443 255.234,81.832 253.946 C 82.424 253.397,82.731 252.958,82.513 252.971 C 82.296 252.984,81.672 253.434,81.127 253.970 M77.209 257.966 C 76.706 258.503,76.450 258.941,76.640 258.941 C 76.829 258.941,77.406 258.492,77.922 257.942 C 78.438 257.393,78.694 256.954,78.491 256.967 C 78.288 256.981,77.711 257.430,77.209 257.966 M75.184 259.982 C 74.888 260.317,74.724 260.671,74.821 260.768 C 74.917 260.865,75.323 260.583,75.722 260.142 C 76.121 259.701,76.285 259.347,76.086 259.356 C 75.887 259.364,75.481 259.646,75.184 259.982 M73.187 262.018 C 72.670 262.553,72.325 263.067,72.419 263.162 C 72.514 263.256,73.012 262.885,73.526 262.338 C 74.041 261.790,74.386 261.275,74.294 261.194 C 74.202 261.113,73.703 261.483,73.187 262.018 M70.789 264.416 C 70.272 264.950,69.927 265.465,70.022 265.559 C 70.116 265.654,70.614 265.283,71.129 264.735 C 71.643 264.188,71.989 263.673,71.896 263.592 C 71.804 263.510,71.306 263.881,70.789 264.416 M58.144 341.261 C 58.543 341.702,58.952 341.980,59.053 341.880 C 59.269 341.663,58.130 340.460,57.709 340.460 C 57.549 340.460,57.745 340.820,58.144 341.261 M87.313 352.448 C 87.163 352.689,87.716 352.847,88.711 352.847 C 89.707 352.847,90.259 352.689,90.110 352.448 C 89.974 352.228,89.345 352.048,88.711 352.048 C 88.078 352.048,87.449 352.228,87.313 352.448 M91.508 352.533 C 91.508 352.706,91.868 352.847,92.308 352.847 C 92.747 352.847,93.107 352.679,93.107 352.472 C 93.107 352.266,92.747 352.125,92.308 352.158 C 91.868 352.191,91.508 352.360,91.508 352.533"/><path id="path7" fill="#cf6f38" fill-rule="evenodd" stroke="none" d="M178.304 113.986 C 177.973 114.384,179.755 114.461,187.046 114.365 L 196.204 114.244 196.204 124.654 L 196.204 135.065 187.189 135.065 C 181.281 135.065,178.260 135.203,178.422 135.465 C 178.892 136.226,389.075 135.995,389.368 135.232 C 389.855 133.962,389.638 114.473,389.131 113.966 C 388.415 113.250,178.900 113.270,178.304 113.986 M165.228 170.330 L 160.839 174.825 165.335 170.436 C 167.807 168.023,169.830 166.000,169.830 165.941 C 169.830 165.653,169.304 166.154,165.228 170.330 M181.021 167.832 C 181.288 168.382,183.307 170.655,185.508 172.884 C 188.253 175.664,189.415 177.108,189.205 177.480 C 189.036 177.778,189.235 177.705,189.646 177.317 C 190.369 176.634,190.236 176.455,185.464 171.722 C 182.754 169.033,180.754 167.283,181.021 167.832 M155.023 180.519 L 153.646 182.018 155.145 180.641 C 155.969 179.883,156.643 179.209,156.643 179.142 C 156.643 178.837,156.305 179.125,155.023 180.519 M179.196 187.512 L 178.022 188.811 179.321 187.638 C 180.035 186.992,180.619 186.408,180.619 186.339 C 180.619 186.030,180.290 186.302,179.196 187.512 M203.407 191.567 C 203.395 191.986,205.336 194.374,207.989 197.203 C 209.481 198.793,209.674 198.916,208.935 197.802 C 207.391 195.477,203.424 191.002,203.407 191.567"/><path id="path8" fill="#97ad82" fill-rule="evenodd" stroke="none" d="M218.981 200.650 C 221.408 201.041,344.819 200.995,347.852 200.602 C 349.171 200.431,320.310 200.307,283.716 200.326 C 247.123 200.346,217.992 200.491,218.981 200.650 M211.035 201.798 C 211.028 202.128,211.367 203.027,211.788 203.796 C 212.762 205.575,212.762 204.901,211.788 202.797 C 211.381 201.918,211.042 201.469,211.035 201.798 M212.587 205.495 C 212.587 205.576,213.041 206.801,213.596 208.216 C 216.040 214.452,216.904 224.608,215.579 231.530 C 215.247 233.267,215.058 234.772,215.160 234.874 C 215.262 234.976,215.447 234.544,215.571 233.913 C 215.695 233.283,215.974 232.000,216.190 231.063 C 216.676 228.956,216.706 218.090,216.230 216.184 C 216.038 215.415,215.650 213.706,215.366 212.388 C 215.083 211.069,214.734 209.810,214.590 209.590 C 214.447 209.371,214.086 208.418,213.788 207.472 C 213.351 206.088,212.587 204.830,212.587 205.495 M214.024 237.621 C 213.621 238.907,212.941 240.652,212.512 241.497 C 212.083 242.343,211.822 243.124,211.932 243.234 C 212.355 243.657,215.166 236.507,214.896 235.697 C 214.820 235.468,214.428 236.334,214.024 237.621 M245.854 265.235 C 272.173 265.291,315.240 265.291,341.558 265.235 C 367.877 265.178,346.344 265.132,293.706 265.132 C 241.069 265.132,219.535 265.178,245.854 265.235"/></g></svg>