<svg xmlns="http://www.w3.org/2000/svg" xmlns:xlink="http://www.w3.org/1999/xlink" id="svg" width="400" height="400" version="1.1" viewBox="0 0 400 400"><g id="svgg"><path id="path0" fill="#050404" fill-rule="evenodd" stroke="none" d="M211.741 1.100 C 209.803 2.964,209.213 5.433,210.098 7.972 C 210.567 9.315,213.722 12.800,214.470 12.800 C 215.023 12.800,220.800 18.737,220.800 19.305 C 220.800 19.590,221.160 20.083,221.600 20.400 C 222.040 20.717,222.400 21.297,222.400 21.688 C 222.400 22.080,222.580 22.400,222.800 22.400 C 223.020 22.400,223.200 22.760,223.200 23.200 C 223.200 23.640,223.380 24.000,223.600 24.000 C 223.820 24.000,224.000 24.270,224.000 24.600 C 224.000 24.930,224.157 25.200,224.348 25.200 C 224.863 25.200,225.730 31.318,225.738 35.000 C 225.745 38.533,224.903 44.000,224.352 44.000 C 224.158 44.000,224.000 44.253,224.000 44.562 C 224.000 45.228,222.332 48.541,221.900 48.733 C 221.735 48.807,221.600 49.139,221.600 49.473 C 221.600 49.806,221.105 50.556,220.500 51.140 C 219.895 51.723,219.161 52.665,218.869 53.232 C 218.576 53.800,217.801 54.581,217.146 54.968 C 216.491 55.355,215.341 56.286,214.591 57.036 C 213.840 57.786,213.017 58.400,212.760 58.400 C 212.010 58.400,210.401 60.518,210.400 61.505 C 210.400 62.003,210.177 62.768,209.904 63.205 C 209.509 63.838,209.509 64.162,209.904 64.795 C 210.177 65.232,210.400 66.042,210.400 66.595 C 210.400 67.148,210.580 67.600,210.800 67.600 C 211.020 67.600,211.200 67.876,211.200 68.213 C 211.200 68.549,211.506 68.943,211.881 69.086 C 212.255 69.230,213.092 69.854,213.740 70.474 C 214.388 71.093,215.077 71.600,215.270 71.600 C 215.463 71.600,216.431 72.410,217.421 73.400 C 218.411 74.390,219.396 75.200,219.611 75.200 C 219.825 75.200,220.000 75.520,220.000 75.912 C 220.000 76.303,220.360 76.883,220.800 77.200 C 221.240 77.517,221.600 78.057,221.600 78.400 C 221.600 78.743,221.960 79.283,222.400 79.600 C 222.840 79.917,223.200 80.497,223.200 80.888 C 223.200 81.280,223.380 81.600,223.600 81.600 C 223.820 81.600,224.000 82.140,224.000 82.800 C 224.000 83.460,224.148 84.000,224.329 84.000 C 224.868 84.000,225.740 89.561,225.740 93.000 C 225.740 96.439,224.868 102.000,224.329 102.000 C 224.148 102.000,224.000 102.540,224.000 103.200 C 224.000 103.860,223.820 104.400,223.600 104.400 C 223.380 104.400,223.200 104.720,223.200 105.112 C 223.200 105.503,222.840 106.083,222.400 106.400 C 221.960 106.717,221.600 107.205,221.600 107.484 C 221.600 108.361,215.182 115.200,214.359 115.200 C 213.748 115.200,210.400 118.723,210.400 119.366 C 210.400 119.689,210.220 120.064,210.000 120.200 C 209.780 120.336,209.600 121.146,209.600 122.000 C 209.600 122.854,209.780 123.664,210.000 123.800 C 210.220 123.936,210.400 124.352,210.400 124.724 C 210.401 125.639,212.137 127.600,212.947 127.600 C 213.306 127.600,213.600 127.780,213.600 128.000 C 213.600 128.231,214.867 128.400,216.600 128.400 C 218.333 128.400,219.600 128.231,219.600 128.000 C 219.600 127.780,219.870 127.600,220.200 127.600 C 220.530 127.600,220.800 127.420,220.800 127.200 C 220.800 126.980,221.025 126.800,221.300 126.800 C 221.575 126.799,222.323 126.349,222.962 125.800 C 223.601 125.250,224.248 124.800,224.399 124.800 C 224.855 124.800,230.000 119.610,230.000 119.149 C 230.000 118.914,230.540 118.217,231.200 117.600 C 231.860 116.983,232.400 116.231,232.400 115.928 C 232.400 115.625,232.760 115.117,233.200 114.800 C 233.640 114.483,234.000 113.903,234.000 113.512 C 234.000 113.120,234.180 112.800,234.400 112.800 C 234.620 112.800,234.800 112.440,234.800 112.000 C 234.800 111.560,234.980 111.200,235.200 111.200 C 235.420 111.200,235.600 110.840,235.600 110.400 C 235.600 109.960,235.780 109.600,236.000 109.600 C 236.220 109.600,236.400 109.161,236.400 108.624 C 236.400 108.087,236.580 107.536,236.800 107.400 C 237.020 107.264,237.200 106.724,237.200 106.200 C 237.200 105.676,237.380 105.136,237.600 105.000 C 237.820 104.864,238.000 104.144,238.000 103.400 C 238.000 102.656,238.180 101.936,238.400 101.800 C 238.620 101.664,238.800 100.404,238.800 99.000 C 238.800 97.596,238.980 96.336,239.200 96.200 C 239.420 96.064,239.600 94.534,239.600 92.800 C 239.600 91.066,239.420 89.536,239.200 89.400 C 238.980 89.264,238.800 87.993,238.800 86.576 C 238.800 85.125,238.625 84.000,238.400 84.000 C 238.180 84.000,238.000 83.280,238.000 82.400 C 238.000 81.520,237.820 80.800,237.600 80.800 C 237.380 80.800,237.200 80.361,237.200 79.824 C 237.200 79.287,237.020 78.736,236.800 78.600 C 236.580 78.464,236.400 77.913,236.400 77.376 C 236.400 76.839,236.220 76.400,236.000 76.400 C 235.780 76.400,235.600 76.040,235.600 75.600 C 235.600 75.160,235.420 74.800,235.200 74.800 C 234.980 74.800,234.800 74.440,234.800 74.000 C 234.800 73.560,234.620 73.200,234.400 73.200 C 234.180 73.200,234.000 72.964,234.000 72.675 C 234.000 72.387,233.640 71.764,233.200 71.292 C 232.760 70.820,232.400 70.228,232.400 69.977 C 232.400 69.726,231.860 69.017,231.200 68.400 C 230.540 67.783,230.000 67.108,230.000 66.899 C 230.000 66.690,229.460 65.954,228.800 65.263 C 227.239 63.630,227.212 63.730,229.988 60.813 C 231.301 59.433,232.605 57.785,232.886 57.152 C 233.166 56.518,233.531 56.000,233.698 56.000 C 233.864 56.000,234.000 55.730,234.000 55.400 C 234.000 55.070,234.180 54.800,234.400 54.800 C 234.620 54.800,234.800 54.535,234.800 54.212 C 234.800 53.889,235.160 52.983,235.600 52.200 C 236.040 51.417,236.400 50.511,236.400 50.188 C 236.400 49.865,236.580 49.600,236.800 49.600 C 237.020 49.600,237.200 49.060,237.200 48.400 C 237.200 47.740,237.380 47.200,237.600 47.200 C 237.820 47.200,238.000 46.480,238.000 45.600 C 238.000 44.720,238.180 44.000,238.400 44.000 C 238.625 44.000,238.800 42.875,238.800 41.424 C 238.800 40.007,238.980 38.736,239.200 38.600 C 239.702 38.290,239.731 32.295,239.232 31.780 C 239.030 31.571,238.773 30.230,238.660 28.800 C 238.388 25.341,237.990 23.241,237.556 22.973 C 237.360 22.852,237.200 22.324,237.200 21.800 C 237.200 21.276,237.020 20.736,236.800 20.600 C 236.580 20.464,236.400 19.913,236.400 19.376 C 236.400 18.839,236.220 18.400,236.000 18.400 C 235.780 18.400,235.600 18.040,235.600 17.600 C 235.600 17.160,235.420 16.800,235.200 16.800 C 234.980 16.800,234.800 16.440,234.800 16.000 C 234.800 15.560,234.620 15.200,234.400 15.200 C 234.180 15.200,234.000 14.880,234.000 14.488 C 234.000 14.097,233.640 13.517,233.200 13.200 C 232.760 12.883,232.400 12.343,232.400 12.000 C 232.400 11.657,232.040 11.117,231.600 10.800 C 231.160 10.483,230.800 10.088,230.800 9.921 C 230.800 9.550,224.189 2.800,223.825 2.800 C 223.681 2.800,223.101 2.338,222.537 1.773 C 220.310 -0.453,213.779 -0.860,211.741 1.100 M169.200 58.000 C 169.200 58.220,168.931 58.400,168.603 58.400 C 167.629 58.400,166.000 60.072,166.000 61.072 C 166.000 61.582,165.820 62.000,165.600 62.000 C 165.380 62.000,165.200 62.900,165.200 64.000 C 165.200 65.100,165.380 66.000,165.600 66.000 C 165.820 66.000,166.000 66.429,166.000 66.953 C 166.000 67.586,166.502 68.282,167.500 69.032 C 168.325 69.652,169.291 70.483,169.647 70.879 C 170.003 71.276,170.502 71.600,170.757 71.600 C 171.226 71.600,174.800 74.976,174.800 75.418 C 174.800 75.550,175.025 75.908,175.300 76.215 C 176.349 77.384,176.658 77.873,177.911 80.334 C 178.620 81.728,179.200 83.123,179.200 83.434 C 179.200 83.746,179.380 84.000,179.600 84.000 C 179.820 84.000,180.000 84.540,180.000 85.200 C 180.000 85.860,180.180 86.400,180.400 86.400 C 180.622 86.400,180.800 87.459,180.800 88.776 C 180.800 90.083,180.980 91.264,181.200 91.400 C 181.420 91.536,181.600 92.256,181.600 93.000 C 181.600 93.744,181.420 94.464,181.200 94.600 C 180.980 94.736,180.800 95.917,180.800 97.224 C 180.800 98.541,180.622 99.600,180.400 99.600 C 180.180 99.600,180.000 100.140,180.000 100.800 C 180.000 101.460,179.820 102.000,179.600 102.000 C 179.380 102.000,179.200 102.279,179.200 102.619 C 179.200 103.560,177.172 107.546,176.100 108.713 C 175.825 109.012,175.600 109.400,175.600 109.575 C 175.600 110.025,171.345 114.400,170.907 114.400 C 170.224 114.400,166.000 118.631,166.000 119.315 C 166.000 119.692,165.820 120.000,165.600 120.000 C 165.380 120.000,165.200 120.889,165.200 121.976 C 165.200 123.063,165.380 124.064,165.600 124.200 C 165.820 124.336,166.000 124.715,166.000 125.042 C 166.000 125.823,167.793 127.600,168.582 127.600 C 168.922 127.600,169.200 127.780,169.200 128.000 C 169.200 128.229,170.400 128.400,172.000 128.400 C 173.600 128.400,174.800 128.229,174.800 128.000 C 174.800 127.780,175.070 127.600,175.400 127.600 C 175.730 127.600,176.000 127.420,176.000 127.200 C 176.000 126.980,176.278 126.800,176.618 126.800 C 176.958 126.800,177.686 126.350,178.236 125.800 C 178.786 125.250,179.381 124.800,179.557 124.800 C 180.166 124.800,184.800 120.528,184.800 119.967 C 184.800 119.766,185.520 118.859,186.400 117.952 C 187.280 117.045,188.000 116.055,188.000 115.752 C 188.000 115.448,188.180 115.200,188.400 115.200 C 188.620 115.200,188.800 114.840,188.800 114.400 C 188.800 113.960,188.955 113.600,189.145 113.600 C 189.614 113.600,191.600 109.110,191.600 108.050 C 191.600 107.582,191.780 107.200,192.000 107.200 C 192.220 107.200,192.400 106.750,192.400 106.200 C 192.400 105.650,192.580 105.200,192.800 105.200 C 193.020 105.200,193.200 104.491,193.200 103.624 C 193.200 102.757,193.380 101.936,193.600 101.800 C 193.820 101.664,194.000 100.134,194.000 98.400 C 194.000 96.666,194.180 95.136,194.400 95.000 C 194.620 94.864,194.800 93.953,194.800 92.976 C 194.800 91.999,194.620 91.200,194.400 91.200 C 194.165 91.200,194.000 89.808,194.000 87.824 C 194.000 85.967,193.820 84.336,193.600 84.200 C 193.380 84.064,193.200 83.243,193.200 82.376 C 193.200 81.509,193.020 80.800,192.800 80.800 C 192.580 80.800,192.400 80.260,192.400 79.600 C 192.400 78.940,192.220 78.400,192.000 78.400 C 191.780 78.400,191.600 78.108,191.600 77.750 C 191.600 76.837,189.564 72.400,189.145 72.400 C 188.955 72.400,188.800 72.040,188.800 71.600 C 188.800 71.160,188.650 70.800,188.468 70.800 C 188.285 70.800,187.880 70.305,187.568 69.700 C 187.255 69.095,186.505 68.123,185.900 67.540 C 185.295 66.956,184.800 66.326,184.800 66.140 C 184.799 65.605,183.166 63.905,181.200 62.392 C 180.210 61.631,179.051 60.691,178.625 60.304 C 178.198 59.917,177.613 59.600,177.325 59.600 C 177.036 59.600,176.800 59.455,176.800 59.277 C 176.800 59.099,176.110 58.649,175.266 58.277 C 173.607 57.545,169.200 57.344,169.200 58.000 M255.200 58.000 C 255.200 58.220,254.871 58.400,254.470 58.400 C 253.722 58.400,252.591 59.501,251.700 61.095 C 251.104 62.161,251.030 66.248,251.600 66.600 C 251.820 66.736,252.000 67.131,252.000 67.477 C 252.000 68.095,253.897 69.999,254.514 70.000 C 255.550 70.001,262.800 77.533,262.800 78.607 C 262.800 78.933,262.980 79.200,263.200 79.200 C 263.420 79.200,263.600 79.560,263.600 80.000 C 263.600 80.440,263.780 80.800,264.000 80.800 C 264.220 80.800,264.400 81.160,264.400 81.600 C 264.400 82.040,264.580 82.400,264.800 82.400 C 265.020 82.400,265.200 82.749,265.200 83.176 C 265.200 83.603,265.380 84.064,265.600 84.200 C 265.820 84.336,266.000 84.941,266.000 85.544 C 266.000 86.147,266.189 86.829,266.419 87.059 C 266.673 87.313,266.839 89.753,266.839 93.233 C 266.839 96.891,266.686 99.038,266.419 99.127 C 266.189 99.204,266.000 99.882,266.000 100.633 C 266.000 101.385,265.820 102.000,265.600 102.000 C 265.380 102.000,265.200 102.360,265.200 102.800 C 265.200 103.240,265.020 103.600,264.800 103.600 C 264.580 103.600,264.400 103.960,264.400 104.400 C 264.400 104.840,264.220 105.200,264.000 105.200 C 263.780 105.200,263.600 105.560,263.600 106.000 C 263.600 106.440,263.420 106.800,263.200 106.800 C 262.980 106.800,262.800 107.094,262.800 107.453 C 262.800 107.812,262.483 108.397,262.096 108.753 C 261.708 109.109,260.911 110.030,260.324 110.800 C 258.433 113.281,257.320 114.400,256.742 114.400 C 256.431 114.400,255.917 114.760,255.600 115.200 C 255.283 115.640,254.838 116.006,254.612 116.013 C 252.537 116.076,249.548 124.400,251.600 124.400 C 251.820 124.400,252.000 124.678,252.000 125.018 C 252.000 125.818,253.782 127.600,254.582 127.600 C 254.922 127.600,255.200 127.780,255.200 128.000 C 255.200 128.226,256.333 128.400,257.800 128.400 C 259.267 128.400,260.400 128.226,260.400 128.000 C 260.400 127.780,260.760 127.600,261.200 127.600 C 261.640 127.600,262.000 127.420,262.000 127.200 C 262.000 126.980,262.225 126.800,262.500 126.800 C 262.775 126.799,263.485 126.394,264.078 125.900 C 264.671 125.405,265.751 124.552,266.478 124.004 C 268.885 122.192,273.200 117.377,273.200 116.504 C 273.200 116.227,273.351 116.000,273.535 116.000 C 273.979 116.000,276.000 111.979,276.000 111.094 C 276.000 110.712,276.180 110.400,276.400 110.400 C 276.620 110.400,276.800 110.040,276.800 109.600 C 276.800 109.160,276.980 108.800,277.200 108.800 C 277.420 108.800,277.600 108.440,277.600 108.000 C 277.600 107.560,277.780 107.200,278.000 107.200 C 278.220 107.200,278.400 106.660,278.400 106.000 C 278.400 105.340,278.580 104.800,278.800 104.800 C 279.020 104.800,279.200 103.990,279.200 103.000 C 279.200 102.010,279.380 101.200,279.600 101.200 C 279.836 101.200,280.000 99.760,280.000 97.680 C 280.000 95.476,280.179 93.981,280.480 93.680 C 280.853 93.307,280.853 93.093,280.480 92.720 C 280.175 92.415,280.000 90.880,280.000 88.520 C 280.000 86.307,279.838 84.800,279.600 84.800 C 279.380 84.800,279.200 84.080,279.200 83.200 C 279.200 82.320,279.020 81.600,278.800 81.600 C 278.580 81.600,278.400 81.071,278.400 80.424 C 278.400 79.777,278.220 79.136,278.000 79.000 C 277.780 78.864,277.600 78.313,277.600 77.776 C 277.600 77.239,277.454 76.800,277.275 76.800 C 277.096 76.800,276.702 76.170,276.400 75.400 C 276.098 74.630,275.704 74.000,275.525 74.000 C 275.346 74.000,275.200 73.736,275.200 73.414 C 275.200 72.601,273.924 70.000,273.526 70.000 C 273.347 70.000,273.200 69.752,273.200 69.448 C 273.200 69.145,272.480 68.155,271.600 67.248 C 270.720 66.341,270.000 65.428,270.000 65.220 C 270.000 65.011,269.330 64.337,268.512 63.720 C 267.694 63.104,266.322 61.925,265.464 61.100 C 264.606 60.275,263.732 59.600,263.523 59.600 C 263.314 59.600,262.873 59.330,262.543 59.000 C 262.213 58.670,261.596 58.400,261.171 58.400 C 260.747 58.400,260.400 58.220,260.400 58.000 C 260.400 57.774,259.267 57.600,257.800 57.600 C 256.333 57.600,255.200 57.774,255.200 58.000 M94.600 154.800 C 94.464 155.020,93.913 155.200,93.376 155.200 C 92.839 155.200,92.400 155.380,92.400 155.600 C 92.400 155.820,92.130 156.000,91.800 156.000 C 91.470 156.000,91.200 156.180,91.200 156.400 C 91.200 156.620,90.925 156.800,90.589 156.800 C 89.404 156.800,85.600 161.218,85.600 162.595 C 85.600 162.928,85.420 163.200,85.200 163.200 C 84.980 163.200,84.800 164.010,84.800 165.000 C 84.800 165.990,84.620 166.800,84.400 166.800 C 84.136 166.800,84.000 179.533,84.000 204.200 C 84.000 228.867,84.136 241.600,84.400 241.600 C 84.649 241.600,84.800 243.859,84.800 247.576 C 84.800 251.129,84.962 253.653,85.200 253.800 C 85.420 253.936,85.600 254.937,85.600 256.024 C 85.600 257.111,85.780 258.000,86.000 258.000 C 86.222 258.000,86.400 259.067,86.400 260.400 C 86.400 261.733,86.578 262.800,86.800 262.800 C 87.020 262.800,87.200 263.160,87.200 263.600 C 87.200 264.444,86.618 264.676,86.200 264.000 C 86.052 263.760,83.396 263.600,79.576 263.600 C 75.592 263.600,73.200 263.750,73.200 264.000 C 73.200 264.220,72.491 264.400,71.624 264.400 C 70.757 264.400,69.936 264.580,69.800 264.800 C 69.664 265.020,69.034 265.200,68.400 265.200 C 67.766 265.200,67.136 265.380,67.000 265.600 C 66.864 265.820,66.403 266.000,65.976 266.000 C 65.549 266.000,65.200 266.180,65.200 266.400 C 65.200 266.620,64.857 266.800,64.438 266.800 C 63.540 266.800,60.534 268.299,59.425 269.300 C 58.998 269.685,58.413 270.000,58.125 270.000 C 57.836 270.000,57.600 270.180,57.600 270.400 C 57.600 270.620,57.375 270.800,57.100 270.800 C 56.337 270.801,54.400 272.611,54.400 273.323 C 54.400 273.669,54.220 274.064,54.000 274.200 C 53.780 274.336,53.600 275.517,53.600 276.824 C 53.600 278.141,53.778 279.200,54.000 279.200 C 54.220 279.200,54.400 279.470,54.400 279.800 C 54.400 280.130,54.703 280.400,55.074 280.400 C 55.445 280.400,56.130 280.759,56.597 281.197 C 58.226 282.728,60.829 282.692,63.893 281.099 C 69.227 278.323,69.831 278.039,72.171 277.204 C 75.389 276.056,82.271 275.598,82.620 276.509 C 82.774 276.910,81.152 279.687,78.131 284.194 C 72.809 292.132,72.936 291.940,70.200 296.185 C 69.100 297.892,68.020 299.493,67.800 299.744 C 61.223 307.242,59.773 313.766,64.096 316.402 C 68.495 319.084,69.205 318.397,82.168 298.918 C 87.699 290.606,92.506 283.752,92.850 283.686 C 93.787 283.505,95.512 287.709,96.031 291.438 C 97.976 305.423,89.721 322.474,76.800 331.161 C 71.195 334.929,71.747 334.800,61.267 334.800 L 52.055 334.800 50.288 333.300 C 41.982 326.249,41.440 313.224,48.827 298.183 C 51.029 293.698,51.206 292.422,49.899 290.432 C 49.404 289.680,48.819 288.766,48.597 288.401 C 47.639 286.822,46.845 286.400,44.829 286.400 C 43.713 286.400,42.800 286.580,42.800 286.800 C 42.800 287.020,42.524 287.200,42.187 287.200 C 41.391 287.200,38.800 289.791,38.800 290.587 C 38.800 290.924,38.620 291.200,38.400 291.200 C 38.180 291.200,38.000 291.560,38.000 292.000 C 38.000 292.440,37.854 292.800,37.675 292.800 C 37.496 292.800,37.102 293.430,36.800 294.200 C 36.498 294.970,36.104 295.600,35.925 295.600 C 35.746 295.600,35.600 295.962,35.600 296.405 C 35.600 296.848,35.420 297.568,35.200 298.005 C 34.980 298.442,34.620 299.158,34.400 299.595 C 34.180 300.032,34.000 300.741,34.000 301.171 C 34.000 301.601,33.820 302.064,33.600 302.200 C 33.380 302.336,33.200 303.067,33.200 303.824 C 33.200 304.581,33.020 305.200,32.800 305.200 C 32.580 305.200,32.400 306.100,32.400 307.200 C 32.400 308.300,32.220 309.200,32.000 309.200 C 31.747 309.200,31.600 312.133,31.600 317.200 C 31.600 322.267,31.747 325.200,32.000 325.200 C 32.220 325.200,32.400 325.909,32.400 326.776 C 32.400 327.643,32.580 328.464,32.800 328.600 C 33.020 328.736,33.200 329.287,33.200 329.824 C 33.200 330.361,33.380 330.800,33.600 330.800 C 33.820 330.800,34.000 331.340,34.000 332.000 C 34.000 332.660,34.180 333.200,34.400 333.200 C 34.620 333.200,34.800 333.380,34.800 333.600 C 34.800 333.853,31.933 334.000,27.000 334.000 C 22.067 334.000,19.200 334.147,19.200 334.400 C 19.200 334.620,18.924 334.800,18.587 334.800 C 17.593 334.800,15.200 337.459,15.200 338.563 C 15.200 339.107,15.020 339.664,14.800 339.800 C 14.257 340.136,14.257 355.600,14.800 355.600 C 15.020 355.600,15.200 356.096,15.200 356.703 C 15.200 357.885,17.522 360.400,18.613 360.400 C 18.936 360.400,19.200 360.580,19.200 360.800 C 19.200 361.020,19.920 361.200,20.800 361.200 C 21.680 361.200,22.400 361.380,22.400 361.600 C 22.400 361.820,23.390 362.000,24.600 362.000 C 25.810 362.000,26.800 362.180,26.800 362.400 C 26.800 362.620,27.700 362.800,28.800 362.800 C 29.900 362.800,30.800 362.980,30.800 363.200 C 30.800 363.420,31.700 363.600,32.800 363.600 C 33.900 363.600,34.800 363.780,34.800 364.000 C 34.800 364.220,35.700 364.400,36.800 364.400 C 37.900 364.400,38.800 364.580,38.800 364.800 C 38.800 365.020,39.790 365.200,41.000 365.200 C 42.210 365.200,43.200 365.380,43.200 365.600 C 43.200 365.820,44.100 366.000,45.200 366.000 C 46.300 366.000,47.200 366.180,47.200 366.400 C 47.200 366.620,48.100 366.800,49.200 366.800 C 50.300 366.800,51.200 366.980,51.200 367.200 C 51.200 367.420,52.089 367.600,53.176 367.600 C 54.263 367.600,55.264 367.780,55.400 368.000 C 55.536 368.220,56.526 368.400,57.600 368.400 C 58.674 368.400,59.664 368.580,59.800 368.800 C 59.936 369.020,60.847 369.200,61.824 369.200 C 62.801 369.200,63.600 369.380,63.600 369.600 C 63.600 369.820,64.464 370.000,65.520 370.000 C 66.576 370.000,67.611 370.163,67.820 370.361 C 68.029 370.560,69.055 370.830,70.100 370.961 C 71.145 371.093,72.855 371.307,73.900 371.439 C 74.945 371.570,75.971 371.840,76.180 372.039 C 76.389 372.237,77.298 372.400,78.200 372.400 C 79.102 372.400,80.011 372.563,80.220 372.761 C 80.429 372.960,81.410 373.219,82.400 373.338 C 83.390 373.456,85.190 373.754,86.400 373.999 C 87.610 374.245,90.355 374.641,92.500 374.880 C 94.645 375.119,96.400 375.469,96.400 375.657 C 96.400 375.846,97.300 376.000,98.400 376.000 C 99.500 376.000,100.400 376.180,100.400 376.400 C 100.400 376.620,101.174 376.800,102.120 376.800 C 103.066 376.800,104.325 377.025,104.917 377.300 L 105.994 377.800 105.997 387.412 C 106.000 396.563,106.038 397.051,106.800 397.600 C 107.240 397.917,107.600 398.401,107.600 398.674 C 107.600 399.985,109.073 400.005,198.614 399.903 L 288.071 399.800 288.835 398.800 C 289.256 398.250,289.780 397.583,290.000 397.317 C 290.242 397.024,290.400 393.042,290.400 387.217 C 290.400 378.935,290.483 377.600,291.000 377.600 C 291.330 377.600,291.600 377.420,291.600 377.200 C 291.600 376.980,292.500 376.800,293.600 376.800 C 294.700 376.800,295.600 376.620,295.600 376.400 C 295.600 376.180,296.500 376.000,297.600 376.000 C 298.700 376.000,299.600 375.851,299.600 375.669 C 299.600 375.487,301.355 375.139,303.500 374.895 C 305.645 374.652,308.390 374.250,309.600 374.003 C 310.810 373.755,312.610 373.456,313.600 373.338 C 314.590 373.219,315.571 372.960,315.780 372.761 C 315.989 372.563,317.013 372.400,318.056 372.400 C 319.099 372.400,320.064 372.220,320.200 372.000 C 320.336 371.780,321.236 371.600,322.200 371.600 C 323.164 371.600,324.064 371.420,324.200 371.200 C 324.336 370.980,325.337 370.800,326.424 370.800 C 327.511 370.800,328.400 370.620,328.400 370.400 C 328.400 370.180,329.300 370.000,330.400 370.000 C 331.500 370.000,332.400 369.820,332.400 369.600 C 332.400 369.380,333.289 369.200,334.376 369.200 C 335.463 369.200,336.464 369.020,336.600 368.800 C 336.736 368.580,337.737 368.400,338.824 368.400 C 339.911 368.400,340.800 368.220,340.800 368.000 C 340.800 367.780,341.700 367.600,342.800 367.600 C 343.900 367.600,344.800 367.420,344.800 367.200 C 344.800 366.980,345.700 366.800,346.800 366.800 C 347.900 366.800,348.800 366.620,348.800 366.400 C 348.800 366.180,349.790 366.000,351.000 366.000 C 352.210 366.000,353.200 365.820,353.200 365.600 C 353.200 365.380,354.100 365.200,355.200 365.200 C 356.300 365.200,357.200 365.020,357.200 364.800 C 357.200 364.580,358.100 364.400,359.200 364.400 C 360.300 364.400,361.200 364.220,361.200 364.000 C 361.200 363.780,362.100 363.600,363.200 363.600 C 364.300 363.600,365.200 363.420,365.200 363.200 C 365.200 362.980,366.179 362.800,367.376 362.800 C 368.573 362.800,369.664 362.620,369.800 362.400 C 369.936 362.180,370.847 362.000,371.824 362.000 C 372.801 362.000,373.600 361.820,373.600 361.600 C 373.600 361.380,374.320 361.200,375.200 361.200 C 376.080 361.200,376.800 361.020,376.800 360.800 C 376.800 360.580,377.034 360.400,377.320 360.400 C 378.239 360.400,379.994 359.416,379.997 358.900 C 379.999 358.625,380.180 358.400,380.400 358.400 C 380.620 358.400,380.800 357.950,380.800 357.400 C 380.800 356.850,380.980 356.400,381.200 356.400 C 381.454 356.400,381.600 353.333,381.600 348.000 C 381.600 342.667,381.454 339.600,381.200 339.600 C 380.980 339.600,380.800 339.060,380.800 338.400 C 380.800 337.740,380.620 337.200,380.400 337.200 C 380.180 337.200,380.000 336.840,380.000 336.400 C 380.000 335.867,379.733 335.600,379.200 335.600 C 378.760 335.600,378.400 335.420,378.400 335.200 C 378.400 334.980,378.040 334.800,377.600 334.800 C 377.160 334.800,376.800 334.620,376.800 334.400 C 376.800 334.137,366.400 334.000,346.400 334.000 C 326.400 334.000,316.000 334.137,316.000 334.400 C 316.000 334.620,315.640 334.800,315.200 334.800 C 314.760 334.800,314.400 334.980,314.400 335.200 C 314.400 335.420,314.142 335.600,313.827 335.600 C 313.512 335.600,313.140 335.960,313.000 336.400 C 312.860 336.840,312.578 337.200,312.373 337.200 C 312.168 337.200,312.000 337.740,312.000 338.400 C 312.000 339.060,311.820 339.600,311.600 339.600 C 310.904 339.600,311.168 340.298,311.939 340.500 C 312.373 340.613,312.780 341.199,312.924 341.918 C 313.058 342.591,313.811 343.785,314.597 344.571 L 316.027 346.000 342.133 346.000 C 361.905 346.000,368.356 346.116,368.720 346.480 C 369.489 347.249,369.330 349.907,368.500 350.158 C 367.618 350.426,362.887 351.378,358.200 352.232 C 356.220 352.592,353.790 353.047,352.800 353.242 C 351.810 353.437,349.920 353.793,348.600 354.032 C 347.280 354.272,345.390 354.626,344.400 354.819 C 343.410 355.011,341.520 355.370,340.200 355.616 C 338.880 355.862,336.990 356.222,336.000 356.416 C 335.010 356.610,333.210 356.956,332.000 357.184 C 330.790 357.413,328.900 357.779,327.800 357.998 C 326.700 358.217,324.720 358.593,323.400 358.832 C 320.707 359.322,317.992 359.833,316.200 360.189 C 315.540 360.320,314.010 360.615,312.800 360.846 C 311.590 361.076,309.880 361.418,309.000 361.606 C 308.120 361.793,306.230 362.151,304.800 362.400 C 303.370 362.649,301.480 363.009,300.600 363.200 C 299.720 363.391,297.920 363.740,296.600 363.975 C 295.280 364.211,291.873 364.853,289.029 365.402 L 283.859 366.400 198.112 366.400 C 124.247 366.400,111.967 366.319,109.483 365.812 C 107.897 365.489,104.980 364.929,103.000 364.568 C 101.020 364.208,98.680 363.769,97.800 363.593 C 96.920 363.418,95.165 363.077,93.900 362.837 C 92.635 362.597,90.565 362.202,89.300 361.960 C 86.496 361.423,83.660 360.890,81.000 360.400 C 79.900 360.197,78.100 359.851,77.000 359.631 C 75.900 359.411,73.920 359.030,72.600 358.784 C 69.943 358.288,67.470 357.812,64.300 357.184 C 63.145 356.956,61.300 356.604,60.200 356.403 C 57.508 355.910,54.227 355.285,51.800 354.802 C 50.700 354.583,48.810 354.222,47.600 354.000 C 46.390 353.778,44.500 353.418,43.400 353.200 C 42.300 352.982,40.320 352.619,39.000 352.393 C 37.680 352.168,34.530 351.575,32.000 351.076 L 27.400 350.168 27.400 348.184 L 27.400 346.200 163.087 346.099 L 298.774 345.999 300.187 344.586 C 300.964 343.809,301.600 342.854,301.600 342.463 C 301.600 342.073,301.864 341.404,302.187 340.976 C 303.582 339.132,301.637 334.800,299.413 334.800 C 299.076 334.800,298.800 334.620,298.800 334.400 C 298.800 334.139,292.400 334.000,280.400 334.000 C 270.280 334.000,262.000 333.897,262.000 333.771 C 262.000 333.334,263.146 332.400,263.683 332.400 C 263.980 332.400,264.483 332.040,264.800 331.600 C 265.117 331.160,265.625 330.800,265.928 330.800 C 266.231 330.800,266.983 330.260,267.600 329.600 C 268.217 328.940,268.912 328.400,269.146 328.400 C 269.380 328.400,270.882 327.140,272.484 325.600 C 274.087 324.060,275.525 322.800,275.682 322.800 C 276.130 322.800,282.110 316.751,283.195 315.200 C 283.734 314.430,284.810 313.170,285.587 312.400 C 286.364 311.630,287.255 310.505,287.568 309.900 C 287.880 309.295,288.268 308.800,288.430 308.800 C 288.856 308.800,291.600 304.894,291.600 304.287 C 291.600 304.006,291.960 303.517,292.400 303.200 C 292.840 302.883,293.200 302.343,293.200 302.000 C 293.200 301.657,293.560 301.117,294.000 300.800 C 294.440 300.483,294.800 299.986,294.800 299.695 C 294.800 299.404,295.160 298.780,295.600 298.308 C 296.040 297.836,296.400 297.213,296.400 296.925 C 296.400 296.636,296.580 296.400,296.800 296.400 C 297.020 296.400,297.200 296.040,297.200 295.600 C 297.200 295.160,297.380 294.800,297.600 294.800 C 297.820 294.800,298.000 294.440,298.000 294.000 C 298.000 293.560,298.180 293.200,298.400 293.200 C 298.620 293.200,298.800 292.840,298.800 292.400 C 298.800 291.960,298.980 291.600,299.200 291.600 C 299.420 291.600,299.600 291.780,299.600 292.000 C 299.600 292.220,300.140 292.400,300.800 292.400 C 301.460 292.400,302.000 292.580,302.000 292.800 C 302.000 293.020,302.540 293.200,303.200 293.200 C 303.860 293.200,304.400 293.380,304.400 293.600 C 304.400 293.820,305.120 294.000,306.000 294.000 C 306.880 294.000,307.600 294.180,307.600 294.400 C 307.600 294.620,308.500 294.800,309.600 294.800 C 310.700 294.800,311.600 294.980,311.600 295.200 C 311.600 295.441,313.267 295.600,315.800 295.600 C 318.333 295.600,320.000 295.759,320.000 296.000 C 320.000 296.220,320.990 296.400,322.200 296.400 C 323.410 296.400,324.400 296.220,324.400 296.000 C 324.400 295.760,326.000 295.600,328.400 295.600 C 330.800 295.600,332.400 295.440,332.400 295.200 C 332.400 294.980,333.379 294.800,334.576 294.800 C 335.773 294.800,336.864 294.620,337.000 294.400 C 337.136 294.180,337.766 294.000,338.400 294.000 C 339.034 294.000,339.664 293.820,339.800 293.600 C 339.936 293.380,340.577 293.200,341.224 293.200 C 341.871 293.200,342.400 293.020,342.400 292.800 C 342.400 292.580,342.940 292.400,343.600 292.400 C 344.260 292.400,344.800 292.236,344.800 292.035 C 344.800 291.834,345.520 291.549,346.400 291.400 C 347.280 291.251,348.000 290.966,348.000 290.765 C 348.000 290.564,348.253 290.400,348.562 290.400 C 349.228 290.400,352.541 288.732,352.733 288.300 C 352.807 288.135,353.212 288.000,353.633 288.000 C 354.055 288.000,354.400 287.820,354.400 287.600 C 354.400 287.380,354.636 287.200,354.925 287.200 C 355.213 287.200,355.836 286.840,356.308 286.400 C 356.780 285.960,357.353 285.600,357.580 285.600 C 357.807 285.600,358.218 285.240,358.493 284.800 C 358.768 284.360,359.233 284.000,359.528 284.000 C 359.822 284.000,360.754 283.280,361.600 282.400 C 362.446 281.520,363.318 280.800,363.538 280.800 C 364.785 280.800,374.267 269.909,374.983 267.655 C 375.132 267.185,375.422 266.800,375.627 266.800 C 375.832 266.800,376.000 266.440,376.000 266.000 C 376.000 265.560,376.180 265.200,376.400 265.200 C 376.620 265.200,376.800 264.922,376.800 264.583 C 376.800 264.244,377.160 263.580,377.600 263.108 C 378.040 262.636,378.400 261.934,378.400 261.548 C 378.400 261.163,378.580 260.736,378.800 260.600 C 379.020 260.464,379.200 260.003,379.200 259.576 C 379.200 259.149,379.335 258.799,379.500 258.797 C 379.906 258.793,380.800 256.814,380.800 255.920 C 380.800 255.524,380.980 255.200,381.200 255.200 C 381.420 255.200,381.600 254.851,381.600 254.424 C 381.600 253.997,381.780 253.536,382.000 253.400 C 382.220 253.264,382.400 252.533,382.400 251.776 C 382.400 251.019,382.580 250.400,382.800 250.400 C 383.020 250.400,383.200 249.781,383.200 249.024 C 383.200 248.267,383.380 247.536,383.600 247.400 C 383.820 247.264,384.000 246.263,384.000 245.176 C 384.000 244.089,384.180 243.200,384.400 243.200 C 384.641 243.200,384.800 241.541,384.800 239.024 C 384.800 236.671,384.975 234.739,385.200 234.600 C 385.719 234.279,385.719 232.121,385.200 231.800 C 384.975 231.661,384.800 229.729,384.800 227.376 C 384.800 224.859,384.641 223.200,384.400 223.200 C 384.180 223.200,384.000 222.221,384.000 221.024 C 384.000 219.827,383.820 218.736,383.600 218.600 C 383.380 218.464,383.200 217.834,383.200 217.200 C 383.200 216.566,383.020 215.936,382.800 215.800 C 382.580 215.664,382.400 214.933,382.400 214.176 C 382.400 213.419,382.220 212.800,382.000 212.800 C 381.780 212.800,381.600 212.350,381.600 211.800 C 381.600 211.250,381.420 210.800,381.200 210.800 C 380.980 210.800,380.800 210.528,380.800 210.195 C 380.800 209.862,380.592 209.187,380.338 208.695 C 379.367 206.818,379.200 206.393,379.200 205.805 C 379.200 205.472,379.020 205.200,378.800 205.200 C 378.580 205.200,378.400 204.840,378.400 204.400 C 378.400 203.960,378.220 203.600,378.000 203.600 C 377.780 203.600,377.600 203.364,377.600 203.075 C 377.600 202.787,377.240 202.164,376.800 201.692 C 376.360 201.220,376.000 200.556,376.000 200.217 C 376.000 199.878,375.840 199.600,375.643 199.600 C 375.447 199.600,375.184 199.191,375.059 198.692 C 374.934 198.193,374.497 197.426,374.089 196.987 C 373.680 196.549,373.178 195.902,372.973 195.549 C 371.670 193.311,363.565 184.800,362.736 184.800 C 362.508 184.800,361.817 184.260,361.200 183.600 C 360.583 182.940,359.900 182.400,359.682 182.400 C 359.463 182.400,358.754 181.905,358.106 181.300 C 357.457 180.695,356.403 179.930,355.763 179.601 C 355.124 179.271,354.510 178.885,354.400 178.744 C 353.799 177.970,346.686 174.800,345.551 174.800 C 345.138 174.800,344.800 174.620,344.800 174.400 C 344.800 174.180,344.260 174.000,343.600 174.000 C 342.940 174.000,342.400 173.820,342.400 173.600 C 342.400 173.380,341.961 173.200,341.424 173.200 C 340.887 173.200,340.336 173.020,340.200 172.800 C 340.064 172.580,339.333 172.400,338.576 172.400 C 337.819 172.400,337.200 172.220,337.200 172.000 C 337.200 171.780,336.300 171.600,335.200 171.600 C 334.100 171.600,333.200 171.420,333.200 171.200 C 333.200 170.963,331.733 170.800,329.600 170.800 C 327.467 170.800,326.000 170.637,326.000 170.400 C 326.000 170.162,324.475 170.000,322.224 170.000 C 320.137 170.000,318.337 170.179,318.200 170.400 C 318.064 170.620,316.613 170.800,314.976 170.800 L 312.000 170.800 312.000 168.200 C 312.000 166.733,311.826 165.600,311.600 165.600 C 311.380 165.600,311.200 164.970,311.200 164.200 C 311.200 163.430,311.020 162.800,310.800 162.800 C 310.580 162.800,310.400 162.440,310.400 162.000 C 310.400 161.560,310.220 161.200,310.000 161.200 C 309.780 161.200,309.600 160.975,309.600 160.700 C 309.600 159.937,306.580 156.800,305.846 156.800 C 305.491 156.800,305.200 156.620,305.200 156.400 C 305.200 156.180,304.930 156.000,304.600 156.000 C 304.270 156.000,304.000 155.820,304.000 155.600 C 304.000 155.380,303.561 155.200,303.024 155.200 C 302.487 155.200,301.936 155.020,301.800 154.800 C 301.287 153.969,267.196 154.285,266.447 155.128 C 266.091 155.528,265.485 155.972,265.100 156.115 C 264.715 156.258,264.400 156.651,264.400 156.987 C 264.400 157.324,264.220 157.600,264.000 157.600 C 263.003 157.600,264.488 162.933,265.932 164.541 C 267.564 166.357,267.970 166.400,283.518 166.400 C 301.278 166.400,299.730 165.828,299.936 172.470 C 300.011 174.883,299.963 177.295,299.829 177.829 L 299.585 178.800 198.200 178.800 L 96.815 178.800 96.564 177.801 C 95.962 175.401,96.564 167.662,97.402 167.028 C 98.106 166.496,107.070 166.424,173.720 166.413 C 254.397 166.399,250.310 166.497,252.068 164.541 C 253.512 162.933,254.997 157.600,254.000 157.600 C 253.780 157.600,253.600 157.324,253.600 156.987 C 253.600 156.651,253.285 156.258,252.900 156.115 C 252.515 155.972,251.909 155.528,251.553 155.128 C 250.800 154.281,95.122 153.956,94.600 154.800 M332.400 183.417 C 338.980 184.784,350.127 189.777,352.400 192.376 C 352.510 192.502,353.320 193.141,354.200 193.797 C 359.770 197.949,365.897 206.118,368.939 213.450 C 370.476 217.154,370.881 218.511,372.359 224.906 C 372.602 225.954,372.800 229.686,372.800 233.200 C 372.800 236.714,372.602 240.446,372.359 241.494 C 370.881 247.889,370.476 249.246,368.939 252.950 C 365.877 260.329,359.726 268.490,354.030 272.731 C 353.243 273.316,352.510 273.895,352.400 274.017 C 351.144 275.408,343.008 279.801,339.510 280.978 C 329.022 284.504,318.176 284.839,308.267 281.943 C 302.688 280.313,302.787 281.862,307.361 267.800 C 307.955 265.975,308.194 265.946,312.094 267.209 C 320.903 270.064,337.303 267.642,342.000 262.794 C 342.300 262.484,344.487 260.729,345.937 259.634 C 349.409 257.012,354.096 249.782,355.941 244.200 C 359.735 232.723,357.305 220.033,349.494 210.527 C 347.170 207.698,346.976 207.510,343.999 205.210 C 343.009 204.446,342.110 203.718,342.000 203.592 C 338.387 199.456,321.908 196.499,314.045 198.576 C 310.677 199.465,310.765 199.670,310.891 191.199 L 311.000 183.857 312.200 183.498 C 315.885 182.395,327.259 182.349,332.400 183.417 M299.837 191.007 C 300.566 193.911,299.696 247.752,298.832 253.200 C 297.749 260.027,295.750 268.417,294.400 271.800 C 294.224 272.240,293.864 273.230,293.600 274.000 C 293.150 275.310,292.966 275.793,292.038 278.100 C 288.697 286.403,281.494 298.278,276.150 304.295 C 275.518 305.007,273.924 306.810,272.608 308.303 C 271.293 309.795,269.043 312.054,267.608 313.323 C 266.174 314.591,264.190 316.358,263.200 317.250 C 262.210 318.141,260.320 319.605,259.000 320.505 C 257.680 321.404,256.510 322.255,256.400 322.396 C 256.105 322.774,252.824 324.974,251.098 325.952 C 250.274 326.418,248.925 327.188,248.100 327.662 C 244.149 329.931,241.504 331.251,238.200 332.601 C 236.220 333.410,234.077 334.326,233.439 334.636 C 232.467 335.108,226.704 335.200,198.208 335.200 L 164.138 335.200 161.569 334.165 C 158.043 332.744,158.088 332.877,159.880 329.126 C 162.090 324.501,163.226 320.059,163.168 316.269 C 163.131 313.849,162.332 308.999,161.899 308.566 C 161.735 308.401,161.600 308.025,161.600 307.729 C 161.600 302.249,150.245 291.512,141.600 288.817 C 140.610 288.508,139.620 288.132,139.400 287.982 C 138.740 287.529,135.078 286.775,129.600 285.963 C 126.000 285.430,117.166 285.754,112.600 286.588 C 108.379 287.359,108.580 287.388,107.876 285.900 C 103.200 276.012,100.548 268.732,99.172 262.000 C 96.731 250.063,96.751 250.382,96.521 220.317 C 96.402 204.761,96.420 191.576,96.560 191.017 L 96.815 190.000 198.200 190.000 L 299.585 190.000 299.837 191.007 M326.200 210.000 C 326.336 210.220,326.977 210.400,327.624 210.400 C 328.271 210.400,328.800 210.580,328.800 210.800 C 328.800 211.020,329.124 211.200,329.520 211.200 C 330.414 211.200,332.393 212.094,332.397 212.500 C 332.399 212.665,332.760 212.800,333.200 212.800 C 333.640 212.800,334.000 212.980,334.000 213.200 C 334.000 213.420,334.273 213.600,334.606 213.600 C 335.332 213.600,341.998 220.171,342.005 220.894 C 342.007 221.172,342.457 222.183,343.005 223.141 C 343.552 224.098,344.000 225.213,344.000 225.617 C 344.000 226.022,344.180 226.464,344.400 226.600 C 344.620 226.736,344.800 227.557,344.800 228.424 C 344.800 229.291,344.980 230.000,345.200 230.000 C 345.433 230.000,345.600 231.333,345.600 233.200 C 345.600 235.067,345.433 236.400,345.200 236.400 C 344.980 236.400,344.800 237.120,344.800 238.000 C 344.800 238.880,344.620 239.600,344.400 239.600 C 344.180 239.600,343.999 240.005,343.998 240.500 C 343.992 243.175,336.643 252.800,334.606 252.800 C 334.273 252.800,334.000 252.980,334.000 253.200 C 334.000 253.420,333.640 253.600,333.200 253.600 C 332.760 253.600,332.400 253.780,332.400 254.000 C 332.400 254.220,332.040 254.400,331.600 254.400 C 331.160 254.400,330.800 254.580,330.800 254.800 C 330.800 255.020,330.260 255.200,329.600 255.200 C 328.940 255.200,328.400 255.380,328.400 255.600 C 328.400 255.820,327.770 256.000,327.000 256.000 C 326.230 256.000,325.600 256.180,325.600 256.400 C 325.600 256.633,324.275 256.800,322.424 256.800 C 320.677 256.800,319.136 256.620,319.000 256.400 C 318.864 256.180,318.144 256.000,317.400 256.000 C 316.656 256.000,315.936 255.820,315.800 255.600 C 315.664 255.380,315.113 255.200,314.576 255.200 C 314.039 255.200,313.600 255.020,313.600 254.800 C 313.600 254.580,313.317 254.400,312.971 254.400 C 311.411 254.400,310.200 247.865,311.600 247.000 C 311.857 246.841,312.000 240.529,312.000 229.376 C 312.000 212.267,312.012 212.000,312.800 212.000 C 313.240 212.000,313.600 211.820,313.600 211.600 C 313.600 211.380,314.039 211.200,314.576 211.200 C 315.113 211.200,315.664 211.020,315.800 210.800 C 315.936 210.580,316.757 210.400,317.624 210.400 C 318.491 210.400,319.200 210.220,319.200 210.000 C 319.200 209.765,320.592 209.600,322.576 209.600 C 324.433 209.600,326.064 209.780,326.200 210.000 M129.600 297.399 C 138.245 298.885,145.028 302.226,148.066 306.493 C 149.095 307.938,148.802 308.256,146.000 308.733 C 143.710 309.123,132.724 311.291,119.011 314.059 C 108.276 316.226,107.200 316.890,107.200 321.348 C 107.200 326.256,110.241 327.480,118.400 325.855 C 154.647 318.639,151.362 319.150,151.004 320.784 C 150.254 324.197,147.068 328.847,143.013 332.447 L 140.362 334.800 115.981 334.800 C 102.571 334.800,91.600 334.685,91.600 334.544 C 91.600 334.404,92.559 333.189,93.730 331.844 C 100.664 323.888,106.430 311.657,107.435 302.773 C 107.838 299.214,109.046 298.491,116.183 297.538 C 117.714 297.334,119.049 297.084,119.150 296.983 C 119.556 296.578,126.411 296.850,129.600 297.399 M277.737 377.704 C 278.337 378.143,278.412 378.855,278.313 383.204 L 278.200 388.200 198.100 388.301 L 118.000 388.402 118.000 383.030 C 118.000 378.251,118.077 377.638,118.700 377.476 C 120.568 376.988,277.064 377.212,277.737 377.704"/><path id="path1" fill="#fbe1c6" fill-rule="evenodd" stroke="none" d="M254.252 160.500 C 254.119 160.995,254.008 161.743,254.005 162.162 C 253.997 163.321,252.059 165.616,250.560 166.242 C 249.435 166.712,237.451 166.800,174.232 166.800 C 118.172 166.800,98.980 166.917,98.219 167.264 C 97.201 167.728,97.200 167.735,97.200 173.065 L 97.200 178.402 198.100 178.301 L 299.000 178.200 299.115 173.200 C 299.277 166.179,300.836 166.800,283.056 166.799 C 265.603 166.799,264.700 166.536,263.850 161.222 L 263.591 159.600 259.042 159.600 C 254.663 159.600,254.484 159.634,254.252 160.500 M317.400 183.268 C 315.640 183.468,313.660 183.771,313.000 183.941 L 311.800 184.251 311.800 191.225 C 311.800 197.959,311.828 198.197,312.600 198.122 C 313.040 198.079,315.376 197.776,317.790 197.449 C 320.897 197.029,322.754 196.964,324.145 197.227 C 325.225 197.432,326.850 197.602,327.755 197.604 C 332.673 197.616,348.743 206.113,348.806 208.735 C 348.810 208.881,349.371 209.630,350.053 210.400 C 352.331 212.972,356.400 220.204,356.400 221.680 C 356.400 221.972,356.771 223.199,357.225 224.406 C 358.441 227.639,358.453 238.282,357.244 241.800 C 356.791 243.120,356.415 244.436,356.410 244.725 C 356.366 247.081,351.106 255.332,347.276 259.053 C 338.323 267.753,323.464 271.469,312.079 267.854 C 308.025 266.567,308.000 266.566,308.000 267.776 C 308.000 268.313,307.820 268.864,307.600 269.000 C 307.380 269.136,307.200 269.689,307.200 270.229 C 307.200 270.769,307.042 271.523,306.849 271.905 C 306.656 272.287,306.284 273.320,306.023 274.200 C 305.761 275.080,305.401 276.160,305.223 276.600 C 303.745 280.254,303.672 279.995,306.400 280.777 C 307.390 281.061,308.650 281.431,309.200 281.600 C 316.508 283.845,326.376 284.056,333.600 282.120 C 334.810 281.796,336.340 281.390,337.000 281.218 C 350.663 277.652,364.354 264.656,369.382 250.480 C 380.486 219.177,359.805 186.460,326.858 183.209 C 322.239 182.753,321.917 182.755,317.400 183.268 M97.206 217.099 C 97.210 231.785,97.384 245.872,97.594 248.404 C 98.355 257.581,101.811 271.354,105.171 278.600 C 105.784 279.920,106.877 282.277,107.602 283.839 L 108.919 286.677 111.559 286.073 C 121.201 283.868,137.590 285.761,146.173 290.071 C 152.031 293.012,160.400 300.957,160.400 303.578 C 160.400 303.810,160.580 304.000,160.800 304.000 C 161.020 304.000,161.200 304.324,161.200 304.720 C 161.200 305.116,161.349 305.611,161.530 305.820 C 161.712 306.029,162.091 307.010,162.372 308.000 C 162.653 308.990,163.045 310.213,163.242 310.719 C 164.675 314.393,162.409 328.237,160.021 330.400 C 158.972 331.350,158.822 332.428,159.692 332.759 C 160.192 332.949,161.297 333.396,162.149 333.752 C 163.535 334.332,167.293 334.400,197.980 334.400 L 232.262 334.400 234.831 333.364 C 241.026 330.864,243.521 329.638,250.587 325.619 C 252.220 324.690,261.763 317.892,262.596 317.064 C 262.853 316.809,264.468 315.340,266.186 313.800 C 270.195 310.207,276.447 303.360,278.786 300.000 C 279.323 299.230,279.872 298.510,280.007 298.400 C 280.974 297.613,286.991 287.642,288.577 284.200 C 289.184 282.880,290.203 280.740,290.841 279.444 C 291.478 278.148,292.000 276.840,292.000 276.538 C 292.000 276.236,292.208 275.587,292.462 275.095 C 293.451 273.183,293.600 272.786,293.600 272.072 C 293.600 271.666,293.723 271.210,293.874 271.059 C 294.313 270.620,295.187 267.881,295.194 266.924 C 295.197 266.442,295.361 265.948,295.558 265.826 C 295.755 265.705,296.002 264.929,296.108 264.103 C 296.213 263.276,296.576 261.520,296.913 260.200 C 298.957 252.210,299.244 246.629,299.117 217.400 L 299.000 190.600 198.100 190.499 L 97.200 190.398 97.206 217.099 M302.626 340.887 C 302.538 341.169,302.364 341.874,302.238 342.453 C 301.899 344.008,299.974 345.859,298.177 346.358 C 297.049 346.671,258.277 346.796,162.100 346.798 L 27.600 346.800 27.600 348.349 C 27.600 349.897,27.602 349.898,29.500 350.139 C 30.545 350.271,32.210 350.544,33.200 350.746 C 34.190 350.947,36.980 351.480,39.400 351.930 C 43.749 352.738,55.053 354.881,63.200 356.440 C 68.931 357.537,71.023 357.932,73.600 358.402 C 74.810 358.623,76.610 358.966,77.600 359.165 C 78.590 359.363,80.435 359.723,81.700 359.963 C 82.965 360.203,85.035 360.598,86.300 360.840 C 87.565 361.082,89.455 361.442,90.500 361.640 C 91.545 361.838,93.255 362.165,94.300 362.366 C 95.345 362.567,97.280 362.927,98.600 363.165 C 102.304 363.835,104.780 364.318,107.400 364.880 C 110.857 365.623,285.473 365.640,288.900 364.898 C 290.165 364.624,292.235 364.203,293.500 363.963 C 294.765 363.723,296.610 363.363,297.600 363.165 C 298.590 362.966,300.480 362.607,301.800 362.368 C 304.493 361.878,307.208 361.367,309.000 361.011 C 309.660 360.880,311.145 360.599,312.300 360.387 C 316.547 359.605,319.038 359.127,320.600 358.794 C 321.480 358.607,323.370 358.247,324.800 357.994 C 326.230 357.741,328.210 357.366,329.200 357.160 C 330.190 356.954,334.420 356.147,338.600 355.368 C 342.780 354.589,348.990 353.421,352.400 352.773 C 355.810 352.126,360.670 351.215,363.200 350.749 C 369.277 349.629,368.871 349.809,368.726 348.303 L 368.600 347.000 342.600 346.800 C 312.385 346.568,313.420 346.736,312.432 341.890 L 312.169 340.600 307.477 340.487 C 303.931 340.402,302.746 340.500,302.626 340.887 M118.800 383.200 L 118.800 388.000 198.200 388.000 L 277.600 388.000 277.600 383.200 L 277.600 378.400 198.200 378.400 L 118.800 378.400 118.800 383.200"/><path id="path2" fill="#a95406" fill-rule="evenodd" stroke="none" d="M75.800 276.275 C 74.158 276.487,69.704 278.009,68.000 278.941 C 60.947 282.797,58.760 283.229,56.597 281.197 C 56.130 280.759,55.400 280.411,54.974 280.425 C 54.267 280.449,54.274 280.481,55.059 280.797 C 55.532 280.988,56.039 281.339,56.186 281.578 C 56.974 282.852,60.535 283.550,62.105 282.738 C 62.597 282.483,63.340 282.106,63.755 281.900 C 64.170 281.694,65.115 281.182,65.855 280.762 C 66.595 280.343,67.835 279.640,68.612 279.200 C 69.389 278.760,70.349 278.400,70.745 278.400 C 71.142 278.400,71.590 278.277,71.741 278.126 C 72.509 277.358,75.391 276.811,78.705 276.806 L 82.410 276.800 81.342 278.491 C 80.755 279.421,80.045 280.412,79.764 280.693 C 79.482 280.975,79.138 281.564,78.999 282.002 C 78.860 282.441,78.578 282.800,78.373 282.800 C 78.168 282.800,78.000 283.070,78.000 283.400 C 78.000 283.730,77.820 284.000,77.600 284.000 C 77.380 284.000,77.200 284.236,77.200 284.525 C 77.200 284.813,76.840 285.436,76.400 285.908 C 75.960 286.380,75.600 286.954,75.600 287.183 C 75.600 287.412,75.420 287.600,75.200 287.600 C 74.980 287.600,74.800 287.870,74.800 288.200 C 74.800 288.530,74.650 288.800,74.468 288.800 C 74.285 288.800,73.880 289.295,73.568 289.900 C 73.255 290.505,72.685 291.349,72.300 291.775 C 71.915 292.202,71.600 292.787,71.600 293.075 C 71.600 293.364,71.432 293.600,71.227 293.600 C 71.022 293.600,70.740 293.959,70.601 294.398 C 70.462 294.836,70.131 295.421,69.867 295.698 C 69.248 296.344,62.695 306.250,61.620 308.165 C 58.552 313.627,64.132 319.828,69.580 317.010 C 70.891 316.333,73.600 313.312,73.600 312.528 C 73.600 312.238,73.750 312.000,73.932 312.000 C 74.115 312.000,74.520 311.505,74.832 310.900 C 75.145 310.295,75.715 309.451,76.100 309.025 C 76.485 308.598,76.800 308.028,76.800 307.758 C 76.800 307.488,76.959 307.207,77.153 307.133 C 77.348 307.060,80.533 302.410,84.233 296.800 C 92.874 283.696,92.183 284.255,91.886 290.607 C 91.311 302.907,85.842 314.574,76.281 323.900 L 72.898 327.200 59.698 327.200 C 49.613 327.200,46.406 327.082,46.107 326.700 C 45.600 326.053,45.199 324.685,44.787 322.200 C 44.604 321.100,44.327 319.682,44.171 319.049 C 43.667 317.005,45.252 307.972,46.776 304.200 C 46.954 303.760,48.022 301.455,49.150 299.077 C 51.627 293.855,51.774 290.229,49.568 288.791 C 49.391 288.676,48.951 288.046,48.589 287.391 L 47.931 286.200 48.195 287.400 C 48.340 288.060,48.783 288.960,49.180 289.400 C 51.340 291.799,51.284 293.179,48.827 298.183 C 41.440 313.224,41.982 326.249,50.288 333.300 L 52.055 334.800 61.267 334.800 C 71.747 334.800,71.195 334.929,76.800 331.161 C 89.721 322.474,97.976 305.423,96.031 291.438 C 95.512 287.709,93.787 283.505,92.850 283.686 C 92.506 283.752,87.699 290.606,82.168 298.918 C 69.205 318.397,68.495 319.084,64.096 316.402 C 59.773 313.766,61.223 307.242,67.800 299.744 C 68.020 299.493,69.100 297.892,70.200 296.185 C 72.936 291.940,72.809 292.132,78.131 284.194 C 80.817 280.187,82.767 276.891,82.643 276.568 C 82.429 276.010,78.989 275.863,75.800 276.275 M119.150 296.983 C 119.049 297.084,117.714 297.334,116.183 297.538 C 109.046 298.491,107.838 299.214,107.435 302.773 C 106.430 311.657,100.664 323.888,93.730 331.844 C 92.559 333.189,91.600 334.404,91.600 334.544 C 91.600 334.685,102.571 334.800,115.981 334.800 L 140.362 334.800 143.013 332.447 C 148.051 327.974,152.991 319.600,150.590 319.600 C 149.164 319.600,135.042 322.590,135.780 322.735 C 136.495 322.877,138.834 322.476,142.400 321.600 C 143.170 321.411,144.880 321.145,146.200 321.009 L 148.600 320.761 145.244 323.981 L 141.887 327.200 128.444 327.133 C 121.050 327.096,115.720 326.994,116.600 326.906 C 117.480 326.818,118.371 326.579,118.580 326.373 C 118.789 326.168,119.698 326.000,120.600 326.000 C 121.502 326.000,122.411 325.837,122.620 325.639 C 122.829 325.440,123.810 325.176,124.800 325.051 C 129.066 324.516,130.222 324.297,130.580 323.959 C 130.789 323.762,131.599 323.597,132.380 323.594 C 133.161 323.591,134.070 323.413,134.400 323.200 C 135.436 322.530,134.321 322.699,123.393 324.861 C 111.633 327.189,110.821 327.194,108.594 324.967 C 106.108 322.482,106.835 317.837,109.963 316.219 C 110.568 315.906,114.379 314.988,118.432 314.179 C 122.484 313.369,125.890 312.619,126.000 312.510 C 126.258 312.257,123.122 312.630,120.800 313.129 C 119.810 313.342,117.317 313.822,115.259 314.196 C 109.333 315.272,107.311 316.599,106.619 319.866 C 106.046 322.575,107.965 326.337,110.211 326.907 C 110.645 327.017,108.063 327.128,104.473 327.154 L 97.946 327.200 98.725 326.100 C 101.940 321.566,105.132 314.546,106.774 308.400 C 107.038 307.410,107.422 306.047,107.627 305.372 C 107.832 304.696,108.000 303.425,108.000 302.548 C 108.000 300.696,108.595 299.781,110.000 299.474 C 110.550 299.354,111.720 299.050,112.600 298.798 C 115.070 298.091,124.416 297.298,126.000 297.660 C 126.770 297.837,128.197 297.985,129.172 297.990 C 130.146 297.996,131.496 298.165,132.172 298.366 C 139.811 300.646,142.900 302.180,146.076 305.274 L 148.112 307.257 147.010 307.828 C 146.404 308.143,145.220 308.400,144.378 308.400 C 143.536 308.400,142.736 308.580,142.600 308.800 C 142.464 309.020,141.589 309.200,140.656 309.200 C 139.723 309.200,138.789 309.363,138.580 309.561 C 138.371 309.760,137.390 310.024,136.400 310.149 C 132.134 310.684,130.978 310.903,130.620 311.241 C 130.411 311.438,129.601 311.603,128.820 311.606 C 128.039 311.609,127.130 311.787,126.800 312.000 C 125.784 312.657,126.869 312.503,135.600 310.752 C 140.110 309.847,144.790 308.939,146.000 308.733 C 148.802 308.256,149.095 307.938,148.066 306.493 C 145.863 303.399,139.628 299.680,134.400 298.342 C 129.763 297.155,119.861 296.273,119.150 296.983"/><path id="path3" fill="#e07b0e" fill-rule="evenodd" stroke="none" d="M73.319 277.362 C 72.615 277.618,71.910 277.957,71.753 278.114 C 71.595 278.271,71.142 278.400,70.745 278.400 C 70.349 278.400,69.389 278.760,68.612 279.200 C 67.835 279.640,66.595 280.343,65.855 280.762 C 64.406 281.584,63.014 282.324,61.905 282.862 C 60.401 283.594,57.164 282.802,56.019 281.423 C 55.067 280.276,53.970 280.769,51.170 283.603 C 48.178 286.630,48.007 287.027,49.157 288.262 C 51.824 291.125,51.823 293.441,49.150 299.077 C 48.022 301.455,46.954 303.760,46.776 304.200 C 45.252 307.972,43.667 317.005,44.171 319.049 C 44.327 319.682,44.604 321.100,44.787 322.200 C 45.199 324.685,45.600 326.053,46.107 326.700 C 46.406 327.082,49.613 327.200,59.698 327.200 L 72.898 327.200 76.281 323.900 C 85.842 314.574,91.311 302.907,91.886 290.607 C 92.183 284.255,92.874 283.696,84.233 296.800 C 80.533 302.410,77.348 307.060,77.153 307.133 C 76.959 307.207,76.800 307.488,76.800 307.758 C 76.800 308.028,76.485 308.598,76.100 309.025 C 75.715 309.451,75.145 310.295,74.832 310.900 C 74.520 311.505,74.115 312.000,73.932 312.000 C 73.750 312.000,73.600 312.238,73.600 312.528 C 73.600 313.312,70.891 316.333,69.580 317.010 C 64.132 319.828,58.552 313.627,61.620 308.165 C 62.695 306.250,69.248 296.344,69.867 295.698 C 70.131 295.421,70.462 294.836,70.601 294.398 C 70.740 293.959,71.022 293.600,71.227 293.600 C 71.432 293.600,71.600 293.364,71.600 293.075 C 71.600 292.787,71.915 292.202,72.300 291.775 C 72.685 291.349,73.255 290.505,73.568 289.900 C 73.880 289.295,74.285 288.800,74.468 288.800 C 74.650 288.800,74.800 288.530,74.800 288.200 C 74.800 287.870,74.980 287.600,75.200 287.600 C 75.420 287.600,75.600 287.412,75.600 287.183 C 75.600 286.954,75.960 286.380,76.400 285.908 C 76.840 285.436,77.200 284.813,77.200 284.525 C 77.200 284.236,77.380 284.000,77.600 284.000 C 77.820 284.000,78.000 283.730,78.000 283.400 C 78.000 283.070,78.168 282.800,78.373 282.800 C 78.578 282.800,78.860 282.441,78.999 282.002 C 79.138 281.564,79.482 280.975,79.764 280.693 C 80.045 280.412,80.755 279.421,81.342 278.491 L 82.410 276.800 78.505 276.848 C 76.357 276.874,74.024 277.105,73.319 277.362 M119.200 297.820 C 116.450 298.103,113.480 298.542,112.600 298.795 C 111.720 299.048,110.550 299.354,110.000 299.474 C 108.595 299.781,108.000 300.696,108.000 302.548 C 108.000 303.425,107.832 304.696,107.627 305.372 C 107.422 306.047,107.038 307.410,106.774 308.400 C 105.132 314.546,101.940 321.566,98.725 326.100 L 97.946 327.200 104.473 327.154 C 108.063 327.128,110.645 327.017,110.211 326.907 C 107.965 326.337,106.046 322.575,106.619 319.866 C 107.311 316.599,109.333 315.272,115.259 314.196 C 117.317 313.822,119.810 313.345,120.800 313.137 C 123.235 312.624,126.263 312.071,128.200 311.786 C 129.080 311.656,130.160 311.393,130.600 311.200 C 131.398 310.850,132.995 310.559,136.400 310.143 C 137.390 310.022,138.371 309.760,138.580 309.561 C 138.789 309.363,139.723 309.200,140.656 309.200 C 141.589 309.200,142.464 309.020,142.600 308.800 C 142.736 308.580,143.536 308.400,144.378 308.400 C 145.220 308.400,146.404 308.143,147.010 307.828 L 148.112 307.257 146.076 305.274 C 142.042 301.345,134.766 298.355,127.995 297.844 C 126.562 297.736,125.122 297.571,124.795 297.477 C 124.468 297.383,121.950 297.537,119.200 297.820 M144.600 321.209 C 143.720 321.379,141.920 321.734,140.600 321.999 C 136.980 322.725,134.356 323.210,132.800 323.441 C 132.030 323.556,131.040 323.807,130.600 324.000 C 129.802 324.350,128.205 324.641,124.800 325.057 C 123.810 325.178,122.829 325.440,122.620 325.639 C 122.411 325.837,121.502 326.000,120.600 326.000 C 119.698 326.000,118.789 326.168,118.580 326.373 C 118.371 326.579,117.480 326.818,116.600 326.906 C 115.720 326.994,121.050 327.096,128.444 327.133 L 141.887 327.200 145.244 324.018 C 148.911 320.542,148.875 320.384,144.600 321.209"/><path id="path4" fill="#6e6454" fill-rule="evenodd" stroke="none" d="M253.419 161.943 C 252.774 163.883,251.773 165.102,250.126 165.950 C 249.488 166.279,228.863 166.403,173.726 166.413 C 107.070 166.424,98.106 166.496,97.402 167.028 C 96.564 167.662,95.962 175.401,96.564 177.801 L 96.815 178.800 198.200 178.800 L 299.585 178.800 299.829 177.829 C 299.963 177.295,300.011 174.883,299.936 172.470 C 299.730 165.825,301.297 166.400,283.397 166.400 C 265.599 166.400,266.450 166.631,264.229 161.200 L 263.656 159.800 263.877 161.200 C 264.707 166.466,265.044 166.565,282.768 166.800 C 300.978 167.041,299.262 166.373,299.112 173.159 L 299.000 178.200 198.100 178.301 L 97.200 178.402 97.200 173.065 C 97.200 167.735,97.201 167.728,98.219 167.264 C 98.980 166.917,118.172 166.800,174.232 166.800 C 237.451 166.800,249.435 166.712,250.560 166.242 C 252.252 165.536,253.828 163.437,254.122 161.500 C 254.431 159.465,254.192 159.615,253.419 161.943 M316.800 182.809 C 314.930 182.990,312.860 183.300,312.200 183.498 L 311.000 183.857 310.891 191.199 C 310.765 199.670,310.677 199.465,314.045 198.576 C 321.908 196.499,338.387 199.456,342.000 203.592 C 342.110 203.718,343.009 204.446,343.999 205.210 C 346.976 207.510,347.170 207.698,349.494 210.527 C 357.305 220.033,359.735 232.723,355.941 244.200 C 354.096 249.782,349.409 257.012,345.937 259.634 C 344.487 260.729,342.300 262.484,342.000 262.794 C 341.890 262.907,340.517 263.671,338.948 264.491 C 334.119 267.016,330.222 268.017,321.600 268.944 C 320.830 269.027,322.240 269.010,324.733 268.906 C 335.837 268.443,346.050 262.507,352.392 252.831 C 354.004 250.370,356.394 245.549,356.410 244.725 C 356.415 244.436,356.791 243.120,357.244 241.800 C 358.453 238.282,358.441 227.639,357.225 224.406 C 356.771 223.199,356.400 221.972,356.400 221.680 C 356.400 220.204,352.331 212.972,350.053 210.400 C 349.371 209.630,348.810 208.881,348.806 208.735 C 348.743 206.113,332.673 197.616,327.755 197.604 C 326.850 197.602,325.225 197.432,324.145 197.227 C 322.754 196.964,320.897 197.029,317.790 197.449 C 315.376 197.776,313.040 198.079,312.600 198.122 C 311.828 198.197,311.800 197.959,311.800 191.229 L 311.800 184.258 312.895 183.965 C 334.831 178.098,361.628 193.500,369.608 216.562 C 378.865 243.316,363.199 274.380,337.000 281.218 C 336.340 281.390,334.810 281.796,333.600 282.120 C 326.376 284.056,316.508 283.845,309.200 281.600 C 308.650 281.431,307.390 281.061,306.400 280.777 C 304.029 280.097,303.878 279.928,304.431 278.561 C 304.689 277.922,305.045 277.040,305.223 276.600 C 305.401 276.160,305.761 275.080,306.023 274.200 C 306.284 273.320,306.656 272.287,306.849 271.905 C 307.042 271.523,307.200 270.769,307.200 270.229 C 307.200 269.689,307.380 269.136,307.600 269.000 C 307.820 268.864,308.000 268.313,308.000 267.776 C 308.000 266.572,308.056 266.572,311.885 267.795 C 313.882 268.433,315.861 268.777,317.400 268.755 L 319.800 268.721 316.600 268.207 C 314.840 267.925,312.590 267.416,311.600 267.077 C 308.297 265.947,307.945 266.007,307.361 267.800 C 302.787 281.862,302.688 280.313,308.267 281.943 C 318.176 284.839,329.022 284.504,339.510 280.978 C 343.008 279.801,351.144 275.408,352.400 274.017 C 352.510 273.895,353.243 273.316,354.030 272.731 C 359.726 268.490,365.877 260.329,368.939 252.950 C 370.476 249.246,370.881 247.889,372.359 241.494 C 372.602 240.446,372.800 236.714,372.800 233.200 C 372.800 229.686,372.602 225.954,372.359 224.906 C 370.881 218.511,370.476 217.154,368.939 213.450 C 365.897 206.118,359.770 197.949,354.200 193.797 C 353.320 193.141,352.510 192.502,352.400 192.376 C 347.179 186.406,329.292 181.599,316.800 182.809 M96.560 191.017 C 96.420 191.576,96.402 204.761,96.521 220.317 C 96.751 250.382,96.731 250.063,99.172 262.000 C 100.548 268.732,103.200 276.012,107.876 285.900 C 108.580 287.388,108.379 287.359,112.600 286.588 C 117.166 285.754,126.000 285.430,129.600 285.963 C 135.078 286.775,138.740 287.529,139.400 287.982 C 139.620 288.132,140.610 288.508,141.600 288.817 C 150.245 291.512,161.600 302.249,161.600 307.729 C 161.600 308.025,161.735 308.401,161.899 308.566 C 162.332 308.999,163.131 313.849,163.168 316.269 C 163.226 320.059,162.090 324.501,159.880 329.126 C 158.088 332.877,158.043 332.744,161.569 334.165 L 164.138 335.200 198.208 335.200 C 226.704 335.200,232.467 335.108,233.439 334.636 C 234.077 334.326,236.220 333.410,238.200 332.601 C 241.504 331.251,244.149 329.931,248.100 327.662 C 248.925 327.188,250.274 326.418,251.098 325.952 C 252.824 324.974,256.105 322.774,256.400 322.396 C 256.510 322.255,257.680 321.404,259.000 320.505 C 260.320 319.605,262.210 318.141,263.200 317.250 C 264.190 316.358,266.174 314.591,267.608 313.323 C 269.043 312.054,271.293 309.795,272.608 308.303 C 273.924 306.810,275.518 305.007,276.150 304.295 C 281.494 298.278,288.697 286.403,292.038 278.100 C 292.966 275.793,293.150 275.310,293.600 274.000 C 293.864 273.230,294.224 272.240,294.400 271.800 C 295.750 268.417,297.749 260.027,298.832 253.200 C 299.696 247.752,300.566 193.911,299.837 191.007 L 299.585 190.000 198.200 190.000 L 96.815 190.000 96.560 191.017 M299.117 217.400 C 299.244 246.629,298.957 252.210,296.913 260.200 C 296.576 261.520,296.213 263.276,296.108 264.103 C 296.002 264.929,295.755 265.705,295.558 265.826 C 295.361 265.948,295.197 266.442,295.194 266.924 C 295.187 267.881,294.313 270.620,293.874 271.059 C 293.723 271.210,293.600 271.666,293.600 272.072 C 293.600 272.786,293.451 273.183,292.462 275.095 C 292.208 275.587,292.000 276.236,292.000 276.538 C 292.000 276.840,291.478 278.148,290.841 279.444 C 290.203 280.740,289.184 282.880,288.577 284.200 C 286.991 287.642,280.974 297.613,280.007 298.400 C 279.872 298.510,279.323 299.230,278.786 300.000 C 276.447 303.360,270.195 310.207,266.186 313.800 C 264.468 315.340,262.853 316.809,262.596 317.064 C 261.763 317.892,252.220 324.690,250.587 325.619 C 243.521 329.638,241.026 330.864,234.831 333.364 L 232.262 334.400 197.980 334.400 C 167.293 334.400,163.535 334.332,162.149 333.752 C 161.297 333.396,160.192 332.949,159.692 332.759 C 158.822 332.428,158.972 331.350,160.021 330.400 C 162.409 328.237,164.675 314.393,163.242 310.719 C 163.045 310.213,162.653 308.990,162.372 308.000 C 162.091 307.010,161.712 306.029,161.530 305.820 C 161.349 305.611,161.200 305.116,161.200 304.720 C 161.200 304.324,161.020 304.000,160.800 304.000 C 160.580 304.000,160.400 303.810,160.400 303.578 C 160.400 300.957,152.031 293.012,146.173 290.071 C 137.590 285.761,121.201 283.868,111.559 286.073 L 108.919 286.677 107.602 283.839 C 106.877 282.277,105.784 279.920,105.171 278.600 C 101.811 271.354,98.355 257.581,97.594 248.404 C 97.384 245.872,97.210 231.785,97.206 217.099 L 97.200 190.398 198.100 190.499 L 299.000 190.600 299.117 217.400 M302.014 341.174 C 301.786 341.599,301.600 342.223,301.600 342.560 C 301.600 342.897,300.964 343.809,300.187 344.586 L 298.774 345.999 163.087 346.099 L 27.400 346.200 27.400 348.184 L 27.400 350.168 32.000 351.076 C 34.530 351.575,37.680 352.168,39.000 352.393 C 40.320 352.619,42.300 352.982,43.400 353.200 C 44.500 353.418,46.390 353.778,47.600 354.000 C 48.810 354.222,50.700 354.583,51.800 354.802 C 54.227 355.285,57.508 355.910,60.200 356.403 C 61.300 356.604,63.100 356.950,64.200 357.171 C 66.369 357.608,68.846 358.084,72.600 358.784 C 73.920 359.030,75.900 359.411,77.000 359.631 C 78.100 359.851,79.900 360.197,81.000 360.400 C 83.660 360.890,86.496 361.423,89.300 361.960 C 90.565 362.202,92.635 362.597,93.900 362.837 C 95.165 363.077,96.920 363.418,97.800 363.593 C 98.680 363.769,101.020 364.208,103.000 364.568 C 104.980 364.929,107.897 365.489,109.483 365.812 C 111.967 366.319,124.247 366.400,198.112 366.400 L 283.859 366.400 289.029 365.402 C 291.873 364.853,295.280 364.211,296.600 363.975 C 297.920 363.740,299.720 363.391,300.600 363.200 C 301.480 363.009,303.370 362.649,304.800 362.400 C 306.230 362.151,308.120 361.793,309.000 361.606 C 309.880 361.418,311.590 361.076,312.800 360.846 C 314.010 360.615,315.540 360.320,316.200 360.189 C 317.992 359.833,320.707 359.322,323.400 358.832 C 324.720 358.593,326.700 358.217,327.800 357.998 C 328.900 357.779,330.790 357.413,332.000 357.184 C 333.210 356.956,335.010 356.610,336.000 356.416 C 336.990 356.222,338.880 355.862,340.200 355.616 C 341.520 355.370,343.410 355.011,344.400 354.819 C 345.390 354.626,347.280 354.272,348.600 354.032 C 349.920 353.793,351.810 353.437,352.800 353.242 C 353.790 353.047,356.220 352.592,358.200 352.232 C 362.887 351.378,367.618 350.426,368.500 350.158 C 369.330 349.907,369.489 347.249,368.720 346.480 C 368.356 346.116,361.905 346.000,342.133 346.000 L 316.027 346.000 314.598 344.571 C 313.811 343.785,313.062 342.611,312.933 341.963 C 312.803 341.314,312.559 340.698,312.391 340.594 C 311.896 340.289,312.663 343.131,313.364 344.201 C 314.974 346.658,314.108 346.581,342.600 346.800 L 368.600 347.000 368.726 348.303 C 368.871 349.809,369.277 349.629,363.200 350.749 C 360.670 351.215,355.810 352.126,352.400 352.773 C 348.990 353.421,342.780 354.589,338.600 355.368 C 334.420 356.147,330.190 356.954,329.200 357.160 C 328.210 357.366,326.230 357.741,324.800 357.994 C 323.370 358.247,321.480 358.607,320.600 358.794 C 318.871 359.162,315.393 359.832,312.200 360.411 C 311.100 360.610,309.660 360.880,309.000 361.011 C 307.208 361.367,304.493 361.878,301.800 362.368 C 300.480 362.607,298.590 362.966,297.600 363.165 C 296.610 363.363,294.765 363.723,293.500 363.963 C 292.235 364.203,290.165 364.624,288.900 364.898 C 285.473 365.640,110.857 365.623,107.400 364.880 C 104.780 364.318,102.304 363.835,98.600 363.165 C 96.146 362.722,93.594 362.243,90.400 361.627 C 87.976 361.160,84.493 360.494,81.700 359.963 C 80.435 359.723,78.590 359.363,77.600 359.165 C 76.610 358.966,74.810 358.623,73.600 358.402 C 71.023 357.932,68.931 357.537,63.200 356.440 C 55.053 354.881,43.749 352.738,39.400 351.930 C 36.980 351.480,34.190 350.947,33.200 350.746 C 32.210 350.544,30.545 350.271,29.500 350.139 C 27.602 349.899,27.600 349.896,27.600 348.351 L 27.600 346.805 162.900 346.702 C 289.338 346.607,298.281 346.555,299.441 345.920 C 300.900 345.121,302.001 343.569,302.417 341.723 C 302.755 340.225,302.620 340.041,302.014 341.174 M118.700 377.476 C 118.077 377.638,118.000 378.251,118.000 383.030 L 118.000 388.402 198.100 388.301 L 278.200 388.200 278.313 383.204 C 278.412 378.855,278.337 378.143,277.737 377.704 C 277.064 377.212,120.568 376.988,118.700 377.476 M277.600 383.200 L 277.600 388.000 198.200 388.000 L 118.800 388.000 118.800 383.200 L 118.800 378.400 198.200 378.400 L 277.600 378.400 277.600 383.200"/></g></svg>