<svg xmlns="http://www.w3.org/2000/svg" xmlns:xlink="http://www.w3.org/1999/xlink" id="svg" width="400" height="400" version="1.1" viewBox="0 0 400 400"><g id="svgg"><path id="path0" fill="#60ccf8" fill-rule="evenodd" stroke="none" d="M165.200 16.555 C 161.716 17.444,159.232 19.225,157.352 22.182 C 155.818 24.595,155.612 25.998,155.606 34.100 L 155.600 42.000 244.236 42.000 L 332.871 42.000 332.736 33.900 C 332.540 22.201,330.485 18.537,323.000 16.542 C 320.285 15.819,168.035 15.831,165.200 16.555 M339.967 67.366 C 338.476 69.893,332.450 79.380,332.017 79.883 C 331.787 80.149,331.600 80.472,331.600 80.601 C 331.600 80.730,330.700 82.170,329.600 83.800 C 328.500 85.430,327.600 86.952,327.600 87.182 C 327.600 87.412,327.420 87.600,327.200 87.600 C 326.980 87.600,326.800 87.870,326.800 88.200 C 326.800 88.530,326.620 88.800,326.400 88.800 C 326.180 88.800,326.000 89.070,326.000 89.400 C 326.000 89.730,325.820 90.000,325.600 90.000 C 325.380 90.000,325.200 90.183,325.200 90.406 C 325.200 90.630,324.599 91.755,323.864 92.906 C 318.785 100.867,316.800 104.104,316.800 104.428 C 316.800 104.633,316.620 104.800,316.400 104.800 C 316.180 104.800,316.000 105.036,316.000 105.325 C 316.000 105.613,315.640 106.236,315.200 106.708 C 314.760 107.180,314.400 107.720,314.400 107.908 C 314.400 108.096,314.085 108.606,313.700 109.042 C 312.812 110.047,311.617 111.991,311.329 112.900 C 311.207 113.285,310.948 113.600,310.753 113.600 C 310.559 113.600,310.400 113.870,310.400 114.200 C 310.400 114.530,310.220 114.800,310.000 114.800 C 309.780 114.800,309.600 115.070,309.600 115.400 C 309.600 115.730,309.420 116.000,309.200 116.000 C 308.980 116.000,308.800 116.163,308.800 116.362 C 308.800 116.562,306.888 119.757,304.551 123.462 C 302.215 127.168,299.948 130.830,299.514 131.600 C 299.080 132.370,298.562 133.171,298.362 133.380 C 298.147 133.605,298.000 184.691,298.000 258.880 L 298.000 384.000 324.600 384.000 L 351.200 384.000 351.200 350.838 C 351.200 318.108,351.211 317.656,352.025 316.138 C 352.945 314.421,355.495 312.400,356.740 312.400 C 357.187 312.400,357.664 312.220,357.800 312.000 C 357.936 311.780,358.656 311.600,359.400 311.600 C 360.144 311.600,360.864 311.780,361.000 312.000 C 361.136 312.220,361.613 312.400,362.060 312.400 C 363.305 312.400,365.855 314.421,366.775 316.138 C 367.589 317.656,367.600 318.108,367.600 350.838 L 367.600 384.000 375.800 384.000 L 384.000 384.000 384.000 259.047 L 384.000 134.093 382.100 131.029 C 381.055 129.343,379.525 126.874,378.700 125.542 C 377.875 124.210,377.200 122.958,377.200 122.760 C 377.200 122.562,377.020 122.400,376.800 122.400 C 376.580 122.400,376.400 122.130,376.400 121.800 C 376.400 121.470,376.220 121.200,376.000 121.200 C 375.780 121.200,375.600 120.930,375.600 120.600 C 375.600 120.270,375.420 120.000,375.200 120.000 C 374.980 120.000,374.800 119.730,374.800 119.400 C 374.800 119.070,374.620 118.800,374.400 118.800 C 374.180 118.800,374.000 118.607,374.000 118.372 C 374.000 118.137,373.460 117.159,372.800 116.200 C 372.140 115.241,371.600 114.346,371.600 114.211 C 371.600 114.077,371.240 113.580,370.800 113.108 C 370.360 112.636,370.000 112.013,370.000 111.725 C 370.000 111.436,369.820 111.200,369.600 111.200 C 369.380 111.200,369.200 111.018,369.200 110.795 C 369.200 110.573,368.409 109.178,367.443 107.695 C 364.215 102.742,360.800 97.121,360.800 96.758 C 360.800 96.561,360.620 96.400,360.400 96.400 C 360.180 96.400,360.000 96.130,360.000 95.800 C 360.000 95.470,359.820 95.200,359.600 95.200 C 359.380 95.200,359.200 94.930,359.200 94.600 C 359.200 94.270,359.041 94.000,358.847 94.000 C 358.652 94.000,358.393 93.685,358.271 93.300 C 357.983 92.391,356.788 90.447,355.900 89.442 C 355.515 89.006,355.200 88.413,355.200 88.125 C 355.200 87.836,355.020 87.600,354.800 87.600 C 354.580 87.600,354.400 87.364,354.400 87.075 C 354.400 86.787,354.040 86.164,353.600 85.692 C 353.160 85.220,352.800 84.754,352.800 84.657 C 352.800 84.560,351.731 82.797,350.423 80.740 C 346.195 74.085,343.816 70.224,343.252 69.100 C 342.948 68.495,342.543 68.000,342.350 68.000 C 342.158 68.000,342.000 67.752,342.000 67.449 C 342.000 65.958,340.826 65.910,339.967 67.366 M104.268 139.466 C 104.120 139.613,104.000 151.493,104.000 165.867 L 104.000 192.000 121.228 192.000 L 138.456 192.000 140.219 193.213 C 143.260 195.306,144.000 197.090,144.000 202.335 L 144.000 206.800 212.802 206.800 L 281.605 206.800 281.502 173.100 L 281.400 139.400 192.968 139.299 C 144.330 139.244,104.415 139.319,104.268 139.466 M363.713 284.631 C 364.971 285.418,366.000 286.318,366.000 286.631 C 366.000 286.944,366.135 287.201,366.300 287.203 C 366.944 287.210,367.600 289.470,367.600 291.684 C 367.600 299.721,356.962 302.748,352.500 295.981 C 351.409 294.326,351.200 293.636,351.200 291.684 C 351.200 289.470,351.856 287.210,352.500 287.203 C 352.665 287.201,352.800 286.944,352.800 286.631 C 352.800 285.483,357.193 283.200,359.400 283.200 C 361.030 283.200,361.872 283.479,363.713 284.631 M143.856 337.500 C 143.702 357.574,143.519 361.783,142.761 362.580 C 142.563 362.789,142.400 363.376,142.400 363.885 C 142.400 364.394,142.238 365.123,142.039 365.505 C 141.840 365.887,141.442 367.010,141.153 368.000 C 140.041 371.810,135.458 379.754,132.672 382.700 L 131.443 384.000 206.522 384.000 L 281.600 384.000 281.600 350.400 L 281.600 316.800 212.807 316.800 L 144.014 316.800 143.856 337.500"/><path id="path1" fill="#e4f7fb" fill-rule="evenodd" stroke="none" d="M151.349 59.100 C 150.981 59.705,149.897 61.413,148.940 62.895 C 147.983 64.378,147.200 65.690,147.200 65.812 C 147.200 65.934,146.840 66.420,146.400 66.892 C 145.960 67.364,145.600 67.987,145.600 68.275 C 145.600 68.564,145.420 68.800,145.200 68.800 C 144.980 68.800,144.800 68.990,144.800 69.222 C 144.800 69.454,144.080 70.704,143.200 72.000 C 142.320 73.296,141.600 74.464,141.600 74.595 C 141.600 74.726,141.413 75.051,141.185 75.317 C 140.957 75.583,139.493 77.870,137.931 80.400 C 136.369 82.930,134.126 86.483,132.946 88.296 C 131.765 90.109,130.800 91.691,130.800 91.813 C 130.800 91.934,130.440 92.420,130.000 92.892 C 129.560 93.364,129.200 93.987,129.200 94.275 C 129.200 94.564,129.020 94.800,128.800 94.800 C 128.580 94.800,128.400 94.988,128.400 95.218 C 128.400 95.448,127.528 96.933,126.462 98.518 C 125.396 100.103,124.451 101.590,124.362 101.823 C 124.180 102.298,119.806 109.275,116.543 114.296 C 115.364 116.109,114.400 117.774,114.400 117.996 C 114.400 118.218,114.220 118.400,114.000 118.400 C 113.780 118.400,113.600 118.670,113.600 119.000 C 113.600 119.330,113.420 119.600,113.200 119.600 C 112.980 119.600,112.796 119.825,112.791 120.100 C 112.786 120.375,112.430 121.050,112.000 121.600 C 111.570 122.150,111.214 122.735,111.209 122.900 C 111.184 123.728,285.137 123.229,285.400 122.400 C 285.540 121.960,285.822 121.600,286.027 121.600 C 286.232 121.600,286.400 121.412,286.400 121.182 C 286.400 120.952,287.300 119.430,288.400 117.800 C 289.500 116.170,290.400 114.648,290.400 114.418 C 290.400 114.188,290.580 114.000,290.800 114.000 C 291.020 114.000,291.200 113.764,291.200 113.475 C 291.200 113.187,291.560 112.564,292.000 112.092 C 292.440 111.620,292.800 111.126,292.800 110.995 C 292.800 110.864,293.520 109.696,294.400 108.400 C 295.280 107.104,296.000 105.935,296.000 105.803 C 296.000 105.671,297.350 103.492,299.000 100.961 C 300.650 98.430,302.000 96.271,302.000 96.162 C 302.000 96.053,302.900 94.630,304.000 93.000 C 305.100 91.370,306.000 89.942,306.000 89.828 C 306.000 89.714,289.305 89.570,268.900 89.510 C 235.203 89.410,231.690 89.339,230.600 88.736 C 225.468 85.895,224.742 78.820,229.181 74.900 C 229.742 74.406,230.425 74.001,230.700 74.000 C 230.975 74.000,231.200 73.820,231.200 73.600 C 231.200 73.336,245.712 73.200,273.936 73.200 L 316.672 73.200 317.133 72.300 C 317.661 71.271,317.898 70.892,320.500 66.929 C 321.545 65.338,322.400 63.848,322.400 63.618 C 322.400 63.388,322.580 63.200,322.800 63.200 C 323.020 63.200,323.200 62.964,323.200 62.675 C 323.200 62.387,323.515 61.793,323.900 61.355 C 324.783 60.351,325.600 58.934,325.600 58.405 C 325.600 58.133,297.178 58.000,238.809 58.000 L 152.018 58.000 151.349 59.100 M16.000 234.176 L 16.000 260.356 40.900 260.478 L 65.800 260.600 67.664 261.894 C 72.816 265.473,72.638 272.237,67.302 275.621 L 65.443 276.800 40.722 276.800 L 16.000 276.800 16.000 314.079 C 16.000 353.481,16.078 355.446,17.875 361.382 C 20.171 368.963,25.998 375.965,33.317 379.935 C 40.273 383.708,43.050 383.998,72.200 383.997 C 100.747 383.995,104.246 383.628,110.414 379.991 C 111.526 379.336,112.537 378.800,112.662 378.800 C 112.910 378.800,116.500 375.883,117.830 374.600 C 120.779 371.757,125.600 364.287,125.600 362.561 C 125.600 362.246,125.762 361.677,125.961 361.295 C 127.737 357.879,127.768 356.486,127.784 280.200 L 127.800 208.200 71.900 208.099 L 16.000 207.997 16.000 234.176 M144.092 231.668 L 144.200 240.535 145.400 241.239 C 147.227 242.309,147.259 242.289,150.766 237.796 C 154.582 232.907,156.067 231.920,159.604 231.920 C 162.790 231.920,165.828 233.895,167.031 236.749 C 168.106 239.298,167.850 284.832,166.748 287.108 C 163.507 293.803,153.483 292.711,151.658 285.464 C 151.372 284.329,151.200 279.711,151.200 273.174 C 151.200 263.766,151.137 262.754,150.581 263.216 C 150.193 263.538,148.847 263.723,146.981 263.711 L 144.000 263.692 144.000 282.046 L 144.000 300.400 212.800 300.400 L 281.600 300.400 281.600 261.600 L 281.600 222.800 212.792 222.800 L 143.985 222.800 144.092 231.668 M190.657 232.890 C 191.775 233.461,192.718 234.403,193.557 235.787 L 194.800 237.839 194.800 261.784 L 194.800 285.730 193.791 287.452 C 191.583 291.220,185.995 292.986,183.200 290.800 C 182.650 290.370,182.052 290.014,181.871 290.009 C 181.383 289.996,180.682 289.183,179.688 287.477 L 178.800 285.954 178.800 261.712 L 178.800 237.470 179.796 235.770 C 182.001 232.008,186.560 230.799,190.657 232.890 M216.750 233.320 C 217.701 233.948,218.671 235.095,219.252 236.274 L 220.200 238.200 220.315 256.900 L 220.430 275.600 223.820 275.600 C 227.615 275.600,228.257 275.850,230.634 278.251 C 233.785 281.433,233.590 288.150,230.307 289.536 C 230.130 289.610,229.757 289.880,229.477 290.136 C 227.994 291.490,227.171 291.600,218.505 291.599 C 208.866 291.597,208.399 291.490,205.892 288.704 C 204.192 286.815,204.200 286.947,204.200 261.200 L 204.200 237.000 205.128 235.699 C 207.978 231.703,212.812 230.714,216.750 233.320 M253.252 233.033 C 254.905 234.076,255.995 235.495,256.862 237.732 L 257.457 239.264 258.480 237.932 C 263.906 230.870,270.063 229.805,274.088 235.231 C 275.437 237.049,275.944 243.200,274.744 243.200 C 274.555 243.200,274.393 243.425,274.384 243.700 C 274.360 244.429,266.207 254.766,262.335 258.978 C 259.843 261.688,259.607 261.108,266.772 269.874 C 270.335 274.233,273.465 278.073,273.726 278.406 C 277.789 283.592,274.246 291.600,267.887 291.600 C 264.264 291.600,262.541 290.565,259.009 286.268 L 257.421 284.337 256.862 285.668 C 255.710 288.414,255.248 289.033,253.403 290.300 C 249.553 292.944,244.993 291.865,241.987 287.600 L 241.000 286.200 241.000 261.800 L 241.000 237.400 242.319 235.501 C 244.872 231.823,249.633 230.748,253.252 233.033 M103.006 261.726 C 109.706 266.279,106.771 276.800,98.800 276.800 C 93.705 276.800,88.744 270.445,90.753 266.495 C 90.948 266.113,91.353 265.275,91.653 264.633 C 93.306 261.106,99.688 259.472,103.006 261.726"/><path id="path2" fill="#040404" fill-rule="evenodd" stroke="none" d="M160.200 0.288 C 159.540 0.383,158.829 0.628,158.620 0.831 C 158.411 1.034,157.818 1.200,157.303 1.200 C 156.788 1.200,155.980 1.560,155.508 2.000 C 155.036 2.440,154.413 2.800,154.125 2.800 C 153.836 2.800,153.600 2.980,153.600 3.200 C 153.600 3.420,153.240 3.600,152.800 3.600 C 152.360 3.600,152.000 3.780,152.000 4.000 C 152.000 4.220,151.731 4.400,151.402 4.400 C 150.702 4.400,144.000 10.866,144.000 11.541 C 144.000 11.794,143.853 12.000,143.674 12.000 C 143.276 12.000,142.000 14.601,142.000 15.414 C 142.000 15.736,141.820 16.000,141.600 16.000 C 141.380 16.000,141.200 16.360,141.200 16.800 C 141.200 17.240,141.020 17.600,140.800 17.600 C 140.580 17.600,140.400 18.140,140.400 18.800 C 140.400 19.460,140.220 20.000,140.000 20.000 C 139.780 20.000,139.600 20.900,139.600 22.000 C 139.600 23.100,139.420 24.000,139.200 24.000 C 138.942 24.000,138.800 28.200,138.800 35.800 C 138.800 43.400,138.658 47.600,138.400 47.600 C 138.180 47.600,138.000 47.870,138.000 48.200 C 138.000 48.530,137.820 48.800,137.600 48.800 C 137.380 48.800,137.200 49.120,137.200 49.512 C 137.200 49.903,136.840 50.483,136.400 50.800 C 135.960 51.117,135.600 51.657,135.600 52.000 C 135.600 52.343,135.240 52.883,134.800 53.200 C 134.360 53.517,134.000 54.097,134.000 54.488 C 134.000 54.880,133.820 55.200,133.600 55.200 C 133.380 55.200,133.200 55.436,133.200 55.725 C 133.200 56.013,132.885 56.598,132.500 57.025 C 132.115 57.451,131.545 58.295,131.232 58.900 C 130.920 59.505,130.515 60.000,130.332 60.000 C 130.150 60.000,130.000 60.270,130.000 60.600 C 130.000 60.930,129.841 61.200,129.647 61.200 C 129.452 61.200,129.193 61.515,129.071 61.900 C 128.866 62.547,127.813 64.402,127.094 65.383 C 125.855 67.075,124.800 68.929,124.800 69.418 C 124.800 69.738,124.620 70.000,124.400 70.000 C 124.180 70.000,124.000 70.320,124.000 70.712 C 124.000 71.103,123.640 71.683,123.200 72.000 C 122.760 72.317,122.400 72.857,122.400 73.200 C 122.400 73.543,122.040 74.083,121.600 74.400 C 121.160 74.717,120.800 75.207,120.800 75.488 C 120.800 75.770,120.620 76.000,120.400 76.000 C 120.180 76.000,120.000 76.236,120.000 76.525 C 120.000 76.813,119.640 77.436,119.200 77.908 C 118.760 78.380,118.400 79.004,118.400 79.295 C 118.400 79.586,118.040 80.083,117.600 80.400 C 117.160 80.717,116.800 81.214,116.800 81.505 C 116.800 81.796,116.440 82.420,116.000 82.892 C 115.560 83.364,115.200 83.987,115.200 84.275 C 115.200 84.564,115.020 84.800,114.800 84.800 C 114.580 84.800,114.400 85.120,114.400 85.512 C 114.400 85.903,114.040 86.483,113.600 86.800 C 113.160 87.117,112.800 87.614,112.800 87.905 C 112.800 88.196,112.440 88.820,112.000 89.292 C 111.560 89.764,111.200 90.387,111.200 90.675 C 111.200 90.964,111.020 91.200,110.800 91.200 C 110.580 91.200,110.400 91.372,110.400 91.582 C 110.400 91.950,108.845 94.484,108.006 95.483 C 107.783 95.749,107.600 96.161,107.600 96.400 C 107.600 96.638,107.240 97.220,106.800 97.692 C 106.360 98.164,106.000 98.787,106.000 99.075 C 106.000 99.364,105.820 99.600,105.600 99.600 C 105.380 99.600,105.200 99.920,105.200 100.312 C 105.200 100.703,104.840 101.283,104.400 101.600 C 103.960 101.917,103.600 102.457,103.600 102.800 C 103.600 103.143,103.240 103.683,102.800 104.000 C 102.360 104.317,102.000 104.897,102.000 105.288 C 102.000 105.680,101.820 106.000,101.600 106.000 C 101.380 106.000,101.200 106.236,101.200 106.525 C 101.200 106.813,100.840 107.436,100.400 107.908 C 99.960 108.380,99.600 108.954,99.600 109.183 C 99.600 109.412,99.420 109.600,99.200 109.600 C 98.980 109.600,98.800 109.870,98.800 110.200 C 98.800 110.530,98.620 110.800,98.400 110.800 C 98.180 110.800,98.000 111.070,98.000 111.400 C 98.000 111.730,97.820 112.000,97.600 112.000 C 97.380 112.000,97.200 112.236,97.200 112.525 C 97.200 112.813,96.840 113.436,96.400 113.908 C 95.960 114.380,95.600 114.962,95.600 115.200 C 95.600 115.438,95.240 116.020,94.800 116.492 C 94.360 116.964,94.000 117.587,94.000 117.875 C 94.000 118.164,93.852 118.400,93.670 118.400 C 93.489 118.400,92.842 119.480,92.232 120.800 C 91.623 122.120,90.961 123.200,90.762 123.200 C 90.563 123.200,90.400 123.494,90.400 123.853 C 90.400 124.212,90.085 124.799,89.700 125.157 C 88.611 126.171,88.000 127.477,88.000 128.795 C 88.000 129.458,87.820 130.000,87.600 130.000 C 87.337 130.000,87.200 140.533,87.200 160.800 L 87.200 191.600 47.256 191.600 C 2.157 191.600,4.348 191.499,1.947 193.693 L 0.200 195.290 0.200 279.312 C 0.200 346.174,0.302 363.367,0.700 363.500 C 0.987 363.596,1.200 364.336,1.200 365.233 C 1.200 366.095,1.380 366.800,1.600 366.800 C 1.820 366.800,2.000 367.239,2.000 367.776 C 2.000 368.313,2.180 368.864,2.400 369.000 C 2.620 369.136,2.800 369.597,2.800 370.024 C 2.800 370.451,2.980 370.800,3.200 370.800 C 3.420 370.800,3.600 371.160,3.600 371.600 C 3.600 372.040,3.780 372.400,4.000 372.400 C 4.220 372.400,4.400 372.760,4.400 373.200 C 4.400 373.640,4.580 374.000,4.800 374.000 C 5.020 374.000,5.200 374.270,5.200 374.600 C 5.200 374.930,5.380 375.200,5.600 375.200 C 5.820 375.200,6.000 375.560,6.000 376.000 C 6.000 376.440,6.180 376.800,6.400 376.800 C 6.620 376.800,6.800 377.120,6.800 377.512 C 6.800 377.903,7.160 378.483,7.600 378.800 C 8.040 379.117,8.400 379.620,8.400 379.917 C 8.400 380.214,8.625 380.703,8.900 381.004 C 9.175 381.305,10.030 382.323,10.800 383.267 C 13.587 386.683,19.011 391.586,20.012 391.595 C 20.348 391.598,20.883 391.960,21.200 392.400 C 21.517 392.840,22.097 393.200,22.488 393.200 C 22.880 393.200,23.200 393.380,23.200 393.600 C 23.200 393.820,23.560 394.000,24.000 394.000 C 24.440 394.000,24.800 394.180,24.800 394.400 C 24.800 394.620,25.070 394.800,25.400 394.800 C 25.730 394.800,26.000 394.980,26.000 395.200 C 26.000 395.420,26.360 395.600,26.800 395.600 C 27.240 395.600,27.600 395.780,27.600 396.000 C 27.600 396.220,27.960 396.400,28.400 396.400 C 28.840 396.400,29.200 396.580,29.200 396.800 C 29.200 397.020,29.549 397.200,29.976 397.200 C 30.403 397.200,30.864 397.380,31.000 397.600 C 31.136 397.820,31.687 398.000,32.224 398.000 C 32.761 398.000,33.200 398.180,33.200 398.400 C 33.200 398.620,33.905 398.800,34.767 398.800 C 35.664 398.800,36.404 399.013,36.500 399.300 C 36.633 399.699,73.071 399.821,216.540 399.903 L 396.414 400.007 398.209 398.212 L 400.003 396.418 399.902 261.342 C 399.821 153.710,399.698 126.233,399.300 126.100 C 399.025 126.008,398.800 125.678,398.800 125.367 C 398.800 125.055,398.620 124.800,398.400 124.800 C 398.180 124.800,398.000 124.480,398.000 124.088 C 398.000 123.697,397.640 123.117,397.200 122.800 C 396.760 122.483,396.400 121.943,396.400 121.600 C 396.400 121.257,396.040 120.717,395.600 120.400 C 395.160 120.083,394.800 119.503,394.800 119.112 C 394.800 118.720,394.620 118.400,394.400 118.400 C 394.180 118.400,394.000 118.130,394.000 117.800 C 394.000 117.470,393.820 117.200,393.600 117.200 C 393.380 117.200,393.200 116.930,393.200 116.600 C 393.200 116.270,393.020 116.000,392.800 116.000 C 392.580 116.000,392.400 115.640,392.400 115.200 C 392.400 114.760,392.253 114.400,392.074 114.400 C 391.895 114.400,391.443 113.815,391.071 113.100 C 390.000 111.044,388.661 108.892,387.900 108.006 C 387.515 107.558,387.200 106.963,387.200 106.684 C 387.200 106.405,386.840 105.917,386.400 105.600 C 385.960 105.283,385.600 104.703,385.600 104.312 C 385.600 103.920,385.420 103.600,385.200 103.600 C 384.980 103.600,384.800 103.364,384.800 103.075 C 384.800 102.787,384.440 102.164,384.000 101.692 C 383.560 101.220,383.200 100.596,383.200 100.305 C 383.200 100.014,382.840 99.517,382.400 99.200 C 381.960 98.883,381.600 98.386,381.600 98.095 C 381.600 97.804,381.240 97.180,380.800 96.708 C 380.360 96.236,380.000 95.613,380.000 95.325 C 380.000 95.036,379.820 94.800,379.600 94.800 C 379.380 94.800,379.200 94.530,379.200 94.200 C 379.200 93.870,379.020 93.600,378.800 93.600 C 378.580 93.600,378.400 93.330,378.400 93.000 C 378.400 92.670,378.220 92.400,378.000 92.400 C 377.780 92.400,377.600 92.170,377.600 91.888 C 377.600 91.607,377.240 91.117,376.800 90.800 C 376.360 90.483,376.000 89.903,376.000 89.512 C 376.000 89.120,375.820 88.800,375.600 88.800 C 375.380 88.800,375.200 88.468,375.200 88.061 C 375.200 87.655,374.845 86.913,374.412 86.414 C 373.978 85.914,373.516 85.166,373.385 84.752 C 373.254 84.339,372.978 84.000,372.773 84.000 C 372.568 84.000,372.400 83.722,372.400 83.383 C 372.400 83.044,372.040 82.380,371.600 81.908 C 371.160 81.436,370.800 80.813,370.800 80.525 C 370.800 80.236,370.620 80.000,370.400 80.000 C 370.180 80.000,370.000 79.764,370.000 79.475 C 370.000 79.187,369.640 78.564,369.200 78.092 C 368.760 77.620,368.400 77.074,368.400 76.879 C 368.400 76.684,368.040 76.198,367.600 75.800 C 367.160 75.402,366.800 74.834,366.800 74.538 C 366.800 74.242,366.620 74.000,366.400 74.000 C 366.180 74.000,366.000 73.680,366.000 73.288 C 366.000 72.897,365.640 72.317,365.200 72.000 C 364.760 71.683,364.400 71.143,364.400 70.800 C 364.400 70.457,364.040 69.917,363.600 69.600 C 363.160 69.283,362.800 68.703,362.800 68.312 C 362.800 67.920,362.620 67.600,362.400 67.600 C 362.180 67.600,362.000 67.364,362.000 67.075 C 362.000 66.787,361.640 66.164,361.200 65.692 C 360.760 65.220,360.400 64.596,360.400 64.305 C 360.400 64.014,360.040 63.517,359.600 63.200 C 359.160 62.883,358.800 62.325,358.800 61.961 C 358.800 61.596,358.530 61.074,358.200 60.800 C 357.870 60.526,357.600 60.054,357.600 59.751 C 357.600 59.448,357.442 59.200,357.249 59.200 C 357.055 59.200,356.673 58.660,356.400 58.000 C 356.127 57.340,355.745 56.800,355.551 56.800 C 355.358 56.800,355.200 56.480,355.200 56.088 C 355.200 55.697,354.840 55.117,354.400 54.800 C 353.960 54.483,353.600 53.903,353.600 53.512 C 353.600 53.120,353.420 52.800,353.200 52.800 C 352.980 52.800,352.800 52.564,352.800 52.275 C 352.800 51.987,352.440 51.364,352.000 50.892 C 351.560 50.420,351.200 49.796,351.200 49.505 C 351.200 49.214,350.840 48.717,350.400 48.400 C 349.632 47.846,349.600 47.365,349.600 36.312 C 349.600 28.904,349.457 24.800,349.200 24.800 C 348.980 24.800,348.800 23.900,348.800 22.800 C 348.800 21.700,348.620 20.800,348.400 20.800 C 348.180 20.800,348.000 20.260,348.000 19.600 C 348.000 18.940,347.820 18.400,347.600 18.400 C 347.380 18.400,347.200 17.860,347.200 17.200 C 347.200 16.540,347.020 16.000,346.800 16.000 C 346.580 16.000,346.400 15.640,346.400 15.200 C 346.400 14.760,346.220 14.400,346.000 14.400 C 345.780 14.400,345.600 14.130,345.600 13.800 C 345.600 13.470,345.420 13.200,345.200 13.200 C 344.980 13.200,344.800 12.930,344.800 12.600 C 344.800 12.270,344.620 12.000,344.400 12.000 C 344.180 12.000,344.000 11.815,344.000 11.589 C 344.000 10.789,338.612 5.200,337.840 5.200 C 337.585 5.200,337.117 4.840,336.800 4.400 C 336.483 3.960,335.903 3.600,335.512 3.600 C 335.120 3.600,334.800 3.420,334.800 3.200 C 334.800 2.980,334.440 2.800,334.000 2.800 C 333.560 2.800,333.199 2.665,333.197 2.500 C 333.192 2.059,331.181 1.200,330.154 1.200 C 329.666 1.200,329.192 0.975,329.100 0.700 C 328.939 0.216,163.484 -0.187,160.200 0.288 M325.605 16.484 C 331.902 19.580,333.326 22.713,333.521 33.901 L 333.669 42.402 244.134 42.301 L 154.600 42.200 154.475 35.600 C 154.265 24.577,156.196 19.761,162.017 16.791 C 164.948 15.296,165.862 15.280,245.200 15.340 L 323.400 15.400 325.605 16.484 M326.800 58.325 C 326.800 58.723,326.485 59.406,326.100 59.842 C 325.212 60.847,324.017 62.791,323.729 63.700 C 323.607 64.085,323.348 64.400,323.153 64.400 C 322.959 64.400,322.800 64.571,322.800 64.780 C 322.800 64.989,321.585 67.056,320.100 69.374 L 317.400 73.588 275.600 73.724 C 230.073 73.871,231.879 73.777,229.438 76.150 C 226.171 79.328,226.125 83.283,229.320 86.422 C 231.535 88.597,230.285 88.528,270.300 88.674 C 290.595 88.748,307.200 88.950,307.200 89.124 C 307.200 89.701,306.205 91.594,305.900 91.597 C 305.735 91.599,305.600 91.773,305.600 91.984 C 305.600 92.194,304.311 94.399,302.735 96.884 C 301.158 99.368,298.912 102.930,297.742 104.800 C 296.572 106.670,295.431 108.417,295.207 108.683 C 294.983 108.949,294.800 109.272,294.800 109.401 C 294.800 109.530,293.928 110.933,292.862 112.518 C 291.796 114.103,290.851 115.588,290.762 115.818 C 290.673 116.048,289.542 117.893,288.248 119.918 L 285.896 123.600 197.948 123.600 C 136.533 123.600,110.000 123.473,110.000 123.178 C 110.000 122.946,110.675 121.727,111.500 120.469 C 112.325 119.210,113.214 117.825,113.475 117.391 C 113.736 116.956,115.142 114.710,116.600 112.400 C 118.058 110.090,119.464 107.845,119.725 107.411 C 119.986 106.978,121.055 105.321,122.100 103.729 C 123.145 102.138,124.000 100.648,124.000 100.418 C 124.000 100.188,124.180 100.000,124.400 100.000 C 124.620 100.000,124.800 99.730,124.800 99.400 C 124.800 99.070,124.980 98.800,125.200 98.800 C 125.420 98.800,125.600 98.530,125.600 98.200 C 125.600 97.870,125.780 97.600,126.000 97.600 C 126.220 97.600,126.400 97.426,126.400 97.213 C 126.400 96.838,129.172 92.288,129.992 91.317 C 130.216 91.051,130.400 90.741,130.400 90.627 C 130.400 90.513,131.570 88.611,133.000 86.400 C 134.430 84.189,135.600 82.288,135.600 82.175 C 135.600 82.062,136.680 80.363,138.000 78.400 C 139.320 76.437,140.400 74.644,140.400 74.415 C 140.400 74.187,140.580 74.000,140.800 74.000 C 141.020 74.000,141.200 73.764,141.200 73.475 C 141.200 73.187,141.560 72.564,142.000 72.092 C 142.440 71.620,142.800 71.126,142.800 70.995 C 142.800 70.864,143.520 69.696,144.400 68.400 C 145.280 67.104,146.000 65.946,146.000 65.827 C 146.000 65.708,147.177 63.808,148.616 61.605 L 151.232 57.600 239.016 57.600 C 323.487 57.600,326.800 57.627,326.800 58.325 M341.829 65.371 C 342.143 65.686,342.400 66.047,342.400 66.175 C 342.400 66.302,343.543 68.160,344.939 70.303 C 346.336 72.446,348.880 76.450,350.593 79.200 C 352.306 81.950,354.493 85.413,355.454 86.895 C 356.414 88.378,357.200 89.690,357.200 89.812 C 357.200 89.934,357.381 90.251,357.601 90.517 C 357.948 90.934,361.841 96.991,363.000 98.916 C 363.936 100.471,369.497 109.262,371.463 112.296 C 372.639 114.109,373.600 115.774,373.600 115.996 C 373.600 116.218,373.780 116.400,374.000 116.400 C 374.220 116.400,374.400 116.581,374.400 116.803 C 374.400 117.025,375.546 118.960,376.946 121.103 C 378.347 123.246,380.687 126.888,382.147 129.195 L 384.801 133.390 384.701 258.995 L 384.600 384.600 375.800 384.600 L 367.000 384.600 366.800 351.000 L 366.600 317.400 365.630 316.107 C 362.277 311.638,356.523 311.638,353.170 316.107 L 352.200 317.400 352.000 351.000 L 351.800 384.600 325.400 384.710 C 310.880 384.771,298.594 384.722,298.098 384.602 L 297.196 384.384 297.298 258.692 L 297.400 133.000 300.160 128.600 C 301.678 126.180,303.793 122.903,304.860 121.318 C 305.927 119.733,306.800 118.343,306.800 118.229 C 306.800 118.019,311.316 110.945,311.938 110.182 C 312.126 109.952,312.351 109.582,312.439 109.361 C 312.528 109.139,314.818 105.458,317.528 101.179 C 320.239 96.901,322.669 93.045,322.928 92.611 C 323.188 92.178,324.255 90.521,325.300 88.929 C 326.345 87.338,327.200 85.848,327.200 85.618 C 327.200 85.388,327.335 85.199,327.500 85.197 C 327.665 85.195,327.997 84.790,328.237 84.297 C 328.683 83.380,333.578 75.624,337.446 69.704 C 338.631 67.891,339.600 66.262,339.600 66.084 C 339.600 64.986,340.997 64.540,341.829 65.371 M282.200 173.000 L 282.200 207.000 212.927 207.101 L 143.653 207.202 143.472 203.301 C 143.218 197.850,142.943 196.922,141.011 194.989 C 138.707 192.686,138.726 192.688,120.100 192.526 L 103.600 192.383 103.600 165.858 C 103.600 151.269,103.720 139.213,103.868 139.066 C 104.015 138.919,144.200 138.844,193.168 138.899 L 282.200 139.000 282.200 173.000 M128.267 282.300 C 128.137 352.744,128.038 359.682,127.156 360.227 C 126.960 360.348,126.800 360.889,126.800 361.429 C 126.800 361.969,126.643 362.723,126.450 363.105 C 126.258 363.487,125.745 364.520,125.312 365.400 C 123.862 368.342,122.717 370.184,121.085 372.200 C 118.764 375.066,114.780 378.670,112.832 379.664 C 112.265 379.954,110.990 380.650,110.000 381.211 C 109.010 381.772,107.390 382.470,106.400 382.762 C 105.410 383.054,104.150 383.440,103.600 383.621 C 100.376 384.679,97.131 384.800,72.054 384.800 C 46.522 384.800,43.361 384.675,39.600 383.519 C 35.881 382.377,30.545 379.747,29.201 378.395 C 28.870 378.063,27.779 377.173,26.776 376.419 C 25.773 375.664,24.391 374.317,23.703 373.424 C 23.016 372.531,22.126 371.432,21.727 370.983 C 19.024 367.945,16.243 360.905,15.571 355.400 C 15.334 353.463,15.223 337.285,15.290 314.400 L 15.400 276.600 39.400 276.359 C 52.600 276.226,64.103 275.978,64.961 275.808 C 68.133 275.179,71.633 269.904,70.404 267.607 C 70.182 267.192,70.000 266.509,70.000 266.090 C 70.000 264.981,67.051 262.148,65.516 261.781 C 64.792 261.609,53.220 261.362,39.800 261.234 L 15.400 261.000 15.296 234.800 C 15.239 220.390,15.279 208.375,15.384 208.100 C 15.535 207.703,27.226 207.600,71.990 207.600 L 128.404 207.600 128.267 282.300 M282.200 261.800 L 282.200 301.000 212.900 301.101 L 143.600 301.202 143.600 281.754 L 143.600 262.307 144.500 262.591 C 146.561 263.241,147.667 263.252,149.462 262.641 C 152.044 261.761,151.926 261.257,152.071 273.800 C 152.195 284.572,152.235 285.069,153.121 286.800 C 154.034 288.584,156.203 290.400,157.421 290.400 C 157.768 290.400,158.420 290.597,158.869 290.837 C 159.460 291.153,159.807 291.153,160.123 290.837 C 160.363 290.597,161.056 290.400,161.663 290.400 C 163.192 290.400,165.785 287.857,166.354 285.800 C 167.075 283.188,166.965 238.890,166.233 237.149 C 164.802 233.746,160.898 231.905,157.506 233.031 C 155.159 233.811,153.686 235.201,150.200 239.928 C 147.665 243.364,147.075 243.688,145.692 242.400 C 145.220 241.960,144.556 241.600,144.217 241.600 C 143.678 241.600,143.600 240.382,143.600 231.999 L 143.600 222.398 212.900 222.499 L 282.200 222.600 282.200 261.800 M185.600 232.789 C 185.270 233.008,184.640 233.196,184.200 233.207 C 182.771 233.242,180.000 236.326,180.000 237.882 C 180.000 238.299,179.817 238.823,179.593 239.047 C 179.106 239.534,179.290 283.456,179.788 285.566 C 180.176 287.210,183.230 290.400,184.416 290.400 C 184.876 290.400,185.620 290.597,186.069 290.837 C 186.660 291.153,187.007 291.153,187.323 290.837 C 187.563 290.597,188.269 290.400,188.891 290.400 C 190.503 290.400,193.396 287.437,193.809 285.361 C 194.301 282.890,194.486 239.926,194.007 239.447 C 193.783 239.223,193.600 238.531,193.600 237.909 C 193.600 236.494,190.685 233.446,188.976 233.075 C 188.329 232.934,187.440 232.723,187.000 232.604 C 186.560 232.486,185.930 232.569,185.600 232.789 M211.200 232.800 C 210.870 233.013,210.282 233.191,209.894 233.194 C 208.635 233.205,206.621 234.862,205.700 236.647 L 204.800 238.391 204.800 261.669 C 204.800 284.508,204.816 284.980,205.641 286.685 C 206.614 288.694,208.641 290.400,210.058 290.400 C 210.598 290.400,211.228 290.588,211.459 290.819 C 211.968 291.328,224.814 291.115,226.600 290.568 C 230.287 289.437,231.791 287.419,231.791 283.600 C 231.791 279.859,229.495 276.800,226.686 276.800 C 226.177 276.800,225.589 276.629,225.380 276.420 C 225.171 276.212,223.740 275.987,222.200 275.920 L 219.400 275.800 219.200 256.582 C 218.966 234.065,219.036 234.361,213.612 232.918 C 212.615 232.652,211.800 232.430,211.800 232.424 C 211.800 232.417,211.530 232.587,211.200 232.800 M248.000 232.789 C 247.670 233.008,247.017 233.191,246.548 233.194 C 245.467 233.202,242.400 236.146,242.400 237.176 C 242.400 237.603,242.220 238.064,242.000 238.200 C 241.741 238.360,241.600 246.663,241.600 261.800 C 241.600 276.937,241.741 285.240,242.000 285.400 C 242.220 285.536,242.400 285.970,242.400 286.365 C 242.400 287.581,245.481 290.400,246.810 290.400 C 247.250 290.400,247.964 290.620,248.395 290.890 C 249.015 291.277,249.283 291.277,249.670 290.890 C 249.940 290.620,250.664 290.400,251.280 290.400 C 251.896 290.400,252.400 290.220,252.400 290.000 C 252.400 289.780,252.638 289.600,252.928 289.600 C 253.884 289.600,256.000 286.595,256.000 285.238 C 256.000 283.936,256.449 283.200,257.243 283.200 C 257.659 283.200,258.000 283.345,258.000 283.522 C 258.000 283.699,258.585 284.494,259.300 285.289 C 260.015 286.085,261.140 287.376,261.800 288.159 C 262.460 288.942,263.225 289.587,263.500 289.591 C 263.775 289.596,264.000 289.760,264.000 289.956 C 264.000 290.283,266.174 290.808,267.600 290.825 C 268.812 290.840,270.800 290.299,270.800 289.955 C 270.800 289.760,271.042 289.600,271.338 289.600 C 274.897 289.600,275.657 281.208,272.389 278.000 C 272.052 277.670,271.154 276.590,270.392 275.600 C 269.630 274.610,268.678 273.440,268.276 273.000 C 267.874 272.560,266.163 270.490,264.474 268.400 C 262.786 266.310,260.909 264.060,260.304 263.400 C 258.907 261.876,258.918 261.719,260.573 259.796 C 261.327 258.918,263.854 255.860,266.188 253.000 C 268.522 250.140,271.054 247.082,271.815 246.204 C 272.577 245.327,273.200 244.382,273.200 244.104 C 273.200 243.827,273.335 243.599,273.500 243.597 C 274.504 243.586,275.315 238.365,274.400 237.800 C 274.180 237.664,274.000 237.259,274.000 236.900 C 274.000 234.938,268.013 231.784,266.323 232.856 C 266.035 233.038,265.428 233.191,264.974 233.194 C 264.099 233.200,261.096 235.916,258.863 238.721 C 256.959 241.111,256.000 240.855,256.000 237.957 C 256.000 236.480,253.077 233.412,251.366 233.092 C 250.724 232.973,249.840 232.766,249.400 232.632 C 248.960 232.499,248.330 232.569,248.000 232.789 M97.200 261.675 C 93.946 263.045,93.863 263.104,92.487 265.062 C 91.605 266.316,91.133 271.600,91.902 271.600 C 92.069 271.600,92.428 272.095,92.700 272.700 C 93.787 275.113,101.270 277.191,101.914 275.259 C 101.998 275.006,102.256 274.800,102.487 274.800 C 103.820 274.800,106.000 270.882,106.000 268.486 C 106.000 265.843,102.956 262.000,100.862 262.000 C 100.414 262.000,99.936 261.820,99.800 261.600 C 99.491 261.100,98.499 261.128,97.200 261.675 M355.899 285.228 C 353.580 286.452,352.203 288.838,352.240 291.569 C 352.372 301.273,366.428 301.273,366.560 291.569 C 366.634 286.133,360.780 282.651,355.899 285.228 M281.902 316.331 C 282.300 316.584,282.383 323.710,282.302 350.625 L 282.200 384.600 206.821 384.701 C 159.289 384.765,131.301 384.661,131.060 384.420 C 130.650 384.010,130.657 383.997,133.597 380.151 C 135.447 377.731,137.463 374.537,138.243 372.792 C 138.487 372.246,139.072 371.018,139.543 370.062 C 140.014 369.106,140.400 367.992,140.400 367.586 C 140.400 367.180,140.559 366.749,140.754 366.629 C 140.949 366.508,141.207 365.913,141.329 365.305 C 141.451 364.697,141.757 363.390,142.008 362.400 C 143.082 358.176,143.289 354.395,143.448 336.200 C 143.540 325.640,143.696 316.775,143.795 316.500 C 144.002 315.924,280.996 315.756,281.902 316.331"/><path id="path3" fill="#5ea0bc" fill-rule="evenodd" stroke="none" d="M165.200 16.233 C 164.210 16.537,163.940 16.664,164.600 16.514 C 165.260 16.364,200.810 16.141,243.600 16.018 L 321.400 15.794 244.200 15.736 C 179.442 15.688,166.710 15.768,165.200 16.233 M323.202 16.538 C 324.194 16.829,325.409 17.283,325.902 17.548 C 326.396 17.812,326.800 17.936,326.800 17.824 C 326.800 17.409,324.521 16.461,322.986 16.239 L 321.400 16.009 323.202 16.538 M161.800 17.462 C 160.127 18.340,157.645 20.769,156.958 22.200 L 156.382 23.400 157.091 22.409 C 158.672 20.201,160.204 18.712,161.662 17.968 C 162.508 17.537,163.200 17.097,163.200 16.992 C 163.200 16.733,163.171 16.742,161.800 17.462 M327.200 18.146 C 327.200 18.256,327.740 18.730,328.400 19.200 C 329.060 19.670,329.600 19.964,329.600 19.854 C 329.600 19.744,329.060 19.270,328.400 18.800 C 327.740 18.330,327.200 18.036,327.200 18.146 M330.245 21.412 C 330.610 21.969,330.986 22.347,331.082 22.251 C 331.319 22.014,330.284 20.400,329.895 20.400 C 329.722 20.400,329.880 20.856,330.245 21.412 M332.258 25.600 C 332.575 27.325,332.802 27.651,332.794 26.367 C 332.791 25.835,332.611 25.130,332.394 24.800 C 332.118 24.378,332.077 24.615,332.258 25.600 M155.367 34.400 C 155.367 38.690,155.426 40.445,155.498 38.300 C 155.570 36.155,155.570 32.645,155.498 30.500 C 155.426 28.355,155.367 30.110,155.367 34.400 M332.965 35.200 C 332.965 39.050,333.025 40.625,333.098 38.700 C 333.171 36.775,333.171 33.625,333.098 31.700 C 333.025 29.775,332.965 31.350,332.965 35.200 M339.906 66.635 C 339.360 67.496,337.853 69.866,336.557 71.901 C 335.261 73.937,334.020 75.906,333.800 76.277 C 333.580 76.647,332.312 78.672,330.983 80.775 C 327.052 86.996,326.714 87.600,327.167 87.600 C 327.405 87.600,327.600 87.412,327.600 87.182 C 327.600 86.952,328.500 85.430,329.600 83.800 C 330.700 82.170,331.600 80.730,331.600 80.601 C 331.600 80.472,331.787 80.149,332.017 79.883 C 332.450 79.380,338.476 69.893,339.967 67.366 C 340.777 65.993,342.000 65.933,342.000 67.266 C 342.000 67.468,342.381 68.031,342.846 68.517 L 343.692 69.400 343.059 68.200 C 342.710 67.540,342.082 66.566,341.662 66.035 L 340.898 65.069 339.906 66.635 M343.667 69.900 C 343.825 70.255,347.093 75.498,350.423 80.740 C 351.731 82.797,352.800 84.560,352.800 84.657 C 352.800 84.754,353.160 85.220,353.600 85.692 C 354.040 86.164,354.400 86.787,354.400 87.075 C 354.400 87.364,354.536 87.600,354.702 87.600 C 354.869 87.600,355.244 88.140,355.536 88.800 C 355.828 89.460,356.237 90.000,356.446 90.000 C 356.654 90.000,356.182 88.996,355.397 87.768 C 354.611 86.540,353.555 84.875,353.049 84.068 C 352.543 83.261,351.171 81.070,349.999 79.200 C 345.917 72.686,343.898 69.600,343.716 69.600 C 343.616 69.600,343.593 69.735,343.667 69.900 M323.829 92.029 C 323.230 92.933,322.817 93.751,322.912 93.845 C 323.006 93.939,323.573 93.276,324.171 92.371 C 324.770 91.467,325.183 90.649,325.088 90.555 C 324.994 90.461,324.427 91.124,323.829 92.029 M356.830 90.600 C 356.823 90.820,357.170 91.450,357.600 92.000 C 358.030 92.550,358.386 93.225,358.391 93.500 C 358.396 93.775,358.580 94.000,358.800 94.000 C 359.020 94.000,359.200 94.270,359.200 94.600 C 359.200 94.930,359.390 95.200,359.623 95.200 C 359.855 95.200,359.630 94.510,359.123 93.666 C 357.710 91.317,356.843 90.158,356.830 90.600 M320.982 96.700 C 320.139 97.965,318.618 100.350,317.602 102.000 C 316.586 103.650,315.429 105.495,315.031 106.100 C 314.633 106.705,314.494 107.200,314.720 107.200 C 314.947 107.200,315.372 106.660,315.664 106.000 C 315.956 105.340,316.331 104.800,316.498 104.800 C 316.664 104.800,316.800 104.628,316.800 104.418 C 316.800 104.208,317.942 102.273,319.337 100.118 C 321.990 96.021,322.935 94.400,322.671 94.400 C 322.584 94.400,321.824 95.435,320.982 96.700 M360.800 96.958 C 360.800 97.154,365.062 104.042,367.443 107.695 C 368.409 109.178,369.200 110.573,369.200 110.795 C 369.200 111.018,369.380 111.200,369.600 111.200 C 369.820 111.200,370.000 111.436,370.000 111.725 C 370.000 112.013,370.360 112.636,370.800 113.108 C 371.240 113.580,371.600 114.077,371.600 114.211 C 371.600 114.346,372.140 115.241,372.800 116.200 C 373.460 117.159,374.000 118.137,374.000 118.372 C 374.000 118.607,374.180 118.800,374.400 118.800 C 374.620 118.800,374.800 119.070,374.800 119.400 C 374.800 119.730,374.986 120.000,375.214 120.000 C 375.813 120.000,374.313 117.496,366.470 105.400 C 365.471 103.860,364.455 102.240,364.212 101.800 C 362.624 98.929,360.800 96.341,360.800 96.958 M313.445 108.588 C 313.080 109.144,312.922 109.600,313.095 109.600 C 313.484 109.600,314.519 107.986,314.282 107.749 C 314.186 107.653,313.810 108.031,313.445 108.588 M311.970 110.866 C 311.698 111.380,311.213 112.205,310.892 112.700 C 310.516 113.280,310.467 113.600,310.754 113.600 C 310.999 113.600,311.200 113.403,311.200 113.162 C 311.200 112.921,311.580 112.190,312.044 111.539 C 312.508 110.887,312.792 110.259,312.676 110.143 C 312.560 110.027,312.242 110.352,311.970 110.866 M307.429 118.029 C 306.830 118.933,306.417 119.751,306.512 119.845 C 306.606 119.939,307.173 119.276,307.771 118.371 C 308.370 117.467,308.783 116.649,308.688 116.555 C 308.594 116.461,308.027 117.124,307.429 118.029 M303.710 124.100 C 302.393 126.135,300.478 129.137,299.457 130.772 L 297.599 133.744 297.699 258.972 L 297.800 384.200 324.600 384.200 L 351.400 384.200 351.600 350.800 L 351.800 317.400 352.720 315.920 C 353.226 315.106,354.271 314.051,355.041 313.575 C 355.812 313.098,356.353 312.620,356.245 312.511 C 355.822 312.089,352.806 314.681,352.025 316.138 C 351.211 317.656,351.200 318.108,351.200 350.838 L 351.200 384.000 324.600 384.000 L 298.000 384.000 298.009 258.900 C 298.018 135.363,298.028 133.788,298.800 132.800 C 299.230 132.250,299.586 131.673,299.591 131.518 C 299.596 131.363,300.736 129.473,302.124 127.318 C 305.437 122.174,306.505 120.400,306.285 120.400 C 306.187 120.400,305.028 122.065,303.710 124.100 M377.200 122.960 C 377.200 123.048,377.875 124.210,378.700 125.542 C 379.525 126.874,381.055 129.343,382.100 131.029 L 384.000 134.093 384.000 259.047 L 384.000 384.000 375.800 384.000 L 367.600 384.000 367.600 350.838 C 367.600 318.108,367.589 317.656,366.775 316.138 C 365.994 314.681,362.978 312.089,362.555 312.511 C 362.447 312.620,362.988 313.098,363.759 313.575 C 364.529 314.051,365.574 315.106,366.080 315.920 L 367.000 317.400 367.200 350.800 L 367.400 384.200 375.800 384.200 L 384.200 384.200 384.301 258.945 L 384.401 133.689 382.086 130.145 C 380.812 128.195,379.274 125.745,378.668 124.700 C 377.700 123.030,377.200 122.438,377.200 122.960 M281.501 161.100 C 281.556 173.145,281.649 188.400,281.707 195.000 C 281.765 201.600,281.854 191.745,281.906 173.100 C 281.958 154.455,281.865 139.200,281.700 139.200 C 281.535 139.200,281.445 149.055,281.501 161.100 M136.833 192.144 C 137.305 192.550,139.243 192.793,139.010 192.416 C 138.868 192.187,138.283 192.000,137.710 192.000 C 137.136 192.000,136.742 192.065,136.833 192.144 M141.775 194.932 C 142.391 195.739,142.976 196.400,143.075 196.400 C 143.353 196.400,141.621 194.060,141.109 193.744 C 140.859 193.589,141.159 194.124,141.775 194.932 M143.468 198.200 C 143.771 200.177,144.002 200.514,143.994 198.967 C 143.991 198.325,143.816 197.530,143.605 197.200 C 143.345 196.791,143.301 197.110,143.468 198.200 M355.087 284.631 C 353.829 285.418,352.800 286.318,352.800 286.631 C 352.800 286.944,352.665 287.201,352.500 287.203 C 351.856 287.210,351.200 289.470,351.200 291.684 C 351.200 295.599,354.695 299.684,357.938 299.559 C 358.914 299.521,358.894 299.493,357.694 299.208 C 348.767 297.091,350.238 283.800,359.400 283.800 C 368.562 283.800,370.033 297.091,361.106 299.208 C 359.906 299.493,359.886 299.521,360.862 299.559 C 364.105 299.684,367.600 295.599,367.600 291.684 C 367.600 289.470,366.944 287.210,366.300 287.203 C 366.135 287.201,366.000 286.944,366.000 286.631 C 366.000 285.483,361.607 283.200,359.400 283.200 C 357.770 283.200,356.928 283.479,355.087 284.631 M357.841 311.933 C 357.728 312.117,358.429 312.267,359.400 312.267 C 360.371 312.267,361.072 312.117,360.959 311.933 C 360.845 311.750,360.144 311.600,359.400 311.600 C 358.656 311.600,357.955 311.750,357.841 311.933 M212.800 316.699 L 281.600 316.802 281.600 350.401 L 281.600 384.000 206.522 384.000 L 131.443 384.000 132.672 382.700 C 134.493 380.774,137.979 375.600,137.456 375.600 C 137.361 375.600,136.680 376.545,135.942 377.700 C 135.204 378.855,133.830 380.749,132.889 381.908 C 131.740 383.323,131.346 384.080,131.689 384.211 C 131.970 384.318,165.860 384.359,207.000 384.303 L 281.800 384.200 281.800 350.400 L 281.800 316.600 212.900 316.598 L 144.000 316.597 212.800 316.699 M143.674 354.400 C 143.627 355.830,143.489 357.450,143.367 358.000 C 143.178 358.850,143.212 358.895,143.590 358.304 C 143.850 357.898,143.978 356.398,143.897 354.704 L 143.759 351.800 143.674 354.400 M142.854 360.867 C 142.825 361.234,142.684 361.864,142.541 362.267 C 142.341 362.833,142.395 362.896,142.775 362.546 C 143.046 362.297,143.187 361.667,143.088 361.146 C 142.990 360.626,142.884 360.500,142.854 360.867"/><path id="path4" fill="#6c6f70" fill-rule="evenodd" stroke="none" d="M195.300 57.900 C 219.225 57.957,258.375 57.957,282.300 57.900 C 306.225 57.843,286.650 57.796,238.800 57.796 C 190.950 57.796,171.375 57.843,195.300 57.900 M254.731 73.500 C 266.242 73.559,284.962 73.559,296.331 73.500 C 307.699 73.441,298.280 73.393,275.400 73.393 C 252.520 73.393,243.219 73.441,254.731 73.500 M226.501 81.400 C 226.505 82.280,226.587 82.593,226.683 82.095 C 226.779 81.598,226.775 80.878,226.675 80.495 C 226.575 80.113,226.496 80.520,226.501 81.400 M154.300 123.500 C 178.335 123.557,217.665 123.557,241.700 123.500 C 265.735 123.443,246.070 123.396,198.000 123.396 C 149.930 123.396,130.265 123.443,154.300 123.500 M143.774 203.400 L 143.800 207.000 212.400 207.002 L 281.000 207.003 212.516 206.901 L 144.031 206.798 143.889 203.299 L 143.747 199.800 143.774 203.400 M43.931 207.900 C 59.403 207.958,84.603 207.958,99.931 207.900 C 115.259 207.842,102.600 207.794,71.800 207.794 C 41.000 207.795,28.459 207.842,43.931 207.900 M128.196 280.200 C 128.196 319.800,128.243 336.059,128.300 316.332 C 128.357 296.604,128.357 264.204,128.300 244.332 C 128.243 224.459,128.196 240.600,128.196 280.200 M143.681 231.676 C 143.637 236.668,143.735 240.837,143.900 240.939 C 144.065 241.041,144.154 238.397,144.097 235.063 C 143.904 223.726,143.763 222.580,143.681 231.676 M256.412 238.651 C 256.386 239.614,257.466 240.046,258.047 239.305 C 258.543 238.672,258.531 238.654,257.932 239.122 C 257.369 239.563,257.199 239.532,256.844 238.922 C 256.613 238.525,256.419 238.403,256.412 238.651 M178.987 261.600 C 178.987 274.250,179.038 279.425,179.100 273.100 C 179.162 266.775,179.162 256.425,179.100 250.100 C 179.038 243.775,178.987 248.950,178.987 261.600 M241.387 261.800 C 241.387 274.560,241.438 279.838,241.500 273.529 C 241.562 267.219,241.562 256.779,241.500 250.329 C 241.438 243.878,241.387 249.040,241.387 261.800 M219.784 257.400 C 219.784 267.520,219.836 271.603,219.900 266.473 C 219.963 261.342,219.963 253.062,219.900 248.073 C 219.836 243.083,219.784 247.280,219.784 257.400 M194.587 261.600 C 194.587 273.590,194.638 278.495,194.700 272.500 C 194.762 266.505,194.762 256.695,194.700 250.700 C 194.638 244.705,194.587 249.610,194.587 261.600 M204.187 261.800 C 204.187 273.900,204.237 278.908,204.300 272.928 C 204.362 266.949,204.362 257.049,204.300 250.928 C 204.238 244.808,204.187 249.700,204.187 261.800 M98.100 261.076 C 98.485 261.176,99.115 261.176,99.500 261.076 C 99.885 260.975,99.570 260.893,98.800 260.893 C 98.030 260.893,97.715 260.975,98.100 261.076 M143.783 263.300 C 143.678 263.575,143.639 272.170,143.696 282.400 L 143.800 301.000 144.000 281.900 C 144.110 271.395,144.149 262.800,144.087 262.800 C 144.026 262.800,143.889 263.025,143.783 263.300 M146.305 263.483 C 146.802 263.579,147.522 263.575,147.905 263.475 C 148.287 263.375,147.880 263.296,147.000 263.301 C 146.120 263.305,145.807 263.387,146.305 263.483 M70.893 268.800 C 70.893 269.570,70.975 269.885,71.076 269.500 C 71.176 269.115,71.176 268.485,71.076 268.100 C 70.975 267.715,70.893 268.030,70.893 268.800 M221.491 275.889 C 222.201 275.977,223.461 275.979,224.291 275.892 C 225.121 275.805,224.540 275.733,223.000 275.731 C 221.460 275.729,220.781 275.800,221.491 275.889 M27.929 276.700 C 34.599 276.761,45.399 276.761,51.929 276.700 C 58.458 276.638,53.000 276.588,39.800 276.588 C 26.600 276.588,21.258 276.638,27.929 276.700 M232.493 283.600 C 232.493 284.370,232.575 284.685,232.676 284.300 C 232.776 283.915,232.776 283.285,232.676 282.900 C 232.575 282.515,232.493 282.830,232.493 283.600 M214.921 291.498 C 217.077 291.571,220.497 291.570,222.521 291.498 C 224.544 291.425,222.780 291.366,218.600 291.367 C 214.420 291.367,212.764 291.426,214.921 291.498 M143.784 334.400 C 143.784 344.190,143.836 348.195,143.900 343.300 C 143.963 338.405,143.963 330.395,143.900 325.500 C 143.836 320.605,143.784 324.610,143.784 334.400"/><path id="path5" fill="#b4b4b4" fill-rule="evenodd" stroke="none" d="M151.009 59.000 C 150.171 60.376,149.320 61.796,148.553 63.100 L 147.905 64.200 148.713 63.222 C 149.624 62.120,152.050 58.000,151.789 58.000 C 151.695 58.000,151.344 58.450,151.009 59.000 M323.669 61.639 C 322.910 62.854,323.366 63.016,324.155 61.812 C 324.520 61.256,324.678 60.800,324.505 60.800 C 324.333 60.800,323.957 61.178,323.669 61.639 M319.857 67.794 C 319.055 69.000,318.400 70.097,318.400 70.231 C 318.400 70.364,318.040 70.931,317.600 71.491 C 317.160 72.050,316.800 72.705,316.800 72.947 C 316.800 73.188,317.250 72.723,317.800 71.914 C 318.350 71.105,318.800 70.312,318.800 70.153 C 318.800 69.993,319.040 69.579,319.334 69.231 C 320.064 68.369,321.707 65.600,321.489 65.600 C 321.392 65.600,320.658 66.587,319.857 67.794 M143.786 70.500 L 143.152 71.800 143.967 70.800 C 144.752 69.837,145.008 69.200,144.610 69.200 C 144.506 69.200,144.135 69.785,143.786 70.500 M231.200 73.545 C 231.200 73.734,231.650 73.803,232.200 73.698 C 232.750 73.593,233.200 73.438,233.200 73.353 C 233.200 73.269,232.750 73.200,232.200 73.200 C 231.650 73.200,231.200 73.355,231.200 73.545 M139.814 76.635 C 139.441 77.204,139.227 77.761,139.339 77.872 C 139.450 77.983,139.829 77.518,140.181 76.837 C 140.959 75.333,140.744 75.215,139.814 76.635 M134.570 85.100 C 133.089 87.465,131.614 89.805,131.292 90.300 C 130.971 90.795,130.793 91.200,130.897 91.200 C 131.120 91.200,133.637 87.451,135.240 84.733 C 135.855 83.689,136.658 82.377,137.025 81.818 C 137.392 81.258,137.596 80.800,137.478 80.800 C 137.361 80.800,136.052 82.735,134.570 85.100 M227.200 85.493 C 227.200 86.401,230.920 89.219,232.074 89.184 C 232.363 89.176,231.989 88.904,231.243 88.580 C 230.496 88.256,229.281 87.350,228.543 86.567 C 227.804 85.784,227.200 85.301,227.200 85.493 M246.200 89.494 C 280.809 89.769,306.400 89.772,306.400 89.500 C 306.400 89.335,289.885 89.242,269.700 89.294 C 249.515 89.346,238.940 89.436,246.200 89.494 M303.830 93.238 C 302.792 94.799,302.018 96.151,302.109 96.242 C 302.200 96.334,302.809 95.552,303.461 94.504 C 304.113 93.457,304.972 92.105,305.369 91.500 C 305.767 90.895,306.008 90.400,305.905 90.400 C 305.802 90.400,304.868 91.677,303.830 93.238 M127.386 96.500 L 126.752 97.800 127.567 96.800 C 128.352 95.837,128.608 95.200,128.210 95.200 C 128.106 95.200,127.735 95.785,127.386 96.500 M298.811 101.238 C 297.234 103.679,296.030 105.763,296.136 105.870 C 296.242 105.976,296.829 105.194,297.440 104.131 C 298.052 103.069,299.206 101.210,300.006 100.000 C 301.854 97.205,302.089 96.800,301.863 96.800 C 301.762 96.800,300.388 98.797,298.811 101.238 M123.516 102.488 C 122.651 103.822,121.948 105.200,122.133 105.200 C 122.425 105.200,124.464 101.930,124.284 101.751 C 124.187 101.654,123.842 101.986,123.516 102.488 M118.306 110.900 C 116.903 113.155,115.429 115.495,115.031 116.100 C 114.633 116.705,114.393 117.200,114.497 117.200 C 114.720 117.200,117.237 113.451,118.840 110.733 C 119.455 109.689,120.258 108.377,120.625 107.818 C 120.992 107.258,121.194 106.800,121.075 106.800 C 120.956 106.800,119.710 108.645,118.306 110.900 M291.669 112.439 C 290.910 113.654,291.366 113.816,292.155 112.612 C 292.520 112.056,292.678 111.600,292.505 111.600 C 292.333 111.600,291.957 111.978,291.669 112.439 M287.828 118.638 C 287.010 119.868,286.423 120.956,286.521 121.055 C 286.620 121.153,287.060 120.626,287.498 119.883 C 287.937 119.139,288.610 118.051,288.994 117.465 C 289.378 116.879,289.607 116.400,289.503 116.400 C 289.398 116.400,288.645 117.407,287.828 118.638 M111.493 121.603 C 110.918 122.481,110.571 123.198,110.724 123.195 C 111.078 123.189,112.910 120.377,112.698 120.165 C 112.610 120.077,112.068 120.724,111.493 121.603 M15.789 234.200 C 15.789 248.500,15.839 254.292,15.900 247.071 C 15.961 239.850,15.961 228.150,15.900 221.071 C 15.839 213.992,15.789 219.900,15.789 234.200 M281.698 261.499 L 281.600 300.398 212.700 300.500 L 143.800 300.602 212.713 300.701 C 267.547 300.780,281.664 300.698,281.816 300.300 C 281.921 300.025,281.959 282.430,281.901 261.200 L 281.796 222.600 281.698 261.499 M182.551 232.996 C 181.644 233.540,180.591 234.483,180.211 235.092 C 179.596 236.078,179.664 236.051,180.826 234.851 C 181.545 234.109,182.868 233.168,183.766 232.760 C 184.665 232.351,185.130 232.015,184.800 232.013 C 184.470 232.010,183.458 232.452,182.551 232.996 M189.400 232.556 C 190.060 232.844,191.209 233.593,191.954 234.221 C 192.912 235.028,193.162 235.129,192.810 234.564 C 192.261 233.686,189.542 231.991,188.721 232.016 C 188.434 232.024,188.740 232.267,189.400 232.556 M207.713 233.164 C 205.731 234.600,204.282 236.573,204.525 237.502 C 204.660 238.019,204.719 237.963,204.754 237.289 C 204.816 236.072,207.861 233.081,209.604 232.526 C 210.565 232.220,210.738 232.069,210.160 232.041 C 209.698 232.018,208.597 232.524,207.713 233.164 M214.000 232.286 C 214.330 232.409,215.095 232.760,215.700 233.065 C 216.305 233.371,216.800 233.531,216.800 233.421 C 216.800 233.107,214.498 231.996,213.920 232.032 C 213.571 232.053,213.597 232.136,214.000 232.286 M251.000 232.400 C 252.101 232.873,252.492 232.873,252.200 232.400 C 252.064 232.180,251.558 232.013,251.076 232.028 C 250.231 232.055,250.229 232.069,251.000 232.400 M264.400 232.400 C 263.867 232.745,263.867 232.788,264.400 232.788 C 264.730 232.788,265.270 232.613,265.600 232.400 C 266.133 232.055,266.133 232.012,265.600 232.012 C 265.270 232.012,264.730 232.187,264.400 232.400 M154.581 233.359 C 154.142 233.666,152.918 235.061,151.862 236.459 C 150.623 238.097,150.483 238.363,151.470 237.206 C 152.312 236.219,153.610 234.824,154.356 234.106 C 155.800 232.715,155.881 232.448,154.581 233.359 M164.799 234.247 C 165.679 235.042,166.400 235.932,166.400 236.223 C 166.400 236.514,166.578 236.863,166.795 236.997 C 167.030 237.142,167.088 236.949,166.938 236.521 C 166.646 235.687,163.992 232.800,163.518 232.800 C 163.342 232.800,163.918 233.451,164.799 234.247 M243.722 233.829 L 242.600 234.858 243.900 233.954 C 244.615 233.457,245.200 232.993,245.200 232.925 C 245.200 232.609,244.758 232.880,243.722 233.829 M253.000 233.057 C 255.037 234.864,255.787 235.391,255.002 234.463 C 254.566 233.948,253.847 233.341,253.404 233.114 C 252.962 232.887,252.780 232.862,253.000 233.057 M262.000 234.049 C 260.606 235.271,260.605 235.272,261.888 234.419 C 262.596 233.948,263.282 233.391,263.412 233.181 C 263.797 232.557,263.477 232.754,262.000 234.049 M272.350 233.836 C 273.093 234.441,274.034 235.671,274.441 236.568 C 274.849 237.466,275.186 237.963,275.191 237.674 C 275.212 236.446,273.285 233.866,271.800 233.131 C 271.360 232.913,271.608 233.230,272.350 233.836 M218.185 235.100 C 218.802 236.035,219.383 236.800,219.476 236.800 C 219.764 236.800,218.233 234.366,217.632 233.869 C 217.320 233.611,217.568 234.165,218.185 235.100 M258.832 237.441 L 257.463 239.257 256.964 238.128 C 256.690 237.508,256.450 237.281,256.432 237.624 C 256.325 239.683,257.403 239.685,259.138 237.627 C 260.078 236.512,260.702 235.606,260.524 235.612 C 260.346 235.619,259.584 236.442,258.832 237.441 M179.049 237.015 C 178.912 237.373,178.815 237.966,178.834 238.333 C 178.853 238.700,179.027 238.469,179.221 237.820 C 179.598 236.558,179.465 235.933,179.049 237.015 M241.354 236.977 C 241.232 237.294,241.203 237.879,241.289 238.277 C 241.387 238.728,241.524 238.512,241.654 237.700 C 241.871 236.338,241.730 235.996,241.354 236.977 M194.268 238.200 C 194.571 240.177,194.802 240.514,194.794 238.967 C 194.791 238.325,194.616 237.530,194.405 237.200 C 194.145 236.791,194.101 237.110,194.268 238.200 M167.388 261.600 C 167.388 274.910,167.438 280.355,167.500 273.700 C 167.561 267.045,167.561 256.155,167.500 249.500 C 167.438 242.845,167.388 248.290,167.388 261.600 M219.904 253.272 C 219.961 261.922,220.059 270.530,220.122 272.400 C 220.184 274.270,220.255 267.610,220.278 257.600 C 220.301 247.590,220.203 238.982,220.060 238.472 C 219.917 237.962,219.847 244.622,219.904 253.272 M148.465 240.700 C 147.382 242.040,147.165 242.147,146.432 241.700 C 145.119 240.900,144.884 241.128,146.156 241.967 L 147.311 242.729 148.165 241.665 C 149.792 239.636,150.097 239.200,149.888 239.200 C 149.772 239.200,149.132 239.875,148.465 240.700 M240.987 261.600 C 240.987 273.810,241.038 278.805,241.100 272.700 C 241.162 266.595,241.162 256.605,241.100 250.500 C 241.038 244.395,240.987 249.390,240.987 261.600 M271.768 247.100 C 270.928 248.145,270.655 248.640,271.163 248.200 C 272.117 247.374,273.792 245.200,273.475 245.200 C 273.377 245.200,272.609 246.055,271.768 247.100 M265.500 254.700 C 259.020 262.494,259.308 261.243,262.957 265.735 C 264.662 267.833,266.353 269.786,266.716 270.075 C 267.078 270.364,265.781 268.653,263.834 266.274 C 259.919 261.491,259.939 261.588,262.331 258.978 C 264.086 257.063,270.461 249.200,270.259 249.200 C 270.157 249.200,268.016 251.675,265.500 254.700 M27.700 260.700 C 34.245 260.761,44.955 260.761,51.500 260.700 C 58.045 260.638,52.690 260.588,39.600 260.588 C 26.510 260.588,21.155 260.638,27.700 260.700 M101.910 261.601 C 102.630 262.041,103.350 262.396,103.510 262.391 C 104.068 262.374,101.794 260.818,101.200 260.810 C 100.870 260.806,101.189 261.162,101.910 261.601 M69.360 263.712 C 69.910 264.434,70.538 265.469,70.755 266.012 C 70.990 266.600,71.160 266.741,71.175 266.360 C 71.199 265.736,69.011 262.400,68.577 262.400 C 68.457 262.400,68.810 262.990,69.360 263.712 M92.165 263.811 C 91.573 264.587,91.159 265.292,91.244 265.377 C 91.330 265.463,91.907 264.828,92.526 263.967 C 93.927 262.017,93.631 261.889,92.165 263.811 M149.600 263.050 C 148.286 263.524,148.266 263.556,149.276 263.577 C 149.868 263.590,150.498 263.375,150.676 263.100 C 150.854 262.825,151.094 267.550,151.210 273.600 L 151.419 284.600 151.510 273.724 C 151.607 261.992,151.663 262.306,149.600 263.050 M105.455 264.600 C 106.380 266.179,106.400 266.203,106.400 265.711 C 106.400 265.479,106.029 264.864,105.576 264.344 L 104.753 263.400 105.455 264.600 M90.667 266.667 C 90.301 267.032,90.341 269.688,90.720 270.285 C 90.890 270.552,91.029 269.787,91.029 268.585 C 91.029 267.383,91.007 266.400,90.981 266.400 C 90.955 266.400,90.813 266.520,90.667 266.667 M106.424 268.400 C 106.424 269.542,106.499 269.671,106.832 269.100 C 107.109 268.625,107.109 268.175,106.832 267.700 C 106.499 267.129,106.424 267.258,106.424 268.400 M70.846 270.669 C 70.821 271.148,70.143 272.408,69.339 273.469 C 68.536 274.531,68.272 275.052,68.752 274.626 C 70.064 273.465,71.284 271.300,71.077 270.504 C 70.932 269.951,70.883 269.987,70.846 270.669 M269.634 273.904 C 271.045 275.683,272.347 277.152,272.528 277.169 C 272.882 277.203,268.118 271.320,267.464 270.916 C 267.246 270.781,268.222 272.126,269.634 273.904 M91.200 271.844 C 91.200 272.077,91.785 272.892,92.500 273.657 C 93.215 274.421,93.513 274.676,93.162 274.223 C 92.812 273.770,92.227 272.955,91.862 272.411 C 91.498 271.867,91.200 271.612,91.200 271.844 M103.497 274.766 C 102.125 275.645,101.760 276.001,102.233 275.998 C 102.435 275.997,103.140 275.553,103.800 275.012 C 105.199 273.866,105.067 273.759,103.497 274.766 M225.633 275.744 C 226.105 276.150,228.043 276.393,227.810 276.016 C 227.668 275.787,227.083 275.600,226.510 275.600 C 225.936 275.600,225.542 275.665,225.633 275.744 M64.400 276.400 L 63.400 276.720 64.400 276.754 C 64.950 276.773,65.670 276.613,66.000 276.400 C 66.764 275.906,65.942 275.906,64.400 276.400 M96.262 276.500 C 96.364 276.665,97.506 276.800,98.800 276.800 C 100.094 276.800,101.236 276.665,101.338 276.500 C 101.440 276.335,100.298 276.200,98.800 276.200 C 97.302 276.200,96.160 276.335,96.262 276.500 M15.792 314.600 C 15.792 335.500,15.841 344.109,15.900 333.730 C 15.959 323.352,15.959 306.252,15.900 295.730 C 15.841 285.209,15.792 293.700,15.792 314.600 M230.738 278.600 C 233.282 282.004,233.288 285.288,230.754 288.492 C 230.106 289.313,229.805 289.894,230.087 289.784 C 233.349 288.504,233.851 281.715,230.922 278.510 L 229.542 277.000 230.738 278.600 M194.464 284.113 C 194.429 284.725,194.139 285.850,193.820 286.613 C 193.104 288.329,193.356 288.432,194.213 286.775 C 194.562 286.101,194.775 284.976,194.687 284.275 C 194.538 283.081,194.524 283.070,194.464 284.113 M256.799 284.603 C 256.245 286.059,256.325 286.387,256.956 285.249 L 257.483 284.298 258.132 285.225 C 258.489 285.735,258.860 286.073,258.957 285.976 C 259.053 285.879,258.697 285.294,258.165 284.677 L 257.198 283.553 256.799 284.603 M178.800 285.310 C 178.800 285.883,178.987 286.468,179.216 286.610 C 179.489 286.779,179.538 286.477,179.360 285.734 C 178.992 284.201,178.800 284.056,178.800 285.310 M151.632 285.140 C 151.578 286.051,152.789 288.252,153.893 289.251 C 154.839 290.108,154.822 290.046,153.715 288.600 C 153.042 287.720,152.304 286.460,152.077 285.800 C 151.849 285.140,151.649 284.843,151.632 285.140 M241.218 285.521 C 241.208 286.028,241.650 287.105,242.200 287.914 C 242.750 288.723,243.200 289.200,243.200 288.973 C 243.200 288.746,243.007 288.367,242.770 288.130 C 242.534 287.894,242.092 287.003,241.788 286.150 C 241.380 285.008,241.230 284.842,241.218 285.521 M204.425 285.881 C 204.386 286.637,205.287 288.400,205.713 288.400 C 205.935 288.400,205.915 288.179,205.665 287.878 C 205.427 287.592,205.056 286.917,204.841 286.378 C 204.627 285.840,204.439 285.617,204.425 285.881 M274.351 287.046 C 273.993 287.791,273.837 288.400,274.002 288.400 C 274.340 288.400,275.393 286.053,275.154 285.834 C 275.069 285.756,274.708 286.302,274.351 287.046 M165.694 288.112 C 164.976 289.209,164.659 289.883,164.990 289.609 C 165.689 289.029,167.360 286.415,167.146 286.237 C 167.066 286.171,166.412 287.015,165.694 288.112 M260.188 287.579 C 261.198 288.887,263.295 290.775,263.754 290.789 C 263.949 290.795,263.599 290.400,262.978 289.911 C 262.356 289.422,261.297 288.468,260.624 287.791 C 259.750 286.911,259.626 286.851,260.188 287.579 M255.389 288.041 C 254.532 289.341,252.629 290.680,250.894 291.202 C 250.134 291.431,250.033 291.542,250.565 291.566 C 252.184 291.638,257.088 287.755,256.332 286.999 C 256.247 286.914,255.822 287.382,255.389 288.041 M180.019 287.992 C 180.581 289.090,181.559 290.177,181.780 289.948 C 181.858 289.866,181.380 289.170,180.717 288.400 C 179.843 287.385,179.652 287.272,180.019 287.992 M244.224 290.187 C 244.651 290.510,245.180 290.775,245.400 290.775 C 245.620 290.775,245.451 290.510,245.024 290.187 C 244.596 289.864,244.067 289.600,243.847 289.600 C 243.627 289.600,243.796 289.864,244.224 290.187 M270.200 290.822 C 269.160 291.314,268.880 291.580,269.400 291.581 C 269.840 291.581,270.650 291.230,271.200 290.800 C 272.422 289.844,272.259 289.848,270.200 290.822 M156.600 291.200 C 156.736 291.420,157.242 291.587,157.724 291.572 C 158.569 291.545,158.571 291.531,157.800 291.200 C 156.699 290.727,156.308 290.727,156.600 291.200 M161.200 291.200 L 160.200 291.520 161.276 291.560 C 161.868 291.582,162.464 291.420,162.600 291.200 C 162.881 290.745,162.620 290.745,161.200 291.200 M183.800 291.200 C 183.936 291.420,184.442 291.587,184.924 291.572 C 185.769 291.545,185.771 291.531,185.000 291.200 C 183.899 290.727,183.508 290.727,183.800 291.200 M188.400 291.200 L 187.400 291.520 188.476 291.560 C 189.068 291.582,189.664 291.420,189.800 291.200 C 190.081 290.745,189.820 290.745,188.400 291.200 M209.200 291.182 C 209.530 291.405,210.145 291.591,210.567 291.594 C 211.590 291.602,211.271 291.373,209.800 291.044 C 208.924 290.848,208.762 290.885,209.200 291.182 M226.600 291.200 C 225.829 291.531,225.831 291.545,226.676 291.572 C 227.158 291.587,227.664 291.420,227.800 291.200 C 228.092 290.727,227.701 290.727,226.600 291.200 M246.200 291.200 C 246.336 291.420,246.842 291.587,247.324 291.572 C 248.169 291.545,248.171 291.531,247.400 291.200 C 246.299 290.727,245.908 290.727,246.200 291.200 M264.800 291.182 C 265.130 291.405,265.745 291.591,266.167 291.594 C 267.190 291.602,266.871 291.373,265.400 291.044 C 264.524 290.848,264.362 290.885,264.800 291.182 M127.469 353.156 C 127.321 353.895,127.222 355.153,127.249 355.950 C 127.286 357.049,127.382 356.818,127.648 355.000 C 128.031 352.371,127.899 351.005,127.469 353.156 M16.277 355.600 C 16.400 357.250,16.640 358.860,16.810 359.178 C 17.152 359.818,16.881 356.703,16.376 354.200 C 16.158 353.116,16.126 353.567,16.277 355.600 M17.200 360.187 C 17.200 360.838,18.146 363.813,18.471 364.183 C 18.655 364.394,18.516 363.584,18.162 362.383 C 17.544 360.290,17.200 359.504,17.200 360.187 M20.200 367.600 C 20.541 368.260,20.911 368.800,21.021 368.800 C 21.131 368.800,20.941 368.260,20.600 367.600 C 20.259 366.940,19.889 366.400,19.779 366.400 C 19.669 366.400,19.859 366.940,20.200 367.600 M122.959 368.100 C 122.595 368.815,121.495 370.390,120.514 371.600 L 118.731 373.800 120.595 371.800 C 122.260 370.013,124.331 366.800,123.818 366.800 C 123.710 366.800,123.323 367.385,122.959 368.100 M21.514 369.804 C 21.741 370.247,22.348 370.966,22.863 371.402 C 23.767 372.166,23.765 372.152,22.806 370.997 C 21.213 369.079,21.079 368.955,21.514 369.804 M24.430 373.472 C 25.670 374.844,27.368 376.363,27.507 376.226 C 27.648 376.086,23.959 372.400,23.678 372.400 C 23.558 372.400,23.897 372.883,24.430 373.472 M29.225 377.831 C 29.514 378.178,30.661 378.920,31.775 379.479 C 34.313 380.754,33.997 380.388,31.002 378.585 C 29.737 377.822,28.937 377.483,29.225 377.831 M109.900 380.229 C 108.405 381.040,108.496 381.378,110.000 380.600 C 110.660 380.259,111.200 379.894,111.200 379.790 C 111.200 379.532,111.157 379.547,109.900 380.229 M38.000 382.400 C 38.330 382.613,38.870 382.788,39.200 382.788 C 39.733 382.788,39.733 382.745,39.200 382.400 C 38.870 382.187,38.330 382.012,38.000 382.012 C 37.467 382.012,37.467 382.055,38.000 382.400 M40.800 383.205 C 41.130 383.416,41.925 383.591,42.567 383.594 C 44.114 383.602,43.777 383.371,41.800 383.068 C 40.710 382.901,40.391 382.945,40.800 383.205 M101.200 383.200 C 99.833 383.488,99.828 383.495,101.000 383.519 C 101.660 383.533,102.560 383.389,103.000 383.200 C 103.962 382.787,103.164 382.787,101.200 383.200 M45.841 384.077 C 47.875 384.438,95.725 384.438,97.757 384.077 C 98.614 383.925,86.932 383.800,71.798 383.800 C 56.664 383.800,44.983 383.925,45.841 384.077"/><path id="path6" fill="#3a5059" fill-rule="evenodd" stroke="none" d="M164.400 16.018 C 163.962 16.315,164.124 16.352,165.000 16.156 C 166.471 15.827,166.790 15.598,165.767 15.606 C 165.345 15.609,164.730 15.795,164.400 16.018 M158.581 19.700 L 157.000 21.400 158.700 19.819 C 159.635 18.949,160.400 18.184,160.400 18.119 C 160.400 17.816,160.052 18.119,158.581 19.700 M332.893 26.800 C 332.893 27.570,332.975 27.885,333.076 27.500 C 333.176 27.115,333.176 26.485,333.076 26.100 C 332.975 25.715,332.893 26.030,332.893 26.800 M154.987 34.800 L 155.000 42.200 243.800 42.201 L 332.600 42.203 243.909 42.100 L 155.218 41.998 155.096 34.699 L 154.974 27.400 154.987 34.800 M333.364 35.400 C 333.363 39.140,333.423 40.724,333.497 38.920 C 333.571 37.115,333.572 34.055,333.498 32.120 C 333.425 30.184,333.364 31.660,333.364 35.400 M340.314 65.509 C 339.988 65.889,339.591 66.470,339.431 66.800 C 339.271 67.130,339.543 66.885,340.036 66.256 L 340.931 65.112 341.692 66.056 C 342.400 66.934,342.424 66.939,342.025 66.122 C 341.413 64.872,340.991 64.720,340.314 65.509 M337.577 69.700 C 336.867 70.855,336.021 72.205,335.697 72.700 C 335.373 73.195,335.193 73.600,335.297 73.600 C 335.505 73.600,337.984 69.938,338.749 68.500 C 339.657 66.794,338.866 67.605,337.577 69.700 M343.809 69.426 C 344.181 70.101,344.841 71.091,345.276 71.626 L 346.067 72.600 345.391 71.374 C 345.019 70.699,344.359 69.709,343.924 69.174 L 343.133 68.200 343.809 69.426 M348.124 76.200 C 348.462 76.860,349.038 77.760,349.404 78.200 C 349.770 78.640,349.665 78.280,349.170 77.400 C 348.080 75.458,347.264 74.522,348.124 76.200 M332.770 77.266 C 332.498 77.780,332.013 78.605,331.692 79.100 C 331.371 79.595,331.195 80.000,331.301 80.000 C 331.636 80.000,333.669 76.736,333.462 76.529 C 333.354 76.420,333.042 76.752,332.770 77.266 M329.030 83.238 C 327.992 84.799,327.218 86.151,327.309 86.242 C 327.400 86.334,328.009 85.552,328.661 84.504 C 329.313 83.457,330.172 82.105,330.569 81.500 C 330.967 80.895,331.208 80.400,331.105 80.400 C 331.002 80.400,330.068 81.677,329.030 83.238 M352.159 82.700 C 352.889 84.084,353.970 85.499,353.987 85.091 C 354.002 84.741,351.977 81.600,351.737 81.600 C 351.650 81.600,351.840 82.095,352.159 82.700 M325.525 88.900 C 322.995 92.728,322.706 93.200,322.897 93.200 C 323.064 93.200,324.159 91.623,326.577 87.900 C 326.970 87.295,327.207 86.800,327.103 86.800 C 326.998 86.800,326.289 87.745,325.525 88.900 M356.209 89.026 C 356.581 89.701,357.241 90.691,357.676 91.226 L 358.467 92.200 357.791 90.974 C 357.419 90.299,356.759 89.309,356.324 88.774 L 355.533 87.800 356.209 89.026 M321.190 95.680 C 320.473 96.846,319.621 98.205,319.297 98.700 C 318.973 99.195,318.792 99.600,318.895 99.600 C 319.213 99.600,322.868 93.935,322.675 93.742 C 322.575 93.642,321.907 94.514,321.190 95.680 M360.209 95.426 C 360.581 96.101,361.241 97.091,361.676 97.626 L 362.467 98.600 361.791 97.374 C 361.419 96.699,360.759 95.709,360.324 95.174 L 359.533 94.200 360.209 95.426 M316.653 102.791 C 315.521 104.502,315.225 105.518,316.243 104.200 C 316.982 103.244,318.085 101.200,317.863 101.200 C 317.777 101.200,317.232 101.916,316.653 102.791 M364.000 101.313 C 364.000 101.695,366.850 106.000,367.103 106.000 C 367.207 106.000,366.972 105.505,366.582 104.900 C 364.844 102.208,364.000 101.036,364.000 101.313 M313.057 108.594 C 312.255 109.800,311.600 110.922,311.600 111.087 C 311.600 111.364,312.444 110.192,314.182 107.500 C 314.572 106.895,314.807 106.400,314.703 106.400 C 314.598 106.400,313.858 107.387,313.057 108.594 M368.559 108.700 C 369.289 110.084,370.370 111.499,370.387 111.091 C 370.402 110.741,368.377 107.600,368.137 107.600 C 368.050 107.600,368.240 108.095,368.559 108.700 M310.800 111.949 C 310.800 112.140,309.936 113.625,308.879 115.249 C 306.430 119.013,306.318 119.200,306.523 119.200 C 306.617 119.200,307.161 118.494,307.731 117.632 C 310.654 113.216,311.586 111.600,311.212 111.600 C 310.986 111.600,310.800 111.757,310.800 111.949 M372.609 115.026 C 372.981 115.701,373.641 116.691,374.076 117.226 L 374.867 118.200 374.191 116.974 C 373.819 116.299,373.159 115.309,372.724 114.774 L 371.933 113.800 372.609 115.026 M375.821 120.200 C 376.215 120.860,377.109 122.300,377.807 123.400 C 378.506 124.500,379.846 126.615,380.786 128.100 C 381.725 129.585,382.584 130.800,382.693 130.800 C 382.802 130.800,382.630 130.395,382.310 129.900 C 381.990 129.405,380.603 127.192,379.227 124.982 C 377.852 122.771,376.362 120.521,375.916 119.982 L 375.105 119.000 375.821 120.200 M305.530 120.488 C 304.012 122.882,303.151 124.400,303.311 124.400 C 303.613 124.400,306.468 119.934,306.283 119.750 C 306.187 119.654,305.848 119.986,305.530 120.488 M300.708 128.100 C 300.387 128.595,299.907 129.450,299.640 130.000 C 298.960 131.403,300.194 129.906,301.041 128.300 C 301.739 126.974,301.523 126.844,300.708 128.100 M103.784 139.300 C 103.679 139.575,103.639 151.590,103.696 166.000 L 103.800 192.200 119.900 192.207 L 136.000 192.214 120.000 192.102 L 104.000 191.991 104.000 165.596 L 104.000 139.202 192.900 139.100 L 281.800 138.998 192.887 138.899 C 122.053 138.820,103.936 138.902,103.784 139.300 M204.587 261.800 C 204.587 273.900,204.637 278.908,204.700 272.928 C 204.762 266.949,204.762 257.049,204.700 250.928 C 204.638 244.808,204.587 249.700,204.587 261.800 M357.444 283.953 C 356.999 284.127,357.807 284.250,359.400 284.250 C 360.993 284.250,361.801 284.127,361.356 283.953 C 360.940 283.790,360.060 283.656,359.400 283.656 C 358.740 283.656,357.860 283.790,357.444 283.953 M354.385 285.610 L 353.000 286.819 354.590 285.787 C 356.471 284.564,356.656 284.400,356.152 284.400 C 355.942 284.400,355.147 284.944,354.385 285.610 M362.444 284.577 C 362.541 284.674,363.336 285.219,364.210 285.787 L 365.800 286.819 364.415 285.610 C 363.334 284.665,361.650 283.783,362.444 284.577 M352.158 288.639 C 351.827 289.431,351.611 290.320,351.678 290.614 C 351.745 290.909,352.084 290.261,352.431 289.175 C 353.168 286.865,353.020 286.575,352.158 288.639 M366.377 289.194 C 366.720 290.264,367.059 290.975,367.132 290.774 C 367.298 290.313,366.443 287.674,366.048 287.430 C 365.887 287.330,366.035 288.124,366.377 289.194 M351.668 292.600 C 351.662 293.040,351.811 293.760,352.000 294.200 C 352.438 295.219,352.438 294.168,352.000 292.800 C 351.743 291.996,351.677 291.957,351.668 292.600 M366.650 293.250 C 366.509 293.953,366.469 294.602,366.559 294.692 C 366.650 294.783,366.848 294.291,367.000 293.600 C 367.152 292.909,367.193 292.259,367.091 292.158 C 366.989 292.056,366.791 292.547,366.650 293.250 M353.200 296.400 C 353.670 297.060,354.142 297.600,354.250 297.600 C 354.357 297.600,354.126 297.060,353.736 296.400 C 353.346 295.740,352.874 295.200,352.687 295.200 C 352.499 295.200,352.730 295.740,353.200 296.400 M365.064 296.400 C 364.674 297.060,364.443 297.600,364.550 297.600 C 364.658 297.600,365.130 297.060,365.600 296.400 C 366.070 295.740,366.301 295.200,366.113 295.200 C 365.926 295.200,365.454 295.740,365.064 296.400 M351.800 318.000 C 351.648 318.691,351.607 319.341,351.709 319.442 C 351.811 319.544,352.009 319.053,352.150 318.350 C 352.291 317.647,352.331 316.998,352.241 316.908 C 352.150 316.817,351.952 317.309,351.800 318.000 M366.468 317.200 C 366.488 318.239,367.118 319.946,367.132 319.000 C 367.138 318.560,366.989 317.840,366.800 317.400 C 366.589 316.910,366.461 316.832,366.468 317.200 M142.893 358.800 C 142.893 359.570,142.975 359.885,143.076 359.500 C 143.176 359.115,143.176 358.485,143.076 358.100 C 142.975 357.715,142.893 358.030,142.893 358.800 M142.249 361.815 C 142.112 362.173,142.015 362.766,142.034 363.133 C 142.053 363.500,142.227 363.269,142.421 362.620 C 142.798 361.358,142.665 360.733,142.249 361.815"/><path id="path7" fill="#5c5c5c" fill-rule="evenodd" stroke="none" d="M251.900 89.100 C 261.855 89.159,278.145 89.159,288.100 89.100 C 298.055 89.040,289.910 88.992,270.000 88.992 C 250.090 88.992,241.945 89.040,251.900 89.100 M178.300 222.700 C 197.275 222.757,228.325 222.757,247.300 222.700 C 266.275 222.643,250.750 222.595,212.800 222.595 C 174.850 222.595,159.325 222.643,178.300 222.700 M27.700 261.100 C 34.245 261.161,44.955 261.161,51.500 261.100 C 58.045 261.038,52.690 260.988,39.600 260.988 C 26.510 260.988,21.155 261.038,27.700 261.100 M151.775 273.200 C 151.775 279.030,151.831 281.415,151.899 278.500 C 151.967 275.585,151.967 270.815,151.899 267.900 C 151.831 264.985,151.775 267.370,151.775 273.200"/><path id="path8" fill="#343838" fill-rule="evenodd" stroke="none" d="M205.300 15.500 C 226.585 15.557,261.415 15.557,282.700 15.500 C 303.985 15.443,286.570 15.396,244.000 15.396 C 201.430 15.396,184.015 15.443,205.300 15.500 M154.478 34.676 C 154.435 38.678,154.535 42.037,154.700 42.139 C 154.865 42.242,154.953 40.137,154.895 37.463 C 154.699 28.344,154.557 27.391,154.478 34.676 M319.753 69.300 C 318.376 71.636,318.286 71.835,318.987 71.000 C 319.800 70.032,320.500 68.800,320.238 68.800 C 320.133 68.800,319.915 69.025,319.753 69.300 M345.949 72.200 C 346.165 72.640,346.634 73.360,346.993 73.800 L 347.644 74.600 347.251 73.800 C 347.035 73.360,346.566 72.640,346.207 72.200 L 345.556 71.400 345.949 72.200 M136.653 80.391 C 136.074 81.267,135.600 82.117,135.600 82.280 C 135.600 82.444,135.842 82.223,136.139 81.789 C 137.441 79.881,138.078 78.800,137.899 78.800 C 137.793 78.800,137.232 79.516,136.653 80.391 M302.953 124.100 C 301.576 126.436,301.486 126.635,302.187 125.800 C 303.000 124.832,303.700 123.600,303.438 123.600 C 303.333 123.600,303.115 123.825,302.953 124.100 M384.499 258.700 L 384.400 384.400 375.802 384.400 L 367.205 384.400 367.099 352.100 L 366.993 319.800 366.996 352.200 L 367.000 384.600 375.710 384.708 C 382.460 384.791,384.462 384.701,384.612 384.308 C 384.718 384.029,384.758 327.370,384.702 258.400 L 384.599 133.000 384.499 258.700 M297.397 259.000 C 297.397 328.080,297.444 356.280,297.500 321.668 C 297.556 287.055,297.556 230.535,297.500 196.068 C 297.444 161.600,297.397 189.920,297.397 259.000 M282.000 172.920 L 282.200 207.000 282.302 173.222 C 282.359 154.645,282.269 139.309,282.102 139.142 C 281.936 138.976,281.890 154.176,282.000 172.920 M15.292 234.276 C 15.242 248.838,15.335 260.836,15.500 260.938 C 15.772 261.107,15.768 241.543,15.492 217.200 C 15.433 212.030,15.343 219.714,15.292 234.276 M281.904 261.619 L 282.008 300.798 212.904 300.901 L 143.800 301.003 213.000 301.002 L 282.200 301.000 282.302 262.022 C 282.358 240.584,282.268 222.908,282.102 222.742 C 281.936 222.576,281.847 240.070,281.904 261.619 M156.500 232.996 C 155.785 233.307,155.200 233.651,155.200 233.760 C 155.200 233.870,155.785 233.722,156.500 233.432 C 157.215 233.141,158.070 232.805,158.400 232.684 C 158.933 232.488,158.933 232.461,158.400 232.447 C 158.070 232.438,157.215 232.686,156.500 232.996 M210.000 232.800 C 209.176 233.064,209.141 233.126,209.800 233.154 C 210.240 233.173,210.870 233.013,211.200 232.800 C 211.901 232.347,211.414 232.347,210.000 232.800 M213.000 232.800 C 213.440 232.989,214.160 233.138,214.600 233.132 C 215.243 233.123,215.204 233.057,214.400 232.800 C 213.032 232.362,211.981 232.362,213.000 232.800 M246.800 232.800 C 245.976 233.064,245.941 233.126,246.600 233.154 C 247.040 233.173,247.670 233.013,248.000 232.800 C 248.701 232.347,248.214 232.347,246.800 232.800 M250.000 232.782 C 250.330 233.005,250.945 233.191,251.367 233.194 C 252.390 233.202,252.071 232.973,250.600 232.644 C 249.724 232.448,249.562 232.485,250.000 232.782 M267.233 232.547 C 267.325 232.628,268.120 232.804,269.000 232.938 C 270.115 233.107,270.358 233.071,269.800 232.819 C 269.032 232.471,266.890 232.244,267.233 232.547 M190.200 233.457 C 192.237 235.264,192.987 235.791,192.202 234.863 C 191.766 234.348,191.047 233.741,190.604 233.514 C 190.162 233.287,189.980 233.262,190.200 233.457 M252.600 233.457 C 254.637 235.264,255.387 235.791,254.602 234.863 C 254.166 234.348,253.447 233.741,253.004 233.514 C 252.562 233.287,252.380 233.262,252.600 233.457 M270.800 233.311 C 270.800 233.387,271.385 233.878,272.100 234.401 C 272.904 234.990,273.184 235.087,272.833 234.655 C 272.300 233.999,270.800 233.007,270.800 233.311 M163.600 233.725 C 163.600 233.794,164.185 234.379,164.900 235.025 L 166.200 236.200 165.025 234.900 C 163.930 233.688,163.600 233.416,163.600 233.725 M256.046 238.467 C 255.971 239.553,256.441 240.400,257.119 240.400 C 257.693 240.400,257.692 240.352,257.110 239.900 C 256.757 239.625,256.383 239.040,256.280 238.600 C 256.143 238.016,256.080 237.980,256.046 238.467 M219.290 257.076 C 219.240 267.238,219.335 275.636,219.500 275.739 C 219.773 275.907,219.767 262.088,219.488 245.200 C 219.428 241.570,219.339 246.914,219.290 257.076 M166.987 261.800 C 166.987 274.340,167.038 279.412,167.100 273.072 C 167.162 266.731,167.162 256.471,167.100 250.272 C 167.038 244.072,166.987 249.260,166.987 261.800 M265.749 253.484 C 264.677 254.740,264.009 255.639,264.264 255.483 C 264.823 255.139,268.154 251.200,267.886 251.200 C 267.782 251.200,266.820 252.228,265.749 253.484 M259.592 261.014 C 259.100 261.935,259.138 262.109,260.010 262.914 L 260.970 263.800 260.203 262.878 C 259.552 262.095,259.513 261.831,259.945 261.139 C 260.226 260.690,260.383 260.250,260.295 260.162 C 260.207 260.073,259.891 260.457,259.592 261.014 M262.800 266.264 C 262.800 266.482,263.295 267.097,263.900 267.630 L 265.000 268.600 264.000 267.400 C 263.450 266.740,262.955 266.125,262.900 266.033 C 262.845 265.942,262.800 266.045,262.800 266.264 M270.439 275.600 C 271.163 276.590,271.810 277.475,271.877 277.567 C 271.945 277.658,271.997 277.568,271.994 277.367 C 271.991 277.165,271.344 276.280,270.556 275.400 L 269.124 273.800 270.439 275.600 M97.731 276.110 C 98.356 276.319,99.244 276.319,99.869 276.110 C 100.762 275.813,100.585 275.754,98.800 275.754 C 97.015 275.754,96.838 275.813,97.731 276.110 M225.400 276.400 C 225.536 276.620,226.042 276.787,226.524 276.772 C 227.369 276.745,227.371 276.731,226.600 276.400 C 225.499 275.927,225.108 275.927,225.400 276.400 M15.392 315.400 C 15.392 336.740,15.441 345.411,15.500 334.670 C 15.559 323.928,15.559 306.468,15.500 295.870 C 15.441 285.271,15.392 294.060,15.392 315.400 M179.444 285.000 C 179.773 286.471,180.002 286.790,179.994 285.767 C 179.991 285.345,179.805 284.730,179.582 284.400 C 179.285 283.962,179.248 284.124,179.444 285.000 M152.411 286.000 C 152.415 286.330,152.789 287.050,153.244 287.600 C 153.698 288.150,153.953 288.374,153.810 288.099 C 152.619 285.794,152.406 285.474,152.411 286.000 M353.923 286.300 C 353.218 287.121,352.690 288.000,352.901 288.000 C 352.983 288.000,353.449 287.460,353.937 286.800 C 354.901 285.496,354.892 285.172,353.923 286.300 M364.799 286.700 C 365.322 287.415,365.813 288.000,365.889 288.000 C 366.193 288.000,365.201 286.500,364.545 285.967 C 364.113 285.616,364.210 285.896,364.799 286.700 M160.200 290.800 C 159.908 291.273,160.299 291.273,161.400 290.800 C 162.171 290.469,162.169 290.455,161.324 290.428 C 160.842 290.413,160.336 290.580,160.200 290.800 M187.400 290.800 C 187.108 291.273,187.499 291.273,188.600 290.800 C 189.371 290.469,189.369 290.455,188.524 290.428 C 188.042 290.413,187.536 290.580,187.400 290.800 M210.200 290.800 C 211.301 291.273,211.692 291.273,211.400 290.800 C 211.264 290.580,210.758 290.413,210.276 290.428 C 209.431 290.455,209.429 290.469,210.200 290.800 M358.705 312.683 C 359.202 312.779,359.922 312.775,360.305 312.675 C 360.687 312.575,360.280 312.496,359.400 312.501 C 358.520 312.505,358.207 312.587,358.705 312.683 M355.159 313.770 C 354.374 314.303,353.409 315.248,353.015 315.870 C 352.395 316.847,352.481 316.810,353.649 315.593 C 354.392 314.819,355.450 313.883,356.000 313.514 C 356.550 313.144,356.907 312.833,356.793 312.821 C 356.679 312.809,355.944 313.236,355.159 313.770 M362.800 313.466 C 363.350 313.862,364.420 314.819,365.178 315.593 L 366.556 317.000 365.578 315.678 C 365.040 314.951,363.970 313.994,363.200 313.551 C 362.226 312.991,362.104 312.965,362.800 313.466 M178.300 316.300 C 197.275 316.357,228.325 316.357,247.300 316.300 C 266.275 316.243,250.750 316.195,212.800 316.195 C 174.850 316.195,159.325 316.243,178.300 316.300 M282.098 350.300 L 282.000 384.400 206.633 384.400 C 155.562 384.400,131.201 384.268,131.063 383.990 C 130.951 383.764,130.906 383.810,130.963 384.090 C 131.114 384.835,281.931 385.046,282.215 384.301 C 282.321 384.025,282.359 368.590,282.301 350.000 L 282.195 316.200 282.098 350.300 M351.698 351.897 L 351.600 384.394 324.700 384.500 L 297.800 384.606 324.713 384.703 C 345.946 384.780,351.665 384.694,351.816 384.300 C 351.921 384.025,351.959 369.310,351.901 351.600 L 351.795 319.400 351.698 351.897 M128.064 355.067 C 128.029 355.764,127.896 356.664,127.770 357.067 C 127.553 357.759,127.565 357.760,127.994 357.091 C 128.245 356.702,128.377 355.802,128.289 355.091 L 128.128 353.800 128.064 355.067 M143.040 355.640 C 142.893 356.557,142.852 357.385,142.947 357.480 C 143.042 357.576,143.246 356.910,143.400 356.000 C 143.554 355.090,143.596 354.262,143.493 354.160 C 143.390 354.057,143.187 354.723,143.040 355.640 M134.000 379.600 C 133.530 380.260,133.236 380.800,133.346 380.800 C 133.456 380.800,133.930 380.260,134.400 379.600 C 134.870 378.940,135.164 378.400,135.054 378.400 C 134.944 378.400,134.470 378.940,134.000 379.600 M58.300 384.700 C 65.835 384.761,78.165 384.761,85.700 384.700 C 93.235 384.639,87.070 384.589,72.000 384.589 C 56.930 384.589,50.765 384.639,58.300 384.700"/></g></svg>