<svg id="svg" version="1.1" xmlns="http://www.w3.org/2000/svg" xmlns:xlink="http://www.w3.org/1999/xlink" width="400" height="400" viewBox="0, 0, 400,400"><g id="svgg"><path id="path0" d="M204.935 120.913 C 204.392 124.314,201.165 126.000,195.200 126.000 C 193.414 126.000,190.299 126.172,188.277 126.382 C 186.254 126.592,182.620 126.960,180.200 127.198 C 172.298 127.978,172.800 127.799,172.800 129.829 C 172.800 132.650,171.603 137.371,169.925 141.166 C 166.134 149.740,158.950 156.063,147.900 160.550 L 146.400 161.159 146.400 166.151 C 146.400 177.324,151.041 191.799,155.970 196.000 C 156.099 196.110,156.732 196.920,157.376 197.800 C 158.940 199.935,168.579 209.693,169.930 210.509 C 170.519 210.864,171.463 211.592,172.029 212.127 C 175.131 215.061,187.809 222.329,193.800 224.608 C 195.340 225.194,196.960 225.822,197.400 226.003 C 197.840 226.185,198.650 226.446,199.200 226.585 C 199.750 226.723,201.114 227.088,202.232 227.395 C 205.341 228.251,209.839 228.492,213.600 228.005 C 215.470 227.763,217.810 227.465,218.800 227.344 C 219.790 227.222,220.771 226.960,220.980 226.761 C 221.189 226.563,221.853 226.400,222.456 226.400 C 223.059 226.400,223.664 226.220,223.800 226.000 C 223.936 225.780,224.577 225.600,225.224 225.600 C 225.871 225.600,226.400 225.420,226.400 225.200 C 226.400 224.980,226.940 224.800,227.600 224.800 C 228.260 224.800,228.800 224.620,228.800 224.400 C 228.800 224.180,229.143 224.000,229.562 224.000 C 230.369 224.000,230.942 223.742,237.600 220.386 C 239.910 219.222,242.204 218.074,242.697 217.835 C 243.190 217.596,243.595 217.265,243.597 217.100 C 243.599 216.935,243.793 216.800,244.028 216.800 C 245.313 216.800,253.663 210.334,258.232 205.801 C 264.884 199.200,268.170 194.754,271.541 187.794 C 272.498 185.817,273.443 183.887,273.641 183.505 C 273.838 183.123,274.000 182.459,274.000 182.029 C 274.000 181.599,274.180 181.136,274.400 181.000 C 274.620 180.864,274.800 180.234,274.800 179.600 C 274.800 178.966,274.980 178.336,275.200 178.200 C 275.420 178.064,275.600 177.254,275.600 176.400 C 275.600 175.546,275.780 174.736,276.000 174.600 C 276.240 174.452,276.400 171.777,276.400 167.920 C 276.400 160.963,276.241 160.443,274.100 160.413 C 273.605 160.406,273.200 160.220,273.200 160.000 C 273.200 159.780,272.948 159.600,272.641 159.600 C 271.984 159.600,268.099 157.605,266.977 156.691 C 266.549 156.343,265.030 155.176,263.600 154.098 C 256.180 148.501,251.842 140.722,250.513 130.624 C 250.144 127.820,250.423 127.947,243.000 127.228 C 240.360 126.972,236.658 126.591,234.773 126.381 C 232.888 126.172,230.188 125.996,228.773 125.991 C 224.443 125.976,221.735 124.148,220.985 120.732 L 220.744 119.632 212.960 119.516 L 205.177 119.400 204.935 120.913 M193.400 145.768 C 198.268 146.953,202.172 150.007,202.618 152.978 C 203.454 158.555,197.236 162.497,193.180 158.961 C 190.547 156.666,182.253 156.666,179.620 158.961 C 174.904 163.071,167.911 157.123,170.657 151.337 C 171.324 149.931,175.394 146.800,176.554 146.800 C 176.884 146.800,177.264 146.620,177.400 146.400 C 177.536 146.180,178.132 145.997,178.724 145.994 C 179.316 145.991,180.070 145.808,180.400 145.589 C 181.064 145.147,191.437 145.291,193.400 145.768 M240.920 145.762 C 248.661 147.779,252.160 151.966,250.028 156.662 C 248.445 160.148,244.650 161.216,241.284 159.122 C 238.965 157.681,237.227 157.212,234.200 157.212 C 231.173 157.212,229.435 157.681,227.116 159.122 C 221.108 162.859,214.784 155.501,219.384 150.127 C 222.907 146.011,233.575 143.849,240.920 145.762 M173.599 229.700 C 173.598 229.975,172.433 231.460,171.010 233.000 L 168.423 235.800 170.572 237.854 C 171.754 238.984,173.279 240.238,173.961 240.640 C 174.642 241.043,175.200 241.514,175.200 241.686 C 175.200 241.859,175.545 242.000,175.967 242.000 C 176.388 242.000,176.793 242.135,176.867 242.300 C 176.994 242.586,179.877 244.049,182.000 244.904 C 182.550 245.126,183.360 245.457,183.800 245.640 C 184.960 246.124,191.432 247.839,194.000 248.343 C 200.885 249.694,202.173 249.799,211.600 249.770 C 221.435 249.740,222.613 249.626,231.400 247.839 C 233.701 247.372,240.337 245.366,240.698 245.029 C 240.752 244.978,239.492 244.108,237.898 243.094 C 236.304 242.081,234.129 240.362,233.064 239.276 C 230.891 237.057,231.520 237.097,225.400 238.787 C 211.192 242.709,196.735 240.711,181.234 232.682 C 179.125 231.589,176.996 230.494,176.503 230.248 C 176.010 230.002,175.605 229.665,175.603 229.500 C 175.601 229.335,175.150 229.200,174.600 229.200 C 174.050 229.200,173.599 229.425,173.599 229.700 M18.600 280.461 C 14.207 281.917,12.580 284.015,12.629 288.161 C 12.696 293.751,15.083 295.304,23.960 295.530 L 30.519 295.697 30.268 294.548 C 30.129 293.917,29.742 292.140,29.408 290.600 C 29.074 289.060,28.800 286.045,28.800 283.900 L 28.800 280.000 24.300 280.032 C 21.825 280.049,19.260 280.242,18.600 280.461 M202.162 285.169 C 202.141 288.011,201.929 290.846,201.692 291.468 C 201.455 292.091,201.145 293.296,201.003 294.148 L 200.746 295.695 207.319 295.537 C 216.109 295.324,218.509 293.665,218.475 287.821 C 218.443 282.292,214.985 280.017,206.600 280.007 L 202.200 280.001 202.162 285.169 M350.348 311.202 C 345.981 313.510,346.003 313.361,346.011 340.800 C 346.020 372.193,345.305 370.794,361.022 370.204 C 365.304 370.044,368.906 369.752,369.027 369.556 C 369.148 369.360,369.599 369.200,370.028 369.200 C 373.754 369.200,380.181 362.946,381.870 357.676 C 382.994 354.170,382.973 326.485,381.844 323.200 C 380.310 318.739,375.161 312.800,372.828 312.800 C 372.593 312.800,372.400 312.620,372.400 312.400 C 372.400 312.180,371.950 312.000,371.400 312.000 C 370.850 312.000,370.400 311.820,370.400 311.600 C 370.400 311.380,369.691 311.200,368.824 311.200 C 367.957 311.200,367.136 311.020,367.000 310.800 C 366.495 309.983,351.993 310.333,350.348 311.202 " stroke="none" fill="#ffdda6" fill-rule="evenodd"></path><path id="path1" d="M194.300 125.893 C 195.235 125.977,196.765 125.977,197.700 125.893 C 198.635 125.809,197.870 125.740,196.000 125.740 C 194.130 125.740,193.365 125.809,194.300 125.893 M226.905 125.887 C 227.514 125.979,228.414 125.977,228.905 125.882 C 229.397 125.787,228.900 125.711,227.800 125.714 C 226.700 125.717,226.297 125.795,226.905 125.887 M188.500 126.276 C 188.885 126.376,189.515 126.376,189.900 126.276 C 190.285 126.175,189.970 126.093,189.200 126.093 C 188.430 126.093,188.115 126.175,188.500 126.276 M233.300 126.276 C 233.685 126.376,234.315 126.376,234.700 126.276 C 235.085 126.175,234.770 126.093,234.000 126.093 C 233.230 126.093,232.915 126.175,233.300 126.276 M184.505 126.687 C 185.114 126.779,186.014 126.777,186.505 126.682 C 186.997 126.587,186.500 126.511,185.400 126.514 C 184.300 126.517,183.897 126.595,184.505 126.687 M236.905 126.687 C 237.514 126.779,238.414 126.777,238.905 126.682 C 239.397 126.587,238.900 126.511,237.800 126.514 C 236.700 126.517,236.297 126.595,236.905 126.687 M176.305 127.483 C 176.802 127.579,177.522 127.575,177.905 127.475 C 178.287 127.375,177.880 127.296,177.000 127.301 C 176.120 127.305,175.807 127.387,176.305 127.483 M245.100 127.482 C 245.595 127.578,246.405 127.578,246.900 127.482 C 247.395 127.387,246.990 127.309,246.000 127.309 C 245.010 127.309,244.605 127.387,245.100 127.482 M249.200 127.957 C 249.944 128.163,250.263 128.588,250.447 129.617 L 250.695 131.000 250.747 129.780 C 250.809 128.362,250.181 127.583,249.020 127.640 C 248.334 127.673,248.363 127.725,249.200 127.957 M180.421 145.579 C 180.046 145.816,180.470 145.865,181.621 145.718 C 182.599 145.592,183.475 145.425,183.567 145.345 C 183.942 145.019,180.955 145.240,180.421 145.579 M189.633 145.343 C 189.725 145.422,190.520 145.597,191.400 145.732 C 192.490 145.899,192.809 145.855,192.400 145.595 C 191.853 145.246,189.245 145.009,189.633 145.343 M228.200 145.600 C 227.181 146.038,228.232 146.038,229.600 145.600 C 230.404 145.343,230.443 145.277,229.800 145.268 C 229.360 145.262,228.640 145.411,228.200 145.600 M219.775 149.700 L 218.600 151.000 219.900 149.825 C 220.615 149.179,221.200 148.594,221.200 148.525 C 221.200 148.216,220.870 148.488,219.775 149.700 M162.786 151.100 L 160.600 153.400 162.900 151.214 C 164.165 150.011,165.200 148.976,165.200 148.914 C 165.200 148.617,164.818 148.963,162.786 151.100 M260.200 151.200 C 261.283 152.300,262.260 153.200,262.370 153.200 C 262.480 153.200,261.683 152.300,260.600 151.200 C 259.517 150.100,258.540 149.200,258.430 149.200 C 258.320 149.200,259.117 150.100,260.200 151.200 M250.268 153.400 C 250.571 155.377,250.802 155.714,250.794 154.167 C 250.791 153.525,250.616 152.730,250.405 152.400 C 250.145 151.991,250.101 152.310,250.268 153.400 M202.501 154.200 C 202.505 155.080,202.587 155.393,202.683 154.895 C 202.779 154.398,202.775 153.678,202.675 153.295 C 202.575 152.913,202.496 153.320,202.501 154.200 M267.200 156.741 C 267.200 157.139,271.898 159.600,272.656 159.600 C 272.955 159.600,273.200 159.780,273.200 160.000 C 273.200 160.220,273.605 160.406,274.100 160.413 C 276.241 160.443,276.400 160.963,276.400 167.920 C 276.400 171.777,276.240 174.452,276.000 174.600 C 275.780 174.736,275.600 175.546,275.600 176.400 C 275.600 177.254,275.420 178.064,275.200 178.200 C 274.980 178.336,274.800 178.966,274.800 179.600 C 274.800 180.234,274.620 180.864,274.400 181.000 C 274.180 181.136,274.000 181.599,274.000 182.029 C 274.000 182.459,273.838 183.123,273.641 183.505 C 273.443 183.887,272.498 185.817,271.541 187.794 C 268.170 194.754,264.884 199.200,258.232 205.801 C 253.663 210.334,245.313 216.800,244.028 216.800 C 243.793 216.800,243.599 216.935,243.597 217.100 C 243.595 217.265,243.190 217.596,242.697 217.835 C 242.204 218.074,239.910 219.222,237.600 220.386 C 230.942 223.742,230.369 224.000,229.562 224.000 C 229.143 224.000,228.800 224.180,228.800 224.400 C 228.800 224.620,228.260 224.800,227.600 224.800 C 226.940 224.800,226.400 224.980,226.400 225.200 C 226.400 225.420,225.871 225.600,225.224 225.600 C 224.577 225.600,223.936 225.780,223.800 226.000 C 223.664 226.220,223.034 226.400,222.400 226.400 C 221.766 226.400,221.136 226.580,221.000 226.800 C 220.083 228.283,231.104 224.435,238.200 220.794 C 262.408 208.373,276.370 189.116,277.096 167.148 L 277.303 160.896 275.751 160.397 C 274.898 160.122,272.625 159.114,270.700 158.157 C 268.775 157.200,267.200 156.563,267.200 156.741 M200.494 158.412 C 199.775 159.065,199.337 159.600,199.519 159.600 C 199.701 159.600,200.368 159.060,201.000 158.400 C 202.470 156.865,202.186 156.872,200.494 158.412 M244.800 160.000 C 243.416 160.291,243.414 160.295,244.600 160.341 C 245.260 160.367,246.070 160.213,246.400 160.000 C 247.066 159.570,246.845 159.570,244.800 160.000 M175.300 160.276 C 175.685 160.376,176.315 160.376,176.700 160.276 C 177.085 160.175,176.770 160.093,176.000 160.093 C 175.230 160.093,174.915 160.175,175.300 160.276 M196.100 160.276 C 196.485 160.376,197.115 160.376,197.500 160.276 C 197.885 160.175,197.570 160.093,196.800 160.093 C 196.030 160.093,195.715 160.175,196.100 160.276 M146.172 161.328 C 146.061 161.619,146.023 163.644,146.088 165.828 L 146.206 169.800 146.403 165.299 C 146.598 160.845,146.566 160.301,146.172 161.328 M146.806 176.433 C 146.809 176.965,146.989 177.670,147.206 178.000 C 147.482 178.422,147.523 178.185,147.342 177.200 C 147.025 175.475,146.798 175.149,146.806 176.433 M147.606 179.833 C 147.609 180.255,147.795 180.870,148.018 181.200 C 148.315 181.638,148.352 181.476,148.156 180.600 C 147.827 179.129,147.598 178.810,147.606 179.833 M159.200 200.240 C 159.200 200.446,161.135 202.501,163.500 204.807 L 167.800 209.000 163.600 204.613 C 161.290 202.200,159.355 200.145,159.300 200.046 C 159.245 199.947,159.200 200.035,159.200 200.240 M182.800 219.564 C 183.350 220.014,183.980 220.383,184.200 220.385 C 184.628 220.388,183.905 219.834,182.600 219.160 C 182.069 218.885,182.136 219.021,182.800 219.564 M184.800 220.596 C 184.800 220.870,187.249 222.084,187.432 221.901 C 187.519 221.814,186.962 221.444,186.195 221.078 C 185.428 220.712,184.800 220.495,184.800 220.596 M217.035 227.498 C 216.871 227.662,214.636 227.997,212.069 228.243 C 208.109 228.621,207.795 228.697,210.000 228.743 C 212.409 228.793,219.927 227.806,220.348 227.385 C 220.450 227.283,219.813 227.200,218.933 227.200 C 218.053 227.200,217.199 227.334,217.035 227.498 M171.045 232.050 C 167.372 236.336,167.365 236.233,171.523 239.509 C 191.197 255.014,235.326 254.208,253.300 238.016 C 255.577 235.965,255.603 235.746,253.774 233.978 C 252.990 233.220,251.624 231.663,250.739 230.517 L 249.130 228.435 244.865 230.606 C 231.042 237.645,218.999 240.790,207.810 240.284 C 204.636 240.140,203.252 240.197,203.708 240.453 C 205.542 241.479,219.542 240.404,225.400 238.787 C 231.520 237.097,230.891 237.057,233.064 239.276 C 234.129 240.362,236.304 242.081,237.898 243.094 C 239.492 244.108,240.752 244.978,240.698 245.029 C 240.337 245.366,233.701 247.372,231.400 247.839 C 222.613 249.626,221.435 249.740,211.600 249.770 C 202.173 249.799,200.885 249.694,194.000 248.343 C 191.257 247.804,184.904 246.104,183.700 245.587 C 183.205 245.374,182.395 245.043,181.900 244.851 C 180.020 244.121,176.995 242.588,176.867 242.300 C 176.793 242.135,176.388 242.000,175.967 242.000 C 175.545 242.000,175.200 241.859,175.200 241.686 C 175.200 241.514,174.642 241.043,173.961 240.640 C 173.279 240.238,171.754 238.984,170.572 237.854 L 168.423 235.800 171.010 233.000 C 172.433 231.460,173.598 229.975,173.599 229.700 C 173.599 229.425,174.050 229.200,174.600 229.200 C 175.150 229.200,175.601 229.335,175.603 229.500 C 175.605 229.665,176.010 230.002,176.503 230.248 C 176.996 230.494,179.125 231.589,181.234 232.682 C 188.078 236.227,197.151 239.503,201.000 239.821 L 203.000 239.986 200.800 239.465 C 192.930 237.603,184.937 234.318,176.397 229.437 C 175.408 228.872,174.504 228.407,174.386 228.405 C 174.268 228.402,172.765 230.042,171.045 232.050 M16.599 280.534 C 10.403 283.437,10.299 292.087,16.423 295.212 C 17.812 295.920,31.200 296.503,31.200 295.855 C 31.200 295.775,30.816 294.200,30.347 292.355 C 29.750 290.005,29.478 287.622,29.439 284.400 L 29.383 279.800 23.992 279.698 C 19.052 279.605,18.432 279.675,16.599 280.534 M42.176 280.170 C 39.517 282.122,42.342 295.305,47.875 306.754 C 52.489 316.304,59.355 324.808,68.308 332.066 C 70.740 334.038,76.750 337.748,80.733 339.737 L 85.265 342.000 115.754 342.000 L 146.242 342.000 149.421 340.413 C 168.393 330.945,182.174 314.298,188.340 293.400 C 190.278 286.832,190.446 281.675,188.766 280.300 C 187.577 279.326,43.500 279.198,42.176 280.170 M201.594 284.300 C 201.589 287.646,201.359 289.908,200.794 292.151 C 200.357 293.884,200.000 295.459,200.000 295.651 C 200.000 296.526,213.324 296.030,214.962 295.093 C 219.883 292.279,220.631 285.919,216.538 281.697 C 215.072 280.184,212.407 279.600,206.967 279.600 L 201.600 279.600 201.594 284.300 M28.800 283.900 C 28.800 286.045,29.074 289.060,29.408 290.600 C 29.742 292.140,30.129 293.917,30.268 294.548 L 30.519 295.697 23.960 295.530 C 15.083 295.304,12.696 293.751,12.629 288.161 C 12.560 282.377,15.842 280.091,24.300 280.032 L 28.800 280.000 28.800 283.900 M212.600 280.506 C 219.338 282.586,220.813 290.098,215.308 294.298 C 213.926 295.351,213.730 295.382,207.319 295.537 L 200.746 295.695 201.003 294.148 C 201.145 293.296,201.455 292.091,201.692 291.468 C 201.929 290.846,202.141 288.011,202.162 285.169 L 202.200 280.001 206.600 280.007 C 209.020 280.010,211.720 280.234,212.600 280.506 M359.590 310.300 C 363.434 310.366,366.755 310.595,366.970 310.810 C 367.184 311.024,368.044 311.200,368.880 311.200 C 369.716 311.200,370.400 311.380,370.400 311.600 C 370.400 311.820,370.850 312.000,371.400 312.000 C 371.950 312.000,372.400 312.180,372.400 312.400 C 372.400 312.620,372.593 312.800,372.828 312.800 C 375.161 312.800,380.310 318.739,381.844 323.200 C 382.973 326.485,382.994 354.170,381.870 357.676 C 380.222 362.818,373.758 369.200,370.199 369.200 C 369.864 369.200,369.277 369.376,368.895 369.590 C 368.513 369.805,364.600 370.147,360.200 370.350 L 352.200 370.720 360.600 370.621 C 372.726 370.476,377.762 367.891,381.563 359.856 C 384.596 353.444,384.539 327.228,381.479 320.800 C 377.755 312.980,371.427 309.926,359.280 310.090 L 352.600 310.180 359.590 310.300 M347.200 367.325 C 347.200 367.394,347.785 367.979,348.500 368.625 L 349.800 369.800 348.625 368.500 C 347.530 367.288,347.200 367.016,347.200 367.325 " stroke="none" fill="#f78411" fill-rule="evenodd"></path><path id="path2" d="M204.800 10.800 C 204.470 11.013,203.525 11.191,202.700 11.194 C 201.875 11.197,201.200 11.380,201.200 11.600 C 201.200 11.820,200.671 12.000,200.024 12.000 C 199.377 12.000,198.736 12.180,198.600 12.400 C 198.464 12.620,197.913 12.800,197.376 12.800 C 196.839 12.800,196.400 12.980,196.400 13.200 C 196.400 13.420,196.057 13.600,195.638 13.600 C 194.822 13.600,191.488 15.201,191.267 15.700 C 191.193 15.865,190.788 16.000,190.367 16.000 C 189.945 16.000,189.600 16.150,189.600 16.332 C 189.600 16.515,189.105 16.920,188.500 17.232 C 187.895 17.545,187.051 18.115,186.625 18.500 C 186.198 18.885,185.685 19.200,185.485 19.200 C 185.285 19.200,184.617 19.740,184.000 20.400 C 183.383 21.060,182.726 21.604,182.540 21.609 C 181.740 21.631,175.601 28.225,175.600 29.064 C 175.599 29.249,175.173 29.895,174.653 30.500 L 173.707 31.600 162.053 31.600 C 154.551 31.600,150.400 31.742,150.400 32.000 C 150.400 32.220,149.680 32.400,148.800 32.400 C 147.920 32.400,147.200 32.580,147.200 32.800 C 147.200 33.020,146.748 33.200,146.195 33.200 C 145.642 33.200,144.832 33.380,144.395 33.600 C 143.958 33.820,143.242 34.180,142.805 34.400 C 142.368 34.620,141.648 34.800,141.205 34.800 C 140.762 34.800,140.400 34.980,140.400 35.200 C 140.400 35.420,140.040 35.600,139.600 35.600 C 139.160 35.600,138.800 35.780,138.800 36.000 C 138.800 36.220,138.564 36.400,138.275 36.400 C 137.987 36.400,137.364 36.760,136.892 37.200 C 136.420 37.640,135.828 38.000,135.577 38.000 C 135.326 38.000,134.617 38.540,134.000 39.200 C 133.383 39.860,132.703 40.400,132.488 40.400 C 131.083 40.400,124.800 48.120,124.800 49.846 C 124.800 50.151,124.665 50.401,124.500 50.403 C 124.141 50.407,123.200 52.344,123.200 53.080 C 123.200 53.366,123.020 53.600,122.800 53.600 C 122.580 53.600,122.400 54.140,122.400 54.800 C 122.400 55.460,122.220 56.000,122.000 56.000 C 121.780 56.000,121.600 56.529,121.600 57.176 C 121.600 57.823,121.420 58.464,121.200 58.600 C 120.963 58.746,120.800 61.204,120.800 64.624 C 120.800 68.208,120.952 70.400,121.200 70.400 C 121.420 70.400,121.600 71.030,121.600 71.800 C 121.600 72.570,121.780 73.200,122.000 73.200 C 122.220 73.200,122.400 73.650,122.400 74.200 C 122.400 74.750,122.580 75.200,122.800 75.200 C 123.020 75.200,123.200 75.560,123.200 76.000 C 123.200 76.440,123.380 76.800,123.600 76.800 C 123.820 76.800,124.000 77.160,124.000 77.600 C 124.000 78.040,124.180 78.400,124.400 78.400 C 124.620 78.400,124.803 78.715,124.806 79.100 C 124.810 79.485,125.350 80.409,126.006 81.154 C 126.663 81.899,127.200 82.668,127.200 82.863 C 127.200 83.273,131.586 87.600,132.001 87.600 C 132.153 87.600,132.665 87.936,133.139 88.347 L 134.000 89.094 134.000 133.747 C 134.000 163.249,134.136 178.400,134.400 178.400 C 134.620 178.400,134.800 179.300,134.800 180.400 C 134.800 181.500,134.980 182.400,135.200 182.400 C 135.420 182.400,135.600 182.929,135.600 183.576 C 135.600 184.223,135.780 184.864,136.000 185.000 C 136.220 185.136,136.400 185.676,136.400 186.200 C 136.400 186.724,136.580 187.264,136.800 187.400 C 137.020 187.536,137.200 188.087,137.200 188.624 C 137.200 189.161,137.380 189.600,137.600 189.600 C 137.820 189.600,138.000 189.960,138.000 190.400 C 138.000 190.840,138.180 191.200,138.400 191.200 C 138.620 191.200,138.800 191.650,138.800 192.200 C 138.800 192.750,138.980 193.200,139.200 193.200 C 139.420 193.200,139.600 193.560,139.600 194.000 C 139.600 194.440,139.735 194.801,139.900 194.803 C 140.065 194.805,140.403 195.210,140.651 195.703 C 140.900 196.196,141.587 197.571,142.180 198.757 C 142.772 199.943,143.514 201.171,143.828 201.486 C 144.143 201.800,144.400 202.216,144.400 202.410 C 144.400 202.605,144.850 203.214,145.400 203.764 C 145.950 204.314,146.400 204.872,146.400 205.004 C 146.400 205.135,146.939 205.819,147.598 206.522 C 148.257 207.225,148.797 207.923,148.798 208.073 C 148.799 208.223,149.160 208.460,149.600 208.600 C 150.040 208.740,150.400 209.101,150.400 209.402 C 150.400 209.966,155.438 215.117,160.212 219.436 L 162.906 221.873 161.953 222.995 C 160.977 224.145,159.700 225.418,158.643 226.294 C 158.315 226.565,157.182 227.174,156.124 227.646 C 155.066 228.118,153.887 228.661,153.505 228.852 C 153.123 229.043,151.739 229.200,150.429 229.200 C 149.119 229.200,147.936 229.380,147.800 229.600 C 147.658 229.831,145.529 230.000,142.776 230.000 C 139.859 230.000,138.000 230.156,138.000 230.400 C 138.000 230.629,136.800 230.800,135.200 230.800 C 133.600 230.800,132.400 230.971,132.400 231.200 C 132.400 231.420,131.410 231.600,130.200 231.600 C 128.990 231.600,128.000 231.780,128.000 232.000 C 128.000 232.220,127.280 232.400,126.400 232.400 C 125.520 232.400,124.800 232.580,124.800 232.800 C 124.800 233.020,124.080 233.200,123.200 233.200 C 122.320 233.200,121.600 233.380,121.600 233.600 C 121.600 233.820,120.981 234.000,120.224 234.000 C 119.467 234.000,118.736 234.180,118.600 234.400 C 118.464 234.620,118.001 234.800,117.571 234.800 C 117.141 234.800,116.432 234.980,115.995 235.200 C 115.558 235.420,114.842 235.780,114.405 236.000 C 113.968 236.220,113.248 236.400,112.805 236.400 C 112.362 236.400,112.000 236.580,112.000 236.800 C 112.000 237.020,111.640 237.200,111.200 237.200 C 110.760 237.200,110.400 237.380,110.400 237.600 C 110.400 237.820,109.950 238.000,109.400 238.000 C 108.850 238.000,108.400 238.180,108.400 238.400 C 108.400 238.620,108.040 238.800,107.600 238.800 C 107.160 238.800,106.800 238.980,106.800 239.200 C 106.800 239.420,106.480 239.600,106.088 239.600 C 105.697 239.600,105.117 239.960,104.800 240.400 C 104.483 240.840,103.903 241.200,103.512 241.200 C 103.120 241.200,102.800 241.380,102.800 241.600 C 102.800 241.820,102.530 242.000,102.201 242.000 C 100.703 242.000,90.400 250.715,90.400 251.982 C 90.400 252.212,89.680 253.141,88.800 254.048 C 87.920 254.955,87.200 255.862,87.200 256.065 C 87.200 256.268,86.840 256.820,86.400 257.292 C 85.960 257.764,85.600 258.387,85.600 258.675 C 85.600 258.964,85.420 259.200,85.200 259.200 C 84.980 259.200,84.800 259.470,84.800 259.800 C 84.800 260.130,84.620 260.400,84.400 260.400 C 84.180 260.400,84.000 260.760,84.000 261.200 C 84.000 261.640,83.820 262.000,83.600 262.000 C 83.380 262.000,83.200 262.360,83.200 262.800 C 83.200 263.240,83.020 263.600,82.800 263.600 C 82.580 263.600,82.400 263.960,82.400 264.400 C 82.400 264.840,82.220 265.200,82.000 265.200 C 81.780 265.200,81.600 265.560,81.600 266.000 C 81.600 266.793,81.333 266.800,50.224 266.800 C 29.737 266.800,18.761 266.939,18.600 267.200 C 18.464 267.420,17.283 267.600,15.976 267.600 C 14.659 267.600,13.600 267.778,13.600 268.000 C 13.600 268.220,13.257 268.400,12.838 268.400 C 10.419 268.400,3.132 274.773,1.200 278.578 C 0.033 280.876,-0.391 295.937,0.700 296.300 C 0.975 296.392,1.200 296.812,1.200 297.233 C 1.200 297.655,1.380 298.000,1.600 298.000 C 1.820 298.000,2.000 298.252,2.000 298.559 C 2.000 298.866,3.311 300.441,4.912 302.059 C 10.859 308.064,11.884 308.406,24.783 308.692 C 34.830 308.914,35.600 309.048,35.600 310.571 C 35.600 310.917,35.780 311.200,36.000 311.200 C 36.220 311.200,36.400 311.434,36.400 311.720 C 36.400 312.456,37.341 314.393,37.700 314.397 C 37.865 314.399,38.000 314.760,38.000 315.200 C 38.000 315.640,38.180 316.000,38.400 316.000 C 38.620 316.000,38.800 316.360,38.800 316.800 C 38.800 317.240,38.980 317.600,39.200 317.600 C 39.420 317.600,39.600 317.920,39.600 318.312 C 39.600 318.703,39.960 319.283,40.400 319.600 C 40.840 319.917,41.200 320.414,41.200 320.705 C 41.200 320.996,41.381 321.451,41.601 321.717 C 41.822 321.983,42.647 323.162,43.434 324.338 C 44.221 325.514,45.391 327.025,46.033 327.697 C 46.675 328.369,47.200 329.074,47.200 329.263 C 47.200 329.657,56.413 338.938,58.156 340.300 L 59.308 341.200 57.297 341.200 C 53.053 341.200,47.426 342.828,45.148 344.714 C 43.027 346.471,42.000 347.566,42.000 348.072 C 42.000 348.375,41.640 348.883,41.200 349.200 C 40.760 349.517,40.400 350.097,40.400 350.488 C 40.400 350.880,40.220 351.200,40.000 351.200 C 39.780 351.200,39.600 351.560,39.600 352.000 C 39.600 352.440,39.420 352.800,39.200 352.800 C 38.980 352.800,38.800 353.520,38.800 354.400 C 38.800 355.280,38.620 356.000,38.400 356.000 C 37.855 356.000,37.855 374.663,38.400 375.000 C 38.620 375.136,38.800 375.766,38.800 376.400 C 38.800 377.034,38.980 377.664,39.200 377.800 C 39.420 377.936,39.600 378.487,39.600 379.024 C 39.600 379.561,39.780 380.000,40.000 380.000 C 40.220 380.000,40.400 380.278,40.400 380.618 C 40.400 380.958,40.836 381.672,41.369 382.205 C 41.902 382.738,42.454 383.540,42.596 383.987 C 42.738 384.434,42.995 384.800,43.168 384.800 C 43.340 384.800,44.046 385.340,44.737 386.000 C 45.428 386.660,46.264 387.200,46.596 387.200 C 46.928 387.200,47.200 387.336,47.200 387.502 C 47.200 387.669,47.785 388.040,48.500 388.329 C 49.215 388.617,50.113 389.021,50.495 389.226 C 51.329 389.675,94.000 389.742,94.000 389.295 C 94.000 389.127,94.390 388.812,94.867 388.595 C 95.344 388.378,95.929 387.840,96.167 387.400 C 96.405 386.960,96.762 386.483,96.960 386.339 C 98.314 385.359,96.262 379.613,94.019 378.101 L 92.682 377.200 74.041 377.181 C 49.365 377.155,50.800 377.870,50.800 365.600 C 50.800 358.502,50.846 358.050,51.700 356.789 C 53.716 353.812,47.807 354.060,117.200 354.046 L 179.400 354.033 181.200 354.916 C 184.095 356.337,184.399 357.340,184.399 365.474 C 184.401 378.222,187.637 377.200,147.248 377.200 L 115.989 377.200 114.613 378.100 C 112.384 379.558,110.138 385.395,111.443 386.341 C 111.639 386.484,111.995 386.960,112.233 387.400 C 112.471 387.840,113.056 388.378,113.533 388.595 C 114.010 388.812,114.400 389.127,114.400 389.295 C 114.400 389.770,184.306 389.676,184.600 389.200 C 184.736 388.980,185.180 388.800,185.586 388.800 C 186.475 388.800,189.600 387.185,189.600 386.726 C 189.600 386.547,189.785 386.400,190.011 386.400 C 190.609 386.400,194.000 382.914,194.000 382.299 C 194.000 382.012,194.360 381.517,194.800 381.200 C 195.240 380.883,195.600 380.314,195.600 379.935 C 195.600 379.557,195.780 379.136,196.000 379.000 C 196.220 378.864,196.400 378.234,196.400 377.600 C 196.400 376.966,196.580 376.336,196.800 376.200 C 197.037 376.054,197.200 373.596,197.200 370.176 L 197.200 364.400 265.200 364.400 L 333.200 364.400 333.200 365.576 C 333.200 366.223,333.380 366.864,333.600 367.000 C 333.820 367.136,334.000 367.867,334.000 368.624 C 334.000 369.381,334.180 370.000,334.400 370.000 C 334.620 370.000,334.800 370.450,334.800 371.000 C 334.800 371.550,334.980 372.000,335.200 372.000 C 335.420 372.000,335.600 372.270,335.600 372.600 C 335.600 372.930,335.780 373.200,336.000 373.200 C 336.220 373.200,336.400 373.468,336.400 373.797 C 336.400 374.125,336.760 374.618,337.200 374.893 C 337.640 375.168,338.000 375.627,338.000 375.914 C 338.000 376.503,339.772 378.400,340.322 378.400 C 340.520 378.400,341.246 378.940,341.937 379.600 C 342.628 380.260,343.464 380.800,343.796 380.800 C 344.128 380.800,344.400 380.980,344.400 381.200 C 344.400 381.420,344.850 381.600,345.400 381.600 C 345.950 381.600,346.400 381.780,346.400 382.000 C 346.400 382.220,346.940 382.400,347.600 382.400 C 348.260 382.400,348.800 382.580,348.800 382.800 C 348.800 383.347,370.262 383.347,370.600 382.800 C 370.736 382.580,371.456 382.400,372.200 382.400 C 372.944 382.400,373.664 382.220,373.800 382.000 C 373.936 381.780,374.487 381.600,375.024 381.600 C 375.561 381.600,376.000 381.420,376.000 381.200 C 376.000 380.980,376.360 380.800,376.800 380.800 C 377.240 380.800,377.600 380.620,377.600 380.400 C 377.600 380.180,377.960 380.000,378.400 380.000 C 378.840 380.000,379.200 379.820,379.200 379.600 C 379.200 379.380,379.560 379.200,380.000 379.200 C 380.440 379.200,380.800 379.020,380.800 378.800 C 380.800 378.580,381.072 378.400,381.404 378.400 C 381.736 378.400,382.572 377.860,383.263 377.200 C 383.954 376.540,384.692 376.000,384.903 376.000 C 385.947 376.000,391.600 369.040,391.600 367.755 C 391.600 367.450,391.780 367.200,392.000 367.200 C 392.220 367.200,392.400 366.851,392.400 366.424 C 392.400 365.997,392.580 365.536,392.800 365.400 C 393.020 365.264,393.200 364.803,393.200 364.376 C 393.200 363.949,393.380 363.600,393.600 363.600 C 393.820 363.600,394.000 363.060,394.000 362.400 C 394.000 361.740,394.180 361.200,394.400 361.200 C 394.620 361.200,394.800 360.581,394.800 359.824 C 394.800 359.067,394.980 358.336,395.200 358.200 C 395.457 358.041,395.600 351.596,395.600 340.176 C 395.600 328.592,395.461 322.400,395.200 322.400 C 394.980 322.400,394.800 321.680,394.800 320.800 C 394.800 319.920,394.620 319.200,394.400 319.200 C 394.180 319.200,394.000 318.660,394.000 318.000 C 394.000 317.340,393.820 316.800,393.600 316.800 C 393.380 316.800,393.200 316.440,393.200 316.000 C 393.200 315.560,393.020 315.200,392.800 315.200 C 392.580 315.200,392.400 314.840,392.400 314.400 C 392.400 313.960,392.220 313.600,392.000 313.600 C 391.780 313.600,391.600 313.318,391.600 312.973 C 391.600 311.608,383.416 302.800,382.147 302.800 C 381.846 302.800,381.600 302.620,381.600 302.400 C 381.600 302.180,381.317 302.000,380.971 302.000 C 380.626 302.000,380.064 301.721,379.723 301.380 C 379.382 301.040,378.585 300.657,377.952 300.530 C 377.318 300.404,376.800 300.143,376.800 299.950 C 376.800 299.757,376.440 299.600,376.000 299.600 C 375.560 299.600,375.200 299.420,375.200 299.200 C 375.200 298.980,374.647 298.800,373.971 298.800 C 371.443 298.800,371.600 301.571,371.600 256.829 L 371.600 216.000 377.400 216.000 C 381.000 216.000,383.200 215.848,383.200 215.600 C 383.200 215.380,383.652 215.200,384.205 215.200 C 384.758 215.200,385.523 215.040,385.905 214.844 C 386.287 214.648,387.455 214.080,388.500 213.581 C 389.545 213.082,390.400 212.523,390.400 212.337 C 390.400 212.152,390.585 212.000,390.811 212.000 C 391.036 212.000,392.031 211.190,393.021 210.200 C 394.011 209.210,394.996 208.400,395.211 208.400 C 395.425 208.400,395.600 208.130,395.600 207.800 C 395.600 207.470,395.780 207.200,396.000 207.200 C 396.220 207.200,396.400 207.012,396.400 206.783 C 396.400 206.554,396.760 205.980,397.200 205.508 C 397.640 205.036,398.000 204.413,398.000 204.125 C 398.000 203.836,398.180 203.600,398.400 203.600 C 398.620 203.600,398.800 203.186,398.800 202.680 C 398.800 202.174,399.025 201.535,399.300 201.260 C 399.692 200.868,399.800 193.417,399.800 166.713 C 399.800 139.832,399.695 132.632,399.300 132.500 C 399.025 132.408,398.800 131.988,398.800 131.567 C 398.800 131.145,398.620 130.800,398.400 130.800 C 398.180 130.800,398.000 130.440,398.000 130.000 C 398.000 129.560,397.820 129.200,397.600 129.200 C 397.380 129.200,397.200 128.922,397.200 128.582 C 397.200 128.242,396.795 127.542,396.300 127.028 C 395.805 126.513,394.860 125.445,394.200 124.655 C 393.540 123.864,392.697 123.213,392.327 123.209 C 391.957 123.204,391.540 122.840,391.400 122.400 C 391.260 121.960,390.888 121.600,390.573 121.600 C 390.258 121.600,390.000 121.420,390.000 121.200 C 390.000 120.980,389.730 120.800,389.400 120.800 C 389.070 120.800,388.800 120.620,388.800 120.400 C 388.800 120.180,388.440 120.000,388.000 120.000 C 387.560 120.000,387.200 119.820,387.200 119.600 C 387.200 119.380,386.660 119.200,386.000 119.200 C 385.340 119.200,384.800 119.020,384.800 118.800 C 384.800 118.580,384.080 118.400,383.200 118.400 C 382.320 118.400,381.600 118.220,381.600 118.000 C 381.600 117.740,375.600 117.600,364.400 117.600 C 353.200 117.600,347.200 117.740,347.200 118.000 C 347.200 118.220,346.581 118.400,345.824 118.400 C 345.067 118.400,344.336 118.580,344.200 118.800 C 344.064 119.020,343.513 119.200,342.976 119.200 C 342.439 119.200,342.000 119.380,342.000 119.600 C 342.000 119.820,341.680 120.000,341.288 120.000 C 340.897 120.000,340.317 120.360,340.000 120.800 C 339.683 121.240,339.188 121.600,338.901 121.600 C 338.614 121.600,337.595 122.365,336.636 123.300 C 335.678 124.235,334.332 125.510,333.647 126.134 C 332.961 126.758,332.400 127.523,332.400 127.834 C 332.400 128.145,332.253 128.400,332.074 128.400 C 331.608 128.400,330.000 131.531,330.000 132.438 C 330.000 132.857,329.820 133.200,329.600 133.200 C 329.380 133.200,329.200 133.729,329.200 134.376 C 329.200 135.023,329.020 135.664,328.800 135.800 C 328.539 135.961,328.400 146.804,328.400 167.024 C 328.400 187.408,328.537 198.000,328.800 198.000 C 329.020 198.000,329.200 198.619,329.200 199.376 C 329.200 200.133,329.380 200.864,329.600 201.000 C 329.820 201.136,330.000 201.597,330.000 202.024 C 330.000 202.451,330.180 202.800,330.400 202.800 C 330.620 202.800,330.800 203.160,330.800 203.600 C 330.800 204.040,330.980 204.400,331.200 204.400 C 331.420 204.400,331.600 204.636,331.600 204.925 C 331.600 205.213,331.960 205.836,332.400 206.308 C 332.840 206.780,333.200 207.269,333.200 207.394 C 333.200 207.860,336.799 211.200,337.301 211.200 C 337.588 211.200,338.083 211.560,338.400 212.000 C 338.717 212.440,339.214 212.800,339.505 212.800 C 339.796 212.800,340.420 213.160,340.892 213.600 C 341.364 214.040,342.077 214.400,342.475 214.400 C 342.874 214.400,343.200 214.580,343.200 214.800 C 343.200 215.020,343.740 215.200,344.400 215.200 C 345.060 215.200,345.600 215.380,345.600 215.600 C 345.600 215.850,348.000 216.000,352.000 216.000 L 358.400 216.000 358.400 256.600 L 358.400 297.200 354.800 297.200 C 352.667 297.200,351.200 297.363,351.200 297.600 C 351.200 297.820,350.840 298.000,350.400 298.000 C 349.867 298.000,349.600 297.733,349.600 297.200 C 349.600 296.760,349.420 296.400,349.200 296.400 C 348.980 296.400,348.800 295.781,348.800 295.024 C 348.800 294.267,348.620 293.536,348.400 293.400 C 348.180 293.264,348.000 292.454,348.000 291.600 C 348.000 290.746,347.820 289.936,347.600 289.800 C 347.380 289.664,347.200 288.843,347.200 287.976 C 347.200 287.109,347.020 286.400,346.800 286.400 C 346.580 286.400,346.400 285.680,346.400 284.800 C 346.400 283.920,346.220 283.200,346.000 283.200 C 345.780 283.200,345.600 282.480,345.600 281.600 C 345.600 280.720,345.420 280.000,345.200 280.000 C 344.980 280.000,344.800 279.291,344.800 278.424 C 344.800 277.557,344.620 276.736,344.400 276.600 C 344.180 276.464,344.000 275.834,344.000 275.200 C 344.000 274.566,343.820 273.936,343.600 273.800 C 343.380 273.664,343.200 272.933,343.200 272.176 C 343.200 271.419,343.020 270.800,342.800 270.800 C 342.580 270.800,342.400 270.260,342.400 269.600 C 342.400 268.940,342.220 268.400,342.000 268.400 C 341.780 268.400,341.600 267.916,341.600 267.324 C 341.600 266.243,338.272 259.061,337.312 258.071 C 337.031 257.781,336.800 257.384,336.800 257.190 C 336.800 256.995,336.350 256.386,335.800 255.836 C 335.250 255.286,334.800 254.646,334.800 254.414 C 334.800 254.001,326.320 245.390,325.135 244.600 C 324.805 244.380,323.523 243.525,322.287 242.700 C 321.050 241.875,319.850 241.200,319.619 241.200 C 319.389 241.200,319.200 241.020,319.200 240.800 C 319.200 240.580,318.840 240.400,318.400 240.400 C 317.960 240.400,317.600 240.220,317.600 240.000 C 317.600 239.780,317.240 239.600,316.800 239.600 C 316.360 239.600,316.000 239.420,316.000 239.200 C 316.000 238.980,315.640 238.800,315.200 238.800 C 314.760 238.800,314.400 238.620,314.400 238.400 C 314.400 238.180,314.040 238.000,313.600 238.000 C 313.160 238.000,312.800 237.820,312.800 237.600 C 312.800 237.380,312.440 237.200,312.000 237.200 C 311.560 237.200,311.200 237.020,311.200 236.800 C 311.200 236.580,310.660 236.400,310.000 236.400 C 309.340 236.400,308.800 236.220,308.800 236.000 C 308.800 235.780,308.350 235.600,307.800 235.600 C 307.250 235.600,306.800 235.420,306.800 235.200 C 306.800 234.980,306.260 234.800,305.600 234.800 C 304.940 234.800,304.400 234.620,304.400 234.400 C 304.400 234.180,303.860 234.000,303.200 234.000 C 302.540 234.000,302.000 233.820,302.000 233.600 C 302.000 233.380,301.291 233.200,300.424 233.200 C 299.557 233.200,298.736 233.020,298.600 232.800 C 298.464 232.580,297.553 232.400,296.576 232.400 C 295.599 232.400,294.800 232.220,294.800 232.000 C 294.800 231.780,293.911 231.600,292.824 231.600 C 291.737 231.600,290.736 231.420,290.600 231.200 C 290.464 230.980,289.103 230.800,287.576 230.800 C 285.992 230.800,284.800 230.628,284.800 230.400 C 284.800 230.156,282.933 230.000,280.000 230.000 C 277.067 230.000,275.200 229.844,275.200 229.600 C 275.200 229.375,274.075 229.200,272.624 229.200 C 271.207 229.200,269.936 229.020,269.800 228.800 C 269.664 228.580,269.113 228.400,268.576 228.400 C 268.039 228.400,267.600 228.220,267.600 228.000 C 267.600 227.780,267.240 227.600,266.800 227.600 C 266.360 227.600,266.000 227.442,266.000 227.249 C 266.000 227.055,265.498 226.689,264.885 226.435 C 263.541 225.878,260.400 223.076,260.400 222.433 C 260.400 221.861,262.537 219.711,264.400 218.407 C 265.973 217.306,272.000 211.253,272.000 210.774 C 272.000 210.603,272.675 209.746,273.500 208.869 C 275.469 206.776,276.000 206.103,276.000 205.705 C 276.000 205.524,276.360 205.117,276.800 204.800 C 277.240 204.483,277.600 203.943,277.600 203.600 C 277.600 203.257,277.960 202.717,278.400 202.400 C 278.840 202.083,279.200 201.543,279.200 201.200 C 279.200 200.857,279.560 200.317,280.000 200.000 C 280.440 199.683,280.800 199.103,280.800 198.712 C 280.800 198.320,280.980 198.000,281.200 198.000 C 281.420 198.000,281.600 197.640,281.600 197.200 C 281.600 196.760,281.780 196.400,282.000 196.400 C 282.220 196.400,282.400 196.040,282.400 195.600 C 282.400 195.160,282.580 194.800,282.800 194.800 C 283.020 194.800,283.200 194.440,283.200 194.000 C 283.200 193.560,283.380 193.200,283.600 193.200 C 283.820 193.200,284.000 192.840,284.000 192.400 C 284.000 191.960,284.180 191.600,284.400 191.600 C 284.620 191.600,284.800 191.240,284.800 190.800 C 284.800 190.360,284.980 190.000,285.200 190.000 C 285.420 190.000,285.600 189.550,285.600 189.000 C 285.600 188.450,285.780 188.000,286.000 188.000 C 286.220 188.000,286.400 187.460,286.400 186.800 C 286.400 186.140,286.580 185.600,286.800 185.600 C 287.020 185.600,287.200 185.060,287.200 184.400 C 287.200 183.740,287.380 183.200,287.600 183.200 C 287.820 183.200,288.000 182.480,288.000 181.600 C 288.000 180.720,288.163 180.000,288.363 180.000 C 289.155 180.000,289.296 173.780,289.448 132.125 L 289.607 88.849 290.904 87.938 C 292.662 86.701,297.200 82.019,297.200 81.442 C 297.200 81.186,297.560 80.717,298.000 80.400 C 298.440 80.083,298.800 79.503,298.800 79.112 C 298.800 78.720,298.980 78.400,299.200 78.400 C 299.420 78.400,299.600 78.040,299.600 77.600 C 299.600 77.160,299.780 76.800,300.000 76.800 C 300.220 76.800,300.400 76.440,300.400 76.000 C 300.400 75.560,300.580 75.200,300.800 75.200 C 301.020 75.200,301.200 74.840,301.200 74.400 C 301.200 73.960,301.380 73.600,301.600 73.600 C 301.820 73.600,302.000 72.970,302.000 72.200 C 302.000 71.430,302.180 70.800,302.400 70.800 C 302.651 70.800,302.800 68.333,302.800 64.200 C 302.800 60.067,302.651 57.600,302.400 57.600 C 302.180 57.600,302.000 57.237,302.000 56.794 C 302.000 55.667,301.069 52.800,300.703 52.800 C 300.536 52.800,300.400 52.566,300.400 52.280 C 300.400 51.544,299.459 49.607,299.100 49.603 C 298.935 49.601,298.800 49.240,298.800 48.800 C 298.800 48.360,298.650 48.000,298.468 48.000 C 298.285 48.000,297.880 47.505,297.568 46.900 C 296.984 45.766,292.486 41.200,291.953 41.200 C 291.789 41.200,291.540 40.840,291.400 40.400 C 291.260 39.960,290.888 39.600,290.573 39.600 C 290.258 39.600,290.000 39.420,290.000 39.200 C 290.000 38.980,289.770 38.800,289.488 38.800 C 289.207 38.800,288.717 38.440,288.400 38.000 C 288.083 37.560,287.503 37.200,287.112 37.200 C 286.720 37.200,286.400 37.020,286.400 36.800 C 286.400 36.580,286.040 36.400,285.600 36.400 C 285.160 36.400,284.800 36.220,284.800 36.000 C 284.800 35.780,284.440 35.600,284.000 35.600 C 283.560 35.600,283.200 35.420,283.200 35.200 C 283.200 34.980,282.840 34.800,282.400 34.800 C 281.960 34.800,281.600 34.620,281.600 34.400 C 281.600 34.180,281.060 34.000,280.400 34.000 C 279.740 34.000,279.200 33.820,279.200 33.600 C 279.200 33.380,278.660 33.200,278.000 33.200 C 277.340 33.200,276.800 33.020,276.800 32.800 C 276.800 32.580,276.080 32.400,275.200 32.400 C 274.320 32.400,273.600 32.220,273.600 32.000 C 273.600 31.742,269.390 31.600,261.771 31.600 C 249.377 31.600,248.800 31.521,248.800 29.829 C 248.800 29.483,248.620 29.200,248.400 29.200 C 248.180 29.200,248.000 28.840,248.000 28.400 C 248.000 27.960,247.820 27.600,247.600 27.600 C 247.380 27.600,247.200 27.402,247.200 27.160 C 247.200 26.919,246.660 26.217,246.000 25.600 C 245.340 24.983,244.800 24.280,244.800 24.036 C 244.800 23.548,239.857 18.400,239.388 18.400 C 239.226 18.400,238.803 18.084,238.447 17.697 C 238.091 17.311,237.305 16.740,236.700 16.430 C 236.095 16.119,235.600 15.715,235.600 15.532 C 235.600 15.350,235.240 15.200,234.800 15.200 C 234.360 15.200,234.000 15.020,234.000 14.800 C 234.000 14.580,233.640 14.400,233.200 14.400 C 232.760 14.400,232.400 14.220,232.400 14.000 C 232.400 13.780,232.040 13.600,231.600 13.600 C 231.160 13.600,230.800 13.420,230.800 13.200 C 230.800 12.980,230.260 12.800,229.600 12.800 C 228.940 12.800,228.400 12.620,228.400 12.400 C 228.400 12.180,227.860 12.000,227.200 12.000 C 226.540 12.000,226.000 11.820,226.000 11.600 C 226.000 11.380,225.201 11.200,224.224 11.200 C 223.247 11.200,222.336 11.020,222.200 10.800 C 221.876 10.275,205.612 10.275,204.800 10.800 M221.436 23.608 C 230.040 25.805,235.525 30.558,238.735 38.600 C 240.807 43.789,240.200 43.600,254.825 43.600 C 273.014 43.600,278.135 44.941,284.610 51.398 C 293.630 60.392,292.190 71.405,280.941 79.452 C 277.058 82.231,277.200 81.355,277.200 102.460 L 277.200 120.505 275.700 120.217 C 274.875 120.059,273.390 119.767,272.400 119.567 C 255.971 116.251,228.494 113.247,225.035 114.388 C 222.146 115.342,220.537 119.117,221.767 122.059 C 222.987 124.980,224.116 125.349,234.400 126.190 C 251.372 127.577,250.800 127.435,250.800 130.278 C 250.800 142.375,262.087 155.999,275.751 160.397 L 277.303 160.896 277.096 167.148 C 276.173 195.078,251.051 221.072,218.400 227.878 C 195.771 232.595,160.791 210.884,149.399 185.051 C 146.445 178.352,144.678 161.852,146.800 160.783 C 147.130 160.617,149.373 159.551,151.785 158.415 C 163.742 152.783,170.377 144.154,172.241 131.811 C 172.573 129.618,172.890 127.777,172.946 127.721 C 173.208 127.458,191.287 125.823,197.862 125.467 C 204.549 125.105,207.170 119.464,202.625 115.218 C 201.253 113.937,198.469 113.750,189.863 114.361 C 183.720 114.798,181.322 115.038,173.000 116.049 C 167.724 116.691,155.947 118.599,150.800 119.647 C 149.590 119.893,148.060 120.119,147.400 120.147 L 146.200 120.200 146.000 101.600 C 145.772 80.396,146.113 82.233,141.799 78.986 C 131.141 70.965,130.156 60.545,139.208 51.600 C 145.918 44.968,150.969 43.601,168.762 43.601 L 180.124 43.600 181.400 42.627 C 182.101 42.092,183.465 40.348,184.429 38.752 C 191.772 26.599,207.671 20.093,221.436 23.608 M209.400 49.093 C 207.984 49.448,206.324 50.883,205.755 52.247 C 204.795 54.544,204.958 82.557,205.942 84.406 C 207.965 88.209,212.727 88.540,215.379 85.063 L 216.400 83.724 216.400 68.187 C 216.400 52.732,216.395 52.643,215.500 51.330 C 214.204 49.430,211.709 48.515,209.400 49.093 M167.937 61.810 C 167.352 62.127,166.452 63.065,165.937 63.894 L 165.000 65.400 165.000 80.400 C 165.000 94.680,165.038 95.465,165.800 96.761 C 167.920 100.367,173.518 100.521,175.646 97.032 C 176.909 94.960,176.795 65.625,175.515 63.758 C 173.913 61.420,170.344 60.502,167.937 61.810 M247.959 62.108 C 245.231 63.931,245.201 64.125,245.201 80.313 C 245.200 91.715,245.318 95.102,245.748 96.113 C 247.808 100.947,254.964 100.615,256.435 95.617 C 257.227 92.924,256.741 65.178,255.878 63.863 C 254.148 61.224,250.494 60.415,247.959 62.108 M160.188 131.500 C 159.226 137.307,155.720 142.272,149.942 146.006 C 146.226 148.408,146.400 148.693,146.400 140.231 L 146.400 132.862 147.700 132.477 C 149.824 131.848,158.263 130.141,159.718 130.047 C 160.330 130.007,160.400 130.222,160.188 131.500 M267.024 130.758 C 268.771 131.174,271.280 131.731,272.600 131.996 C 277.176 132.912,276.800 132.184,276.800 140.125 C 276.800 148.019,276.842 147.891,274.652 146.692 C 269.528 143.886,265.293 139.019,263.751 134.165 C 262.253 129.448,262.119 129.588,267.024 130.758 M381.327 130.940 C 383.294 131.833,386.260 134.570,386.984 136.160 C 388.325 139.103,388.396 140.655,388.396 167.000 C 388.396 193.313,388.322 194.930,386.993 197.800 C 384.428 203.341,381.638 204.071,363.600 203.919 L 349.400 203.800 347.093 202.667 C 344.339 201.315,342.258 198.810,341.380 195.792 C 340.292 192.048,340.712 139.223,341.849 136.764 C 343.363 133.492,346.875 130.758,350.200 130.264 C 353.971 129.704,379.842 130.266,381.327 130.940 M181.000 145.785 C 177.602 146.407,175.747 147.157,173.346 148.882 C 166.417 153.858,172.567 163.301,179.674 158.598 C 183.039 156.372,189.729 156.350,193.061 158.555 C 200.098 163.212,206.442 153.824,199.539 148.969 C 194.865 145.680,188.006 144.502,181.000 145.785 M228.930 145.793 C 223.979 146.691,219.986 148.959,218.564 151.680 C 216.094 156.409,221.686 161.773,226.400 159.196 C 230.045 157.203,230.572 157.059,234.243 157.038 C 237.692 157.019,238.038 157.098,240.732 158.509 C 244.601 160.536,247.539 160.183,249.310 157.482 C 254.058 150.235,242.135 143.397,228.930 145.793 M96.400 150.000 C 96.400 150.220,96.116 150.400,95.769 150.400 C 95.212 150.400,94.415 151.148,91.204 154.686 C 90.762 155.173,90.400 155.782,90.400 156.039 C 90.400 156.296,90.085 156.797,89.700 157.153 C 88.770 158.012,87.200 161.080,87.200 162.038 C 87.200 162.457,87.020 162.800,86.800 162.800 C 86.555 162.800,86.400 164.725,86.400 167.776 C 86.400 170.663,86.568 172.857,86.800 173.000 C 87.020 173.136,87.200 173.687,87.200 174.224 C 87.200 174.761,87.380 175.200,87.600 175.200 C 87.820 175.200,88.000 175.639,88.000 176.176 C 88.000 176.713,88.180 177.264,88.400 177.400 C 88.620 177.536,88.800 177.997,88.800 178.424 C 88.800 178.851,88.980 179.200,89.200 179.200 C 89.420 179.200,89.600 179.560,89.600 180.000 C 89.600 180.440,89.780 180.800,90.000 180.800 C 90.220 180.800,90.400 181.160,90.400 181.600 C 90.400 182.040,90.580 182.400,90.800 182.400 C 91.020 182.400,91.200 182.745,91.200 183.167 C 91.200 183.588,91.363 183.993,91.561 184.067 C 91.925 184.201,92.166 186.121,92.058 188.036 C 92.024 188.647,91.302 189.821,90.300 190.897 C 87.552 193.845,87.200 194.356,87.200 195.405 C 87.200 195.952,87.020 196.400,86.800 196.400 C 86.580 196.400,86.400 196.929,86.400 197.576 C 86.400 198.223,86.580 198.864,86.800 199.000 C 87.020 199.136,87.200 199.687,87.200 200.224 C 87.200 200.761,87.380 201.200,87.600 201.200 C 87.820 201.200,88.000 201.538,88.000 201.951 C 88.000 202.409,88.469 202.897,89.200 203.200 C 89.860 203.473,90.400 203.855,90.400 204.049 C 90.400 205.522,98.769 203.530,98.806 202.047 C 98.810 201.911,99.710 200.819,100.806 199.621 C 101.903 198.422,102.800 197.207,102.800 196.921 C 102.800 196.634,102.980 196.400,103.200 196.400 C 103.420 196.400,103.600 196.040,103.600 195.600 C 103.600 195.160,103.780 194.800,104.000 194.800 C 104.220 194.800,104.400 194.451,104.400 194.024 C 104.400 193.597,104.580 193.136,104.800 193.000 C 105.020 192.864,105.200 192.169,105.200 191.456 C 105.200 190.743,105.396 189.964,105.635 189.725 C 106.304 189.056,105.533 180.653,104.758 180.174 C 104.561 180.052,104.400 179.603,104.400 179.176 C 104.400 178.749,104.220 178.400,104.000 178.400 C 103.780 178.400,103.600 177.950,103.600 177.400 C 103.600 176.850,103.420 176.400,103.200 176.400 C 102.980 176.400,102.800 176.040,102.800 175.600 C 102.800 175.160,102.620 174.800,102.400 174.800 C 102.180 174.800,102.000 174.440,102.000 174.000 C 102.000 173.560,101.820 173.200,101.600 173.200 C 101.380 173.200,101.200 172.840,101.200 172.400 C 101.200 171.960,101.020 171.600,100.800 171.600 C 100.580 171.600,100.400 171.240,100.400 170.800 C 100.400 170.360,100.220 170.000,100.000 170.000 C 99.780 170.000,99.600 169.100,99.600 168.000 C 99.600 166.900,99.780 166.000,100.000 166.000 C 100.220 166.000,100.400 165.746,100.400 165.435 C 100.400 165.124,101.480 163.773,102.800 162.432 C 104.120 161.092,105.200 159.726,105.200 159.397 C 105.200 159.069,105.380 158.800,105.600 158.800 C 105.826 158.800,106.000 157.667,106.000 156.200 C 106.000 154.733,105.826 153.600,105.600 153.600 C 105.380 153.600,105.200 153.322,105.200 152.982 C 105.200 152.308,103.865 150.892,102.483 150.100 C 101.444 149.505,96.400 149.422,96.400 150.000 M64.600 181.200 C 64.464 181.420,64.083 181.600,63.754 181.600 C 62.780 181.600,56.817 188.036,56.805 189.100 C 56.802 189.375,56.620 189.600,56.400 189.600 C 56.180 189.600,56.000 189.960,56.000 190.400 C 56.000 190.840,55.820 191.200,55.600 191.200 C 55.380 191.200,55.200 191.560,55.200 192.000 C 55.200 192.440,55.020 192.800,54.800 192.800 C 54.580 192.800,54.400 193.239,54.400 193.776 C 54.400 194.313,54.220 194.864,54.000 195.000 C 53.773 195.140,53.600 197.130,53.600 199.600 C 53.600 202.070,53.773 204.060,54.000 204.200 C 54.220 204.336,54.400 204.977,54.400 205.624 C 54.400 206.271,54.580 206.800,54.800 206.800 C 55.020 206.800,55.200 207.250,55.200 207.800 C 55.200 208.350,55.380 208.800,55.600 208.800 C 55.820 208.800,56.000 209.160,56.000 209.600 C 56.000 210.040,56.180 210.400,56.400 210.400 C 56.620 210.400,56.800 210.760,56.800 211.200 C 56.800 211.640,56.980 212.000,57.200 212.000 C 57.420 212.000,57.600 212.360,57.600 212.800 C 57.600 213.240,57.737 213.600,57.905 213.600 C 58.772 213.600,59.680 218.685,59.036 219.931 C 58.686 220.607,58.400 221.363,58.400 221.611 C 58.400 221.860,57.680 222.754,56.800 223.600 C 55.920 224.446,55.200 225.331,55.200 225.569 C 55.200 225.806,55.020 226.000,54.800 226.000 C 54.565 226.000,54.400 227.400,54.400 229.400 C 54.400 231.400,54.565 232.800,54.800 232.800 C 55.020 232.800,55.200 232.988,55.200 233.218 C 55.200 234.024,57.173 235.600,58.182 235.600 C 58.742 235.600,59.200 235.780,59.200 236.000 C 59.200 236.220,59.830 236.400,60.600 236.400 C 61.370 236.400,62.000 236.220,62.000 236.000 C 62.000 235.780,62.453 235.600,63.007 235.600 C 64.086 235.600,69.200 230.889,69.200 229.896 C 69.200 229.610,69.560 229.117,70.000 228.800 C 70.440 228.483,70.800 227.903,70.800 227.512 C 70.800 227.120,70.980 226.800,71.200 226.800 C 71.420 226.800,71.600 226.451,71.600 226.024 C 71.600 225.597,71.780 225.136,72.000 225.000 C 72.220 224.864,72.400 224.234,72.400 223.600 C 72.400 222.966,72.580 222.336,72.800 222.200 C 73.020 222.064,73.200 220.354,73.200 218.400 C 73.200 216.446,73.020 214.736,72.800 214.600 C 72.580 214.464,72.400 213.840,72.400 213.214 C 72.400 212.588,72.062 211.384,71.649 210.538 C 71.236 209.692,70.336 207.850,69.649 206.444 C 68.962 205.038,68.400 203.643,68.400 203.344 C 68.400 203.045,68.220 202.800,68.000 202.800 C 67.780 202.800,67.600 202.440,67.600 202.000 C 67.600 201.560,67.420 201.200,67.200 201.200 C 66.980 201.200,66.800 200.480,66.800 199.600 C 66.800 198.720,66.980 198.000,67.200 198.000 C 67.420 198.000,67.600 197.734,67.600 197.409 C 67.600 197.084,68.585 195.801,69.789 194.558 C 70.993 193.315,72.086 191.961,72.216 191.549 C 72.347 191.137,72.622 190.800,72.827 190.800 C 73.032 190.800,73.200 189.450,73.200 187.800 C 73.200 186.150,73.064 184.800,72.898 184.800 C 72.731 184.800,72.376 184.305,72.107 183.700 C 71.833 183.081,71.046 182.370,70.310 182.074 C 69.589 181.784,68.687 181.379,68.305 181.174 C 67.384 180.678,64.912 180.695,64.600 181.200 M176.397 229.437 C 201.110 243.562,218.827 243.864,244.865 230.606 L 249.130 228.435 250.739 230.517 C 251.624 231.663,252.990 233.220,253.774 233.978 C 255.603 235.746,255.577 235.965,253.300 238.016 C 235.326 254.208,191.197 255.014,171.523 239.509 C 167.365 236.233,167.372 236.336,171.045 232.050 C 172.765 230.042,174.268 228.402,174.386 228.405 C 174.504 228.407,175.408 228.872,176.397 229.437 M153.905 254.942 L 154.011 268.017 146.305 267.909 L 138.600 267.800 138.494 255.529 C 138.396 244.095,138.437 243.244,139.094 243.056 C 139.482 242.945,142.050 242.659,144.800 242.420 C 151.724 241.819,152.941 241.732,153.400 241.804 C 153.655 241.844,153.838 246.615,153.905 254.942 M278.043 242.418 C 280.989 242.648,283.805 243.004,284.300 243.209 L 285.200 243.583 285.200 261.749 C 285.200 277.944,285.131 279.941,284.567 280.157 C 283.322 280.635,270.586 280.426,270.080 279.920 C 269.558 279.398,269.350 242.783,269.867 242.267 C 270.232 241.902,271.793 241.930,278.043 242.418 M126.706 256.700 L 126.600 267.800 111.225 267.905 C 102.768 267.962,95.698 267.858,95.513 267.673 C 94.376 266.536,102.427 257.206,107.935 253.278 C 109.413 252.223,116.200 248.658,117.400 248.305 C 117.840 248.176,119.280 247.669,120.600 247.180 C 123.231 246.203,125.018 245.704,126.106 245.641 C 126.768 245.603,126.806 246.304,126.706 256.700 M302.400 247.201 C 314.615 251.435,323.247 258.415,327.958 267.868 C 330.008 271.981,331.064 275.177,332.761 282.400 C 333.200 284.270,334.010 287.690,334.561 290.000 C 338.554 306.759,338.372 305.427,336.972 307.642 C 334.189 312.044,334.260 311.452,334.019 332.400 L 333.800 351.400 328.200 351.706 C 325.120 351.874,321.430 351.964,320.000 351.906 L 317.400 351.800 316.952 349.800 C 316.706 348.700,316.290 346.540,316.028 345.000 C 315.766 343.460,315.398 341.390,315.210 340.400 C 315.021 339.410,314.663 337.250,314.414 335.600 C 314.165 333.950,313.803 331.790,313.611 330.800 C 313.418 329.810,313.067 327.875,312.830 326.500 C 312.594 325.125,312.216 322.965,311.990 321.700 C 311.765 320.435,310.594 313.640,309.388 306.600 C 307.312 294.485,306.948 292.805,305.872 290.400 C 304.522 287.382,301.217 283.689,298.512 282.175 L 297.000 281.328 296.896 263.964 C 296.838 254.414,296.871 246.391,296.969 246.136 C 297.177 245.594,298.526 245.859,302.400 247.201 M257.905 264.900 L 257.800 279.800 243.608 279.800 L 229.416 279.800 228.436 278.000 C 226.343 274.154,221.031 270.000,216.518 268.680 C 215.517 268.387,206.620 268.161,190.400 268.018 L 165.800 267.800 165.692 259.100 C 165.633 254.315,165.726 250.400,165.899 250.400 C 166.073 250.400,166.878 250.851,167.688 251.401 C 188.970 265.863,234.767 265.782,255.292 251.246 C 258.180 249.200,258.021 248.371,257.905 264.900 M29.439 284.400 C 29.478 287.622,29.750 290.005,30.347 292.355 C 30.816 294.200,31.200 295.775,31.200 295.855 C 31.200 296.503,17.812 295.920,16.423 295.212 C 10.299 292.087,10.403 283.437,16.599 280.534 C 18.432 279.675,19.052 279.605,23.992 279.698 L 29.383 279.800 29.439 284.400 M188.766 280.300 C 190.446 281.675,190.278 286.832,188.340 293.400 C 182.174 314.298,168.393 330.945,149.421 340.413 L 146.242 342.000 115.754 342.000 L 85.265 342.000 80.733 339.737 C 76.750 337.748,70.740 334.038,68.308 332.066 C 61.314 326.397,55.490 319.859,51.281 312.954 C 43.828 300.726,38.806 282.644,42.176 280.170 C 43.500 279.198,187.577 279.326,188.766 280.300 M214.192 280.397 C 215.214 280.835,216.270 281.420,216.538 281.697 C 220.631 285.919,219.883 292.279,214.962 295.093 C 213.324 296.030,200.000 296.526,200.000 295.651 C 200.000 295.459,200.357 293.884,200.794 292.151 C 201.359 289.908,201.589 287.646,201.594 284.300 L 201.600 279.600 206.967 279.600 C 211.437 279.600,212.644 279.733,214.192 280.397 M293.295 292.789 C 295.166 294.261,295.686 296.009,297.581 307.200 C 298.047 309.950,298.617 313.280,298.849 314.600 C 299.399 317.737,299.862 320.401,300.413 323.600 C 300.659 325.030,301.012 327.010,301.196 328.000 C 301.381 328.990,301.741 331.150,301.997 332.800 C 302.252 334.450,302.614 336.520,302.800 337.400 C 302.986 338.280,303.348 340.350,303.603 342.000 C 303.859 343.650,304.229 345.810,304.427 346.800 C 304.624 347.790,304.834 349.320,304.893 350.200 L 305.000 351.800 249.943 351.901 L 194.885 352.003 193.608 350.012 C 189.983 344.363,185.496 342.411,176.124 342.404 C 169.239 342.399,168.954 342.268,171.303 340.178 C 181.723 330.908,187.312 323.931,192.910 313.203 C 196.088 307.112,194.999 307.600,205.404 307.600 C 218.237 307.600,223.017 305.747,227.581 299.000 C 228.535 297.589,229.029 296.532,230.432 292.900 L 230.780 292.000 261.536 292.000 C 291.545 292.000,292.316 292.019,293.295 292.789 M368.080 310.442 C 373.725 311.619,379.077 315.757,381.479 320.800 C 384.539 327.228,384.596 353.444,381.563 359.856 C 377.669 368.088,372.567 370.600,359.737 370.600 L 350.875 370.600 349.337 369.363 C 345.455 366.239,345.482 366.472,345.680 337.400 C 345.814 317.610,345.886 315.692,346.538 314.508 C 347.427 312.897,349.816 310.889,351.400 310.424 C 353.148 309.911,365.598 309.924,368.080 310.442 " stroke="none" fill="#000000" fill-rule="evenodd"></path><path id="path3" d="M206.494 23.408 C 197.049 25.459,189.136 30.962,184.429 38.752 C 183.465 40.348,182.101 42.092,181.400 42.627 L 180.124 43.600 168.762 43.601 C 154.358 43.601,150.627 44.180,144.622 47.346 C 139.871 49.851,133.568 57.480,133.609 60.675 C 133.615 61.074,134.051 60.350,134.578 59.067 C 137.176 52.749,142.077 48.360,149.400 45.793 C 153.150 44.479,158.191 44.029,169.326 44.014 C 182.336 43.997,181.254 44.360,184.893 38.789 C 190.720 29.870,198.853 24.845,210.000 23.277 C 212.322 22.951,212.407 22.909,210.800 22.887 C 209.810 22.874,207.872 23.109,206.494 23.408 M216.600 23.223 C 217.480 23.405,218.830 23.543,219.600 23.530 L 221.000 23.505 219.800 23.200 C 219.140 23.032,217.790 22.894,216.800 22.893 L 215.000 22.892 216.600 23.223 M221.400 24.000 C 221.536 24.220,221.988 24.400,222.405 24.400 C 223.121 24.400,224.098 24.728,226.400 25.739 C 231.461 27.963,236.066 32.899,238.026 38.200 C 240.179 44.024,240.115 44.000,253.880 43.999 C 264.354 43.999,271.319 44.477,272.180 45.256 C 272.389 45.445,272.976 45.600,273.485 45.600 C 273.994 45.600,274.723 45.764,275.105 45.965 C 275.487 46.166,276.790 46.789,278.000 47.350 C 281.879 49.147,286.288 53.281,287.940 56.671 C 288.458 57.732,289.043 58.913,289.240 59.295 C 289.702 60.187,289.710 67.791,289.250 68.705 C 287.474 72.233,286.787 73.279,285.026 75.140 C 283.912 76.317,281.972 78.004,280.715 78.888 C 278.186 80.667,277.196 81.909,277.209 83.286 C 277.216 83.995,277.381 83.842,277.949 82.600 C 278.436 81.533,279.412 80.499,280.874 79.497 C 292.091 71.811,293.612 60.375,284.610 51.398 C 278.135 44.941,273.014 43.600,254.825 43.600 C 240.200 43.600,240.807 43.789,238.735 38.600 C 235.860 31.397,231.109 26.777,224.097 24.364 C 221.582 23.499,221.046 23.427,221.400 24.000 M207.749 49.397 C 204.661 51.248,204.616 51.497,204.481 67.400 C 204.340 83.913,204.594 85.377,207.916 87.155 C 209.498 88.002,209.794 87.583,208.242 86.693 C 205.208 84.954,205.200 84.904,205.200 68.293 C 205.200 52.230,205.271 51.658,207.468 50.094 C 210.109 48.213,213.757 48.775,215.500 51.330 C 216.395 52.642,216.400 52.732,216.400 68.163 C 216.400 85.500,216.481 84.986,213.445 86.838 C 212.760 87.255,212.453 87.598,212.762 87.599 C 213.859 87.601,215.938 85.589,216.583 83.900 C 217.155 82.403,217.223 80.314,217.119 67.361 L 217.000 52.536 215.876 51.064 C 213.814 48.362,210.582 47.699,207.749 49.397 M166.589 62.589 C 165.288 63.891,164.809 64.682,164.834 65.489 L 164.869 66.600 165.182 65.565 C 166.671 60.652,172.668 59.603,175.515 63.758 C 176.390 65.035,176.400 65.218,176.400 80.345 C 176.400 98.370,176.427 98.252,171.952 99.539 C 170.910 99.839,170.811 99.936,171.520 99.964 C 172.865 100.017,174.615 98.989,175.779 97.463 L 176.800 96.124 176.800 80.400 L 176.800 64.676 175.779 63.337 C 173.329 60.125,169.376 59.803,166.589 62.589 M247.918 61.456 C 247.323 61.770,246.423 62.606,245.918 63.313 L 245.000 64.600 245.000 80.400 C 245.000 95.124,245.050 96.274,245.741 97.293 C 248.059 100.709,253.378 100.961,255.794 97.768 C 256.887 96.323,256.401 96.410,255.031 97.906 C 252.367 100.812,247.337 99.841,245.748 96.113 C 244.828 93.953,244.961 66.278,245.901 64.408 C 247.807 60.614,252.935 60.103,255.565 63.446 C 256.024 64.030,256.394 64.349,256.387 64.154 C 256.299 61.707,250.777 59.948,247.918 61.456 M133.163 62.972 C 132.390 68.514,135.468 74.222,141.805 78.990 C 146.304 82.377,146.000 80.724,146.000 101.793 C 146.000 122.180,145.790 120.861,148.914 120.069 C 149.841 119.833,151.320 119.519,152.200 119.369 C 153.080 119.220,153.578 119.017,153.308 118.918 C 153.037 118.819,151.442 119.022,149.765 119.369 C 148.087 119.716,146.644 120.000,146.557 120.000 C 146.471 120.000,146.400 111.708,146.400 101.574 C 146.400 88.340,146.269 82.901,145.935 82.274 C 145.434 81.332,143.197 79.217,142.691 79.206 C 142.521 79.203,140.969 77.846,139.241 76.191 C 135.230 72.347,133.937 69.732,133.609 64.800 C 133.432 62.138,133.335 61.741,133.163 62.972 M256.600 80.400 C 256.600 88.938,256.735 95.840,256.900 95.738 C 257.065 95.636,257.200 88.734,257.200 80.400 C 257.200 72.066,257.065 65.164,256.900 65.062 C 256.735 64.960,256.600 71.862,256.600 80.400 M276.700 84.933 C 276.535 85.336,276.400 93.284,276.400 102.595 L 276.400 119.524 274.700 119.329 C 273.765 119.222,272.511 118.981,271.914 118.793 C 271.316 118.605,269.516 118.357,267.914 118.243 C 264.848 118.023,265.302 118.194,270.400 119.176 C 271.390 119.367,273.236 119.749,274.502 120.026 C 275.768 120.303,276.895 120.438,277.006 120.327 C 277.117 120.216,277.161 112.042,277.104 102.163 C 277.047 92.283,276.865 84.530,276.700 84.933 M164.818 95.249 C 164.791 96.819,167.432 99.561,169.200 99.799 L 170.600 99.988 169.353 99.551 C 167.416 98.873,166.022 97.549,165.402 95.800 C 164.922 94.445,164.832 94.361,164.818 95.249 M195.800 113.579 C 194.044 113.801,194.270 113.855,197.659 114.016 C 201.836 114.215,202.538 114.542,204.056 117.000 C 204.558 117.813,204.797 117.979,204.799 117.513 C 204.802 115.877,200.473 113.022,198.354 113.263 C 198.049 113.297,196.900 113.440,195.800 113.579 M226.700 113.882 C 227.195 113.978,228.005 113.978,228.500 113.882 C 228.995 113.787,228.590 113.709,227.600 113.709 C 226.610 113.709,226.205 113.787,226.700 113.882 M184.200 114.423 C 183.297 114.597,184.690 114.639,187.400 114.519 C 190.040 114.402,192.275 114.237,192.367 114.153 C 192.665 113.879,185.845 114.105,184.200 114.423 M223.216 115.048 C 221.750 116.282,220.786 117.994,220.834 119.280 C 220.866 120.119,220.898 120.104,221.198 119.106 C 221.786 117.154,223.291 115.123,224.560 114.571 C 225.242 114.274,225.499 114.024,225.131 114.016 C 224.763 114.007,223.901 114.471,223.216 115.048 M230.833 114.153 C 230.925 114.237,233.160 114.405,235.800 114.526 C 239.005 114.673,240.002 114.632,238.800 114.402 C 237.017 114.063,230.512 113.859,230.833 114.153 M176.200 115.200 C 174.450 115.645,177.519 115.662,180.000 115.220 L 181.800 114.900 179.600 114.897 C 178.390 114.896,176.860 115.032,176.200 115.200 M243.200 115.220 C 244.190 115.397,245.630 115.533,246.400 115.523 L 247.800 115.505 246.600 115.200 C 245.940 115.032,244.500 114.896,243.400 114.897 L 241.400 114.900 243.200 115.220 M170.000 116.000 C 168.549 116.465,170.782 116.482,173.000 116.023 L 174.600 115.692 172.800 115.686 C 171.810 115.683,170.550 115.824,170.000 116.000 M250.200 116.023 C 252.418 116.482,254.651 116.465,253.200 116.000 C 252.650 115.824,251.390 115.683,250.400 115.686 L 248.600 115.692 250.200 116.023 M160.400 117.392 C 154.727 118.399,152.960 118.847,155.600 118.608 C 159.530 118.252,169.016 116.500,167.000 116.503 C 166.120 116.504,163.150 116.904,160.400 117.392 M256.200 116.823 C 257.080 117.005,258.340 117.143,259.000 117.130 L 260.200 117.105 259.000 116.800 C 258.340 116.632,257.080 116.494,256.200 116.493 L 254.600 116.492 256.200 116.823 M261.200 117.600 C 261.750 117.776,262.830 117.917,263.600 117.913 L 265.000 117.905 263.800 117.600 C 262.039 117.152,259.801 117.152,261.200 117.600 M156.200 130.628 C 151.937 131.442,149.136 132.052,147.700 132.477 L 146.400 132.862 146.400 140.231 C 146.400 148.693,146.226 148.408,149.942 146.006 C 155.720 142.272,159.226 137.307,160.188 131.500 C 160.475 129.766,160.585 129.791,156.200 130.628 M262.800 130.585 C 262.800 135.558,268.523 143.336,274.652 146.692 C 276.842 147.891,276.800 148.019,276.800 140.125 C 276.800 132.184,277.176 132.912,272.600 131.996 C 271.280 131.731,268.771 131.174,267.024 130.758 C 263.204 129.847,262.800 129.830,262.800 130.585 M350.200 130.264 C 346.661 130.790,340.410 136.143,341.759 137.493 C 341.879 137.613,342.155 137.245,342.371 136.676 C 343.001 135.020,345.467 132.555,347.512 131.539 C 350.813 129.898,382.000 130.394,382.000 132.087 C 382.000 132.259,382.249 132.400,382.553 132.400 C 383.231 132.400,385.692 135.072,386.677 136.876 C 387.355 138.118,387.400 139.990,387.400 167.200 L 387.400 196.200 386.089 198.088 C 384.779 199.975,382.505 202.000,381.696 202.000 C 381.460 202.000,381.202 202.195,381.122 202.434 C 380.933 203.002,364.778 203.706,356.200 203.522 C 347.791 203.341,344.015 201.649,342.371 197.324 C 342.155 196.755,341.879 196.387,341.759 196.507 C 340.787 197.480,345.181 202.036,348.169 203.154 C 350.879 204.168,376.499 204.467,379.754 203.522 C 382.883 202.614,385.850 200.268,386.993 197.800 C 388.322 194.930,388.396 193.313,388.396 167.000 C 388.396 136.421,388.435 136.778,384.637 133.276 C 381.319 130.219,381.548 130.256,365.600 130.166 C 357.790 130.122,350.860 130.166,350.200 130.264 M341.050 139.250 C 340.719 140.904,340.805 193.933,341.140 195.123 C 341.283 195.631,341.400 182.986,341.400 167.023 C 341.400 151.060,341.378 138.000,341.350 138.000 C 341.322 138.000,341.188 138.563,341.050 139.250 M151.400 241.864 C 145.814 242.292,139.696 242.884,139.094 243.056 C 138.437 243.244,138.396 244.095,138.494 255.529 L 138.600 267.800 146.305 267.909 L 154.011 268.017 153.905 254.942 C 153.838 246.615,153.655 241.844,153.400 241.804 C 153.180 241.770,152.280 241.797,151.400 241.864 M269.867 242.267 C 269.350 242.783,269.558 279.398,270.080 279.920 C 270.586 280.426,283.322 280.635,284.567 280.157 C 285.131 279.941,285.200 277.944,285.200 261.749 L 285.200 243.583 284.300 243.209 C 282.695 242.543,270.393 241.740,269.867 242.267 M153.600 255.000 L 153.600 267.600 146.400 267.600 L 139.200 267.600 139.200 255.400 L 139.200 243.200 141.500 243.177 C 142.765 243.164,144.520 243.005,145.400 242.823 C 146.280 242.641,148.485 242.471,150.300 242.446 L 153.600 242.400 153.600 255.000 M279.501 243.045 C 285.046 243.321,284.437 240.998,284.527 262.236 L 284.600 279.400 277.497 279.509 L 270.394 279.618 270.408 260.973 L 270.422 242.327 272.711 242.574 C 273.970 242.709,277.025 242.921,279.501 243.045 M124.200 245.986 C 123.540 246.153,121.920 246.690,120.600 247.180 C 119.280 247.669,117.840 248.176,117.400 248.305 C 116.200 248.658,109.413 252.223,107.935 253.278 C 102.427 257.206,94.376 266.536,95.513 267.673 C 95.698 267.858,102.768 267.962,111.225 267.905 L 126.600 267.800 126.706 256.700 C 126.824 244.380,127.032 245.269,124.200 245.986 M296.969 246.136 C 296.871 246.391,296.838 254.414,296.896 263.964 L 297.000 281.328 298.512 282.175 C 301.217 283.689,304.522 287.382,305.872 290.400 C 306.948 292.805,307.312 294.485,309.388 306.600 C 310.594 313.640,311.765 320.435,311.990 321.700 C 312.216 322.965,312.594 325.125,312.830 326.500 C 313.067 327.875,313.418 329.810,313.611 330.800 C 313.803 331.790,314.165 333.950,314.414 335.600 C 314.663 337.250,315.021 339.410,315.210 340.400 C 315.398 341.390,315.766 343.460,316.028 345.000 C 316.290 346.540,316.706 348.700,316.952 349.800 L 317.400 351.800 320.000 351.906 C 321.430 351.964,325.120 351.874,328.200 351.706 L 333.800 351.400 334.019 332.400 C 334.260 311.452,334.189 312.044,336.972 307.642 C 338.372 305.427,338.554 306.759,334.561 290.000 C 334.010 287.690,333.200 284.270,332.761 282.400 C 328.976 266.291,323.406 257.942,312.200 251.578 C 306.386 248.276,297.382 245.059,296.969 246.136 M255.292 251.246 C 234.767 265.782,188.970 265.863,167.688 251.401 C 166.878 250.851,166.073 250.400,165.899 250.400 C 165.726 250.400,165.633 254.315,165.692 259.100 L 165.800 267.800 190.400 268.018 C 206.620 268.161,215.517 268.387,216.518 268.680 C 221.031 270.000,226.343 274.154,228.436 278.000 L 229.416 279.800 243.608 279.800 L 257.800 279.800 257.905 264.900 C 258.021 248.371,258.180 249.200,255.292 251.246 M230.432 292.900 C 228.392 298.182,228.016 298.811,225.039 301.947 C 223.917 303.127,223.360 303.910,223.800 303.686 C 225.942 302.594,230.800 295.181,230.800 293.004 C 230.800 292.194,290.756 292.077,292.465 292.884 C 293.567 293.404,295.199 296.092,295.207 297.400 C 295.210 297.840,295.387 298.470,295.600 298.800 C 295.926 299.304,295.989 299.279,295.994 298.646 C 296.007 297.062,294.989 294.634,293.772 293.343 L 292.506 292.000 261.643 292.000 L 230.780 292.000 230.432 292.900 M296.049 300.600 C 296.030 301.260,296.293 303.330,296.634 305.200 C 296.975 307.070,297.518 310.220,297.842 312.200 C 298.883 318.572,299.152 320.154,299.606 322.600 C 299.851 323.920,300.220 326.035,300.426 327.300 C 301.018 330.936,301.825 335.602,302.814 341.100 C 303.248 343.514,303.869 347.210,304.247 349.635 L 304.472 351.069 291.170 351.335 C 283.855 351.481,259.224 351.595,236.435 351.589 L 195.000 351.578 194.020 349.991 C 193.482 349.117,192.409 347.817,191.637 347.101 L 190.234 345.800 191.624 347.400 C 192.388 348.280,193.431 349.676,193.940 350.501 L 194.867 352.003 249.933 351.901 L 305.000 351.800 304.893 350.200 C 304.834 349.320,304.624 347.790,304.427 346.800 C 304.229 345.810,303.859 343.650,303.603 342.000 C 303.348 340.350,302.986 338.280,302.800 337.400 C 302.614 336.520,302.252 334.450,301.997 332.800 C 301.741 331.150,301.381 328.990,301.196 328.000 C 301.012 327.010,300.659 325.030,300.413 323.600 C 299.862 320.401,299.399 317.737,298.849 314.600 C 298.617 313.280,298.051 309.950,297.591 307.200 C 296.484 300.585,296.096 298.925,296.049 300.600 M221.400 304.832 C 217.878 307.101,216.421 307.364,206.000 307.609 L 196.200 307.839 205.600 307.914 C 213.199 307.974,215.345 307.869,216.800 307.368 C 219.405 306.470,222.800 304.764,222.800 304.353 C 222.800 303.915,222.847 303.899,221.400 304.832 M194.356 310.500 C 188.094 322.965,182.374 330.330,171.303 340.178 C 168.956 342.266,169.242 342.400,176.062 342.400 C 182.772 342.400,185.073 342.858,188.138 344.802 C 189.162 345.451,189.998 345.851,189.995 345.691 C 189.962 343.761,183.387 342.000,176.215 342.000 L 169.883 342.000 170.901 341.100 C 177.610 335.165,183.223 329.261,186.015 325.200 C 186.545 324.430,187.298 323.451,187.689 323.025 C 188.080 322.598,188.400 322.013,188.400 321.725 C 188.400 321.436,188.547 321.200,188.726 321.200 C 188.905 321.200,189.351 320.615,189.717 319.900 C 190.082 319.185,190.865 317.790,191.456 316.800 C 192.683 314.745,195.307 309.744,195.707 308.700 C 196.311 307.122,195.530 308.163,194.356 310.500 M345.787 340.600 C 345.787 352.700,345.837 357.708,345.900 351.728 C 345.962 345.749,345.962 335.849,345.900 329.728 C 345.838 323.608,345.787 328.500,345.787 340.600 M53.800 354.759 C 51.058 356.360,50.800 357.293,50.800 365.600 C 50.800 377.864,49.385 377.155,73.920 377.181 C 95.733 377.203,95.575 377.168,96.861 382.278 L 97.300 384.018 104.334 383.909 L 111.368 383.800 111.619 382.572 C 111.993 380.739,113.096 379.096,114.625 378.094 L 115.989 377.200 147.248 377.200 C 187.637 377.200,184.401 378.222,184.399 365.474 C 184.399 357.340,184.095 356.337,181.200 354.916 L 179.400 354.033 117.200 354.046 C 58.674 354.058,54.929 354.100,53.800 354.759 " stroke="none" fill="#64b0d9" fill-rule="evenodd"></path><path id="path4" d="M210.000 23.277 C 205.556 23.902,202.361 24.819,198.800 26.492 C 193.058 29.190,188.574 33.155,184.893 38.789 C 181.254 44.360,182.336 43.997,169.326 44.014 C 155.255 44.033,151.091 44.639,145.400 47.499 C 135.833 52.307,131.205 62.581,134.950 70.691 C 136.001 72.964,141.655 79.185,142.691 79.206 C 143.197 79.217,145.434 81.332,145.935 82.274 C 146.269 82.901,146.400 88.340,146.400 101.574 C 146.400 111.708,146.458 120.000,146.529 120.000 C 146.600 120.000,148.895 119.563,151.629 119.028 C 164.320 116.548,183.776 114.003,190.200 113.984 C 191.740 113.979,194.334 113.802,195.964 113.591 C 200.730 112.972,204.005 114.576,205.000 118.017 L 205.400 119.400 213.048 119.508 L 220.697 119.617 220.932 118.441 C 221.969 113.256,226.510 112.807,249.800 115.583 C 255.252 116.233,258.865 116.738,262.400 117.343 C 264.270 117.664,266.880 118.043,268.200 118.185 C 269.520 118.328,271.140 118.599,271.800 118.787 C 272.460 118.975,273.761 119.218,274.692 119.325 L 276.384 119.522 276.516 102.261 C 276.678 81.241,276.570 81.862,280.592 78.990 C 281.916 78.044,283.912 76.310,285.026 75.135 C 286.787 73.278,287.474 72.233,289.250 68.705 C 289.710 67.791,289.702 60.187,289.240 59.295 C 289.043 58.913,288.458 57.732,287.940 56.671 C 286.288 53.281,281.879 49.147,278.000 47.350 C 276.790 46.789,275.487 46.166,275.105 45.965 C 274.723 45.764,273.994 45.600,273.485 45.600 C 272.976 45.600,272.389 45.445,272.180 45.256 C 271.319 44.477,264.354 43.999,253.880 43.999 C 240.115 44.000,240.179 44.024,238.026 38.200 C 235.712 31.942,230.142 26.634,224.000 24.836 C 223.010 24.546,221.840 24.170,221.400 24.001 C 220.518 23.661,214.099 22.767,213.179 22.856 C 212.861 22.886,211.430 23.076,210.000 23.277 M213.327 48.995 C 214.111 49.323,215.258 50.254,215.876 51.064 L 217.000 52.536 217.119 67.361 C 217.223 80.314,217.155 82.403,216.583 83.900 C 214.455 89.473,206.448 88.861,204.809 83.000 C 203.978 80.029,204.434 53.733,205.349 51.894 C 206.786 49.001,210.293 47.727,213.327 48.995 M173.599 61.400 C 174.237 61.729,175.218 62.601,175.779 63.337 L 176.800 64.676 176.800 80.400 L 176.800 96.124 175.779 97.463 C 173.305 100.706,168.937 100.959,166.319 98.009 L 164.800 96.297 164.800 80.338 L 164.800 64.379 166.589 62.589 C 168.593 60.586,171.177 60.147,173.599 61.400 M254.185 61.700 C 257.164 63.652,257.200 63.876,257.200 80.400 C 257.200 94.828,257.182 95.158,256.315 96.782 C 254.122 100.892,248.371 101.169,245.741 97.293 C 245.050 96.274,245.000 95.124,245.000 80.400 L 245.000 64.600 245.918 63.313 C 247.755 60.738,251.578 59.992,254.185 61.700 M350.800 130.748 C 346.873 131.246,343.878 133.428,342.138 137.059 C 340.995 139.444,340.995 194.556,342.138 196.941 C 344.533 201.941,347.513 203.335,356.200 203.522 C 364.778 203.706,380.933 203.002,381.122 202.434 C 381.202 202.195,381.460 202.000,381.696 202.000 C 382.505 202.000,384.779 199.975,386.089 198.088 L 387.400 196.200 387.400 167.200 C 387.400 139.990,387.355 138.118,386.677 136.876 C 385.692 135.072,383.231 132.400,382.553 132.400 C 382.249 132.400,382.000 132.259,382.000 132.087 C 382.000 130.974,357.363 129.916,350.800 130.748 M145.400 242.823 C 144.520 243.005,142.765 243.164,141.500 243.177 L 139.200 243.200 139.200 255.400 L 139.200 267.600 146.400 267.600 L 153.600 267.600 153.600 255.000 L 153.600 242.400 150.300 242.446 C 148.485 242.471,146.280 242.641,145.400 242.823 M270.408 260.973 L 270.394 279.618 277.497 279.509 L 284.600 279.400 284.527 262.236 C 284.437 240.998,285.046 243.321,279.501 243.045 C 277.025 242.921,273.970 242.709,272.711 242.574 L 270.422 242.327 270.408 260.973 M230.800 293.004 C 230.800 294.732,227.543 300.174,225.178 302.400 C 219.943 307.326,217.574 308.000,205.500 308.000 L 196.053 308.000 194.419 311.300 C 193.520 313.115,192.244 315.500,191.583 316.600 C 190.922 317.700,190.082 319.185,189.717 319.900 C 189.351 320.615,188.905 321.200,188.726 321.200 C 188.547 321.200,188.400 321.436,188.400 321.725 C 188.400 322.013,188.080 322.598,187.689 323.025 C 187.298 323.451,186.545 324.430,186.015 325.200 C 183.223 329.261,177.610 335.165,170.901 341.100 L 169.883 342.000 176.215 342.000 C 182.944 342.000,185.683 342.556,188.600 344.513 C 190.277 345.638,194.302 349.861,194.604 350.811 C 194.873 351.662,257.712 352.002,291.170 351.335 L 304.472 351.069 304.247 349.635 C 303.858 347.140,303.241 343.477,302.828 341.200 C 302.608 339.990,302.229 337.830,301.985 336.400 C 301.741 334.970,301.381 332.900,301.185 331.800 C 300.989 330.700,300.654 328.720,300.440 327.400 C 300.226 326.080,299.851 323.920,299.606 322.600 C 299.156 320.180,298.918 318.773,297.840 312.200 C 297.515 310.220,296.979 306.980,296.648 305.000 C 296.318 303.020,295.957 300.860,295.848 300.200 C 295.179 296.176,293.990 293.603,292.465 292.884 C 290.756 292.077,230.800 292.194,230.800 293.004 " stroke="none" fill="#e6e6e6" fill-rule="evenodd"></path></g></svg>