<svg id="svg" version="1.1" xmlns="http://www.w3.org/2000/svg" xmlns:xlink="http://www.w3.org/1999/xlink" width="400" height="400" viewBox="0, 0, 400,400"><g id="svgg"><path id="path0" d="M71.300 0.291 C 70.145 0.374,69.200 0.612,69.200 0.821 C 69.200 1.029,68.480 1.200,67.600 1.200 C 66.720 1.200,66.000 1.380,66.000 1.600 C 66.000 1.820,65.370 2.000,64.600 2.000 C 63.830 2.000,63.200 2.180,63.200 2.400 C 63.200 2.620,62.750 2.800,62.200 2.800 C 61.650 2.800,61.200 2.980,61.200 3.200 C 61.200 3.420,60.750 3.600,60.200 3.600 C 59.650 3.600,59.200 3.780,59.200 4.000 C 59.200 4.220,58.840 4.400,58.400 4.400 C 57.960 4.400,57.600 4.580,57.600 4.800 C 57.600 5.020,57.240 5.200,56.800 5.200 C 56.360 5.200,56.000 5.380,56.000 5.600 C 56.000 5.820,55.766 6.000,55.480 6.000 C 54.744 6.000,52.807 6.941,52.803 7.300 C 52.801 7.465,52.440 7.600,52.000 7.600 C 51.560 7.600,51.200 7.780,51.200 8.000 C 51.200 8.220,50.862 8.400,50.449 8.400 C 50.036 8.400,49.474 8.670,49.200 9.000 C 48.926 9.330,48.488 9.600,48.226 9.600 C 47.965 9.600,47.402 9.920,46.975 10.311 C 46.549 10.702,45.572 11.465,44.804 12.006 C 42.098 13.915,35.600 20.167,35.600 20.862 C 35.600 21.082,34.880 21.954,34.000 22.800 C 33.120 23.646,32.400 24.438,32.400 24.561 C 32.400 24.683,31.681 25.732,30.802 26.892 C 29.923 28.051,29.203 29.210,29.202 29.467 C 29.201 29.723,29.034 29.993,28.831 30.067 C 28.213 30.290,24.800 37.504,24.800 38.587 C 24.800 39.144,24.620 39.600,24.400 39.600 C 24.180 39.600,24.000 40.140,24.000 40.800 C 24.000 41.460,23.820 42.000,23.600 42.000 C 23.380 42.000,23.200 42.450,23.200 43.000 C 23.200 43.550,23.020 44.000,22.800 44.000 C 22.580 44.000,22.400 44.619,22.400 45.376 C 22.400 46.133,22.220 46.864,22.000 47.000 C 21.780 47.136,21.600 47.957,21.600 48.824 C 21.600 49.691,21.420 50.400,21.200 50.400 C 20.978 50.400,20.800 51.459,20.800 52.776 C 20.800 54.083,20.620 55.264,20.400 55.400 C 19.845 55.743,19.845 344.257,20.400 344.600 C 20.620 344.736,20.800 345.917,20.800 347.224 C 20.800 348.541,20.978 349.600,21.200 349.600 C 21.420 349.600,21.600 350.309,21.600 351.176 C 21.600 352.043,21.780 352.864,22.000 353.000 C 22.220 353.136,22.400 353.867,22.400 354.624 C 22.400 355.381,22.580 356.000,22.800 356.000 C 23.020 356.000,23.200 356.540,23.200 357.200 C 23.200 357.860,23.380 358.400,23.600 358.400 C 23.820 358.400,24.000 358.850,24.000 359.400 C 24.000 359.950,24.180 360.400,24.400 360.400 C 24.620 360.400,24.800 360.856,24.800 361.413 C 24.800 362.496,28.213 369.710,28.831 369.933 C 29.034 370.007,29.200 370.244,29.200 370.461 C 29.200 370.944,31.627 374.548,32.077 374.733 C 32.255 374.807,32.400 375.046,32.400 375.265 C 32.400 375.484,33.120 376.354,34.000 377.200 C 34.880 378.046,35.600 378.918,35.600 379.138 C 35.600 379.833,42.098 386.085,44.804 387.994 C 45.572 388.535,46.549 389.298,46.975 389.689 C 47.402 390.080,47.965 390.400,48.226 390.400 C 48.488 390.400,48.926 390.670,49.200 391.000 C 49.474 391.330,50.036 391.600,50.449 391.600 C 50.862 391.600,51.200 391.780,51.200 392.000 C 51.200 392.220,51.560 392.400,52.000 392.400 C 52.440 392.400,52.801 392.535,52.803 392.700 C 52.807 393.059,54.744 394.000,55.480 394.000 C 55.766 394.000,56.000 394.180,56.000 394.400 C 56.000 394.620,56.360 394.800,56.800 394.800 C 57.240 394.800,57.600 394.980,57.600 395.200 C 57.600 395.420,57.960 395.600,58.400 395.600 C 58.840 395.600,59.200 395.780,59.200 396.000 C 59.200 396.220,59.650 396.400,60.200 396.400 C 60.750 396.400,61.200 396.580,61.200 396.800 C 61.200 397.020,61.650 397.200,62.200 397.200 C 62.750 397.200,63.200 397.380,63.200 397.600 C 63.200 397.820,63.830 398.000,64.600 398.000 C 65.370 398.000,66.000 398.180,66.000 398.400 C 66.000 398.620,66.705 398.800,67.567 398.800 C 68.464 398.800,69.204 399.013,69.300 399.300 C 69.544 400.033,142.055 400.033,142.300 399.300 C 142.392 399.025,142.812 398.800,143.233 398.800 C 143.655 398.800,144.000 398.620,144.000 398.400 C 144.000 398.180,144.286 398.000,144.635 398.000 C 145.397 398.000,149.600 393.722,149.600 392.946 C 149.600 392.646,149.780 392.400,150.000 392.400 C 150.220 392.400,150.400 392.040,150.400 391.600 C 150.400 391.160,150.580 390.800,150.800 390.800 C 151.020 390.800,151.200 390.271,151.200 389.624 C 151.200 388.977,151.380 388.336,151.600 388.200 C 152.122 387.878,152.122 380.922,151.600 380.600 C 151.380 380.464,151.200 379.823,151.200 379.176 C 151.200 378.529,151.020 378.000,150.800 378.000 C 150.580 378.000,150.400 377.640,150.400 377.200 C 150.400 376.760,150.220 376.400,150.000 376.400 C 149.780 376.400,149.600 376.126,149.600 375.791 C 149.600 374.999,145.401 370.800,144.609 370.800 C 144.274 370.800,144.000 370.620,144.000 370.400 C 144.000 370.180,143.640 370.000,143.200 370.000 C 142.760 370.000,142.400 369.820,142.400 369.600 C 142.400 369.380,142.040 369.200,141.600 369.200 C 141.160 369.200,140.800 369.020,140.800 368.800 C 140.800 368.537,131.075 368.400,112.424 368.400 C 93.937 368.400,83.961 368.261,83.800 368.000 C 83.664 367.780,82.033 367.600,80.176 367.600 C 78.192 367.600,76.800 367.435,76.800 367.200 C 76.800 366.980,76.260 366.800,75.600 366.800 C 74.940 366.800,74.400 366.620,74.400 366.400 C 74.400 366.180,74.057 366.000,73.638 366.000 C 72.822 366.000,69.488 364.399,69.267 363.900 C 69.193 363.735,68.788 363.600,68.367 363.600 C 67.945 363.600,67.600 363.420,67.600 363.200 C 67.600 362.980,67.333 362.800,67.007 362.800 C 66.681 362.800,65.572 361.993,64.542 361.006 C 63.513 360.020,62.339 359.108,61.935 358.979 C 61.531 358.851,61.200 358.572,61.200 358.360 C 61.200 358.147,60.615 357.386,59.900 356.668 C 59.185 355.950,58.164 354.426,57.632 353.282 C 57.099 352.137,56.514 351.200,56.332 351.200 C 56.149 351.200,56.000 350.840,56.000 350.400 C 56.000 349.960,55.820 349.600,55.600 349.600 C 55.380 349.600,55.200 349.161,55.200 348.624 C 55.200 348.087,55.020 347.536,54.800 347.400 C 54.580 347.264,54.400 346.724,54.400 346.200 C 54.400 345.676,54.220 345.136,54.000 345.000 C 53.780 344.864,53.600 343.874,53.600 342.800 C 53.600 341.726,53.420 340.736,53.200 340.600 C 52.645 340.257,52.645 59.743,53.200 59.400 C 53.420 59.264,53.600 58.274,53.600 57.200 C 53.600 56.126,53.780 55.136,54.000 55.000 C 54.220 54.864,54.400 54.324,54.400 53.800 C 54.400 53.276,54.580 52.736,54.800 52.600 C 55.020 52.464,55.200 51.913,55.200 51.376 C 55.200 50.839,55.380 50.400,55.600 50.400 C 55.820 50.400,56.000 50.040,56.000 49.600 C 56.000 49.160,56.149 48.800,56.332 48.800 C 56.514 48.800,57.099 47.863,57.632 46.718 C 58.164 45.574,59.185 44.050,59.900 43.332 C 60.615 42.614,61.200 41.853,61.200 41.640 C 61.200 41.428,61.531 41.149,61.935 41.021 C 62.339 40.892,63.513 39.980,64.542 38.994 C 65.572 38.007,66.681 37.200,67.007 37.200 C 67.333 37.200,67.600 37.020,67.600 36.800 C 67.600 36.580,67.945 36.400,68.367 36.400 C 68.788 36.400,69.193 36.265,69.267 36.100 C 69.488 35.601,72.822 34.000,73.638 34.000 C 74.057 34.000,74.400 33.820,74.400 33.600 C 74.400 33.380,74.940 33.200,75.600 33.200 C 76.260 33.200,76.800 33.020,76.800 32.800 C 76.800 32.565,78.192 32.400,80.176 32.400 C 82.033 32.400,83.664 32.220,83.800 32.000 C 84.143 31.446,274.657 31.446,275.000 32.000 C 275.136 32.220,276.677 32.400,278.424 32.400 C 280.275 32.400,281.600 32.567,281.600 32.800 C 281.600 33.020,282.140 33.200,282.800 33.200 C 283.460 33.200,284.000 33.380,284.000 33.600 C 284.000 33.820,284.540 34.000,285.200 34.000 C 285.860 34.000,286.400 34.180,286.400 34.400 C 286.400 34.620,286.760 34.800,287.200 34.800 C 287.640 34.800,288.000 34.980,288.000 35.200 C 288.000 35.420,288.360 35.600,288.800 35.600 C 289.240 35.600,289.600 35.780,289.600 36.000 C 289.600 36.220,289.960 36.400,290.400 36.400 C 290.840 36.400,291.200 36.580,291.200 36.800 C 291.200 37.020,291.396 37.200,291.636 37.200 C 291.876 37.200,293.082 38.100,294.316 39.200 C 295.550 40.300,296.704 41.200,296.880 41.200 C 297.056 41.200,297.200 41.394,297.200 41.631 C 297.200 41.869,297.920 42.754,298.800 43.600 C 299.680 44.446,300.400 45.421,300.400 45.769 C 300.400 46.116,300.558 46.400,300.751 46.400 C 300.945 46.400,301.327 46.940,301.600 47.600 C 301.873 48.260,302.255 48.800,302.449 48.800 C 302.642 48.800,302.800 49.160,302.800 49.600 C 302.800 50.040,302.980 50.400,303.200 50.400 C 303.420 50.400,303.600 50.940,303.600 51.600 C 303.600 52.260,303.780 52.800,304.000 52.800 C 304.220 52.800,304.400 53.340,304.400 54.000 C 304.400 54.660,304.580 55.200,304.800 55.200 C 305.020 55.200,305.200 55.999,305.200 56.976 C 305.200 57.953,305.380 58.864,305.600 59.000 C 305.863 59.163,306.000 76.937,306.000 111.024 C 306.000 145.275,306.135 162.800,306.400 162.800 C 306.620 162.800,306.800 163.340,306.800 164.000 C 306.800 164.660,306.980 165.200,307.200 165.200 C 307.420 165.200,307.600 165.560,307.600 166.000 C 307.600 166.440,307.780 166.800,308.000 166.800 C 308.220 166.800,308.400 167.069,308.400 167.397 C 308.400 168.402,312.153 172.395,313.100 172.398 C 313.375 172.399,313.600 172.580,313.600 172.800 C 313.600 173.020,313.960 173.200,314.400 173.200 C 314.840 173.200,315.200 173.336,315.200 173.503 C 315.200 174.170,318.598 174.800,322.200 174.800 C 325.802 174.800,329.200 174.170,329.200 173.503 C 329.200 173.336,329.560 173.200,330.000 173.200 C 330.440 173.200,330.800 173.020,330.800 172.800 C 330.800 172.580,331.041 172.400,331.336 172.400 C 333.006 172.400,338.000 165.654,338.000 163.399 C 338.000 162.876,338.180 162.336,338.400 162.200 C 338.953 161.858,338.953 56.142,338.400 55.800 C 338.180 55.664,338.000 54.393,338.000 52.976 C 338.000 51.525,337.825 50.400,337.600 50.400 C 337.380 50.400,337.200 49.691,337.200 48.824 C 337.200 47.957,337.020 47.136,336.800 47.000 C 336.580 46.864,336.400 46.133,336.400 45.376 C 336.400 44.619,336.220 44.000,336.000 44.000 C 335.780 44.000,335.600 43.550,335.600 43.000 C 335.600 42.450,335.420 42.000,335.200 42.000 C 334.980 42.000,334.800 41.460,334.800 40.800 C 334.800 40.140,334.620 39.600,334.400 39.600 C 334.180 39.600,334.000 39.060,334.000 38.400 C 334.000 37.740,333.820 37.200,333.600 37.200 C 333.380 37.200,333.200 36.840,333.200 36.400 C 333.200 35.960,333.020 35.600,332.800 35.600 C 332.580 35.600,332.400 35.240,332.400 34.800 C 332.400 34.360,332.220 34.000,332.000 34.000 C 331.780 34.000,331.600 33.640,331.600 33.200 C 331.600 32.760,331.420 32.400,331.200 32.400 C 330.980 32.400,330.800 32.080,330.800 31.688 C 330.800 31.297,330.440 30.717,330.000 30.400 C 329.560 30.083,329.200 29.503,329.200 29.112 C 329.200 28.720,329.020 28.400,328.800 28.400 C 328.580 28.400,328.400 28.130,328.400 27.800 C 328.400 27.470,328.220 27.200,328.000 27.200 C 327.780 27.200,327.600 26.970,327.600 26.688 C 327.600 26.407,327.240 25.917,326.800 25.600 C 326.360 25.283,326.000 24.876,326.000 24.695 C 326.000 24.353,325.739 24.012,323.900 21.949 C 323.295 21.271,322.800 20.582,322.800 20.420 C 322.800 19.963,318.788 15.932,317.003 14.596 C 316.124 13.938,314.991 12.995,314.485 12.500 C 313.978 12.005,313.400 11.600,313.200 11.600 C 313.000 11.600,312.386 11.150,311.836 10.600 C 311.286 10.050,310.558 9.600,310.218 9.600 C 309.878 9.600,309.600 9.423,309.600 9.208 C 309.600 8.992,309.150 8.702,308.600 8.564 C 308.050 8.426,307.600 8.186,307.600 8.031 C 307.600 7.876,306.970 7.502,306.200 7.200 C 305.430 6.898,304.800 6.504,304.800 6.325 C 304.800 6.146,304.451 6.000,304.024 6.000 C 303.597 6.000,303.136 5.820,303.000 5.600 C 302.864 5.380,302.403 5.200,301.976 5.200 C 301.549 5.200,301.200 5.020,301.200 4.800 C 301.200 4.580,300.840 4.400,300.400 4.400 C 299.960 4.400,299.600 4.220,299.600 4.000 C 299.600 3.780,299.060 3.600,298.400 3.600 C 297.740 3.600,297.200 3.420,297.200 3.200 C 297.200 2.980,296.840 2.800,296.400 2.800 C 295.960 2.800,295.600 2.620,295.600 2.400 C 295.600 2.180,294.880 2.000,294.000 2.000 C 293.120 2.000,292.400 1.820,292.400 1.600 C 292.400 1.380,291.785 1.200,291.033 1.200 C 290.282 1.200,289.592 0.975,289.500 0.700 C 289.344 0.230,77.683 -0.166,71.300 0.291 M93.600 93.598 C 93.270 93.791,92.415 94.184,91.700 94.472 C 90.985 94.760,90.400 95.131,90.400 95.298 C 90.400 95.464,90.126 95.600,89.791 95.600 C 89.457 95.600,88.197 96.586,86.991 97.791 C 85.786 98.997,84.800 100.257,84.800 100.591 C 84.800 100.926,84.620 101.200,84.400 101.200 C 84.180 101.200,84.000 101.560,84.000 102.000 C 84.000 102.440,83.820 102.800,83.600 102.800 C 83.380 102.800,83.200 103.340,83.200 104.000 C 83.200 104.660,83.020 105.200,82.800 105.200 C 82.559 105.200,82.400 106.867,82.400 109.400 C 82.400 111.933,82.559 113.600,82.800 113.600 C 83.020 113.600,83.200 114.140,83.200 114.800 C 83.200 115.460,83.380 116.000,83.600 116.000 C 83.820 116.000,84.000 116.360,84.000 116.800 C 84.000 117.240,84.180 117.600,84.400 117.600 C 84.620 117.600,84.800 117.886,84.800 118.235 C 84.800 118.997,89.078 123.200,89.854 123.200 C 90.154 123.200,90.400 123.336,90.400 123.502 C 90.400 123.669,90.985 124.074,91.700 124.402 C 93.332 125.153,266.207 125.327,266.715 124.579 C 266.872 124.348,267.630 123.857,268.400 123.489 C 271.406 122.051,275.200 117.174,275.200 114.747 C 275.200 114.142,275.380 113.536,275.600 113.400 C 275.821 113.264,276.000 111.470,276.000 109.400 C 276.000 107.330,275.821 105.536,275.600 105.400 C 275.380 105.264,275.200 104.707,275.200 104.163 C 275.200 101.884,270.627 95.600,268.968 95.600 C 268.656 95.600,268.400 95.420,268.400 95.200 C 268.400 94.980,268.040 94.800,267.600 94.800 C 267.160 94.800,266.800 94.664,266.800 94.497 C 266.800 93.241,263.990 93.200,178.906 93.224 C 131.158 93.237,93.938 93.400,93.600 93.598 M93.600 156.400 C 93.600 156.620,93.150 156.800,92.600 156.800 C 92.050 156.800,91.600 156.980,91.600 157.200 C 91.600 157.420,91.330 157.600,91.000 157.600 C 90.670 157.600,90.400 157.780,90.400 158.000 C 90.400 158.220,90.064 158.400,89.654 158.400 C 88.774 158.400,84.800 162.184,84.800 163.022 C 84.800 163.340,84.620 163.600,84.400 163.600 C 84.180 163.600,84.000 163.960,84.000 164.400 C 84.000 164.840,83.820 165.200,83.600 165.200 C 83.380 165.200,83.200 165.729,83.200 166.376 C 83.200 167.023,83.020 167.664,82.800 167.800 C 82.577 167.938,82.400 169.804,82.400 172.024 C 82.400 174.408,82.560 176.000,82.800 176.000 C 83.020 176.000,83.200 176.540,83.200 177.200 C 83.200 177.860,83.380 178.400,83.600 178.400 C 83.820 178.400,84.000 178.760,84.000 179.200 C 84.000 179.640,84.180 180.000,84.400 180.000 C 84.620 180.000,84.800 180.274,84.800 180.609 C 84.800 181.401,88.999 185.600,89.791 185.600 C 90.126 185.600,90.401 185.735,90.403 185.900 C 90.407 186.259,92.344 187.200,93.080 187.200 C 93.366 187.200,93.600 187.380,93.600 187.600 C 93.600 187.865,122.392 188.000,179.176 188.000 C 235.796 188.000,264.836 187.865,265.000 187.600 C 265.136 187.380,265.597 187.200,266.024 187.200 C 266.451 187.200,266.800 187.020,266.800 186.800 C 266.800 186.580,267.160 186.400,267.600 186.400 C 268.040 186.400,268.400 186.220,268.400 186.000 C 268.400 185.780,268.656 185.600,268.968 185.600 C 270.627 185.600,275.200 179.316,275.200 177.037 C 275.200 176.493,275.380 175.936,275.600 175.800 C 275.821 175.664,276.000 173.870,276.000 171.800 C 276.000 169.730,275.821 167.936,275.600 167.800 C 275.380 167.664,275.198 167.068,275.196 166.476 C 275.188 164.223,270.733 158.400,269.017 158.400 C 268.678 158.400,268.400 158.220,268.400 158.000 C 268.400 157.780,268.040 157.600,267.600 157.600 C 267.160 157.600,266.800 157.420,266.800 157.200 C 266.800 156.980,266.440 156.800,266.000 156.800 C 265.560 156.800,265.200 156.620,265.200 156.400 C 265.200 156.135,236.333 156.000,179.400 156.000 C 122.467 156.000,93.600 156.135,93.600 156.400 M324.000 212.400 C 324.000 212.620,323.201 212.800,322.224 212.800 C 321.247 212.800,320.336 212.980,320.200 213.200 C 320.064 213.420,319.423 213.600,318.776 213.600 C 318.129 213.600,317.600 213.780,317.600 214.000 C 317.600 214.220,317.060 214.400,316.400 214.400 C 315.740 214.400,315.200 214.580,315.200 214.800 C 315.200 215.020,314.865 215.200,314.456 215.200 C 313.493 215.200,308.792 217.582,307.953 218.496 C 307.597 218.883,307.052 219.200,306.741 219.200 C 306.431 219.200,305.917 219.560,305.600 220.000 C 305.283 220.440,304.793 220.800,304.512 220.800 C 304.231 220.800,303.259 221.520,302.352 222.400 C 301.445 223.280,300.531 224.000,300.320 224.000 C 299.985 224.000,212.144 311.755,210.936 313.297 C 209.977 314.521,208.757 317.460,208.528 319.100 C 208.398 320.035,208.136 320.800,207.946 320.800 C 207.756 320.800,207.600 321.419,207.600 322.176 C 207.600 322.933,207.420 323.664,207.200 323.800 C 206.980 323.936,206.800 324.487,206.800 325.024 C 206.800 325.561,206.620 326.000,206.400 326.000 C 206.180 326.000,206.000 326.540,206.000 327.200 C 206.000 327.860,205.820 328.400,205.600 328.400 C 205.380 328.400,205.200 328.929,205.200 329.576 C 205.200 330.223,205.020 330.864,204.800 331.000 C 204.580 331.136,204.400 331.867,204.400 332.624 C 204.400 333.381,204.220 334.000,204.000 334.000 C 203.780 334.000,203.600 334.540,203.600 335.200 C 203.600 335.860,203.420 336.400,203.200 336.400 C 202.980 336.400,202.800 336.940,202.800 337.600 C 202.800 338.260,202.620 338.800,202.400 338.800 C 202.180 338.800,202.000 339.419,202.000 340.176 C 202.000 340.933,201.820 341.664,201.600 341.800 C 201.380 341.936,201.200 342.487,201.200 343.024 C 201.200 343.561,201.020 344.000,200.800 344.000 C 200.580 344.000,200.400 344.529,200.400 345.176 C 200.400 345.823,200.220 346.464,200.000 346.600 C 199.780 346.736,199.600 347.366,199.600 348.000 C 199.600 348.634,199.420 349.264,199.200 349.400 C 198.980 349.536,198.800 350.177,198.800 350.824 C 198.800 351.471,198.620 352.000,198.400 352.000 C 198.180 352.000,198.000 352.540,198.000 353.200 C 198.000 353.860,197.820 354.400,197.600 354.400 C 197.380 354.400,197.200 354.929,197.200 355.576 C 197.200 356.223,197.020 356.864,196.800 357.000 C 196.580 357.136,196.400 357.766,196.400 358.400 C 196.400 359.034,196.220 359.664,196.000 359.800 C 195.780 359.936,195.600 360.476,195.600 361.000 C 195.600 361.524,195.420 362.064,195.200 362.200 C 194.980 362.336,194.800 362.876,194.800 363.400 C 194.800 363.924,194.620 364.464,194.400 364.600 C 194.180 364.736,194.000 365.366,194.000 366.000 C 194.000 366.634,193.820 367.264,193.600 367.400 C 193.380 367.536,193.200 368.166,193.200 368.800 C 193.200 369.434,193.037 370.054,192.837 370.177 C 192.638 370.300,192.351 371.300,192.200 372.400 C 192.049 373.500,191.762 374.500,191.563 374.623 C 191.363 374.746,191.200 375.467,191.200 376.224 C 191.200 376.981,191.020 377.600,190.800 377.600 C 190.580 377.600,190.400 378.320,190.400 379.200 C 190.400 380.080,190.220 380.800,190.000 380.800 C 189.761 380.800,189.600 382.333,189.600 384.600 C 189.600 386.867,189.761 388.400,190.000 388.400 C 190.220 388.400,190.400 388.839,190.400 389.376 C 190.400 389.913,190.580 390.464,190.800 390.600 C 191.020 390.736,191.200 391.197,191.200 391.624 C 191.200 392.051,191.358 392.400,191.551 392.400 C 191.745 392.400,192.132 392.954,192.413 393.631 C 193.057 395.186,195.734 398.000,196.569 398.000 C 196.916 398.000,197.200 398.180,197.200 398.400 C 197.200 398.620,197.545 398.800,197.967 398.800 C 198.388 398.800,198.809 399.025,198.901 399.300 C 199.143 400.020,214.060 400.020,214.300 399.299 C 214.392 399.025,214.992 398.800,215.633 398.800 C 216.275 398.800,216.800 398.620,216.800 398.400 C 216.800 398.180,217.520 398.000,218.400 398.000 C 219.280 398.000,220.000 397.820,220.000 397.600 C 220.000 397.380,220.529 397.200,221.176 397.200 C 221.823 397.200,222.464 397.020,222.600 396.800 C 222.736 396.580,223.377 396.400,224.024 396.400 C 224.671 396.400,225.200 396.220,225.200 396.000 C 225.200 395.780,225.920 395.600,226.800 395.600 C 227.680 395.600,228.400 395.420,228.400 395.200 C 228.400 394.980,228.940 394.800,229.600 394.800 C 230.260 394.800,230.800 394.620,230.800 394.400 C 230.800 394.180,231.520 394.000,232.400 394.000 C 233.280 394.000,234.000 393.820,234.000 393.600 C 234.000 393.380,234.630 393.200,235.400 393.200 C 236.170 393.200,236.800 393.020,236.800 392.800 C 236.800 392.580,237.430 392.400,238.200 392.400 C 238.970 392.400,239.600 392.241,239.600 392.047 C 239.600 391.852,240.770 391.568,242.200 391.415 C 243.630 391.262,244.800 390.971,244.800 390.768 C 244.800 390.566,245.419 390.400,246.176 390.400 C 246.933 390.400,247.664 390.220,247.800 390.000 C 247.936 389.780,248.566 389.600,249.200 389.600 C 249.834 389.600,250.464 389.420,250.600 389.200 C 250.736 388.980,251.366 388.800,252.000 388.800 C 252.634 388.800,253.264 388.620,253.400 388.400 C 253.536 388.180,254.267 388.000,255.024 388.000 C 255.781 388.000,256.400 387.820,256.400 387.600 C 256.400 387.380,256.940 387.200,257.600 387.200 C 258.260 387.200,258.800 387.020,258.800 386.800 C 258.800 386.580,259.520 386.400,260.400 386.400 C 261.280 386.400,262.000 386.220,262.000 386.000 C 262.000 385.780,262.619 385.600,263.376 385.600 C 264.133 385.600,264.864 385.420,265.000 385.200 C 265.136 384.980,265.777 384.800,266.424 384.800 C 267.071 384.800,267.600 384.620,267.600 384.400 C 267.600 384.180,268.219 384.000,268.976 384.000 C 269.733 384.000,270.464 383.820,270.600 383.600 C 270.736 383.380,271.377 383.200,272.024 383.200 C 272.671 383.200,273.200 383.020,273.200 382.800 C 273.200 382.580,273.650 382.400,274.200 382.400 C 274.750 382.400,275.200 382.220,275.200 382.000 C 275.200 381.780,275.560 381.600,276.000 381.600 C 276.440 381.600,276.800 381.420,276.800 381.200 C 276.800 380.980,277.066 380.800,277.392 380.800 C 278.383 380.800,292.011 367.452,339.935 319.544 C 368.081 291.407,369.202 290.260,370.793 287.984 C 371.326 287.223,371.874 286.510,372.011 286.400 C 372.148 286.290,372.696 285.390,373.230 284.400 C 373.763 283.410,374.318 282.510,374.463 282.399 C 374.608 282.289,374.853 281.524,375.008 280.699 C 375.162 279.875,375.449 279.200,375.645 279.200 C 375.840 279.200,376.000 278.840,376.000 278.400 C 376.000 277.960,376.180 277.600,376.400 277.600 C 376.620 277.600,376.800 277.060,376.800 276.400 C 376.800 275.740,376.980 275.200,377.200 275.200 C 377.420 275.200,377.600 274.750,377.600 274.200 C 377.600 273.650,377.780 273.200,378.000 273.200 C 378.220 273.200,378.400 272.480,378.400 271.600 C 378.400 270.720,378.580 270.000,378.800 270.000 C 379.022 270.000,379.200 268.933,379.200 267.600 C 379.200 266.267,379.378 265.200,379.600 265.200 C 379.848 265.200,380.000 263.000,380.000 259.400 C 380.000 255.800,379.848 253.600,379.600 253.600 C 379.378 253.600,379.200 252.533,379.200 251.200 C 379.200 249.867,379.022 248.800,378.800 248.800 C 378.580 248.800,378.400 248.080,378.400 247.200 C 378.400 246.320,378.220 245.600,378.000 245.600 C 377.780 245.600,377.600 245.060,377.600 244.400 C 377.600 243.740,377.420 243.200,377.200 243.200 C 376.980 243.200,376.800 242.750,376.800 242.200 C 376.800 241.650,376.620 241.200,376.400 241.200 C 376.180 241.200,376.000 240.840,376.000 240.400 C 376.000 239.960,375.840 239.600,375.645 239.600 C 375.449 239.600,375.162 238.925,375.008 238.101 C 374.853 237.276,374.608 236.511,374.463 236.401 C 374.318 236.290,373.759 235.390,373.220 234.400 C 372.681 233.410,371.916 232.251,371.520 231.825 C 371.124 231.398,370.800 230.898,370.800 230.714 C 370.800 230.530,370.035 229.583,369.100 228.611 C 368.165 227.638,366.800 226.203,366.066 225.421 C 365.333 224.640,364.553 224.000,364.335 224.000 C 364.116 224.000,363.246 223.280,362.400 222.400 C 361.554 221.520,360.618 220.800,360.320 220.800 C 360.021 220.800,359.517 220.440,359.200 220.000 C 358.883 219.560,358.393 219.200,358.112 219.200 C 357.830 219.200,357.600 219.020,357.600 218.800 C 357.600 218.580,357.330 218.400,357.000 218.400 C 356.670 218.400,356.400 218.220,356.400 218.000 C 356.400 217.780,356.130 217.600,355.800 217.600 C 355.470 217.600,355.200 217.420,355.200 217.200 C 355.200 216.980,354.935 216.800,354.612 216.800 C 354.289 216.800,353.383 216.440,352.600 216.000 C 351.817 215.560,350.821 215.200,350.388 215.200 C 349.955 215.200,349.600 215.020,349.600 214.800 C 349.600 214.580,349.060 214.400,348.400 214.400 C 347.740 214.400,347.200 214.220,347.200 214.000 C 347.200 213.780,346.671 213.600,346.024 213.600 C 345.377 213.600,344.736 213.420,344.600 213.200 C 344.464 212.980,343.553 212.800,342.576 212.800 C 341.599 212.800,340.800 212.620,340.800 212.400 C 340.800 212.146,337.733 212.000,332.400 212.000 C 327.067 212.000,324.000 212.146,324.000 212.400 M93.600 218.800 C 93.600 219.020,93.366 219.200,93.080 219.200 C 92.344 219.200,90.407 220.141,90.403 220.500 C 90.401 220.665,90.126 220.800,89.791 220.800 C 88.231 220.800,83.200 227.222,83.200 229.214 C 83.200 229.620,83.020 230.064,82.800 230.200 C 82.577 230.338,82.400 232.204,82.400 234.424 C 82.400 236.808,82.560 238.400,82.800 238.400 C 83.020 238.400,83.200 238.940,83.200 239.600 C 83.200 240.260,83.380 240.800,83.600 240.800 C 83.820 240.800,84.000 241.160,84.000 241.600 C 84.000 242.040,84.180 242.400,84.400 242.400 C 84.620 242.400,84.800 242.674,84.800 243.009 C 84.800 243.801,88.999 248.000,89.791 248.000 C 90.126 248.000,90.401 248.135,90.403 248.300 C 90.407 248.659,92.344 249.600,93.080 249.600 C 93.366 249.600,93.600 249.780,93.600 250.000 C 93.600 250.554,201.458 250.554,201.800 250.000 C 201.936 249.780,202.397 249.600,202.824 249.600 C 203.251 249.600,203.600 249.420,203.600 249.200 C 203.600 248.980,203.960 248.800,204.400 248.800 C 204.840 248.800,205.200 248.620,205.200 248.400 C 205.200 248.180,205.443 248.000,205.741 248.000 C 206.621 248.000,210.400 243.956,210.400 243.014 C 210.400 242.676,210.535 242.399,210.700 242.397 C 211.101 242.393,212.000 240.419,212.000 239.544 C 212.000 239.161,212.180 238.736,212.400 238.600 C 212.625 238.461,212.800 236.529,212.800 234.176 C 212.800 231.659,212.641 230.000,212.400 230.000 C 212.180 230.000,212.000 229.460,212.000 228.800 C 212.000 228.140,211.864 227.600,211.698 227.600 C 211.531 227.600,211.139 227.021,210.825 226.313 C 210.512 225.604,209.883 224.609,209.428 224.101 C 207.395 221.832,206.242 220.800,205.741 220.800 C 205.443 220.800,205.199 220.665,205.197 220.500 C 205.193 220.141,203.256 219.200,202.520 219.200 C 202.234 219.200,202.000 219.020,202.000 218.800 C 202.000 218.535,183.667 218.400,147.800 218.400 C 111.933 218.400,93.600 218.535,93.600 218.800 M336.400 245.200 C 336.400 245.420,336.940 245.600,337.600 245.600 C 338.260 245.600,338.800 245.780,338.800 246.000 C 338.800 246.220,339.084 246.400,339.431 246.400 C 340.012 246.400,341.834 248.092,343.800 250.457 C 344.926 251.811,346.400 254.736,346.400 255.614 C 346.400 256.020,346.580 256.464,346.800 256.600 C 347.020 256.736,347.200 257.996,347.200 259.400 C 347.200 260.804,347.020 262.064,346.800 262.200 C 346.580 262.336,346.400 262.761,346.400 263.144 C 346.400 264.019,345.501 265.993,345.100 265.997 C 344.935 265.999,344.800 266.278,344.800 266.618 C 344.800 266.958,344.395 267.667,343.900 268.193 C 343.405 268.719,342.550 269.696,342.000 270.363 C 340.533 272.143,340.562 272.161,333.352 265.045 C 317.949 249.845,319.141 251.583,322.300 248.931 C 323.565 247.869,324.660 246.865,324.733 246.700 C 324.807 246.535,325.122 246.400,325.433 246.400 C 325.745 246.400,326.000 246.220,326.000 246.000 C 326.000 245.780,326.540 245.600,327.200 245.600 C 327.860 245.600,328.400 245.420,328.400 245.200 C 328.400 244.960,330.000 244.800,332.400 244.800 C 334.800 244.800,336.400 244.960,336.400 245.200 M306.624 285.067 L 316.850 295.334 313.325 298.941 C 311.386 300.925,307.298 304.990,304.240 307.974 C 301.182 310.958,297.402 314.740,295.840 316.378 C 294.278 318.016,290.950 321.346,288.444 323.778 C 285.938 326.210,282.068 330.072,279.844 332.359 C 277.620 334.647,273.933 338.337,271.651 340.559 C 269.369 342.782,265.648 346.445,263.383 348.700 C 259.946 352.120,259.059 352.800,258.032 352.800 C 257.354 352.800,256.800 352.980,256.800 353.200 C 256.800 353.420,256.271 353.600,255.624 353.600 C 254.977 353.600,254.336 353.780,254.200 354.000 C 254.064 354.220,253.333 354.400,252.576 354.400 C 251.819 354.400,251.200 354.580,251.200 354.800 C 251.200 355.020,250.480 355.200,249.600 355.200 C 248.720 355.200,248.000 355.380,248.000 355.600 C 248.000 355.820,247.460 356.000,246.800 356.000 C 246.140 356.000,245.600 356.180,245.600 356.400 C 245.600 356.620,244.970 356.800,244.200 356.800 C 243.430 356.800,242.800 356.980,242.800 357.200 C 242.800 357.420,242.181 357.600,241.424 357.600 C 240.667 357.600,239.951 357.756,239.833 357.947 C 239.715 358.138,238.669 358.417,237.509 358.566 C 235.341 358.846,233.129 359.431,231.905 360.049 C 231.523 360.242,231.065 360.400,230.886 360.400 C 230.459 360.400,230.783 357.657,231.244 357.373 C 231.440 357.252,231.600 356.724,231.600 356.200 C 231.600 355.676,231.780 355.136,232.000 355.000 C 232.220 354.864,232.400 354.324,232.400 353.800 C 232.400 353.276,232.580 352.736,232.800 352.600 C 233.020 352.464,233.200 351.733,233.200 350.976 C 233.200 350.219,233.380 349.600,233.600 349.600 C 233.820 349.600,234.000 349.060,234.000 348.400 C 234.000 347.740,234.180 347.200,234.400 347.200 C 234.620 347.200,234.800 346.660,234.800 346.000 C 234.800 345.340,234.980 344.800,235.200 344.800 C 235.420 344.800,235.600 344.408,235.600 343.928 C 235.600 343.008,236.260 340.672,236.849 339.505 C 237.042 339.123,237.200 338.536,237.200 338.200 C 237.200 337.864,237.358 337.277,237.551 336.895 C 238.091 335.826,238.800 333.422,238.800 332.660 C 238.800 331.963,239.780 330.804,243.504 327.095 C 244.661 325.943,248.554 322.053,252.156 318.452 C 260.632 309.977,260.753 309.856,268.452 302.155 C 272.053 298.554,275.923 294.683,277.052 293.555 C 285.381 285.225,291.906 278.681,293.659 276.900 C 296.316 274.201,294.932 273.328,306.624 285.067 " stroke="none" fill="#040404" fill-rule="evenodd"></path><path id="path1" d="" stroke="none" fill="#080404" fill-rule="evenodd"></path><path id="path2" d="" stroke="none" fill="#080404" fill-rule="evenodd"></path><path id="path3" d="" stroke="none" fill="#080404" fill-rule="evenodd"></path><path id="path4" d="" stroke="none" fill="#080404" fill-rule="evenodd"></path><path id="path5" d="" stroke="none" fill="#080404" fill-rule="evenodd"></path><path id="path6" d="" stroke="none" fill="#080404" fill-rule="evenodd"></path><path id="path7" d="" stroke="none" fill="#080404" fill-rule="evenodd"></path><path id="path8" d="" stroke="none" fill="#080404" fill-rule="evenodd"></path></g></svg>